<svg xmlns="http://www.w3.org/2000/svg" width="60" height="60" viewBox="0 0 60 60">
    <g fill="none" fill-rule="evenodd">
        <circle cx="30" cy="30" r="29" stroke="#E45555" stroke-width="2"/>
        <path fill="#D0021B" d="M27.275 18.2l-.15-5.7h5.8l-.2 5.7-.8 17.05h-3.85l-.8-17.05zm-1 24.5c0-1.133.358-2.067 1.075-2.8.717-.733 1.608-1.1 2.675-1.1 1.067 0 1.95.367 2.65 1.1.7.733 1.05 1.667 1.05 2.8 0 1.133-.35 2.067-1.05 2.8-.7.733-1.583 1.1-2.65 1.1s-1.958-.367-2.675-1.1c-.717-.733-1.075-1.667-1.075-2.8z"/>
    </g>
</svg>
