<svg id="Layer_1" data-name="Layer 1" xmlns="http://www.w3.org/2000/svg" viewBox="0 0 47.63 45.83"><defs><style>.cls-1,.cls-2{fill:none;stroke-miterlimit:10;stroke-width:3px;}.cls-1{stroke:#6f94c3;stroke-linecap:round;}.cls-2{stroke:#e7d5a6;}</style></defs><title>nye ikoner</title><g id="Layer_1-2" data-name="Layer 1-2"><g id="Layer_1-2-2" data-name="Layer 1-2-2"><path class="cls-1" d="M45.89,32.68a5.19,5.19,0,0,0-4-2c-4.45,0-4.45,4.9-8.91,4.9s-4.45-4.9-8.91-4.9-4.45,4.9-8.9,4.9-4.47-4.9-8.92-4.9a5.18,5.18,0,0,0-4.09,2"/><path class="cls-1" d="M45.89,41.13a5.23,5.23,0,0,0-4-2c-4.45,0-4.45,4.91-8.91,4.91S28.48,39.09,24,39.09,19.57,44,15.12,44s-4.47-4.91-8.92-4.91a5.16,5.16,0,0,0-4.09,2"/><path class="cls-2" d="M30.3,18.76l1.47,4.51A1.14,1.14,0,0,1,30,24.57L25.1,21A1.77,1.77,0,0,0,23,21l-4.9,3.6a1.17,1.17,0,0,1-1.81-1.3l1.9-5.82a1.75,1.75,0,0,0-.64-2L12.68,11.9a1.16,1.16,0,0,1-.41-1.58,1.12,1.12,0,0,1,1-.49h6a1.75,1.75,0,0,0,1.66-1.21L22.86,2.8a1.16,1.16,0,0,1,2.21,0L27,8.62a1.74,1.74,0,0,0,1.66,1.21h6.11a1.17,1.17,0,0,1,.67,2.11L30.5,15.53a1.74,1.74,0,0,0-.64,2l.43,1.3"/></g></g></svg>