<svg id="Layer_1" data-name="Layer 1" xmlns="http://www.w3.org/2000/svg" viewBox="0 0 47.63 45.83"><defs><style>.cls-1,.cls-2{fill:none;stroke-linecap:round;stroke-linejoin:round;stroke-width:3px;}.cls-1{stroke:#6f94c3;}.cls-2{stroke:#bdcfe4;}</style></defs><title>nye ikoner</title><g id="Layer_1-2" data-name="Layer 1-2"><path class="cls-1" d="M3,44c3.54,0,5.25-5.32,5.25-5.32S10,44,13.5,44h0c3.55,0,5.25-5.32,5.25-5.32S20.41,44,24,44s5.25-5.32,5.25-5.32S30.94,44,34.49,44s5.25-5.32,5.25-5.32S41.44,44,45,44"/><path class="cls-2" d="M3,31.78c3.54,0,5.25-5.31,5.25-5.31s1.7,5.31,5.25,5.31h0c3.55,0,5.25-5.31,5.25-5.31s1.72,5.31,5.25,5.31,5.26-5.31,5.26-5.31,1.7,5.31,5.25,5.31,5.25-5.31,5.25-5.31,1.7,5.31,5.24,5.31"/><path class="cls-1" d="M3,19.54c3.54,0,5.25-5.31,5.25-5.31s1.7,5.31,5.25,5.31h0c3.55,0,5.25-5.31,5.25-5.31s1.66,5.31,5.24,5.31,5.25-5.31,5.25-5.31,1.7,5.31,5.25,5.31,5.25-5.31,5.25-5.31,1.7,5.31,5.24,5.31"/><path class="cls-2" d="M3,7.32C6.54,7.32,8.25,2,8.25,2S10,7.32,13.5,7.32h0C17.05,7.32,18.75,2,18.75,2S20.47,7.32,24,7.32,29.26,2,29.26,2,31,7.32,34.51,7.32,39.76,2,39.76,2,41.46,7.32,45,7.32"/></g></svg>