<svg xmlns="http://www.w3.org/2000/svg" width="32" height="32" viewBox="0 0 32 32">
  <path fill="#3B65A3" fill-rule="evenodd" d="M6,8.99420208 C6,7.34054993 7.34331197,6 8.99420208,6 L23.0057979,6 C24.6594501,6 26,7.34331197 26,8.99420208 L26,23.0057979 C26,24.6594501 24.656688,26 23.0057979,26 L8.99420208,26 C7.34054993,26 6,24.656688 6,23.0057979 L6,8.99420208 Z M12.0033512,10 C10.3446462,10 9,11.3486445 9,13.0003297 L9,16.9996703 C9,18.6567066 10.3501484,20 12.0015652,20 L12.5013041,20 C13.0528686,20 13.5,20.4575639 13.5,20.9935975 L13.5,23.5 L15.8490447,20.7594479 C16.2085574,20.3400164 16.9467713,20 17.5013801,20 L19.9973458,20 C21.6556659,20 23,18.6513555 23,16.9996703 L23,13.0003297 C23,11.3432934 21.6576211,10 19.9966488,10 L12.0033512,10 Z M12,17.5 L11.5020511,17.5 L11.5020511,17 L11,17 L11,16.5 L11.5020511,16.5 L11.5020511,17 L12,17 L12,17.5 L20,17.5 L20,17 L20.5,17 L20.5,16.5 L21,16.5 L21,17 L20.5,17 L20.5,17.5 L20,17.5 L20,18 L12,18 L12,17.5 Z M18.75,14.5 C18.3357864,14.5 18,14.1642136 18,13.75 C18,13.3357864 18.3357864,13 18.75,13 C19.1642136,13 19.5,13.3357864 19.5,13.75 C19.5,14.1642136 19.1642136,14.5 18.75,14.5 Z M13.25,14.5 C12.8357864,14.5 12.5,14.1642136 12.5,13.75 C12.5,13.3357864 12.8357864,13 13.25,13 C13.6642136,13 14,13.3357864 14,13.75 C14,14.1642136 13.6642136,14.5 13.25,14.5 Z"/>
</svg>
