<svg xmlns="http://www.w3.org/2000/svg" width="32" height="32" viewBox="0 0 32 32">
  <path fill="#3B65A3" fill-rule="evenodd" d="M8.99420208,6 L23.0057979,6 C24.656688,6 26,7.34054993 26,8.99420208 L26,23.0057979 C26,24.656688 24.6594501,26 23.0057979,26 L8.99420208,26 C7.34331197,26 6,24.6594501 6,23.0057979 L6,8.99420208 C6,7.34331197 7.34054993,6 8.99420208,6 Z M16.0000292,23.0000292 C19.8649042,23.0000292 22.9994458,19.8651958 22.9994458,15.9994458 C22.9994458,12.1336958 19.8649042,9.00002917 16.0000292,9.00002917 C12.1336958,9.00002917 9.00002917,12.1336958 9.00002917,15.9994458 C9.00002917,19.8651958 12.1336958,23.0000292 16.0000292,23.0000292 Z M15.5,16.1999969 L15.5,10.1999969 C15.5,10.1999969 15.5849609,9.80000305 16,9.80000305 C16.4150391,9.80000305 16.5,10.1999969 16.5,10.1999969 L16.5,15.8000031 L19.6000061,18.1999969 C19.6000061,18.1999969 20.161377,18.5612183 19.7999878,19.0000094 C19.4385986,19.4388005 19,19.0000094 19,19.0000094 L15.5,16.1999969 Z"/>
</svg>
