<svg xmlns="http://www.w3.org/2000/svg" width="32" height="32" viewBox="0 0 32 32">
  <path fill="#3B65A3" fill-rule="evenodd" d="M8.99420208,6 C7.34054993,6 6,7.34331197 6,8.99420208 L6,23.0057979 C6,24.6594501 7.34331197,26 8.99420208,26 L23.0057979,26 C24.6594501,26 26,24.656688 26,23.0057979 L26,8.99420208 C26,7.34054993 24.656688,6 23.0057979,6 L8.99420208,6 Z M13,9 L19,9 L19,14.9868164 L17,15 L17,16.9868164 L22,16.9868164 L22,20 L23,20 L23,23 L20,23 L20,18 L17,18 L17,20 L18,20 L18,23 L14,23 L14,20 L15,20 L15,18 L12,18 L12,23 L9,23 L9,20 L10,19.9868164 L10,16.9868164 L15,17 L15,14.9868164 L13,15 L13,9 Z M15,11 L15,13 L17,13 L17,11 L15,11 Z"/>
</svg>
