<svg xmlns="http://www.w3.org/2000/svg" width="288" height="224" viewBox="0 0 288 224" xmlns:xlink="http://www.w3.org/1999/xlink">
  <defs>
    <path id="a" d="M11,11 C10.345,10.876 10,10.689 10,10 C10,10 9.99,9.179 10,9 C10.353,8.497 11.5,8 11.5,7 C12,7 12.5,6.5 12.5,6 C12.5,5.5 12.17,5.246 12,5 L12,4 C12,1.5 9.908,0 8,0 C6.092,0 4,1.5 4,4 L4,5 C3.83,5.247 3.5,5.5 3.5,6 C3.5,6.5 4,7 4.5,7 C4.5,8 5.647,8.497 6,9 C6.009,9.179 6,10 6,10 C6,10.689 5.655,10.876 5,11 C5,11 3.421,11.404 3,11.5 C1.7,11.795 0,13.121 0,14.5 L0,16 L16,16 L16,14.5 C16,13.121 14.298,11.795 13,11.5 C12.578,11.404 11,11 11,11 Z"/>
    <path id="b" d="M43,14.0003297 C43,12.3432934 44.3486445,11 46.0003297,11 L49.9996703,11 C51.6567066,11 53,12.3486445 53,14.0003297 L53,17.9996703 C53,19.6567066 51.6513555,21 49.9996703,21 L46.0003297,21 C44.3432934,21 43,19.6513555 43,17.9996703 L43,14.0003297 Z"/>
    <path id="c" d="M11,14.0003297 C11,12.3432934 12.3486445,11 14.0003297,11 L17.9996703,11 C19.6567066,11 21,12.3486445 21,14.0003297 L21,17.9996703 C21,19.6567066 19.6513555,21 17.9996703,21 L14.0003297,21 C12.3432934,21 11,19.6513555 11,17.9996703 L11,14.0003297 Z"/>
    <filter id="d" width="140%" height="140%" x="-20%" y="-20%" filterUnits="objectBoundingBox">
      <feGaussianBlur stdDeviation="1.5" in="SourceAlpha" result="shadowBlurInner1"/>
      <feOffset dy="1" in="shadowBlurInner1" result="shadowOffsetInner1"/>
      <feComposite in="shadowOffsetInner1" in2="SourceAlpha" operator="arithmetic" k2="-1" k3="1" result="shadowInnerInner1"/>
      <feColorMatrix values="0 0 0 0 1 0 0 0 0 1 0 0 0 0 1 0 0 0 1 0" in="shadowInnerInner1"/>
    </filter>
  </defs>
  <g fill="none" fill-rule="evenodd">
    <path fill="#CDCDCD" d="M16.1923882,174.778175 L23.9705627,167 L25.3847763,168.414214 L17.6066017,176.192388 L25.3847763,183.970563 L23.9705627,185.384776 L16.1923882,177.606602 L8.41421356,185.384776 L7,183.970563 L14.7781746,176.192388 L7,168.414214 L8.41421356,167 L16.1923882,174.778175 Z"/>
    <g fill="#BBBBBB" transform="translate(34 135)">
      <rect width="17" height="2" y="14"/>
      <rect width="17" height="2" y="8"/>
      <rect width="17" height="2" y="2"/>
      <polygon points="27.5 5 24 0 20.5 5 23 5 23 13 20.5 13 24 18 27.5 13 25 13 25 5"/>
    </g>
    <g fill="#CCCCCC" transform="translate(2 135)">
      <rect width="17" height="2" y="14"/>
      <rect width="17" height="2" y="8"/>
      <rect width="17" height="2" y="2"/>
      <polygon points="27.5 5 24 0 20.5 5 23 5 23 13 20.5 13 24 18 27.5 13 25 13 25 5"/>
    </g>
    <path fill="#FFFFFF" d="M269.823179,192.581374 C269.276062,192.581299 268.832521,193.029341 268.832503,193.584692 L268.831719,217.782064 L271.831719,223.582064 L274.831719,217.782064 L274.831719,193.585485 C274.831719,193.031311 274.380805,192.582002 273.841076,192.581928 L269.823179,192.581374 Z M272.331719,193.582064 L272.331719,217.08079 C272.331719,217.357636 272.099786,217.582064 271.831719,217.582064 L271.831719,217.582064 C271.555577,217.582064 271.331719,217.359799 271.331719,217.08079 L271.331719,193.582064 L269.831719,193.582064 L269.831719,217.582064 L270.931719,219.682064 L272.731719,219.682064 L273.831719,217.582064 L273.831719,193.582064 L272.331719,193.582064 Z" transform="rotate(45 271.832 208.082)"/>
    <path fill="#3B65A3" d="M237.823179,192.581374 C237.276062,192.581299 236.832521,193.029341 236.832503,193.584692 L236.831719,217.782064 L239.831719,223.582064 L242.831719,217.782064 L242.831719,193.585485 C242.831719,193.031311 242.380805,192.582002 241.841076,192.581928 L237.823179,192.581374 Z M240.331719,193.582064 L240.331719,217.08079 C240.331719,217.357636 240.099786,217.582064 239.831719,217.582064 L239.831719,217.582064 C239.555577,217.582064 239.331719,217.359799 239.331719,217.08079 L239.331719,193.582064 L237.831719,193.582064 L237.831719,217.582064 L238.931719,219.682064 L240.731719,219.682064 L241.831719,217.582064 L241.831719,193.582064 L240.331719,193.582064 Z" transform="rotate(45 239.832 208.082)"/>
    <path fill="#FFFFFF" d="M204.378679,197.496952 L204.37868,214.467514 L206.5,218.003048 L208.62132,214.467515 L208.62132,197.496952 L204.378679,197.496952 Z M205.368625,198.486897 L205.36863,214.184671 L205.934314,215.174621 L207.065681,215.174617 L207.631375,214.184676 L207.631369,198.486902 L205.368625,198.486897 Z" transform="rotate(45 206.5 207.75)"/>
    <path fill="#7A7A7A" d="M172.378679,197.496952 L172.37868,214.467514 L174.5,218.003048 L176.62132,214.467515 L176.62132,197.496952 L172.378679,197.496952 Z M173.368625,198.486897 L173.36863,214.184671 L173.934314,215.174621 L175.065681,215.174617 L175.631375,214.184676 L175.631369,198.486902 L173.368625,198.486897 Z" transform="rotate(45 174.5 207.75)"/>
    <path fill="#3B65A3" d="M140.378679,197.496952 L140.37868,214.467514 L142.5,218.003048 L144.62132,214.467515 L144.62132,197.496952 L140.378679,197.496952 Z M141.368625,198.486897 L141.36863,214.184671 L141.934314,215.174621 L143.065681,215.174617 L143.631375,214.184676 L143.631369,198.486902 L141.368625,198.486897 Z" transform="rotate(45 142.5 207.75)"/>
    <polygon fill="#3B65A3" points="106 200.25 114.5 208.75 110 213.25 111.5 214.75 117.5 208.75 107.5 198.75" transform="rotate(90 111.75 206.75)"/>
    <polygon fill="#7A7A7A" points="74 200.25 82.5 208.75 78 213.25 79.5 214.75 85.5 208.75 75.5 198.75" transform="rotate(90 79.75 206.75)"/>
    <polygon fill="#FFFFFF" points="42 200.25 50.5 208.75 46 213.25 47.5 214.75 53.5 208.75 43.5 198.75" transform="rotate(90 47.75 206.75)"/>
    <polygon fill="#118A21" points="10 200.25 18.5 208.75 14 213.25 15.5 214.75 21.5 208.75 11.5 198.75" transform="rotate(90 15.75 206.75)"/>
    <g stroke="#ACACAC" transform="translate(98 136)">
      <path d="M0,8 C0,8 5.14516129,16 14.5,16 C23.8548387,16 29,8 29,8 C29,8 23.8548387,0 14.5,0 C5.14516129,0 0,8 0,8 Z"/>
      <circle cx="14.533" cy="8" r="3.733"/>
    </g>
    <g stroke="#FFFFFF" transform="translate(66 136)">
      <path d="M0,8 C0,8 5.14516129,16 14.5,16 C23.8548387,16 29,8 29,8 C29,8 23.8548387,0 14.5,0 C5.14516129,0 0,8 0,8 Z"/>
      <circle cx="14.533" cy="8" r="3.733"/>
    </g>
    <polygon fill="#BBBBBB" points="112 107 107 111.5 108 112.5 111.5 109.4 111.5 117.5 112.5 117.5 112.5 109.4 116 112.5 117 111.5" transform="rotate(-180 112 112.25)"/>
    <polygon fill="#BBBBBB" points="80 107 75 111.5 76 112.5 79.5 109.4 79.5 117.5 80.5 117.5 80.5 109.4 84 112.5 85 111.5"/>
    <path fill="#FFFFFF" d="M151,75 L137,75 L137,73 L151,73 L151,75 Z M151,77 L151,83 L142,83 L142,77 L151,77 Z M151,85 L151,87 L137,87 L137,85 L151,85 Z M137,83 L137,81 L140,81 L140,83 L137,83 Z M137,79 L137,77 L140,77 L140,79 L137,79 Z"/>
    <path fill="#3B65A3" d="M119,75 L105,75 L105,73 L119,73 L119,75 Z M119,77 L119,83 L110,83 L110,77 L119,77 Z M119,85 L119,87 L105,87 L105,85 L119,85 Z M105,83 L105,81 L108,81 L108,83 L105,83 Z M105,79 L105,77 L108,77 L108,79 L105,79 Z"/>
    <g transform="translate(72 72)">
      <path fill="#CCCCCC" d="M3,12 L1,12 L1,11 L3,11 L3,8 L1,8 L1,7 L3,7 L3,4 L4,4 L4,7 L7,7 L7,4 L8,4 L8,7 L11,7 L11,4 L12,4 L12,7 L15,7 L15,8 L12,8 L12,11 L15,11 L15,12 L12,12 L12,15 L11,15 L11,12 L8,12 L8,15 L7,15 L7,12 L4,12 L4,15 L3,15 L3,12 Z M4,8 L4,11 L7,11 L7,8 L4,8 Z M8,8 L8,11 L11,11 L11,8 L8,8 Z"/>
      <path fill="#7A7A7A" d="M0,4 L16,4 L16,16 L0,16 L0,4 Z M1,4 L15,4 L15,15 L1,15 L1,4 Z"/>
      <path fill="#D0021B" d="M10,13 C11.6568542,13 13,11.6568542 13,10 C13,8.34314575 11.6568542,7 10,7 C8.34314575,7 7,8.34314575 7,10 C7,11.6568542 8.34314575,13 10,13 Z M10,12 C11.1045695,12 12,11.1045695 12,10 C12,8.8954305 11.1045695,8 10,8 C8.8954305,8 8,8.8954305 8,10 C8,11.1045695 8.8954305,12 10,12 Z"/>
      <path fill="#B11F24" d="M0,2 C0,0.8954305 0.894513756,0 1.99406028,0 L14.0059397,0 C15.1072288,0 16,0.887729645 16,2 L16,4 L0,4 L0,2 Z"/>
      <path fill="#F53137" d="M1,2 C1,1.44771525 1.44994876,1 2.00684547,1 L13.9931545,1 C14.5492199,1 15,1.44386482 15,2 L15,3 L1,3 L1,2 Z"/>
    </g>
    <path fill="#FFFFFF" d="M55,107 L41,107 L41,105 L55,105 L55,107 Z M55,109 L55,115 L41,115 L41,109 L55,109 Z M55,117 L55,119 L41,119 L41,117 L55,117 Z"/>
    <path fill="#3B65A3" d="M23,107 L9,107 L9,105 L23,105 L23,107 Z M23,109 L23,115 L9,115 L9,109 L23,109 Z M23,117 L23,119 L9,119 L9,117 L23,117 Z"/>
    <path fill="#FFFFFF" d="M55,75 L41,75 L41,73 L55,73 L55,75 Z M55,77 L55,79 L52,79 L52,77 L55,77 Z M55,81 L55,83 L52,83 L52,81 L55,81 Z M55,85 L55,87 L41,87 L41,85 L55,85 Z M41,83 L41,77 L50,77 L50,83 L41,83 Z"/>
    <path fill="#3B65A3" d="M23,75 L9,75 L9,73 L23,73 L23,75 Z M23,77 L23,79 L20,79 L20,77 L23,77 Z M23,81 L23,83 L20,83 L20,81 L23,81 Z M23,85 L23,87 L9,87 L9,85 L23,85 Z M9,83 L9,77 L18,77 L18,83 L9,83 Z"/>
    <g transform="translate(73 40)">
      <path stroke="#D7272D" d="M1.54339977,4.5 L2.46006644,15.5 L11.5399336,15.5 L12.4566002,4.5 L1.54339977,4.5 Z"/>
      <rect width="1" height="6" x="5" y="7" fill="#D7272D"/>
      <rect width="1" height="6" x="8" y="7" fill="#D7272D"/>
      <path fill="#D7272D" d="M0,2 L5,2 L5,0 L9,0 L9,2 L14,2 L14,3 L0,3 L0,2 Z M6,1 L8,1 L8,2 L6,2 L6,1 Z"/>
    </g>
    <g transform="translate(39 40)">
      <path fill="#3B65A3" d="M0,0 L1,0 L1,5 L5,5 L5,5 C5,3.8954305 5.90195036,3 7.0085302,3 L14.9914698,3 C16.1007504,3 17,3.8938998 17,5.0048815 L17,5.9951185 C17,7.10238398 16.0980496,8 14.9914698,8 L7.0085302,8 C5.8992496,8 5,7.10529494 5,6 L5,6 L1,6 L1,13 L5,13 L5,13 C5,11.8954305 5.90195036,11 7.0085302,11 L14.9914698,11 C16.1007504,11 17,11.8938998 17,13.0048815 L17,13.9951185 C17,15.102384 16.0980496,16 14.9914698,16 L7.0085302,16 C5.8992496,16 5,15.1052949 5,14 L5,14 L0,14 L0,0 Z"/>
      <rect width="10" height="3" x="6" y="4" fill="#FFFFFF" rx="1.5"/>
      <rect width="10" height="3" x="6" y="12" fill="#FFFFFF" rx="1.5"/>
    </g>
    <g transform="translate(7 40)">
      <use fill="#FFFFFF" xlink:href="#a"/>
      <path stroke="#3B65A3" d="M10.8909322,11.4882028 C9.95051002,11.3066143 9.50000021,10.9039584 9.50003709,10.0060897 C9.4994735,9.95980386 9.4994735,9.95980386 9.49779654,9.78484986 C9.49664963,9.64376332 9.49664963,9.64376332 9.4958579,9.48483178 C9.49487816,9.23066574 9.49606929,9.05640416 9.50077843,8.97211053 L9.50873959,8.82960576 L9.59072837,8.71277756 C9.6006053,8.69882818 9.6006053,8.69882818 9.61061566,8.68516365 C9.70385652,8.55891882 9.8195422,8.44266723 9.98206369,8.30128466 C10.0515672,8.24082136 10.3161482,8.02064207 10.3727978,7.97189353 C10.8151025,7.59127808 11,7.31950684 11,7 L11,6.5 L11.5,6.5 C11.7238576,6.5 12,6.22385763 12,6 C12,5.85033078 11.9518332,5.74256707 11.8200738,5.57651427 C11.862438,5.63003616 11.6380858,5.35577433 11.5886633,5.28425709 L11.5,5.15595613 L11.5,4 C11.5,1.98254147 9.85788316,0.5 8,0.5 C6.14211684,0.5 4.5,1.98254147 4.5,4 L4.5,5.15543616 L4.41187494,5.28347668 C4.36192085,5.35605704 4.1231135,5.64839717 4.17328078,5.58524188 C4.04777298,5.74369248 4,5.85079561 4,6 C4,6.22385763 4.27614237,6.5 4.5,6.5 L5,6.5 L5,7 C5,7.31950684 5.1848975,7.59127808 5.62720221,7.97189353 C5.6838518,8.02064207 5.94843278,8.24082136 6.01793631,8.30128466 C6.1804578,8.44266723 6.29614348,8.55891882 6.38938434,8.68516365 C6.3993947,8.69882818 6.3993947,8.69882818 6.40927163,8.71277756 L6.49212633,8.83083964 L6.49936919,8.97489205 C6.50353552,9.05775573 6.50460568,9.23171537 6.50372822,9.48463905 C6.50301633,9.64342335 6.50301633,9.64342335 6.5019848,9.78441675 C6.50047647,9.95926242 6.50047647,9.95926242 6.5,10 C6.5,10.9090554 6.04436051,11.31117 5.12393671,11.4843962 C5.06013173,11.5007212 5.06013173,11.5007212 4.80452126,11.5658533 C4.56452691,11.6269228 4.32347245,11.6879956 4.09693361,11.745019 C4.08393298,11.7482912 4.08393298,11.7482912 4.07092931,11.7515629 C3.61085458,11.8673073 3.27549711,11.9500133 3.11064843,11.9876032 C1.84283613,12.2752991 0.5,13.5112798 0.5,14.5 L0.5,15.5 L15.5,15.5 L15.5,14.5 C15.5,13.5119072 14.1561393,12.2755096 12.8890896,11.9875437 C12.7243412,11.9500654 12.3890849,11.8674163 11.9293608,11.7517422 C11.9159924,11.7483782 11.9159924,11.7483782 11.9026273,11.7450137 C11.6761176,11.6879869 11.4351393,11.6269113 11.1952499,11.565839 C10.961273,11.5061884 10.9415728,11.501166 10.8909322,11.4882028 Z M4.17328078,5.58524188 C4.17695274,5.58061929 4.18217284,5.57409216 4.18912846,5.56543494 C4.1857361,5.56965719 4.18239665,5.57384116 4.17910955,5.57798842 Z"/>
      <circle cx="13" cy="11" r="5" fill="#3B65A3"/>
      <circle cx="13" cy="11" r="4" fill="#FFFFFF"/>
      <path fill="#3B65A3" d="M14.699,9.45437385 L12.314,12.0437812 L11.401,11.0541018 C11.213,10.8490605 10.897,10.8378949 10.694,11.0297404 C10.493,11.2205709 10.483,11.5423436 10.671,11.7463698 L11.948,13.132936 C11.952,13.1369963 11.957,13.1390264 11.961,13.1420716 C11.966,13.1471468 11.967,13.1532372 11.972,13.1572974 C12.002,13.1857189 12.038,13.2019598 12.072,13.2212459 C12.091,13.2324115 12.106,13.2476374 12.126,13.2557578 C12.186,13.2801191 12.25,13.2943299 12.314,13.2943299 C12.377,13.2943299 12.44,13.2801191 12.501,13.2557578 C12.522,13.2476374 12.538,13.2313965 12.557,13.2202308 C12.591,13.2009448 12.626,13.1847039 12.655,13.1572974 C12.66,13.1532372 12.661,13.1471468 12.665,13.1430866 C12.669,13.1390264 12.675,13.1380113 12.679,13.1339511 L15.43,10.148672 C15.618,9.94363074 15.607,9.62287311 15.406,9.43102757 C15.204,9.23918202 14.889,9.25136269 14.699,9.45437385"/>
    </g>
    <g fill="#3B65A3" transform="translate(104 8)">
      <path d="M2.00138927,0 C0.896052496,0 0,0.894938439 0,2.00138927 L0,45.9986107 C0,47.1039475 0.894938439,48 2.00138927,48 L45.9986107,48 C47.1039475,48 48,47.1050616 48,45.9986107 L48,2.00138927 C48,0.896052496 47.1050616,0 45.9986107,0 L2.00138927,0 Z M2,2 L2,46 L3,46 L20,29 L26,34 L39,22 L46,29 L46,2 L2,2 Z"/>
      <path d="M11.5,19 C14.5375661,19 17,16.5375661 17,13.5 C17,10.4624339 14.5375661,8 11.5,8 C8.46243388,8 6,10.4624339 6,13.5 C6,16.5375661 8.46243388,19 11.5,19 Z M11.5,17 C13.4329966,17 15,15.4329966 15,13.5 C15,11.5670034 13.4329966,10 11.5,10 C9.56700338,10 8,11.5670034 8,13.5 C8,15.4329966 9.56700338,17 11.5,17 Z"/>
    </g>
    <polygon fill="#E0E0E0" points="80 11 75 15.5 76 16.5 79.5 13.4 79.5 21.5 80.5 21.5 80.5 13.4 84 16.5 85 15.5"/>
    <use fill="#F5F5F5" xlink:href="#b"/>
    <path stroke="#CCCCCC" d="M43.5,14.0003297 L43.5,17.9996703 C43.5,19.377199 44.6214195,20.5 46.0003297,20.5 L49.9996703,20.5 C51.377199,20.5 52.5,19.3785805 52.5,17.9996703 L52.5,14.0003297 C52.5,12.622801 51.3785805,11.5 49.9996703,11.5 L46.0003297,11.5 C44.622801,11.5 43.5,12.6214195 43.5,14.0003297 Z"/>
    <g>
      <use fill="#18CC30" xlink:href="#c"/>
      <use fill="black" filter="url(#d)" xlink:href="#c"/>
      <path stroke="#18CC30" d="M11.5,14.0003297 L11.5,17.9996703 C11.5,19.377199 12.6214195,20.5 14.0003297,20.5 L17.9996703,20.5 C19.377199,20.5 20.5,19.3785805 20.5,17.9996703 L20.5,14.0003297 C20.5,12.622801 19.3785805,11.5 17.9996703,11.5 L14.0003297,11.5 C12.622801,11.5 11.5,12.6214195 11.5,14.0003297 Z"/>
    </g>
  </g>
</svg>
