<svg xmlns="http://www.w3.org/2000/svg" width="32" height="32" viewBox="0 0 32 32">
  <path fill="#3B65A3" fill-rule="evenodd" d="M8.99420208,6 C7.34054993,6 6,7.34331197 6,8.99420208 L6,23.0057979 C6,24.6594501 7.34331197,26 8.99420208,26 L23.0057979,26 C24.6594501,26 26,24.656688 26,23.0057979 L26,8.99420208 C26,7.34054993 24.656688,6 23.0057979,6 L8.99420208,6 Z M17.809994,16.6337138 C17.6971329,16.6014678 17.5802428,16.5692222 17.4593202,16.5369762 C17.3383976,16.5047302 17.210759,16.4751718 17.0764006,16.4483001 C16.9420421,16.4214284 16.7942501,16.3985878 16.63302,16.3797776 C16.4717898,16.3609674 16.2944394,16.3515625 16.1009632,16.3515625 C15.5689038,16.3515625 15.1523989,16.4644219 14.851436,16.6901441 C14.5504731,16.9158662 14.3999939,17.2625058 14.3999939,17.7300732 C14.3999939,17.9396723 14.4349266,18.1210535 14.504793,18.2742221 C14.5746593,18.4273907 14.6700524,18.5563729 14.790975,18.6611725 C14.9118976,18.7659721 15.0543154,18.8438988 15.2182327,18.894955 C15.38215,18.9460112 15.5581569,18.9715389 15.7462587,18.9715389 C15.9504835,18.9715389 16.1506746,18.9446676 16.3468379,18.8909243 C16.5430012,18.8371809 16.7284131,18.765972 16.9030791,18.6772954 C17.077745,18.5886189 17.2416599,18.4851644 17.3948285,18.366929 C17.5479971,18.2486936 17.6863842,18.1277728 17.809994,18.004163 L17.809994,16.6337138 Z M17.9277538,19.0448085 C17.8141608,19.1746289 17.6816378,19.3030952 17.5301806,19.430211 C17.3787234,19.5573269 17.205632,19.6709181 17.0109013,19.7709881 C16.8161706,19.871058 16.5998064,19.9508423 16.3618022,20.0103434 C16.123798,20.0698444 15.864161,20.0995945 15.5828833,20.0995945 C15.225877,20.0995945 14.8972739,20.0455034 14.597064,19.9373197 C14.2968542,19.829136 14.0385694,19.6736242 13.822202,19.4707797 C13.6058346,19.2679353 13.4368,19.0245255 13.3150933,18.7405433 C13.1933866,18.456561 13.1325342,18.1360715 13.1325342,17.7790652 C13.1325342,17.395013 13.2015003,17.0515348 13.3394345,16.7486204 C13.4773688,16.445706 13.6707443,16.1887735 13.9195669,15.9778152 C14.1683894,15.766857 14.4672425,15.6045838 14.816135,15.4909909 C15.1650275,15.377398 15.5504262,15.3206024 15.9723427,15.3206024 C16.3834409,15.3206024 16.7336804,15.3557616 17.0230719,15.426081 C17.3124634,15.4964004 17.5815663,15.577537 17.8303889,15.6694932 L17.8628438,15.6694932 L17.8628438,15.2151238 C17.8628438,14.9284369 17.8303892,14.6687999 17.765479,14.4362049 C17.7005688,14.2036099 17.5923867,14.0048253 17.4409294,13.8398451 C17.2894722,13.6748649 17.0906876,13.547751 16.8445696,13.4584994 C16.5984517,13.3692478 16.291485,13.3246227 15.9236603,13.3246227 C15.5341989,13.3246227 15.167732,13.3611342 14.8242487,13.4341582 C14.4807654,13.5071822 14.1386395,13.6086029 13.7978608,13.7384234 L13.7978608,12.6836373 C13.9330904,12.6187271 14.0872499,12.5578747 14.2603439,12.5010782 C14.4334378,12.4442818 14.6173474,12.3955998 14.8120781,12.3550309 C15.0068088,12.314462 15.2123548,12.2833597 15.4287223,12.2617229 C15.6450897,12.2400862 15.8614539,12.229268 16.0778213,12.229268 C16.5971032,12.229268 17.0474112,12.2968818 17.4287588,12.4321115 C17.8101065,12.5673411 18.1265391,12.7566598 18.3780663,13.0000732 C18.6295934,13.2434865 18.8162075,13.5382828 18.9379142,13.8844707 C19.0596209,14.2306586 19.1204733,14.614705 19.1204733,15.0366216 L19.1204733,18.2090934 C19.1204733,18.4903711 19.1637462,18.6972693 19.2502932,18.8297944 C19.3368401,18.9623194 19.5018178,19.028581 19.7452312,19.028581 C20.0427365,19.028581 20.3158963,18.9339216 20.5647188,18.7446001 C20.8135414,18.5552786 21.027201,18.2983461 21.2057042,17.973795 C21.3842073,17.6492438 21.5234918,17.2706064 21.6235617,16.8378715 C21.7236317,16.4051366 21.7736659,15.9453627 21.7736659,15.458536 C21.7736659,14.5822478 21.62762,13.8100981 21.335524,13.1420636 C21.0434279,12.4740291 20.6431542,11.9141867 20.1346907,11.4625197 C19.6262272,11.0108526 19.0339302,10.670079 18.3577819,10.4401886 C17.6816336,10.2102982 16.9568136,10.0953547 16.1832999,10.0953547 C15.4963333,10.0953547 14.8756385,10.1737867 14.3211969,10.3306531 C13.7667553,10.4875195 13.2731745,10.705236 12.8404396,10.9838091 C12.4077047,11.2623822 12.0358288,11.5963944 11.7248006,11.9858558 C11.4137724,12.3753172 11.1581921,12.8012842 10.9580523,13.2637697 C10.7579124,13.7262551 10.609162,14.2171314 10.5117966,14.7364132 C10.4144313,15.2556951 10.3657493,15.7884919 10.3657493,16.3348197 C10.3657493,17.2111079 10.491511,18.0157123 10.7430382,18.748657 C10.9945653,19.4816017 11.3718504,20.114467 11.8749047,20.6472718 C12.377959,21.1800767 13.0054152,21.5952255 13.7572921,21.8927307 C14.509169,22.190236 15.385444,22.3389863 16.3861434,22.3389863 C16.8567426,22.3389863 17.3056983,22.3159976 17.733024,22.2700196 C18.1603497,22.2240415 18.5606235,22.1631891 18.9338574,22.0874604 C19.3070912,22.0117318 19.6492171,21.9265384 19.9602453,21.8318777 C20.2712735,21.7372169 20.5457856,21.6385008 20.7837898,21.5357262 L20.7837898,22.6310809 C20.5403764,22.7284463 20.2550461,22.8244579 19.9277903,22.9191187 C19.6005346,23.0137794 19.2421814,23.0976205 18.85272,23.1706446 C18.4632586,23.2436686 18.0508143,23.3018164 17.6153748,23.3450899 C17.1799353,23.3883634 16.7350364,23.4099998 16.2806648,23.4099998 C15.6261533,23.4099998 14.9946403,23.3437383 14.3861068,23.2112133 C13.7775734,23.0786882 13.2069128,22.8812559 12.674108,22.6189103 C12.1413031,22.3565648 11.655836,22.0306662 11.2176919,21.6412048 C10.7795478,21.2517434 10.403615,20.7973786 10.0898822,20.2780967 C9.77614942,19.7588149 9.5327397,19.1759838 9.35964574,18.529586 C9.18655178,17.8831883 9.1000061,17.1759478 9.1000061,16.4078434 C9.1000061,15.2881419 9.26768836,14.2712301 9.6030579,13.3570777 C9.93842744,12.4429252 10.4144287,11.6640141 11.0310759,11.0203209 C11.6477231,10.3766278 12.3928273,9.87899011 13.2664109,9.52739301 C14.1399945,9.17579591 15.1149856,9 16.1914137,9 C17.1812948,9 18.0913767,9.15280722 18.9216867,9.45842623 C19.7519968,9.76404525 20.467351,10.1967737 21.0677706,10.7566244 C21.6681903,11.3164752 22.1360779,11.9872042 22.4714474,12.7688316 C22.8068169,13.550459 22.9744992,14.4172681 22.9744992,15.3692848 C22.9744992,16.099525 22.8866012,16.7567312 22.7108027,17.3409233 C22.5350041,17.9251154 22.2929467,18.4214008 21.9846231,18.8297944 C21.6762995,19.2381879 21.3111849,19.551916 20.8892684,19.7709881 C20.4673518,19.9900601 20.0102825,20.0995945 19.5180465,20.0995945 C19.2854515,20.0995945 19.0812578,20.072549 18.9054593,20.0184571 C18.7296607,19.9643652 18.5795581,19.8913423 18.4551468,19.7993861 C18.3307355,19.70743 18.2279625,19.5965433 18.1468247,19.4667229 C18.0656869,19.3369024 18.0034822,19.1962657 17.9602087,19.0448085 L17.9277538,19.0448085 Z"/>
</svg>
