<?xml version="1.0" encoding="utf-8"?><svg width="352" height="331" viewBox="0 0 352 331" xmlns="http://www.w3.org/2000/svg" xmlns:xlink="http://www.w3.org/1999/xlink"><svg width="22" height="12" viewBox="0 0 22 12" id="icon-arrow-down" xmlns="http://www.w3.org/2000/svg"><title>CDFA3A51-C66C-4074-81EC-04CEE2142191</title><path d="M19.746 0l1.706 1.706-10.726 9.654L0 1.706 1.706 0l9.02 8.018z" fill="#A3A3A3"/></svg><svg width="22" height="12" viewBox="0 0 22 12" id="icon-bluearrow-down" x="22" y="12" xmlns="http://www.w3.org/2000/svg"><title>CDFA3A51-C66C-4074-81EC-04CEE2142191</title><path d="M19.746 0l1.706 1.706-10.726 9.654L0 1.706 1.706 0l9.02 8.018z" fill="#3b65a3"/></svg><svg width="16" height="15" viewBox="0 0 16 15" id="icon-checkmark" x="44" y="24" xmlns="http://www.w3.org/2000/svg"><title>B1503100-737E-40AC-A5DD-8835132BC696</title><path d="M1.674 7.173L.326 8.65l6.117 5.574L15.26 1.572 13.62.428 6.104 11.211z" fill="#FFF"/></svg><svg width="16" height="16" viewBox="0 0 16 16" id="icon-greencheck-16" x="60" y="39" xmlns="http://www.w3.org/2000/svg"><g fill="none" fill-rule="evenodd"><circle cx="8" cy="8" r="7.5" stroke="#42C453"/><path stroke="#15AB29" d="M3.553 8.621l3.324 3.268 5.217-6.738"/></g></svg><svg width="60" height="60" viewBox="0 0 60 60" id="icon-greencheck-60" x="76" y="55" xmlns="http://www.w3.org/2000/svg"><g fill="none" fill-rule="evenodd"><circle cx="30" cy="30" r="29" stroke="#42C453" stroke-width="2"/><path stroke="#15AB29" stroke-width="4" d="M10.966 34.848L22.786 46l24.727-28.244"/></g></svg><svg width="16" height="16" viewBox="0 0 16 16" id="icon-notice-16" x="136" y="115" xmlns="http://www.w3.org/2000/svg"><g fill="none" fill-rule="evenodd"><circle cx="8" cy="8" r="7.5" stroke="#6F94C3"/><text fill="#3B65A3" font-family="SourceSansPro-Semibold, Source Sans Pro" font-size="12" font-weight="500"><tspan x="6.11" y="12">!</tspan></text></g></svg><svg width="60" height="60" viewBox="0 0 60 60" id="icon-notice-60" x="152" y="131" xmlns="http://www.w3.org/2000/svg"><g fill="none" fill-rule="evenodd"><circle cx="30" cy="30" r="29" stroke="#6F94C3" stroke-width="2"/><text fill="#3B65A3" font-family="SourceSansPro-Semibold, Source Sans Pro" font-size="50" font-weight="500"><tspan x="22" y="53">!</tspan></text></g></svg><svg width="16" height="16" viewBox="0 0 16 16" id="icon-rednotice-16" x="212" y="191" xmlns="http://www.w3.org/2000/svg"><g fill="none" fill-rule="evenodd"><circle cx="8" cy="8" r="7.5" stroke="#E45555"/><text fill="#C00" font-family="SourceSansPro-Semibold, Source Sans Pro" font-size="12" font-weight="500"><tspan x="6.11" y="12">!</tspan></text></g></svg><svg width="60" height="60" viewBox="0 0 60 60" id="icon-rednotice-60" x="228" y="207" xmlns="http://www.w3.org/2000/svg"><g fill="none" fill-rule="evenodd"><circle cx="30" cy="30" r="29" stroke="#E45555" stroke-width="2"/><text fill="#D0021B" font-family="SourceSansPro-Semibold, Source Sans Pro" font-size="50" font-weight="500"><tspan x="22" y="53">!</tspan></text></g></svg><svg width="32" height="32" viewBox="0 0 32 32" id="icon-small-grey-close-button" x="288" y="267" xmlns="http://www.w3.org/2000/svg"><g fill="none" fill-rule="evenodd"><circle cx="16" cy="16" r="9" fill="#A3A3A3"/><path fill="#FFF" d="M11.064 11.771l1.06-1.06 3.89 3.889 3.89-3.89 1.06 1.061-3.89 3.89 4.243 4.242-1.06 1.06-4.243-4.242-4.243 4.243-1.06-1.06 4.242-4.244z"/></g></svg><svg width="32" height="32" viewBox="0 0 32 32" id="icon-small-grey-searchglass" x="320" y="299" xmlns="http://www.w3.org/2000/svg"><g fill="#A3A3A3" fill-rule="evenodd"><path d="M16.913 18.65l1.737-1.738 5.27 5.27c.393.393.392 1.029.004 1.417l-.324.324c-.39.39-1.029.385-1.417-.003l-5.27-5.27z"/><path d="M14 21a7 7 0 1 1 0-14 7 7 0 0 1 0 14zm0-2a5 5 0 1 0 0-10 5 5 0 0 0 0 10z"/></g></svg></svg>