<svg xmlns="http://www.w3.org/2000/svg" width="18" height="24" viewBox="0 0 18 24">
  <g fill="none" fill-rule="evenodd">
    <path fill="#CCCCCC" d="M17,4.019274 L14,1 L1,1 C1.02671281,1 1,23 1,23 C1,22.9486993 17,23 17,23 C16.9726398,23 17,4.019274 17,4.019274 Z M0.993397683,24 C0.444759292,24 1.95585549e-14,23.5525308 1.95815875e-14,22.9993054 L2.04974637e-14,1.00069463 C2.05204731e-14,0.448026248 0.447489426,0 0.998502329,0 L13,0 L18,5.019274 L18,23.0062379 C18,23.5550776 17.5550537,24 17.0066023,24 L0.993397683,24 Z"/>
    <path fill="#6F94C3" d="M13.0001551,0 L13.0000311,4.00019251 C13.000014,4.55237094 13.4437168,5 13.9998076,5 L18,5 L13.0001551,0 Z"/>
    <path fill="#333333" d="M2.62,12.45 L6.91,10.77 L6.91,11.48 L4.8,12.26 L3.46,12.76 L3.46,12.8 L4.8,13.3 L6.91,14.08 L6.91,14.79 L2.62,13.11 L2.62,12.45 Z M10.02,9 L10.62,9 L7.95,17.7 L7.35,17.7 L10.02,9 Z M15.38,13.11 L11.09,14.79 L11.09,14.08 L13.2,13.3 L14.54,12.8 L14.54,12.76 L13.2,12.26 L11.09,11.48 L11.09,10.77 L15.38,12.45 L15.38,13.11 Z"/>
  </g>
</svg>
