<svg xmlns="http://www.w3.org/2000/svg" width="32" height="32" viewBox="0 0 32 32">
  <g fill="none" fill-rule="evenodd">
    <path fill="#000000" d="M4.97704926,6.75875327 C4.43743985,6.89199016 4,7.45530558 4,7.99180311 L4,26.0081969 C4,26.5559546 4.43549118,26.8870949 4.96098453,26.7508559 L12.1,24.9 L20.2,27.1 L27.0435669,25.2575012 C27.5717903,25.1152872 28,24.5571221 28,23.9994051 L28,19.466199 L28,6.00705108 C28,5.45087213 27.5582896,5.11325908 27.0278956,5.24925753 L20.2,7 L12.1,5 L4.97704926,6.75875327 Z"/>
    <path fill="#FFFFFF" d="M5.19617729 7.84807072C5.08783157 7.87675047 5 7.99576886 5 8.09990234L5 25.7 11.8 24 11.8 6.1 5.19617729 7.84807072zM12.4054359 6.10130461C12.4024337 6.10058409 12.4 6.1032605 12.4 6.1032605L12.4 24 19.9 26 19.9 7.9 12.4054359 6.10130461zM20.5047111 7.89876784C20.5021092 7.89944833 20.5 7.90329693 20.5 7.90329693L20.5 26 26.8124776 24.3490443C26.9160434 24.3219579 27 24.2193025 27 24.0967285L27 6.2 20.5047111 7.89876784z"/>
    <g transform="translate(10 3)">
      <path fill="#D0021B" d="M1.5,9.5 C2.56474983,11.5 5,15 5.5,15 C6,15 8.49051916,11.2436487 9.5,9.5 C10.5094808,7.75635128 11,7.02127687 11,5.5 C11,2.46243388 8.53756612,0 5.5,0 C2.46243388,0 1.13690307e-13,2.46243388 1.13690307e-13,5.5 C1.13690307e-13,7.01385265 0.435250174,7.5 1.5,9.5 Z"/>
      <circle cx="5.5" cy="5.5" r="2.5" fill="#FFFFFF"/>
    </g>
  </g>
</svg>
