<svg xmlns="http://www.w3.org/2000/svg" width="18" height="24" viewBox="0 0 18 24">
  <g fill="none" fill-rule="evenodd">
    <path fill="#CCCCCC" d="M17,4.019274 L14,1 L1,1 C1.02671281,1 1,23 1,23 C1,22.9486993 17,23 17,23 C16.9726398,23 17,4.019274 17,4.019274 Z M0.993397683,24 C0.444759292,24 1.95585549e-14,23.5525308 1.95815875e-14,22.9993054 L2.04974637e-14,1.00069463 C2.05204731e-14,0.448026248 0.447489426,-1.42108547e-14 0.998502329,-1.42108547e-14 L13,-1.42108547e-14 L18,5.019274 L18,23.0062379 C18,23.5550776 17.5550537,24 17.0066023,24 L0.993397683,24 Z"/>
    <path fill="#6F94C3" d="M13.0001551,0 L13.0000311,4.00019251 C13.000014,4.55237094 13.4437168,5 13.9998076,5 L18,5 L13.0001551,0 Z"/>
    <path fill="#EB3F2E" d="M4.16777678,19 L4.16767767,19 C3.98333885,19 3.80623483,18.9399618 3.65544369,18.826501 C3.10366605,18.4110583 3.02958364,17.9487092 3.06461793,17.633894 C3.16090028,16.7682392 4.22748869,15.8616968 6.23549349,14.9383416 C7.03221382,13.1856431 7.79043112,11.0257094 8.24250722,9.22113027 C7.71372238,8.06577984 7.20005135,6.56716195 7.5745763,5.68792769 C7.70574428,5.37997683 7.93646513,5.16320251 8.24176392,5.06103306 C8.36277344,5.02054332 8.48095841,5 8.59299876,5 C8.86014139,5 9.09884035,5.1171417 9.26519127,5.32988694 C9.42163151,5.52994806 9.89243881,6.13207132 9.18387407,9.12577544 C9.89803835,10.6062874 10.9098206,12.1145054 11.8795321,13.1472923 C12.5741723,13.0209981 13.1717869,12.95708 13.658699,12.95708 C14.4883724,12.95708 14.9913399,13.1513214 15.1961443,13.5508964 C15.3658153,13.8817782 15.2962423,14.2682215 14.9893578,14.6994322 C14.6943661,15.1139795 14.2875818,15.3330917 13.8129589,15.3330917 C13.1685659,15.3330917 12.418624,14.9244139 11.5816663,14.1178523 C10.0783138,14.4330157 8.32298202,14.9958928 6.90426682,15.6186091 C6.461259,16.5621594 6.03683372,17.3221628 5.64169453,17.8793195 C5.09962936,18.6438992 4.63120062,19 4.16777678,19 L4.16777678,19 Z M5.57786969,16.2741549 C4.4453752,16.9128383 3.98393349,17.4376133 3.95103,17.7332779 C3.94562868,17.7821243 3.93130773,17.9107563 4.17917407,18.1015157 C4.25811272,18.0763961 4.7192571,17.8653919 5.57786969,16.2741549 L5.57786969,16.2741549 Z M12.7172826,13.9221685 C13.1488932,14.2555373 13.5306034,14.4378406 13.813058,14.4378406 C13.9371399,14.4378406 14.100468,14.4084433 14.2636971,14.1790843 C14.3427348,14.0680111 14.3735075,13.9965323 14.3854499,13.9585296 C14.3204358,13.9237104 14.1298532,13.8524803 13.6587981,13.8524803 C13.3913086,13.8524803 13.0733737,13.8762071 12.7172826,13.9221685 L12.7172826,13.9221685 Z M8.84532491,10.4107527 C8.46624104,11.7266694 7.96609809,13.1470933 7.42854229,14.4337121 C8.53571497,14.0021531 9.73961598,13.6259566 10.8703265,13.3592417 C10.1550225,12.5254216 9.44046182,11.4841288 8.84532491,10.4107527 L8.84532491,10.4107527 Z M8.57506041,5.89724076 C8.56331624,5.89913094 8.54651762,5.90291131 8.5238717,5.91047205 C8.47208834,5.9278319 8.43031479,5.95643338 8.39473541,6.03999943 C8.25846343,6.35998778 8.36594486,6.96783133 8.57466398,7.62103932 C8.74760551,6.49533494 8.65573342,6.01731722 8.57506041,5.89724076 L8.57506041,5.89724076 Z"/>
  </g>
</svg>
