<svg xmlns="http://www.w3.org/2000/svg" width="32" height="32" viewBox="0 0 32 32">
  <path fill="#3B65A3" fill-rule="evenodd" d="M8.99420208,6 C7.34054993,6 6,7.34331197 6,8.99420208 L6,23.0057979 C6,24.6594501 7.34331197,26 8.99420208,26 L23.0057979,26 C24.6594501,26 26,24.656688 26,23.0057979 L26,8.99420208 C26,7.34054993 24.656688,6 23.0057979,6 L8.99420208,6 Z M20.5118193,18.3656102 C20.2519699,18.2148485 19.9381895,17.9145509 19.6231833,17.9145509 C19.0213623,17.9145509 18.1327263,19.7053056 17.5995447,19.7053056 C17.3262126,19.7053056 16.9842409,19.4589389 16.7391,19.32166 C14.9336368,18.3104535 13.6895465,17.0663632 12.6771143,15.2609 C12.5410611,15.0157591 12.2959202,14.6737874 12.2959202,14.4004553 C12.2959202,13.8672737 14.0866748,12.9786377 14.0866748,12.3768167 C14.0866748,12.0630362 13.7863772,11.7480301 13.6343898,11.4881807 C13.4162143,11.1057608 12.4050079,9.10908773 12.1574155,9.02819121 C12.0900018,9 12.0078795,9 11.9404658,9 C11.5850114,9 10.8863597,9.16424444 10.5590965,9.30152338 C9.65575206,9.71090877 9,11.433024 9,12.3768167 C9,13.2936438 9.36893714,14.1271231 9.68394327,14.9753108 C10.7772719,17.9684819 14.0315181,21.2227281 17.0271406,22.3160567 C17.8728769,22.6310629 18.7088076,23 19.6231833,23 C20.566976,23 22.2903169,22.3442479 22.6997023,21.4409035 C22.8357556,21.1136403 23,20.4162143 23,20.0607599 C23,19.9921205 23,19.9099982 22.9730345,19.8413588 C22.8909123,19.5962178 20.8942392,18.5837857 20.5118193,18.3656102 Z"/>
</svg>
