<svg xmlns="http://www.w3.org/2000/svg" width="18" height="24" viewBox="0 0 18 24">
  <g fill="none" fill-rule="evenodd">
    <path fill="#CCCCCC" d="M17,4.019274 L14,1 L1,1 C1.02671281,1 1,23 1,23 C1,22.9486993 17,23 17,23 C16.9726398,23 17,4.019274 17,4.019274 Z M0.993397683,24 C0.444759292,24 1.95585549e-14,23.5525308 1.95815875e-14,22.9993054 L2.04974637e-14,1.00069463 C2.05204731e-14,0.448026248 0.447489426,0 0.998502329,0 L13,0 L18,5.019274 L18,23.0062379 C18,23.5550776 17.5550537,24 17.0066023,24 L0.993397683,24 Z"/>
    <path fill="#6F94C3" d="M13.0001551,0 L13.0000311,4.00019251 C13.000014,4.55237094 13.4437168,5 13.9998076,5 L18,5 L13.0001551,0 Z"/>
    <path fill="#D34318" d="M6.288,9.176 L9.144,9.176 C9.56800212,9.176 9.96599814,9.21799958 10.338,9.302 C10.7100019,9.38600042 11.0339986,9.52599902 11.31,9.722 C11.5860014,9.91800098 11.8039992,10.1779984 11.964,10.502 C12.1240008,10.8260016 12.204,11.2239976 12.204,11.696 C12.204,12.1520023 12.1220008,12.5479983 11.958,12.884 C11.7939992,13.2200017 11.5720014,13.4959989 11.292,13.712 C11.0119986,13.9280011 10.6880018,14.0879995 10.32,14.192 C9.95199816,14.2960005 9.56000208,14.348 9.144,14.348 L8.052,14.348 L8.052,17 L6.288,17 L6.288,9.176 Z M9.036,12.944 C9.9960048,12.944 10.476,12.5280042 10.476,11.696 C10.476,11.287998 10.3540012,11.0000008 10.11,10.832 C9.86599878,10.6639992 9.50800236,10.58 9.036,10.58 L8.052,10.58 L8.052,12.944 L9.036,12.944 Z"/>
  </g>
</svg>
