<svg xmlns="http://www.w3.org/2000/svg" width="384" height="320" viewBox="0 0 384 320" xmlns:xlink="http://www.w3.org/1999/xlink">
  <defs>
    <path id="a" d="M14.6724,19.2955159 C14.6724,16.2027159 17.1796,13.6955159 20.2724,13.6955159 C23.3644,13.6955159 25.8724,16.2027159 25.8724,19.2955159 C25.8724,22.3875159 23.3644,24.8955159 20.2724,24.8955159 C17.1796,24.8955159 14.6724,22.3875159 14.6724,19.2955159 Z M0.53696,23.5243159 C0.53696,21.5363159 2.14896,19.9243159 4.13696,19.9243159 C6.12576,19.9243159 7.73696,21.5363159 7.73696,23.5243159 C7.73696,25.5123159 6.12576,27.1243159 4.13696,27.1243159 C2.14896,27.1243159 0.53696,25.5123159 0.53696,23.5243159 Z M9.48736,34.7475159 C9.48736,32.7595159 11.09936,31.1475159 13.08736,31.1475159 C15.07616,31.1475159 16.68736,32.7595159 16.68736,34.7475159 C16.68736,36.7355159 15.07616,38.3475159 13.08736,38.3475159 C11.09936,38.3475159 9.48736,36.7355159 9.48736,34.7475159 Z M23.8724,3.6955159 C23.8724,5.6835159 22.2604,7.2955159 20.2724,7.2955159 C18.2836,7.2955159 16.6724,5.6835159 16.6724,3.6955159 C16.6724,1.7075159 18.2836,0.0955159005 20.2724,0.0955159005 C22.2604,0.0955159005 23.8724,1.7075159 23.8724,3.6955159 Z M36.8056,9.5243159 C36.8056,11.5123159 35.1936,13.1243159 33.2056,13.1243159 C31.2168,13.1243159 29.6056,11.5123159 29.6056,9.5243159 C29.6056,7.5363159 31.2168,5.9243159 33.2056,5.9243159 C35.1936,5.9243159 36.8056,7.5363159 36.8056,9.5243159 Z M40,23.5243159 C40,25.5123159 38.388,27.1243159 36.4,27.1243159 C34.4112,27.1243159 32.8,25.5123159 32.8,23.5243159 C32.8,21.5363159 34.4112,19.9243159 36.4,19.9243159 C38.388,19.9243159 40,21.5363159 40,23.5243159 Z M31.0496,34.7475159 C31.0496,36.7355159 29.4376,38.3475159 27.4496,38.3475159 C25.4608,38.3475159 23.8496,36.7355159 23.8496,34.7475159 C23.8496,32.7595159 25.4608,31.1475159 27.4496,31.1475159 C29.4376,31.1475159 31.0496,32.7595159 31.0496,34.7475159 Z M3.73136,9.5243159 C3.73136,7.5363159 5.34336,5.9243159 7.33136,5.9243159 C9.32016,5.9243159 10.93136,7.5363159 10.93136,9.5243159 C10.93136,11.5123159 9.32016,13.1243159 7.33136,13.1243159 C5.34336,13.1243159 3.73136,11.5123159 3.73136,9.5243159 Z M22.2724,3.6955159 C22.2724,2.5907159 21.3772,1.6955159 20.2724,1.6955159 C19.1676,1.6955159 18.2724,2.5907159 18.2724,3.6955159 C18.2724,4.8003159 19.1676,5.6955159 20.2724,5.6955159 C21.3772,5.6955159 22.2724,4.8003159 22.2724,3.6955159 Z M35.2056,9.5243159 C35.2056,8.4195159 34.3104,7.5243159 33.2056,7.5243159 C32.1008,7.5243159 31.2056,8.4195159 31.2056,9.5243159 C31.2056,10.6291159 32.1008,11.5243159 33.2056,11.5243159 C34.3104,11.5243159 35.2056,10.6291159 35.2056,9.5243159 Z M38.4,23.5243159 C38.4,22.4195159 37.5048,21.5243159 36.4,21.5243159 C35.2952,21.5243159 34.4,22.4195159 34.4,23.5243159 C34.4,24.6291159 35.2952,25.5243159 36.4,25.5243159 C37.5048,25.5243159 38.4,24.6291159 38.4,23.5243159 Z M29.4496,34.7475159 C29.4496,33.6427159 28.5544,32.7475159 27.4496,32.7475159 C26.3448,32.7475159 25.4496,33.6427159 25.4496,34.7475159 C25.4496,35.8523159 26.3448,36.7475159 27.4496,36.7475159 C28.5544,36.7475159 29.4496,35.8523159 29.4496,34.7475159 Z M5.33136,9.5243159 C5.33136,10.6291159 6.22656,11.5243159 7.33136,11.5243159 C8.43616,11.5243159 9.33136,10.6291159 9.33136,9.5243159 C9.33136,8.4195159 8.43616,7.5243159 7.33136,7.5243159 C6.22656,7.5243159 5.33136,8.4195159 5.33136,9.5243159 Z M2.13696,23.5243159 C2.13696,24.6291159 3.03216,25.5243159 4.13696,25.5243159 C5.24176,25.5243159 6.13696,24.6291159 6.13696,23.5243159 C6.13696,22.4195159 5.24176,21.5243159 4.13696,21.5243159 C3.03216,21.5243159 2.13696,22.4195159 2.13696,23.5243159 Z M11.08736,34.7475159 C11.08736,35.8523159 11.98256,36.7475159 13.08736,36.7475159 C14.19216,36.7475159 15.08736,35.8523159 15.08736,34.7475159 C15.08736,33.6427159 14.19216,32.7475159 13.08736,32.7475159 C11.98256,32.7475159 11.08736,33.6427159 11.08736,34.7475159 Z M16.2724,19.2955159 C16.2724,21.5043159 18.0628,23.2955159 20.2724,23.2955159 C22.4812,23.2955159 24.2724,21.5043159 24.2724,19.2955159 C24.2724,17.0867159 22.4812,15.2955159 20.2724,15.2955159 C18.0628,15.2955159 16.2724,17.0867159 16.2724,19.2955159 Z"/>
  </defs>
  <g fill="none" fill-rule="evenodd">
    <g transform="translate(268 205)">
      <path fill="#D7272D" d="M19.4684,14.7403999 L19.4684,6.37010064 L21.0684,6.37010064 L21.0684,14.7403999 L19.4684,14.7403999 Z M31.5244968,11.7213321 L24.3983713,16.9835805 L23.4503713,15.6939805 L30.5772968,10.4317321 L31.5244968,11.7213321 Z M33.5182733,23.5562765 L24.5914327,21.0675318 L25.0250327,19.5275318 L33.9518733,22.0162765 L33.5182733,23.5562765 Z M25.7466841,32.8066729 L21.5178134,23.5963568 L22.9714134,22.9275568 L27.2002841,32.1378729 L25.7466841,32.8066729 Z M8.72842685,11.5339134 L9.67562685,10.2443134 L17.0326058,15.6357374 L16.0846058,16.9253374 L8.72842685,11.5339134 Z M6.90021307,23.6044922 L6.46661307,22.0644922 L15.3845818,19.5578338 L15.8181818,21.0978338 L6.90021307,23.6044922 Z M15.0229048,32.3357599 L13.5693048,31.6669599 L17.5057395,23.0846624 L18.9593395,23.7534624 L15.0229048,32.3357599 Z"/>
      <use fill="#D7272D" xlink:href="#a"/>
    </g>
    <g fill="#D7272D" fill-rule="nonzero" transform="translate(204 204)">
      <path d="M40,15.25 C40,6.82765757 33.1723424,0 24.75,0 C16.3276576,0 9.5,6.82765757 9.5,15.25 C9.5,23.6723424 16.3276576,30.5 24.75,30.5 C33.1723424,30.5 40,23.6723424 40,15.25 Z M24.75,28.5 C17.4322271,28.5 11.5,22.5677729 11.5,15.25 C11.5,7.93222707 17.4322271,2 24.75,2 C32.0677729,2 38,7.93222707 38,15.25 C38,22.5677729 32.0677729,28.5 24.75,28.5 L24.75,28.5 Z"/>
      <polygon points="1.707 39.707 15.957 25.457 14.543 24.043 .293 38.293"/>
      <polygon points="34 10.5 34 8.5 16 8.5 16 10.5"/>
      <polygon points="34 16.5 34 14.5 16 14.5 16 16.5"/>
      <polygon points="31.003 22 31.003 20 16 20 16 22"/>
    </g>
    <g fill="#D7272D" fill-rule="nonzero" transform="translate(338 139)">
      <path d="M15,9 C17.4852814,9 19.5,6.98528137 19.5,4.5 C19.5,2.01471863 17.4852814,0 15,0 C12.5147186,0 10.5,2.01471863 10.5,4.5 C10.5,6.98528137 12.5147186,9 15,9 L15,9 Z M15,7 C13.6192881,7 12.5,5.88071187 12.5,4.5 C12.5,3.11928813 13.6192881,2 15,2 C16.3807119,2 17.5,3.11928813 17.5,4.5 C17.5,5.88071187 16.3807119,7 15,7 L15,7 Z"/>
      <path d="M4.12658123,4.778273 L12.2711376,13.6968601 L12.5484287,22.6048607 L9.86362597,30.5530498 L2.8531492,30.8669924 C2.61881355,30.8656443 2.44651498,31.048584 2.47509766,31.2142334 C2.50368033,31.3798828 2.68880821,31.6019812 2.95473139,31.6039986 L10.4311576,31.6118534 L11.8059084,28.8728027 L14.5012548,22.8015011 L17.6486608,27.4086914 L20.3195498,30.8280777 L19.1311536,37.9804387 C19.0729602,38.3306757 19.2135973,38.52623 19.3293449,38.5568256 C19.4450925,38.5874213 19.6844837,38.4871259 19.7654661,38.1481069 L21.4341204,30.9761359 L16.8165694,22.9524495 L17.2516086,13.8166245 L25.7345212,4.61202326 C25.9255565,4.40473557 25.9388752,4.25987896 25.8325187,4.14758301 C25.7261623,4.03528705 25.5711607,4.03681172 25.3763611,4.23386159 L17.6000061,12 L12.2000122,12 L4.58541699,4.27894317 C4.36376105,4.05289726 4.10684186,4.0396147 4.00762945,4.14758301 C3.90841703,4.25555131 3.90577301,4.53647992 4.12658123,4.778273 Z M2.86465477,28.8670255 L8.53250522,28.5646375 L10.4476387,22.4494241 L10.3115291,14.5168931 L2.64973381,6.12694706 C1.8200373,5.21839902 1.68350077,3.47186278 2.64973378,2.64190673 C3.6159668,1.81195067 5.15103127,1.9991862 6.01342908,2.8786641 L13,10 L17,10 L23.9540495,2.82779278 C24.789915,1.98227133 26.4503784,1.74218755 27.3134766,2.64190674 C28.1765747,3.54162593 28.0081409,5.09616977 27.205214,5.9674061 L19.2147794,14.6376316 L18.8427893,22.4494236 C20.6580948,25.5176082 23.1614372,29.6488813 23.3895866,30.5765375 C23.617736,31.5041937 21.7107372,38.6127791 21.7107372,38.6127791 C21.4330534,39.7752551 20.3484497,40.8040777 19.0308838,40.618775 C17.7133179,40.4334723 16.9636904,38.8232923 17.1582021,37.6526242 L18.1950027,31.4126416 C17.6379555,30.7535114 14.8903509,26.9134495 14.8903509,26.9134495 C14.8903509,26.9134495 12.1257296,32.9792733 11.8583812,33.1849259 C11.5450334,33.4259624 11.1950685,33.5126947 10.0822714,33.6062547 C8.96947418,33.6998148 2.93955947,33.603941 2.93955947,33.603941 C1.64363193,33.5941099 0.452514649,32.4982294 0.452514649,31.2390741 C0.452514649,29.9799188 1.56475918,28.8595474 2.86465477,28.8670255 Z"/>
    </g>
    <g fill="#D7272D" fill-rule="nonzero" transform="translate(268 139)">
      <path d="M1.41660552,23.830574 C1.65352478,23.9906093 2.5585912,24.5753174 2.5585912,23.3765259 C2.5585912,22.1777344 2.30356686,21.8698535 2.34551759,21.8262329 C3.04162342,21.0710354 5.02924077,20.6030349 5.71124036,20.3963013 C7.60906751,19.8210154 7.89598829,19.7350092 8.13813557,19.181428 C8.69607653,17.9059 10.6732709,13.384156 10.7453747,13.3256247 C11.2940909,12.5227752 12.4705221,12.2866821 13.8553616,12.2866821 C15.8442328,12.2866821 15.8739602,12.6853638 16.5376564,13.050415 C17.1887795,13.7720947 19.2473911,18.0387014 19.2934548,18.6835937 C19.3011385,18.7701833 17.9139363,21.2316284 17.9139363,21.2316284 L17.9139363,19.2555904 C18.6372334,18.7254133 18.414369,18.4038163 18.4084965,18.2195157 C18.3950813,17.7984946 18.0102898,17.4182915 17.7738946,16.8365961 C17.4435135,16.3967523 16.8466728,16.2528936 16.3871441,16.559246 C15.9276154,16.8655985 15.8811003,17.0525431 15.8811003,17.9791664 C15.8811003,25.0406713 16.2183529,31.7793617 16.6665627,34.9284058 C16.9056603,36.6535511 17.2273341,37.9141903 16.5376564,37.9954224 C15.7736651,38.0854073 15.9320036,37.2168522 15.7858864,36.9252319 C15.690824,36.7355066 14.4662453,29.1366577 14.2805401,26.2365322 C14.2805401,25.3633633 13.9968183,24.8510132 13.0958229,24.8510132 C12.3583501,24.8510132 12.1413132,25.6671257 12.1413132,26.3292818 C12.1413132,30.297513 11.9613129,32.4536133 12.5765168,36.5593529 C12.6908938,37.5595112 12.8117229,37.9954224 12.2607399,37.9954224 C11.9846949,37.9954224 11.7282501,38.0418838 11.4636589,36.361145 C11.407939,36.0072004 11.3506576,35.6003559 11.2940909,35.0739899 C10.901932,31.7454283 10.3341624,21.0710354 10.3341624,21.0710354 C10.3341624,21.0710354 11.9613129,17.9791665 12.1413132,17.4675217 C12.4678408,16.836596 12.0837652,16.1870132 11.7255894,16.0953751 C11.3426865,16.0294609 11.2048079,15.775218 10.4650427,16.3851867 C9.83167805,17.8205376 8.84624905,19.3515176 8.66540303,20 C7.3471539,20.4105367 6.39391858,20.527771 4.81780757,20.9191895 C4.05947725,21.1075166 3.25817616,21.5915527 2.81341297,21.9484863 C2.36864979,22.3054199 1.8083441,22.4782875 1.80779786,22.4794922 C1.54314443,23.0631682 1.49572507,24.3912964 2.91051998,24.1011963 C4.35678244,23.4800738 5.32988009,22.8566886 5.37298336,22.8425903 C6.37859883,22.5136719 6.74334492,22.5820923 8.38363995,22.1678381 C8.58930029,28.2809105 9.02679219,34.4417725 9.67138447,37.6741333 C9.93597188,38.5029297 10.1666981,39.8596811 11.9613129,39.9709482 C13.7559277,40.0822152 13.8928135,39.3704605 14.3829323,38.861023 C14.9585549,39.8408814 16.6888405,40.3215942 17.4547707,39.8184204 C18.2207009,39.3152466 19.0701958,38.9069214 18.9635598,36.9252319 C18.6190163,34.8512573 18.026426,27.7606221 18.026426,26.12146 C18.6372334,25.7739868 19.0579335,25.3217163 19.0579335,23.6396484 C19.0579335,23.5239075 19.7976052,21.9484863 19.7976052,21.9484863 C19.7976052,21.9484863 21.380552,19.5789795 21.3115822,18.5206652 C21.2338642,17.429985 19.2934548,13.3028565 18.3173195,12.043457 C17.3411843,10.7840576 16.1604225,10.2861939 13.8553616,10.2861939 C10.6959997,10.2861939 9.2847219,11.3557019 8.78048958,12.7003214 C8.77431425,12.710842 8.69956944,12.8585814 8.58151574,13.0971346 C8.0863753,14.0976739 6.87070527,16.9819655 6.49300923,17.9791665 C4.91564359,18.5891199 2.10290343,19.2036238 1.59289306,20 C1.2438171,20.5450787 0.543040787,23.2404947 1.41660552,23.830574 Z" transform="matrix(-1 0 0 1 22.31 0)"/>
      <path d="M25.3236364 18.5206655C25.4378305 18.4031702 25.5449807 18.0586161 25.5449807 18.0586161 25.5849768 17.8586357 25.9472745 16.9939251 26.4734185 15.8508761 26.5242021 15.740689 27.7375188 13.2077111 27.8096227 13.1491798 28.7409672 12.5238766 30.2253938 12.3708333 31.6102333 12.3708333 33.5991045 12.3708333 34.7047084 12.6272327 35.1983859 12.9944767 35.3282605 13.0910896 35.3009637 13.0532012 35.5027404 13.3894958 36.4634863 14.990739 38.0083776 18.0805214 38.0544413 18.7254137 38.0621251 18.8120034 37.0239459 21.0209363 36.9640201 21.1481819 36.3616567 22.42723 36.070059 23.249109 36.070059 23.9818248 36.070059 24.5256134 35.9657597 24.5821533 35.7152013 24.5195099 35.6056551 24.2913718 35.5685658 23.9818248 35.5339128 23.4130716 35.5685658 22.5822143 36.6187138 20.5704345 36.9194422 19.8352224 37.1812598 19.1713784 37.2819148 18.7719536 37.1720425 18.3324644 37.0869145 17.9686889 35.580658 15.9141326 35.5287668 15.8365961 35.2224143 15.3770674 34.601545 15.2528936 34.1420163 15.559246 33.6824876 15.8655985 33.5583137 16.4864678 33.8646662 16.9459965 33.9223647 17.0322094 34.8908696 18.4562501 35.1983857 18.7922363 34.9869999 19.2369384 34.3509269 20.7143214 34.3029029 20.8240311 33.7837609 22.0100009 33.5339128 22.7576835 33.5339128 23.4130716 33.5339128 24.7535451 33.8646664 25.3596801 33.8646664 25.3596801 33.8646664 25.3596801 34.1420159 31.9249467 34.5902256 35.0739908 34.8293232 36.7991361 35.0896414 37.9141912 34.3999638 37.9954233 33.6359725 38.0854081 33.7820897 37.0833196 33.6359725 36.7916993 33.54091 36.601974 32.3369631 28.0491189 32.1400084 26.2328491 32.1400084 25.3596801 31.8562866 24.84733 30.9552912 24.84733 30.2178183 24.84733 30.0007815 25.6634425 30.0007815 26.3255987 30.0007815 30.2938298 30.1663632 34.1899194 30.48214 36.5593538 30.596517 37.5595121 30.7173462 37.9954233 30.1663632 37.9954233 29.8321861 37.9954233 29.5248932 38.0998544 29.1997141 35.0739908 28.6837251 30.6943858 28.0597052 20.8240308 28.1572413 18.4263992 28.2377429 17.705687 27.6703267 17.5099296 27.3121509 17.4182915 26.5731449 17.2910766 26.1849975 17.9098219 25.5449805 19.2555904 24.2591891 19.9999999 22.5751256 20.9911889 21.4432373 21.505371 20.7780891 19.851777 19.5125022 24.1557674 20.4185812 24.1557674 23.2939934 22.9208717 23.9266576 22.5163631 26.1849975 21.2316284 26.3255615 27.3579721 27.0982551 34.6673375 27.5056157 37.3726816 27.8096222 38.123414 27.9215703 39.8596811 29.716185 39.9709482 31.5107998 40.0822152 31.7534119 39.4163599 32.2435307 38.9069223 32.8191533 39.8867807 34.6358647 40.2841195 35.4017949 39.7809457 36.167725 39.2777719 36.9194417 38.9069223 36.8128056 36.9252328 36.4682621 34.8512582 35.9183964 28.1340361 35.9183964 26.4948739 36.9194417 26.4948739 38.070059 25.8020041 38.070059 23.9818248 38.070059 23.6556704 38.3029357 22.9992988 38.7734076 22.0003068 38.8303052 21.8794913 38.8910242 21.7524541 38.9626728 21.6040132 40.054627 19.3417116 40.1073236 19.2184657 40.0477932 18.5636309 39.9700752 17.4729508 38.3944803 14.321761 37.2177263 12.3605042 36.9194417 11.8319703 36.6360877 11.5712825 36.3921062 11.3897861 35.4902319 10.7188869 33.9894119 10.3708333 31.6102333 10.3708333 28.4508715 10.3708333 26.3489698 11.1792571 25.8447375 12.5238766 25.8126616 12.5785223 23.930603 16.3352899 23.7385253 17.2910766 23.0235595 17.7385253 19.9815833 19.6196807 19.8516976 19.6981022 19.3789062 19.9835611 19.2270433 20.5982444 19.5125022 21.0710358 19.7415429 21.4503844 20.7919931 21.4666493 20.8854358 21.4102311 21.0177896 21.3303193 25.1261596 18.8912277 25.3236364 18.5206655zM8 2.01680672C9.64723387 2.01680672 10.9831933 3.35276613 10.9831933 5 10.9831933 6.64723387 9.64723387 7.98319328 8 7.98319328 6.35276613 7.98319328 5.01680672 6.64723387 5.01680672 5 5.01680672 3.35276613 6.35276613 2.01680672 8 2.01680672L8 2.01680672zM8 0C5.23891454 0 3 2.23891454 3 5 3 7.76108546 5.23891454 10 8 10 10.7610855 10 13 7.76108546 13 5 13 2.23891454 10.7610855 0 8 0L8 0zM32 2.01680672C33.6472339 2.01680672 34.9831933 3.35276613 34.9831933 5 34.9831933 6.64723387 33.6472339 7.98319328 32 7.98319328 30.3527661 7.98319328 29.0168067 6.64723387 29.0168067 5 29.0168067 3.35276613 30.3527661 2.01680672 32 2.01680672L32 2.01680672zM32 0C29.2389145 0 27 2.23891454 27 5 27 7.76108546 29.2389145 10 32 10 34.7610855 10 37 7.76108546 37 5 37 2.23891454 34.7610855 0 32 0L32 0z"/>
    </g>
    <g fill="#D7272D" fill-rule="nonzero" transform="translate(204 140)">
      <path d="M27.04824,21 C27.6005247,21 28.04824,20.5522847 28.04824,20 C28.04824,19.4477153 27.6005247,19 27.04824,19 L11.35044,19 C10.7981553,19 10.35044,19.4477153 10.35044,20 C10.35044,20.5522847 10.7981553,21 11.35044,21 L27.04824,21 Z"/>
      <path d="M21.5266594,28.1583374 C21.453647,28.3901517 21.6362675,28.1853306 21.391195,28.4416734 C21.4448985,28.3855002 21.5268972,28.301899 21.6347669,28.1933742 C21.844266,27.9826028 22.1471202,27.6820402 22.5348322,27.2999311 C23.2205621,26.6241107 24.1547081,25.7099359 25.2756269,24.6168824 C25.2920199,24.6008972 25.2920199,24.6008972 25.3084132,24.5849121 C26.1911546,23.7241655 27.1370498,22.8038157 28.0829591,21.8847703 C28.4140383,21.5630937 28.618996,21.3640666 28.997353,20.9967845 C29.2810942,20.721431 29.2810942,20.721431 29.3440555,20.6603676 C29.7497101,20.2669401 29.7490233,19.6157863 29.3425396,19.2232154 L21.2656396,11.4227654 C20.8683759,11.0390989 20.2353069,11.0501216 19.8516404,11.4473854 C19.4679739,11.8446491 19.4789966,12.4777181 19.8762604,12.8613846 L27.9531604,20.6618346 L27.9516445,19.2246824 C27.8884318,19.2859899 27.8884318,19.2859899 27.6043901,19.5616349 C27.2257031,19.9292373 27.0205954,20.1284101 26.6892612,20.4503344 C25.7425606,21.3701487 24.795846,22.2912958 23.9121516,23.1529717 C23.8957374,23.168977 23.8957374,23.168977 23.8793235,23.1849827 C22.7560838,24.2802993 21.8197157,25.1966488 21.1309487,25.8754624 C20.738756,26.2619875 20.4315995,26.5668198 20.2162785,26.7834484 C20.1000465,26.9003863 20.0099774,26.9922157 19.945559,27.0595965 C19.8966795,27.1110151 19.8966795,27.1110151 19.852577,27.1595326 C19.8181852,27.1798014 19.8181852,27.1798014 19.6190406,27.5575126 C19.4531274,28.084287 19.7456632,28.6458212 20.2724376,28.8117344 C20.799212,28.9776476 21.3607462,28.6851118 21.5266594,28.1583374 L21.5266594,28.1583374 Z"/>
      <path d="M37.99772,20 C37.99772,29.9405805 29.9399704,38 19.99772,38 C10.059548,38 1.99962,29.9389585 1.99962,20 C1.99962,10.0591989 10.0585406,2 19.99772,2 C29.9409777,2 37.99772,10.0575771 37.99772,20 L37.99772,20 Z M39.99772,20 C39.99772,8.95305402 31.0455936,0 19.99772,0 C8.95395563,0 -0.00038,8.9546449 -0.00038,20 C-0.00038,31.0434662 8.95491661,40 19.99772,40 C31.0446327,40 39.99772,31.0450572 39.99772,20 L39.99772,20 Z"/>
    </g>
    <path fill="#D7272D" d="M0.537056714,6.14519382 C0.240448481,6.28592023 1.67340632e-14,6.67529246 1.55436644e-14,6.99360651 L-1.03437864e-13,38.8094105 C-1.07136106e-13,39.7983249 0.736572159,40.2505302 1.62537034,39.8288381 L13.7000122,34.0999985 L25.9364835,39.9269009 C26.1372414,40.0225 26.4538454,40.0270004 26.66643,39.9261392 L39.4629433,33.8548062 C39.7595515,33.7140798 40,33.3247075 40,33.0063935 L40,1.19058947 C40,0.201675054 39.2634278,-0.250530243 38.3746297,0.17116195 L26.2999878,5.90000153 L14.0635165,0.0730991364 C13.8627586,-0.0225000341 13.5461546,-0.0270004272 13.33357,0.0738608241 L0.537056714,6.14519382 Z M2.18571875,7.61147692 C2.08314912,7.66036518 2,7.78519594 2,7.90551286 L2,37.4000015 L12.7000122,32.3000031 L12.7000122,2.59999847 L2.18571875,7.61147692 Z M14.707695,2.60369491 C14.7034519,2.60165343 14.7000122,2.60540838 14.7000122,2.60540838 L14.7000122,32.3000031 L25.2999878,37.4000015 L25.2999878,7.69999695 L14.707695,2.60369491 Z M27.3077431,7.69630051 C27.30346,7.698342 27.2999878,7.70540686 27.2999878,7.70540686 L27.2999878,37.4000015 L37.8142813,32.3885231 C37.9168509,32.3396348 38,32.2148041 38,32.0944871 L38,2.59999847 L27.3077431,7.69630051 Z" transform="translate(332 76)"/>
    <g fill="#D7272D" transform="translate(268 76)">
      <path fill-rule="nonzero" d="M23.0824433 31.03722C22.1794486 31.4301586 21.1462368 31.6666667 20 31.6666667 18.8537632 31.6666667 17.8205514 31.4301586 16.9175567 31.03722 16.3885032 30.8070021 16.0315618 30.5850057 15.8708178 30.4577118 15.4378514 30.1148436 14.8089133 30.1878826 14.4660451 30.6208489 14.1231769 31.0538152 14.1962159 31.6827534 14.6291822 32.0256216 14.9183028 32.2545776 15.4205671 32.5669562 16.1195371 32.8711133 17.2632481 33.3687997 18.5645129 33.6666667 20 33.6666667 21.4354871 33.6666667 22.7367519 33.3687997 23.8804629 32.8711133 24.5794329 32.5669562 25.0816972 32.2545776 25.3708178 32.0256216 25.8037841 31.6827534 25.8768231 31.0538152 25.5339549 30.6208489 25.1910867 30.1878826 24.5621486 30.1148436 24.1291822 30.4577118 24.1291822 30.4577118 23.6114968 30.8070021 23.0824433 31.03722zM22.3635916 3.00493667C22.6546043 2.64189824 23.5633357 1.91945571 23.6102918 1.89621243 24.1052563 1.65120502 24.3078865 1.0513393 24.0628791.556374846 23.8178717.0614103875 23.218006-.141219839 22.7230415.103787568 22.2055766.359932695 21.4968756.888505521 20.8030751 1.75402166 19.6735285 3.16313109 19 5.01701818 19 7.33333333 19 7.88561808 21 7.88561808 21 7.33333333 21 5.47954432 21.5139715 4.06483766 22.3635916 3.00493667z"/>
      <path fill-rule="nonzero" d="M16.4446443,3.64573792 C15.8789485,3.42355407 15.284703,3.28690878 14.6862246,3.2166353 C14.2904898,3.17016801 13.6325747,3.16711681 13.613767,3.16806683 C13.0622556,3.19728249 12.6388512,3.66805483 12.6680668,4.21956629 C12.6972825,4.77107775 13.1680548,5.19448216 13.7195663,5.1652665 C14.2844447,5.14943674 15.0232046,5.23618212 15.713493,5.50730117 C16.6594872,5.87885177 17.2508298,6.50279233 17.4325291,7.51074041 C17.5305083,8.05426457 19.4987834,7.69945042 19.4008042,7.15592626 C19.0853441,5.40596132 17.9937125,4.25415304 16.4446443,3.64573792 Z"/>
      <path d="M26.375 21C27.6867917 21 28.75 22.0632083 28.75 23.375 28.75 24.6867917 27.6867917 25.75 26.375 25.75 25.0632083 25.75 24 24.6867917 24 23.375 24 22.0632083 25.0632083 21 26.375 21M13.375 21C14.6867917 21 15.75 22.0632083 15.75 23.375 15.75 24.6867917 14.6867917 25.75 13.375 25.75 12.0632083 25.75 11 24.6867917 11 23.375 11 22.0632083 12.0632083 21 13.375 21"/>
      <path fill-rule="nonzero" d="M36.7719727,20.6988281 C35.8534164,12.8041991 28.9505847,6.33333333 20,6.33333333 C11.0494153,6.33333333 4.09560537,12.8760742 3.30722666,20.6988281 C1.83535159,20.8735355 7.0832229e-14,22.4489236 7.0832229e-14,24.75 C7.0832229e-14,26.9363898 1.47626948,28.2707036 3.109375,28.7638677 C5.11650372,35.8771489 11.6863215,40 20,40 C28.3136785,40 34.9198227,35.7960943 36.9222641,28.7638677 C38.3106461,28.4135736 40,26.9363898 40,24.75 C40,22.4489236 38.1188469,20.8754886 36.7719727,20.6988281 Z M38,24.75 C38,25.8817881 37.1203152,26.8148419 35.9872668,26.8962815 L35.2484858,26.9493825 L35.083945,27.671562 C33.5740454,34.2986005 27.4658842,38 20,38 C12.5341158,38 6.42595459,34.2986005 4.91605501,27.671562 L4.75151415,26.9493825 L4.01273323,26.8962815 C2.87968484,26.8148419 2,25.8817881 2,24.75 C2,23.5534931 2.97015975,22.5833333 4.16666667,22.5833333 C4.05977736,22.5780218 4.05977736,22.5780218 4.04622448,22.575262 C4.08055861,22.5809905 4.08055861,22.5809905 4.208625,22.5872917 L5.15547005,22.5872917 L5.20713519,21.6418572 C5.61332487,14.2088826 12.0931182,8.33333333 20,8.33333333 C27.9068818,8.33333333 34.3866751,14.2088826 34.7928648,21.6418572 L34.84453,22.5872917 L35.791375,22.5872917 C35.9194414,22.5809905 35.9194414,22.5809905 35.9537755,22.575262 C35.9402226,22.5780218 35.9402226,22.5780218 35.8333333,22.5833333 C37.0298403,22.5833333 38,23.5534931 38,24.75 L38,24.75 Z"/>
    </g>
    <g fill="#D7272D" transform="translate(203 77)">
      <path d="M38.9999998,12.6999969 L39,35.9936038 C39,37.1017058 38.1054862,38 37.0059397,38 L22.9999998,38 L23,28.0000004 L18,28 L17.9999998,38 L3.99406025,38 C2.89277118,38 2,37.0995595 2,35.9936038 L2,12.6999969 L4,12.6999969 L4,36 L16,36 L16,26 L24.9969462,26 L24.9969462,35.9999995 L37,35.9999995 L37,12.6999969 L38.9999998,12.6999969 Z"/>
      <path d="M28 26L34 26 34 32 28 32 28 26zM30 28L32 28 32 30 30 30 30 28zM28 17L34 17 34 23 28 23 28 17zM30 19L32 19 32 21 30 21 30 19zM7 26L13 26 13 32 7 32 7 26zM9 28L11 28 11 30 9 30 9 28zM7 17L13 17 13 23 7 23 7 17zM9 19L11 19 11 21 9 21 9 19zM17.5 17L23.5 17 23.5 23 17.5 23 17.5 17zM19.5 19L21.5 19 21.5 21 19.5 21 19.5 19z"/>
      <path fill-rule="nonzero" d="M24.5,10 C24.5,7.790861 22.709139,6 20.5,6 C18.290861,6 16.5,7.790861 16.5,10 C16.5,12.209139 18.290861,14 20.5,14 C22.709139,14 24.5,12.209139 24.5,10 Z M20.5,12 C19.3954305,12 18.5,11.1045695 18.5,10 C18.5,8.8954305 19.3954305,8 20.5,8 C21.6045695,8 22.5,8.8954305 22.5,10 C22.5,11.1045695 21.6045695,12 20.5,12 L20.5,12 Z"/>
      <path fill-rule="nonzero" d="M20.9472366,0.12034731 C20.7002346,-0.00134630621 20.2971043,-3.52414472e-05 20.0527634,0.12034731 L0,10 L1,11.9052606 L20.5,2.30000305 L40,12 L41,10 L20.9472366,0.12034731 Z"/>
    </g>
    <g fill="#D6282C" transform="translate(332 12)">
      <polygon points="5 27 3 27 3 33 5 33"/>
      <path d="M6.00000019,37 C5.31268306,37 5.00000019,36.7178955 5.00000019,36 L3.00000019,36 C3.00000019,36 2.84069824,39 6.00000019,39 C9.15930214,39 9.5,39 9.5,39 L9.5,37 C9.5,37 6.68731732,37 6.00000019,37 Z"/>
      <polygon points="12.5 37 12.5 39 18.5 39 18.5 37"/>
      <polygon points="21.5 37 21.5 39 27.5 39 27.5 37"/>
      <path d="M33.5013369,37 C32.8140197,37 32.5013369,36.7178955 32.5013369,36 L30.5013369,36 C30.5013369,36 30.3420349,39 33.5013369,39 C36.6606388,39 37.0013369,39 37.0013369,39 L37.0013369,37 C37.0013369,37 34.188654,37 33.5013369,37 Z" transform="matrix(-1 0 0 1 67.501 0)"/>
      <polygon points="35 33 37 33 37 27 35 27"/>
      <polygon points="5 21 3 21 3 24 5 24"/>
      <polygon points="35 24 37 24 37 21 35 21"/>
      <path d="M2.5,20 L0.00025,20 L18.5859204,1.41432961 C19.3670331,0.633216935 20.6335035,0.633253455 21.419675,1.41942501 L25.00025,5 L25.00025,4.4940877 C25.00025,3.39278349 25.9038097,2.50000003 26.99226,2.50000003 L29.7080022,2.50000003 C30.808159,2.50000003 31.7000122,3.38911522 31.7000122,4.49703372 L31.7000122,11.6000004 L40.00025,20 L37.5,20 L30.00025,12.5 L30.00025,4 L26.7000122,4 L26.7000122,9.20000076 L20.00025,2.5 L2.5,20 Z"/>
    </g>
    <g fill="#D7272D" transform="translate(268 12)">
      <path fill-rule="nonzero" d="M20,38 L20,38 C29.9411255,38 38,29.9411255 38,20 C38,10.0588745 29.9411255,2 20,2 C10.0588745,2 2,10.0588745 2,20 C2,29.9411255 10.0588745,38 20,38 L20,38 Z M20,40 L20,40 C8.954305,40 0,31.045695 0,20 C0,8.954305 8.954305,0 20,0 C31.045695,0 40,8.954305 40,20 C40,31.045695 31.045695,40 20,40 L20,40 Z"/>
      <polyline points="27.316 25.414 27.543 26.776 26.156 27.044 19 22 19 11 20 10 21 11 21 21"/>
      <circle cx="20" cy="5" r="1"/>
      <circle cx="35" cy="20" r="1"/>
      <circle cx="20" cy="35" r="1"/>
      <circle cx="5" cy="20" r="1"/>
      <path d="M32.3341314 13.0999169C32.6102277 13.5781297 33.221716 13.7419775 33.6999287 13.4658812 34.1781415 13.1897849 34.3419893 12.5782966 34.065893 12.1000839 33.7897968 11.6218711 33.1783085 11.4580233 32.7000957 11.7341196 32.2218829 12.0102158 32.0580351 12.6217041 32.3341314 13.0999169L32.3341314 13.0999169zM26.8341314 33.6999173C27.1102277 34.1781301 27.721716 34.3419779 28.1999287 34.0658816 28.6781415 33.7897853 28.8419893 33.178297 28.565893 32.7000842 28.2897968 32.2218715 27.6783085 32.0580237 27.2000957 32.3341199 26.7218829 32.6102162 26.5580351 33.2217045 26.8341314 33.6999173L26.8341314 33.6999173zM6.23412528 28.1999173C6.51022155 28.6781301 7.12170986 28.8419779 7.59992263 28.5658816 8.0781354 28.2897853 8.2419832 27.678297 7.96588693 27.2000842 7.68979065 26.7218715 7.07830235 26.5580237 6.60008958 26.8341199 6.1218768 27.1102162 5.95802901 27.7217045 6.23412528 28.1999173L6.23412528 28.1999173zM11.7341253 7.59991691C12.0102216 8.07812968 12.6217099 8.24197748 13.0999226 7.9658812 13.5781354 7.68978493 13.7419832 7.07829663 13.4658869 6.60008386 13.1897907 6.12187108 12.5783024 5.95802328 12.1000896 6.23411956 11.6218768 6.51021583 11.458029 7.12170413 11.7341253 7.59991691L11.7341253 7.59991691zM27.2000957 7.9658812C27.6783085 8.24197748 28.2897968 8.07812968 28.565893 7.59991691 28.8419893 7.12170413 28.6781415 6.51021583 28.1999287 6.23411956 27.721716 5.95802328 27.1102277 6.12187108 26.8341314 6.60008386 26.5580351 7.07829663 26.7218829 7.68978493 27.2000957 7.9658812L27.2000957 7.9658812zM32.7000957 28.5658816C33.1783085 28.8419779 33.7897968 28.6781301 34.065893 28.1999173 34.3419893 27.7217045 34.1781415 27.1102162 33.6999287 26.8341199 33.221716 26.5580237 32.6102277 26.7218715 32.3341314 27.2000842 32.0580351 27.678297 32.2218829 28.2897853 32.7000957 28.5658816L32.7000957 28.5658816zM12.1000896 34.0658816C12.5783024 34.3419779 13.1897907 34.1781301 13.4658869 33.6999173 13.7419832 33.2217045 13.5781354 32.6102162 13.0999226 32.3341199 12.6217099 32.0580237 12.0102216 32.2218715 11.7341253 32.7000842 11.458029 33.178297 11.6218768 33.7897853 12.1000896 34.0658816L12.1000896 34.0658816zM6.60008958 13.4658812C7.07830235 13.7419775 7.68979065 13.5781297 7.96588693 13.0999169 8.2419832 12.6217041 8.0781354 12.0102158 7.59992263 11.7341196 7.12170986 11.4580233 6.51022155 11.6218711 6.23412528 12.1000839 5.95802901 12.5782966 6.1218768 13.1897849 6.60008958 13.4658812L6.60008958 13.4658812z"/>
    </g>
    <g fill="#D7272D" transform="translate(204 12)">
      <path d="M8.19999695,35.9000015 C10.4091359,35.9000015 12.1999969,34.1091405 12.1999969,31.9000015 C12.1999969,29.6908625 10.4091359,27.9000015 8.19999695,27.9000015 C5.99085795,27.9000015 4.19999695,29.6908625 4.19999695,31.9000015 C4.19999695,34.1091405 5.99085795,35.9000015 8.19999695,35.9000015 Z M8.19999695,33.9000015 C9.30456645,33.9000015 10.1999969,33.004571 10.1999969,31.9000015 C10.1999969,30.795432 9.30456645,29.9000015 8.19999695,29.9000015 C7.09542745,29.9000015 6.19999695,30.795432 6.19999695,31.9000015 C6.19999695,33.004571 7.09542745,33.9000015 8.19999695,33.9000015 Z"/>
      <path fill-rule="nonzero" d="M10.3525724,23.9394531 C9.41177273,23.7777481 9.15431289,23.6713525 8.20432467,23.6713525 C3.67320127,23.6713525 0,27.3445538 0,31.8756772 C0,36.4068006 3.67320127,40.0800018 8.20432467,40.0800018 C12.7354481,40.0800018 16.4086493,36.4068006 16.4086493,31.8756772 C16.4086493,30.9256889 16.3223324,30.6870956 16.1266842,29.7483845 L27.6614361,18.2250137 C28.4277344,18.3739223 28.8707109,18.4670278 29.8172987,18.4670278 C36.0177756,18.4670278 39.0508126,14.9542487 39.0508126,9.23351391 C39.0508118,8.08566856 38.6353299,5.85243193 38.6353299,5.85243193 L31.8230743,12.6648035 C29.2354527,12.2302666 27.7706089,10.5647221 27.4127159,8.26522064 L34.5305423,1.1416996 C34.5305423,1.1416996 32.2522888,7.2073475e-10 29.8172987,0 C24.0965639,-1.69328536e-09 20.5837848,3.033037 20.5837848,9.23351391 C20.5837848,10.784909 20.8941936,11.6750402 21.3581619,12.9410696 L10.3525724,23.9394531 Z M23.8039122,13.323823 C22.7902222,11.5481563 22.5837848,10.4507015 22.5837848,9.23351391 C22.5837848,4.20817538 25.3084373,1.578125 30.7963257,2.07293701 L25.3084364,7.53537831 C25.5740356,11.7832031 28.2539062,14.4533691 32.5446235,14.7715654 C32.5446235,14.7715654 35.4176636,11.8604736 37.020752,10.3430786 C36.6560059,13.9234619 34.8426372,16.4670278 29.8172987,16.4670278 C29.0739745,16.4670278 28.6148682,16.4670282 27.075213,15.9570554 L13.8373777,29.1948907 C14.4086494,30.8625493 14.4086493,31.1554885 14.4086493,31.8756772 C14.4086493,35.3022311 11.6308786,38.0800018 8.20432467,38.0800018 C4.77777077,38.0800018 2,35.3022311 2,31.8756772 C2,28.4491233 4.77777077,25.6713525 8.20432467,25.6713525 C8.92451337,25.6713525 9.5824585,25.7385869 10.8851111,26.2426241 L23.8039122,13.323823 Z"/>
    </g>
    <g fill="#D7272D" fill-rule="nonzero" opacity=".849" transform="translate(136 270)">
      <g transform="translate(0 12)">
        <path d="M23,11.5009464 C23,5.14892831 17.8511753,0 11.5,0 C5.14882471,0 0,5.14892831 0,11.5009464 C0,17.8513918 5.14914482,23 11.5,23 C17.8508552,23 23,17.8513918 23,11.5009464 L23,11.5009464 Z M21,11.5 C21,16.7452754 16.746369,20.9981131 11.5,20.9981131 C6.25363101,20.9981131 2,16.7452754 2,11.5 C2,6.25310214 6.25336656,2 11.5,2 C16.7466334,2 21,6.25310214 21,11.5 L21,11.5 Z"/>
        <path d="M16,11.5019554 C16,9.01646441 13.9847082,7 11.5,7 C9.01529182,7 7,9.01646441 7,11.5019554 C7,13.9858818 9.01568266,16.0019554 11.5,16.0019554 C13.9843173,16.0019554 16,13.9858818 16,11.5019554 L16,11.5019554 Z M14,11.5019847 C14,12.881411 12.8796437,14.0019847 11.5,14.0019847 C10.1203563,14.0019847 9,12.881411 9,11.5019847 C9,10.1207909 10.1201392,9 11.5,9 C12.8798608,9 14,10.1207909 14,11.5019847 L14,11.5019847 Z"/>
      </g>
      <g transform="translate(34.5 22)">
        <path d="M9.5,6.50079225 C9.5,4.84389696 8.15695638,3.5 6.50039607,3.5 C4.84321264,3.5 3.5,4.84372796 3.5,6.50079225 C3.5,8.1577402 4.84309625,9.5 6.50039607,9.5 C8.15707265,9.5 9.5,8.15757127 9.5,6.50079225 L9.5,6.50079225 Z M8,6.50088063 C8,7.32901732 7.32887647,8 6.50044018,8 C5.671208,8 5,7.32910169 5,6.50088063 C5,5.67211673 5.6717505,5 6.50044018,5 C7.328334,5 8,5.67220129 8,6.50088063 L8,6.50088063 Z"/>
        <path d="M6.5,0 C2.91001221,0 0,2.91063281 0,6.5008644 C0,10.0896775 2.91032253,13 6.5,13 C10.0896775,13 13,10.0896775 13,6.5008644 C13,2.91063281 10.0899878,0 6.5,0 Z M6.5,11 C4.01488468,11 2,8.98511532 2,6.50082776 C2,4.0150995 4.01466984,2 6.5,2 C8.98533016,2 11,4.0150995 11,6.50082776 C11,8.98511532 8.98511532,11 6.5,11 Z"/>
      </g>
      <polygon points="5.72 7.269 8.356 13.612 10.203 12.844 7.567 6.501"/>
      <path d="M33.576672,24.894976 C33.9501904,24.894976 34.2925734,24.6868101 34.4644752,24.3551992 C35.2941232,22.7547494 36.5193385,21.7663272 38.0671729,21.2590797 C39.4512728,20.8054905 40.9578069,20.7723082 42.3495228,20.9934637 C42.6466601,21.0406813 42.8555351,21.0862793 42.9548179,21.1129344 C43.5020566,21.2598551 44.0619247,20.9231963 44.1887433,20.3709527 L46.9881033,8.18087272 C47.131938,7.55453039 46.6561174,6.957056 46,7 L36,7 L36,0.5 L34,0.5 L34,7 L25,7 C24.7056917,6.957056 24.4166505,7.09703112 24.1999969,7.29998779 L22.0709773,10.0649747 L20.197876,8.65350342 L22.0709774,6.58746624 L20.5500031,5.20001221 L15.8304178,10.5 L17.3041779,11.8350039 L18.8463135,10.1296387 L20.8243467,11.642317 L17.9303584,15.3040349 L19.4994656,16.5441571 L25.5,9 L44.7829477,9 L44.411854,10.5 L38,10.5 L38,12 L44.0108702,12 L43.7214681,13.5 L37,13.5 L37.0000002,15 L43.3669321,15 C43.3669321,15 42.7088402,17.8974984 42.4600067,19 C40.9847539,18.7514958 39.1750458,18.7913557 37.4443369,19.3585337 C35.415129,20.0235341 33.7642818,21.493042 33,22.8999939 L22.292832,22.894976 L22.292832,24.894976 L33.576672,24.894976 Z"/>
    </g>
    <g fill="#D7272D" transform="translate(72 265)">
      <path fill-rule="nonzero" d="M25 8.28169545C25 3.9772404 21.5078875.486240909 17.2045455.486240909 12.8969544.486240909 9.40909091 3.97521668 9.40909091 8.28169545 9.40909091 9.46573501 9.67496001 10.6084843 10.1814225 11.6472241L11.9791229 10.7707122C11.6052529 10.0039157 11.4090909 9.16077892 11.4090909 8.28169545 11.4090909 5.07964345 14.0016666 2.48624091 17.2045455 2.48624091 20.4034607 2.48624091 23 5.08195264 23 8.28169545L25 8.28169545 25 8.28169545zM43.6001818 21.8835591C43.3674756 21.8835591 43.159682 21.8033067 43.159682 21.8033067 42.6143193 18.007263 40.070374 14.6599119 36.1109013 13.024658 36.1858525 11.2653806 36.4917554 9.79351758 37.7362721 6.43127867 38.015462 5.67700736 37.3352199 4.91849346 36.5551126 5.11420944 32.9052851 6.02989055 30.3975834 7.98547366 28.9108548 10.9037473 27.3087773 10.5662229 25.4371001 10.3041045 23.2023182 10.3041045 17.5962999 10.3041045 12.9849907 11.8994647 9.06617161 14.9498015 5.4931325 17.7320175 3.58780819 22.2424918 3.82305919 27.8547578 3.98660519 31.7613654 6.24732614 35.1521608 9.53666755 37.7833271 9.68155955 37.8951315 9.78833003 37.9462269 9.9009399 38.1902454 9.53666778 39.4203212 8.95975364 40.7321768 8.9249 40.8156453 8.36320231 42.286667 9.09113163 43.9052392 10.533091 44.4543243L13.8997476 45.7265013C15.3396937 46.2758314 16.9582378 45.5489222 17.50685 44.1049489 17.5455515 44.0041424 17.9757695 42.9078968 18.389832 41.6991565 20.9365849 42.2203968 22.4805302 42.5624378 28.1152348 41.9589832 28.7407841 43.837157 28.8727982 44.0503048 28.9108547 44.1400792 29.4402121 45.5482515 31.0607081 46.2755846 32.5067922 45.7257798L35.8653646 44.455083C37.3118453 43.9061376 38.0420985 42.2868806 37.4898782 40.8436143L36.9518511 39.4203223C36.9518511 39.4203223 36.7817387 39.2344349 37.1209915 39.0730007 39.6730351 37.7037342 41.5472336 35.6431959 42.8019927 33.0260616 43.0535745 32.4969957 43.1744563 32.3851955 43.6001818 32.3851955L45.3011364 32.3851955C46.7898913 32.3851955 48 31.1756009 48 29.6873773L48 24.5866045C48 23.0967757 46.7903804 21.8835591 45.3011364 21.8835591L43.6001818 21.8835591zM46 24.5866045L46 29.6873773C46 30.0708411 45.685512 30.3851955 45.3011364 30.3851955L43.6001818 30.3851955C42.2257379 30.3851955 41.5428236 31.0168046 40.9971739 32.1643082 39.9227258 34.405344 38.2847332 36.1628092 36.1657538 37.3158667 35.7600725 37.5361963 35.4441287 37.8135329 35.2255771 38.1433716 34.8285216 38.7426087 34.8095702 39.3836075 35.0077558 39.9547595 35.0545252 40.0895445 35.6205125 41.5545686 35.6205125 41.5545686 35.7779262 41.9660028 35.5694895 42.4281887 35.1566871 42.584849L31.7975445 43.8557624C31.3832437 44.0132792 30.9212244 43.8059094 30.7673968 43.3973914 30.7192033 43.2815697 29.9573709 40.3978439 28.9187338 40.0813118 27.8800966 39.7647796 25.4736755 40.2668317 23.2023182 40.2668318 20.9309608 40.2668319 18.6039046 39.6761065 18.3512232 39.6804519 17.567164 39.6939354 16.9559973 40.1275318 16.5968991 40.9005283 16.5466098 41.0087812 15.6779446 43.2885686 15.6384627 43.3914245 15.4811532 43.805454 15.0191395 44.0129504 14.6096611 43.8567385L11.2424343 42.5843442C10.834414 42.4289703 10.6261601 41.9659116 10.7820024 41.557402 10.8084011 41.4954374 11.6682208 39.2473127 11.7428667 39.0173664 12.0892997 37.9447185 11.7428667 36.8420101 10.7810448 36.217605 7.90444009 33.9165642 5.95625434 30.9945321 5.82130667 27.77105 5.61213588 22.7809664 7.25304267 18.8964477 10.2947879 16.5279339 13.863605 13.7500322 18.0429872 12.3041045 23.2023182 12.3041045 25.2775983 12.3041045 27.2965215 12.5455965 29.2145055 13.0146187 29.681748 13.1288778 30.1641371 12.8942968 30.3627851 12.4562219 31.741228 9.41636638 33.7944967 8.24201768 35.156687 7.72961956 34.5842382 9.39181381 34.0661137 11.2097833 34.1101975 13.7375869 34.1175006 14.1563523 34.3849946 14.5262015 34.7804154 14.6642602 38.5536821 15.9816721 40.7077012 18.886762 41.2409265 22.2437944 41.4035989 23.2539524 42.3510492 23.8835591 43.6001818 23.8835591L45.3011364 23.8835591C45.6844794 23.8835591 46 24.200018 46 24.5866045z"/>
      <path d="M36.0018182,25.9080591 C34.8946818,25.9080591 33.9987273,25.0121045 33.9987273,23.9070591 C33.9987273,22.8041045 34.8946818,21.90815 36.0018182,21.90815 C37.1058182,21.90815 37.9986364,22.8041045 37.9986364,23.9070591 C37.9996818,25.0110591 37.1058182,25.9080591 36.0018182,25.9080591"/>
      <path fill-rule="nonzero" d="M3.56223796,20.1723134 C2.56633582,19.4951468 2,18.5992378 2,17.3844682 C2,16.8321834 1.55228475,16.3844682 1,16.3844682 C0.44771525,16.3844682 0,16.8321834 0,17.3844682 C0,19.3265792 0.933630092,20.8035254 2.43767113,21.8262025 C3.30694314,22.4172666 4.16597256,22.7430886 4.77672457,22.8829262 C6.4150691,22.4408518 5.76144765,21.0566352 5.22309361,20.9333738 C4.39266579,20.5528436 3.92982451,20.4222549 3.56223796,20.1723134 Z"/>
    </g>
    <g fill="#D7272D" fill-rule="nonzero" transform="translate(8 265)">
      <path d="M16.3333333 2C18.4270069 2 20.125 3.69799308 20.125 5.79166667 20.125 7.88534025 18.4270069 9.58333333 16.3333333 9.58333333 14.2396597 9.58333333 12.5416667 7.88534025 12.5416667 5.79166667 12.5416667 3.69799308 14.2396597 2 16.3333333 2L16.3333333 2zM16.3333333 0C13.1350903 0 10.5416667 2.59342358 10.5416667 5.79166667 10.5416667 8.98990975 13.1350903 11.5833333 16.3333333 11.5833333 19.5315764 11.5833333 22.125 8.98990975 22.125 5.79166667 22.125 2.59342358 19.5315764 0 16.3333333 0L16.3333333 0zM24 19.25C26.6236319 19.25 28.75 21.3763681 28.75 24 28.75 26.6236319 26.6236319 28.75 24 28.75 21.3763681 28.75 19.25 26.6236319 19.25 24 19.25 21.3763681 21.3763681 19.25 24 19.25L24 19.25zM24 17.25C20.2717986 17.25 17.25 20.2717986 17.25 24 17.25 27.7282014 20.2717986 30.75 24 30.75 27.7282014 30.75 30.75 27.7282014 30.75 24 30.75 20.2717986 27.7282014 17.25 24 17.25L24 17.25z"/>
      <path d="M32.6666667 37.4166667C32.6666667 32.6477153 28.7689514 28.75 24 28.75 19.2310486 28.75 15.3333333 32.6477153 15.3333333 37.4166667L15.3333333 41.7291667C15.3333333 42.043924 15.4815275 42.3403123 15.7333333 42.5291667 16.0680978 42.78024 16.713156 43.1027691 17.7230688 43.405743 19.3171902 43.8839794 21.3902303 44.1666667 24 44.1666667 26.6097697 44.1666667 28.6828098 43.8839794 30.2769312 43.405743 31.286844 43.1027691 31.9319022 42.78024 32.2666667 42.5291667 32.5184725 42.3403123 32.6666667 42.043924 32.6666667 41.7291667L32.6666667 37.4166667 32.6666667 37.4166667zM30.6666667 37.4166667L30.6666667 41.7291667 31.0666667 40.9291667C30.9222645 41.0374683 30.4891977 41.2540017 29.7022354 41.4900904 28.3015652 41.9102915 26.4214803 42.1666667 24 42.1666667 21.5785197 42.1666667 19.6984348 41.9102915 18.2977646 41.4900904 17.5108023 41.2540017 17.0777355 41.0374683 16.9333333 40.9291667L17.3333333 41.7291667 17.3333333 37.4166667C17.3333333 33.7522847 20.3356181 30.75 24 30.75 27.6643819 30.75 30.6666667 33.7522847 30.6666667 37.4166667L30.6666667 37.4166667zM39.3333333 13.5C41.9569653 13.5 44.0833333 15.6263681 44.0833333 18.25 44.0833333 20.8736319 41.9569653 23 39.3333333 23 36.7097014 23 34.5833333 20.8736319 34.5833333 18.25 34.5833333 15.6263681 36.7097014 13.5 39.3333333 13.5L39.3333333 13.5zM39.3333333 11.5C35.6051319 11.5 32.5833333 14.5217986 32.5833333 18.25 32.5833333 21.9782014 35.6051319 25 39.3333333 25 43.0615347 25 46.0833333 21.9782014 46.0833333 18.25 46.0833333 14.5217986 43.0615347 11.5 39.3333333 11.5L39.3333333 11.5z"/>
      <path d="M48 31.6666667C48 26.8977153 44.1022847 23 39.3333333 23 34.5643819 23 30.6666667 26.8977153 30.6666667 31.6666667L30.6666667 35.9791667C30.6666667 36.293924 30.8148608 36.5903123 31.0666667 36.7791667 31.4014311 37.03024 32.0464894 37.3527691 33.0564021 37.655743 34.6505235 38.1339794 36.7235636 38.4166667 39.3333333 38.4166667 41.943103 38.4166667 44.0161431 38.1339794 45.6102646 37.655743 46.6201773 37.3527691 47.2652355 37.03024 47.6 36.7791667 47.8518058 36.5903123 48 36.293924 48 35.9791667L48 31.6666667 48 31.6666667zM46 31.6666667L46 35.9791667 46.4 35.1791667C46.2555978 35.2874683 45.822531 35.5040017 45.0355688 35.7400904 43.6348985 36.1602915 41.7548136 36.4166667 39.3333333 36.4166667 36.911853 36.4166667 35.0317681 36.1602915 33.6310979 35.7400904 32.8441356 35.5040017 32.4110689 35.2874683 32.2666667 35.1791667L32.6666667 35.9791667 32.6666667 31.6666667C32.6666667 28.0022847 35.6689514 25 39.3333333 25 42.9977153 25 46 28.0022847 46 31.6666667L46 31.6666667zM8.66666667 13.5C11.2902986 13.5 13.4166667 15.6263681 13.4166667 18.25 13.4166667 20.8736319 11.2902986 23 8.66666667 23 6.04303475 23 3.91666667 20.8736319 3.91666667 18.25 3.91666667 15.6263681 6.04303475 13.5 8.66666667 13.5L8.66666667 13.5zM8.66666667 11.5C4.93846525 11.5 1.91666667 14.5217986 1.91666667 18.25 1.91666667 21.9782014 4.93846525 25 8.66666667 25 12.3948681 25 15.4166667 21.9782014 15.4166667 18.25 15.4166667 14.5217986 12.3948681 11.5 8.66666667 11.5L8.66666667 11.5z"/>
      <path d="M17.3333333 31.6666667C17.3333333 26.8977153 13.4356181 23 8.66666667 23 3.89771525 23 0 26.8977153 0 31.6666667L0 35.9791667C0 36.293924.148194157 36.5903123.4 36.7791667.734764455 37.03024 1.37982269 37.3527691 2.38973545 37.655743 3.98385688 38.1339794 6.05689697 38.4166667 8.66666667 38.4166667 11.2764364 38.4166667 13.3494765 38.1339794 14.9435979 37.655743 15.9535106 37.3527691 16.5985689 37.03024 16.9333333 36.7791667 17.1851392 36.5903123 17.3333333 36.293924 17.3333333 35.9791667L17.3333333 31.6666667 17.3333333 31.6666667zM15.3333333 31.6666667L15.3333333 35.9791667 15.7333333 35.1791667C15.5889311 35.2874683 15.1558644 35.5040017 14.3689021 35.7400904 12.9682319 36.1602915 11.088147 36.4166667 8.66666667 36.4166667 6.24518636 36.4166667 4.36510145 36.1602915 2.96443122 35.7400904 2.17746898 35.5040017 1.74440221 35.2874683 1.6 35.1791667L2 35.9791667 2 31.6666667C2 28.0022847 5.00228475 25 8.66666667 25 12.3310486 25 15.3333333 28.0022847 15.3333333 31.6666667L15.3333333 31.6666667zM24.0416667 18.0583333L24.0416667 17.2916667C24.0416667 13.0018819 20.6231181 9.58333333 16.3333333 9.58333333 13.9798405 9.58333333 11.8557516 10.6308292 10.3822193 12.4444074 10.0339526 12.8730433 10.0991048 13.5028473 10.5277407 13.851114 10.9563766 14.1993807 11.5861806 14.1342286 11.9344473 13.7055926 13.0344508 12.3517422 14.5926132 11.5833333 16.3333333 11.5833333 19.5185486 11.5833333 22.0416667 14.1064514 22.0416667 17.2916667L22.0416667 18.0583333C22.0416667 18.6106181 22.4893819 19.0583333 23.0416667 19.0583333 23.5939514 19.0583333 24.0416667 18.6106181 24.0416667 18.0583333L24.0416667 18.0583333zM31.475 2C33.5686736 2 35.2666667 3.69799308 35.2666667 5.79166667 35.2666667 7.88534025 33.5686736 9.58333333 31.475 9.58333333 29.3813264 9.58333333 27.6833333 7.88534025 27.6833333 5.79166667 27.6833333 3.69799308 29.3813264 2 31.475 2L31.475 2zM31.475 0C28.2767569 0 25.6833333 2.59342358 25.6833333 5.79166667 25.6833333 8.98990975 28.2767569 11.5833333 31.475 11.5833333 34.6732431 11.5833333 37.2666667 8.98990975 37.2666667 5.79166667 37.2666667 2.59342358 34.6732431 0 31.475 0L31.475 0z"/>
      <path d="M25.7666667,18.0583333 L25.7666667,17.2916667 C25.7666667,14.1064514 28.2897847,11.5833333 31.475,11.5833333 C33.2157201,11.5833333 34.7738825,12.3517422 35.873886,13.7055926 C36.2221527,14.1342286 36.8519567,14.1993807 37.2805926,13.851114 C37.7092286,13.5028473 37.7743807,12.8730433 37.426114,12.4444074 C35.9525818,10.6308292 33.8284929,9.58333333 31.475,9.58333333 C27.1852153,9.58333333 23.7666667,13.0018819 23.7666667,17.2916667 L23.7666667,18.0583333 C23.7666667,18.6106181 24.2143819,19.0583333 24.7666667,19.0583333 C25.3189514,19.0583333 25.7666667,18.6106181 25.7666667,18.0583333 L25.7666667,18.0583333 Z"/>
    </g>
    <g fill="#D7272D" transform="translate(138 200)">
      <path fill-rule="nonzero" d="M40.9930191,48.0000017 C42.6537288,48.0000018 43.8479812,46.6618667 43.6614994,45.0203732 L39.7984157,11.0158443 L4.0976753,11.0158443 L0.330129206,45.0203715 C0.14780388,46.6659749 1.34085738,48.0000001 3.0069809,48.0000001 L40.9930191,48.0000017 Z M5.99676323,13 L38,13 L41.6862765,45.0123755 C41.7490859,45.5578254 41.3552764,46 40.8013155,46 L3.19868451,46 C2.6471246,46 2.25079816,45.5584558 2.31362662,45.0123755 L5.99676323,13 Z"/>
      <path fill-rule="nonzero" d="M31.9257793,9.01720235 C31.9257793,3.61642162 27.676565,0 21.9480455,0 C16.2195261,0 11.9703117,3.61642162 11.9703117,9.01720235 L11.9703117,17.0135808 C11.9703117,17.5658656 12.418027,18.0135808 12.9703117,18.0135808 C13.5225965,18.0135808 13.9703117,17.5658656 13.9703117,17.0135808 L13.9703117,9.01720235 C13.9703117,4.7989421 17.2590059,2 21.9480455,2 C26.6370851,2 29.9257793,4.7989421 29.9257793,9.01720235 L29.9257793,17.0135808 C29.9257793,17.5658656 30.3734946,18.0135808 30.9257793,18.0135808 C31.4780641,18.0135808 31.9257793,17.5658656 31.9257793,17.0135808 L31.9257793,9.01720235 Z"/>
      <path d="M30.9257793 15.0144862C32.0280455 15.0144862 32.9208313 15.909081 32.9208313 17.0135808 32.9208313 18.1180806 32.0280455 19.0126754 30.9257793 19.0126754 29.8235131 19.0126754 28.9307274 18.1180806 28.9307274 17.0135808 28.9307274 15.909081 29.8235131 15.0144862 30.9257793 15.0144862M12.9703117 15.0144862C14.0725779 15.0144862 14.9653637 15.909081 14.9653637 17.0135808 14.9653637 18.1180806 14.0725779 19.0126754 12.9703117 19.0126754 11.8680455 19.0126754 10.9752598 18.1180806 10.9752598 17.0135808 10.9752598 15.909081 11.8680455 15.0144862 12.9703117 15.0144862M20.152 38.1836596L22.6837209 38.1836596 22.6837209 40.9084255 20.152 40.9084255 20.152 38.1836596zM17.3389767 23.2444255C18.3704186 22.1169362 19.8706977 21.5531915 21.7460465 21.5531915 23.4338605 21.5531915 24.8403721 22.0229787 25.871814 23.0565106 26.9032558 23.9960851 27.4658605 25.3114894 27.4658605 26.8148085 27.4658605 27.754383 27.2783256 28.5060426 26.9032558 29.0697872 26.528186 29.6335319 25.7780465 30.4791489 24.5590698 31.6066383 23.7151628 32.4522553 23.1525581 33.1099574 22.8712558 33.6737021 22.5899535 34.1434894 22.496186 34.8951489 22.496186 36.0226383L20.152 36.0226383C20.152 34.8011915 20.3395349 33.7676596 20.6208372 33.016 20.9021395 32.2643404 21.5585116 31.4187234 22.5899535 30.3851915L23.6213953 29.3516596C23.9026977 29.0697872 24.184 28.7879149 24.3715349 28.4120851 24.7466047 27.8483404 24.9341395 27.2845957 24.9341395 26.6268936 24.9341395 25.7812766 24.6528372 25.029617 24.184 24.4658723 23.7151628 23.8081702 22.7774884 23.5262979 21.6522791 23.5262979 20.152 23.5262979 19.1205581 24.0900426 18.5579535 25.1235745 18.2766512 25.6873191 18.0891163 26.6268936 17.9953488 27.6604255L15.6511628 27.6604255C15.7449302 25.875234 16.2137674 24.3719149 17.3389767 23.2444255L17.3389767 23.2444255z"/>
    </g>
    <g fill="#D7272D" fill-rule="nonzero" transform="translate(72 200)">
      <path d="M38.8647083 44.1666667C41.1236968 44.1666667 43.0073486 42.4389501 43.2026717 40.1883799 43.4216506 37.6439978 41.4164539 35.4583333 38.86375 35.4583333L38.1066667 35.4583333C37.5543819 35.4583333 37.1066667 35.9060486 37.1066667 36.4583333 37.1066667 37.0106181 37.5543819 37.4583333 38.1066667 37.4583333L38.86375 37.4583333C40.2441165 37.4583333 41.3285101 38.6403223 41.2100997 40.0161701 41.1045379 41.2324812 40.0860374 42.1666667 38.8647083 42.1666667L33.5833333 42.1666667C33.0310486 42.1666667 33.0310486 44.1666667 33.5833333 44.1666667L38.8647083 44.1666667zM41.7282083 24.0416667C43.9584932 24.0416667 45.8273719 22.357313 46.0587695 20.1391305 46.3262431 17.5688959 44.311867 15.3333333 41.7282083 15.3333333L41.7282083 17.3333333C43.12527 17.3333333 44.2141939 18.5418254 44.0695379 19.9318681 43.9444282 21.1311721 42.9341867 22.0416667 41.7282083 22.0416667L40.2916667 22.0416667C39.7393819 22.0416667 39.2916667 22.4893819 39.2916667 23.0416667 39.2916667 23.5939514 39.7393819 24.0416667 40.2916667 24.0416667L41.7282083 24.0416667z"/>
      <path d="M40.764125,30.75 C42.9912303,30.75 44.8596959,29.0690561 45.0935937,26.8544921 C45.3660348,24.2830959 43.35029,22.0416667 40.764125,22.0416667 L40.2916667,22.0416667 C39.7393819,22.0416667 39.2916667,22.4893819 39.2916667,23.0416667 C39.2916667,23.5939514 39.7393819,24.0416667 40.2916667,24.0416667 L40.764125,24.0416667 C42.1621727,24.0416667 43.2520218,25.2535362 43.104691,26.6440974 C42.9782496,27.8412548 41.9681271,28.75 40.764125,28.75 L39.3333333,28.75 C38.7810486,28.75 38.3333333,29.1977153 38.3333333,29.75 C38.3333333,30.3022847 38.7810486,30.75 39.3333333,30.75 L40.764125,30.75 Z"/>
      <path d="M39.8086667 37.4583333C42.04409 37.4583333 43.9165701 35.765329 44.1405486 33.5417203 44.3992746 30.9768498 42.3863477 28.75 39.8086667 28.75L39.3333333 28.75C38.7810486 28.75 38.3333333 29.1977153 38.3333333 29.75 38.3333333 30.3022847 38.7810486 30.75 39.3333333 30.75L39.8086667 30.75C41.2022776 30.75 42.2905629 31.9539423 42.1506325 33.3411364 42.0295697 34.5430211 41.0172251 35.4583333 39.8086667 35.4583333L38.375 35.4583333C37.8227153 35.4583333 37.8227153 37.4583333 38.375 37.4583333L39.8086667 37.4583333zM13.4583333 37.375C11.3180903 37.375 9.58333333 39.1097569 9.58333333 41.25L9.58333333 43.1666667C9.58333333 45.3069097 11.3180903 47.0416667 13.4583333 47.0416667 15.5985764 47.0416667 17.3333333 45.3069097 17.3333333 43.1666667L17.3333333 41.25C17.3333333 39.1097569 15.5985764 37.375 13.4583333 37.375L13.4583333 37.375zM13.4583333 39.375C14.4940069 39.375 15.3333333 40.2143264 15.3333333 41.25L15.3333333 43.1666667C15.3333333 44.2023403 14.4940069 45.0416667 13.4583333 45.0416667 12.4226597 45.0416667 11.5833333 44.2023403 11.5833333 43.1666667L11.5833333 41.25C11.5833333 40.2143264 12.4226597 39.375 13.4583333 39.375L13.4583333 39.375z"/>
      <path d="M19.2083333,37.375 C17.0680903,37.375 15.3333333,39.1097569 15.3333333,41.25 L15.3333333,43.1666667 C15.3333333,45.3069097 17.0680903,47.0416667 19.2083333,47.0416667 C21.3485764,47.0416667 23.0833333,45.3069097 23.0833333,43.1666667 L23.0833333,41.25 C23.0833333,39.1097569 21.3485764,37.375 19.2083333,37.375 L19.2083333,37.375 Z M19.2083333,39.375 C20.2440069,39.375 21.0833333,40.2143264 21.0833333,41.25 L21.0833333,43.1666667 C21.0833333,44.2023403 20.2440069,45.0416667 19.2083333,45.0416667 C18.1726597,45.0416667 17.3333333,44.2023403 17.3333333,43.1666667 L17.3333333,41.25 C17.3333333,40.2143264 18.1726597,39.375 19.2083333,39.375 L19.2083333,39.375 Z"/>
      <path d="M24.9583333,37.375 C22.8180903,37.375 21.0833333,39.1097569 21.0833333,41.25 L21.0833333,43.1666667 C21.0833333,45.3069097 22.8180903,47.0416667 24.9583333,47.0416667 C27.0985764,47.0416667 28.8333333,45.3069097 28.8333333,43.1666667 L28.8333333,41.25 C28.8333333,39.1097569 27.0985764,37.375 24.9583333,37.375 L24.9583333,37.375 Z M24.9583333,39.375 C25.9940069,39.375 26.8333333,40.2143264 26.8333333,41.25 L26.8333333,43.1666667 C26.8333333,44.2023403 25.9940069,45.0416667 24.9583333,45.0416667 C23.9226597,45.0416667 23.0833333,44.2023403 23.0833333,43.1666667 L23.0833333,41.25 C23.0833333,40.2143264 23.9226597,39.375 24.9583333,39.375 L24.9583333,39.375 Z"/>
      <path d="M30.7083333 37.375C28.5680903 37.375 26.8333333 39.1097569 26.8333333 41.25L26.8333333 43.1666667C26.8333333 45.3069097 28.5680903 47.0416667 30.7083333 47.0416667 32.8485764 47.0416667 34.5833333 45.3069097 34.5833333 43.1666667L34.5833333 41.25C34.5833333 39.1097569 32.8485764 37.375 30.7083333 37.375L30.7083333 37.375zM30.7083333 39.375C31.7440069 39.375 32.5833333 40.2143264 32.5833333 41.25L32.5833333 43.1666667C32.5833333 44.2023403 31.7440069 45.0416667 30.7083333 45.0416667 29.6726597 45.0416667 28.8333333 44.2023403 28.8333333 43.1666667L28.8333333 41.25C28.8333333 40.2143264 29.6726597 39.375 30.7083333 39.375L30.7083333 39.375zM31.1341304.0951812978C30.7155679-.101789293 30.2165397.014032945 29.9275253.375229042L27.0419836 3.98143738C26.5913765 4.54469617 25.6997764 5.054577 24.9606868 5.05457722 21.482003 5.59402908 18.6637918 7.81167421 17.3857102 11.0074129L13.2764581 21.2757516C12.2845076 23.7538156 13.4900185 26.5669236 15.9684169 27.559008 18.4465656 28.5509924 21.2596736 27.3454815 22.251758 24.8670831L25.2336776 17.3333341 33.2958333 17.3333333 42.2083333 17.3333333C42.5531234 17.3333333 42.8735933 17.1557136 43.0563316 16.8633323L47.8479983 9.19666561C48.165602 8.68849962 47.9680129 8.01700835 47.425797 7.76184796L31.1341304.0951812978zM41.6861041 15.3333333L24.5884167 15.3333333C24.1795195 15.3333333 23.8118158 15.5822754 23.6599475 15.9619239L20.3949058 24.1240489C19.8133198 25.5769512 18.1641686 26.2836678 16.7116665 25.702242 15.2585488 25.1205698 14.5518322 23.4714186 15.133258 22.0189165L19.2426253 11.7502901C20.255117 9.21863721 22.7477677 7.33537938 25.2425029 7.03462237 26.5919364 6.87723233 27.8352385 6.19143085 28.6036605 5.23090338L31.011719 2.26478793 45.5450614 9.10128333 41.6861041 15.3333333z"/>
      <path d="M15.5772083,12.4583333 C13.3203283,12.4583333 11.2121077,13.5867502 9.96100465,15.46453 L6.05259473,21.3719304 L0.445299804,25.0846164 C0.101677507,25.3136979 -0.0657755654,25.7304489 0.0238129398,26.1335971 L3.85714627,43.3835971 C3.95882129,43.8411347 4.36463468,44.1666667 4.83333333,44.1666667 L10.5833333,44.1666667 C11.1356181,44.1666667 11.1356181,42.1666667 10.5833333,42.1666667 L5.64188058,42.1666673 L2.12848765,26.3865789 L7.46386725,22.8558877 L11.6252384,16.5737305 C12.5055914,15.2524094 13.9891633,14.4583333 15.5772083,14.4583333 L17.2916667,14.4583333 C17.8439514,14.4583333 17.8439514,12.4583333 17.2916667,12.4583333 L15.5772083,12.4583333 Z"/>
    </g>
    <path fill="#D7272D" fill-rule="nonzero" d="M23,2.80000305 L2.40000153,7.80000305 L2.90000153,9.80000305 L7.25232887,8.7098856 C7.25232887,8.7098856 2.13671898,21.7181873 0,27 C0,30.7204952 2.40000153,35.6499939 8.61000061,35.6499939 C14.8199997,35.6499939 17.2000008,30.8150845 17.2000008,27 C14.3384037,19.6739769 9.73362398,8.10682106 9.73362398,8.10682106 L23,4.80000305 L23,44.0000001 L17,44.0000001 L17,46.0000001 L31,46.0000001 L31,44.0000001 L25,44.0000001 L25,4.80000305 L38.2406006,8.10682106 C38.2406006,8.10682106 32.7516289,22.2194386 30.8649864,27 C31,32.6206627 34.8954926,35.6499939 39.4012146,35.6499939 C43.9069366,35.6499939 48,32.4833832 48,27 C45.8074493,21.2758179 40.7789917,8.78216553 40.7789917,8.78216553 L44.9000015,9.80000305 L45.4000015,7.80000305 L25,2.80000305 L25,0 L23,0 L23,2.80000305 Z M32.8532715,28.3300018 L45.9411011,28.3300018 C45.9411011,28.3300018 44.862917,33.6598074 39.4031992,33.6598075 C33.9434814,33.6598077 32.8532715,28.3300018 32.8532715,28.3300018 Z M39.4180483,10.6861097 L45.6364015,26.3140889 L33.3000002,26.3140889 L39.4180483,10.6861097 Z M2,28.3300018 L15.0878296,28.3300018 C15.0878296,28.3300018 14.0096455,33.6598074 8.54992775,33.6598075 C3.09020996,33.6598077 2,28.3300018 2,28.3300018 Z M8.41804826,10.6861097 L14.6364015,26.3140889 L2.30000019,26.3140889 L8.41804826,10.6861097 Z" transform="translate(8 201)"/>
    <g transform="translate(136 138)">
      <path fill="#D7272D" d="M0,10.9992106 C0,9.34279232 1.33389258,8 3.00261497,8 L44.997385,8 C46.6556835,8 48,9.35059566 48,10.9992106 L48,40.0007894 C48,41.6572077 46.6661074,43 44.997385,43 L3.00261497,43 C1.34431651,43 0,41.6494043 0,40.0007894 L0,10.9992106 Z M2,23 L17,23 L17,21 L2,21 L2,10.9955775 C2,10.4457352 2.44981558,10 3.00167227,10 L44.9983277,10 C45.551536,10 46,10.444837 46,10.9955775 L46,21 L31,21 L31,23 L46,23 L46,40.0066023 C46,40.5552407 45.5501844,41 44.9983277,41 L3.00167227,41 C2.44846395,41 2,40.5550537 2,40.0066023 L2,23 Z"/>
      <path fill="#D7272D" d="M19,18.9970301 C19,18.4463856 19.4556644,18 19.9953976,18 L28.0046024,18 C28.5543453,18 29,18.4530363 29,18.9970301 L29,25.0029699 C29,25.5536144 28.5443356,26 28.0046024,26 L19.9953976,26 C19.4456547,26 19,25.5469637 19,25.0029699 L19,18.9970301 Z M21,20 L27,20 L27,24 L21,24 L21,20 Z"/>
      <path fill="#D82A2C" d="M34,6 L34.003,3 C34.0046569,1.34314575 32.662285,3.72843968e-18 31.0108997,8.31058022e-18 L16.9951003,4.7200571e-17 C15.3409521,5.17903777e-17 14,1.34651712 14,3 L14,6 L16,6 L16,4 C16,2.8954305 16.8945138,2 17.9940603,2 L30.0059397,2 C31.1072288,2 32,2.88772964 32,4 L32,6 L34,6 Z"/>
    </g>
    <g fill="#D7272D" fill-rule="nonzero" transform="translate(72 136)">
      <path d="M13.7864949,38.151422 C13.7743924,38.0727415 13.7539932,37.9053902 13.7328822,37.6603098 C13.5291102,35.2946907 13.781602,32.5505738 14.8399536,29.9700864 C16.6368086,25.5889698 20.3840612,22.7241706 26.744134,22.0340695 C32.0461045,21.4586771 37.2155918,23.0608838 42.0042564,26.1012703 C43.4542982,27.021921 44.7590428,28.0087653 45.895845,28.9942454 C46.2920641,29.337723 46.6382677,29.6557172 46.9317023,29.9397413 C47.1042717,30.1067764 47.2187425,30.2229946 47.2723965,30.2799026 L47.1103101,29.1373394 C47.0597364,29.2358903 46.9510592,29.4346012 46.7845105,29.7190721 C46.5022026,30.2012638 46.1623865,30.740691 45.7653653,31.3229522 C44.6280417,32.990922 43.2646576,34.6600769 41.6790075,36.2158013 C37.7678249,40.053169 33.181843,42.5614194 27.9268094,43.1396906 C24.8535722,43.4774981 21.7435973,43.0207023 18.8093275,42.0493675 C18.016246,41.7868327 17.2987197,41.5059722 16.6707437,41.2261248 C16.3000642,41.0609374 16.0460221,40.9353003 15.9224372,40.8686978 C15.4362597,40.6066865 14.8297329,40.7884092 14.5677216,41.2745867 C14.3057103,41.7607641 14.487433,42.367291 14.9736105,42.6293022 C15.1398881,42.7189127 15.4386145,42.8666485 15.8566526,43.0529405 C16.5432061,43.358892 17.3222449,43.6638304 18.1808073,43.9480413 C21.3674085,45.0029057 24.7546143,45.5004214 28.1454515,45.1277036 C33.892534,44.4952867 38.8717058,41.7719856 43.0796853,37.6434223 C44.7651421,35.9897749 46.2104546,34.2203171 47.417787,32.4496742 C47.8413954,31.828421 48.2055874,31.2502991 48.5104624,30.7295621 C48.6962235,30.4122758 48.8226232,30.1811601 48.8896899,30.0504702 C49.0830314,29.6737136 49.0181027,29.2160248 48.7276035,28.9079069 C48.6534806,28.8292884 48.5176597,28.6913943 48.3226847,28.5026721 C48.0035453,28.1937675 47.6304465,27.8510696 47.205897,27.4830328 C45.9976458,26.4356144 44.6146175,25.3895602 43.0762638,24.412839 C37.9364862,21.1495262 32.3401477,19.4150233 26.5283711,20.045742 C19.4331381,20.8156117 15.0624085,24.1570632 12.9895383,29.2111639 C11.7917256,32.1316872 11.511544,35.1767416 11.7402611,37.8319521 C11.7653107,38.1227562 11.791072,38.3340982 11.8097432,38.4554828 C11.8937073,39.0013477 12.4042845,39.3757923 12.9501494,39.2918282 C13.4960143,39.2078641 13.8704589,38.6972869 13.7864949,38.151422 L13.7864949,38.151422 Z"/>
      <path d="M8.62941027 46.1989122C8.68159218 46.0915103 8.79728953 45.8722734 8.97861579 45.5572413 9.28687841 45.0216728 9.66509244 44.4220895 10.1153055 43.7744984 11.4070151 41.9164898 13.012063 40.0559879 14.9461402 38.3197119 17.1301672 36.3590489 19.5996993 34.6828077 22.3672667 33.3776884 23.4215836 32.8804325 24.5587171 32.4671409 25.7670611 32.1329517 29.422896 31.121865 33.3091161 30.9035797 36.7199147 31.1375537 37.143006 31.1665769 37.439228 31.1951676 37.5889409 31.2133093 38.1372149 31.2797477 38.6355377 30.8891427 38.701976 30.3408687 38.7684143 29.7925946 38.3778093 29.2942718 37.8295353 29.2278335 37.7799844 29.2218291 37.6911277 29.2121243 37.5653712 29.1999866 37.3604183 29.180205 37.1234242 29.1605335 36.8567891 29.1422429 33.2399003 28.8941315 29.142747 29.1242647 25.2339388 30.2053157 23.9196616 30.5688027 22.6758506 31.0208662 21.5141639 31.5687617 18.5642794 32.9598576 15.9339341 34.7452537 13.6100797 36.8314437 11.5546227 38.6766858 9.84921139 40.6535246 8.47315617 42.6328567 7.98965148 43.3283349 7.58117874 43.9758874 7.24523795 44.5595433 7.04004216 44.9160458 6.90260571 45.1764765 6.83049449 45.3248973 6.58914195 45.8216542 6.79618807 46.4200101 7.29294494 46.6613627 7.78970182 46.9027152 8.38805773 46.6956691 8.62941027 46.1989122L8.62941027 46.1989122zM8.10150589 29.1976592C3.97065747 26.7536783 2 22.8509934 2 17.9468571 2 14.4106206 3.41290898 10.7537504 5.78152318 7.20368123 6.61921972 5.94814511 7.51784989 4.79707357 8.41559488 3.77753507 8.72879414 3.4218453 9.01886369 3.10862822 9.27805616 2.8411637 9.43073885 2.6836082 9.53719025 2.57817723 9.58966467 2.52811132L8.17604652 2.49511804C8.22030932 2.54148255 8.30970926 2.63809507 8.43776205 2.78133686 8.65491034 3.0242422 8.89786086 3.30664517 9.16012321 3.62488958 9.91140776 4.53654202 10.6632516 5.54870331 11.3637417 6.63124749 12.9261334 9.04578253 13.9994005 11.446052 14.3684861 13.6827188 14.8372326 16.5240089 14.2560671 19.2124795 12.9164047 21.664038 12.4156228 22.58046 11.8329364 23.413834 11.2233454 24.1306943 10.7881492 24.6424716 10.3657159 25.0577964 10.1648095 25.2084762 9.72298172 25.539847 9.63343867 26.1666484 9.96480952 26.6084762 10.2961804 27.050304 10.9229817 27.139847 11.3648095 26.8084762 14.3385216 24.5781921 17.2991829 19.1602342 16.3418058 13.3571284 15.9211169 10.8077436 14.7417507 8.17019293 13.0428676 5.54472264 12.2978807 4.39341277 11.5009991 3.32061986 10.7035583 2.35295868 10.4237667 2.01344333 10.1633815 1.71077444 9.92881821 1.44838842 9.78584406 1.28845539 9.68165333 1.17585879 9.62266777 1.11407243 9.2413828.714683065 8.60855244.699913059 8.20904962 1.08107916 8.13809658 1.14877553 8.0131215 1.27255261 7.84180712 1.44933444 7.56100448 1.73909881 7.24936518 2.0756069 6.9145703 2.45582208 5.96090346 3.53886914 5.0081218 4.7593043 4.11783397 6.09366401 1.54934995 9.94329723 0 13.953302 0 17.9468571 0 23.5231848 2.30790162 28.0937472 7.08311316 30.9189599 7.55843723 31.2001813 8.17173851 31.04283 8.45295989 30.5675059 8.73418128 30.0921818 8.57682997 29.4788805 8.10150589 29.1976592L8.10150589 29.1976592z"/>
      <path d="M7.17989431,11.6312519 C4.50239386,17.5226951 4.59057583,21.8898137 6.39205372,28.9156128 C7.58412267,33.5647051 7.80279352,34.841935 7.48297233,36.7810789 C7.39309867,37.326002 7.76198912,37.8406064 8.3069122,37.9304801 C8.85183529,38.0203537 9.36643973,37.6514633 9.45631339,37.1065402 C9.84050019,34.777134 9.60097784,33.378113 8.32938205,28.4188645 C6.63060452,21.7935987 6.55095418,17.8490006 9.00067712,12.4587481 C9.22918388,11.9559528 9.0068291,11.3631154 8.50403381,11.1346086 C8.00123852,10.9061018 7.40840107,11.1284566 7.17989431,11.6312519 L7.17989431,11.6312519 Z"/>
    </g>
    <path fill="#D7272D" d="M24.002,5.566 C21.048,1.978 17.124,0.008 12.904,0.008 C6.646,0.008 0,4.706 0,13.412 C0,22.37 7.944,28.618 13.74,33.18 C15.936,34.912 17.544,36.14 18.856,37.138 C20.926,38.716 21.972,39.508 23.088,40.622 C23.33,40.864 23.654,40.998 24.002,40.998 C24.346,40.998 24.672,40.868 24.912,40.622 C26.394,39.148 27.742,38.13 31.346,35.396 L34.244,33.194 C39.052,29.542 48.004,22.738 48.004,13.322 C48.006,4.67 41.366,0 35.12,0 C30.89,0 26.954,1.974 24.002,5.566 Z M24.002,8.69999695 C21.1069565,5.07800007 18.4461575,2.16863655 12.904,2.008 C7.87135601,2 2,5.706 2,13.412 C2,22.37 11.1692419,28.361517 16.74,33 C20.8478222,36.0209808 24.0020008,38.6999969 24.0020008,38.6999969 C24.0020008,38.6999969 26.6794243,36.3642349 31.244,33 C35.8500481,29.2254314 46.0015389,22.7379998 46.004,13.322 C46.006,5.67 40.1388741,2 35.12,2 C29.5319996,2.20691334 26.8864937,5.07800007 24.002,8.69999695 Z" transform="translate(8 139)"/>
    <g fill="#D7272D" transform="translate(136 72)">
      <path d="M24,48 C37.254834,48 48,37.254834 48,24 C48,10.745166 37.254834,0 24,0 C10.745166,0 0,10.745166 0,24 C0,37.254834 10.745166,48 24,48 L24,48 Z M24,46 C36.1502645,46 46,36.1502645 46,24 C46,11.8497355 36.1502645,2 24,2 C11.8497355,2 2,11.8497355 2,24 C2,36.1502645 11.8497355,46 24,46 L24,46 Z"/>
      <path d="M29,11.9973917 C29,10.8942627 28.1125667,10 27.000385,10 L20.999615,10 C19.8952581,10 19,10.8958578 19,11.9973917 L19,19 L11.9973917,19 C10.8942627,19 10,19.8874333 10,20.999615 L10,27.000385 C10,28.1047419 10.8958578,29 11.9973917,29 L19,29 L19,36.0026083 C19,37.1057373 19.8874333,38 20.999615,38 L27.000385,38 C28.1047419,38 29,37.1041422 29,36.0026083 L29,29 L36.0026083,29 C37.1057373,29 38,28.1125667 38,27.000385 L38,20.999615 C38,19.8952581 37.1041422,19 36.0026083,19 L29,19 L29,11.9973917 Z M21,21 L21,12 L27,12 L27,21 L36,21 L36,27 L27,27 L27,36 L21,36 L21,27 L12,27 L12,21 L21,21 Z"/>
    </g>
    <g fill="#D7272D" fill-rule="nonzero" transform="translate(73 72)">
      <path d="M3 41L3 44C3 46.2046438 4.79523205 48 7.009763 48L8.990237 48C11.2122004 48 13 46.209139 13 44L13 41 11 41 11 44C11 45.1066153 10.1055814 46 8.990237 46L7.009763 46C5.90061329 46 5 45.1008821 5 44L5 41 3 41zM34 41L34 44C34 46.2046438 35.795232 48 38.009763 48L39.990237 48C42.2122004 48 44 46.209139 44 44L44 41 42 41 42 44C42 45.1066153 41.1055814 46 39.990237 46L38.009763 46C36.9006133 46 36 45.1008821 36 44L36 41 34 41z"/>
      <path d="M45.9906543,18 C45.9906547,19.0544825 46,38.009947 46,38.009947 C46,40.2135924 44.2108635,42 41.9982716,42 L4.00172845,42 C1.79163485,42 0,40.2157067 0,38.009947 L0,18 C0,16.1124163 1.89781891,5.89666855 1.89781891,5.89666855 C2.50653672,2.64002843 5.68662393,0 8.99922047,0 L37.0007795,0 C40.3140575,0 43.495389,2.65033094 44.1021811,5.89666855 C44.1021811,5.89666855 45.990654,16.9455175 45.9906543,18 Z M2,20 L2,38.009947 C2,39.1089323 2.89400234,40 4.00172845,40 L41.9982716,40 C43.1065447,40 44,39.1087671 44.0000002,38.010933 C43.9997082,37.4185485 43.9906543,20.0000007 43.9906543,20.0000007 L2,20 Z M37.0007795,2 L8.99922047,2 C6.64919165,2 4.29552681,3.95424263 3.86417535,6.26196618 C3.84974099,6.3396609 2,17.4117352 2,18 L43.9906543,18.0000007 C43.9906543,17.7308348 42.1453503,6.31892702 42.13077,6.23362279 C41.7056083,3.96031521 39.3471902,2 37.0007795,2 Z"/>
      <path d="M6 31C6 28.2385763 8.23857625 26 11 26 13.7614237 26 16 28.2385763 16 31 16 33.7614237 13.7614237 36 11 36 8.23857625 36 6 33.7614237 6 31zM14 31C14 29.3431458 12.6568542 28 11 28 9.34314575 28 8 29.3431458 8 31 8 32.6568542 9.34314575 34 11 34 12.6568542 34 14 32.6568542 14 31zM35 36L35 36C32.2385763 36 30 33.7614237 30 31 30 28.2385763 32.2385763 26 35 26 37.7614237 26 40 28.2385763 40 31 40 33.7614237 37.7614237 36 35 36L35 36zM35 34L35 34C36.6568542 34 38 32.6568542 38 31 38 29.3431458 36.6568542 28 35 28 33.3431458 28 32 29.3431458 32 31 32 32.6568542 33.3431458 34 35 34L35 34z"/>
    </g>
    <path fill="#D7272D" d="M7.27101175,9.58876026 C7.07723741,17.212492 9.39163789,24.9289492 14.3312136,31.4008109 C11.6018316,33.3866583 8.58807127,34.9085649 5.41853447,35.9320719 C5.53728515,36.1166167 4.70076092,34.7827445 4.24756515,33.8783082 C2.75821215,30.906028 1.92,27.5509014 1.92,24 C1.92,19.0814915 3.52821299,14.5386013 6.24748419,10.8684841 C6.69556328,10.2637255 7.40522087,9.4331069 7.27101175,9.58876026 L7.27101175,9.58876026 Z M9.37335106,7.45917648 C8.64665026,15.335548 10.7701908,23.4723648 15.8909782,30.1893458 C18.5887083,27.9548162 20.9568676,25.2332377 22.8540738,22.0624934 C19.41938,15.8954936 18.1334469,9.09763575 18.7614895,2.54514939 C18.9070999,2.50972017 18.1500524,2.69648142 17.6365145,2.85078164 C15.0882733,3.61643925 12.7339005,4.83005952 10.6648844,6.40015413 C9.95511022,6.93877373 9.1238017,7.68001284 9.37335106,7.45917648 L9.37335106,7.45917648 Z M43.7979093,14.2129723 C37.1600591,9.9476586 29.0536643,7.93103335 20.697309,9.01635839 C20.4590138,6.72361245 20.4743963,4.42453431 20.7324768,2.16010096 C20.571544,2.18397337 21.5386591,2.04581648 22.1950872,1.99270909 C22.790366,1.9445489 23.3923162,1.92 24,1.92 C31.9882884,1.92 38.9857737,6.16213207 42.8625888,12.5165289 C43.2691794,13.1829621 43.8586942,14.3356971 43.7979093,14.2129723 L43.7979093,14.2129723 Z M45.1300412,17.5730383 C38.4855605,12.4074355 29.875465,9.81933387 20.9629817,10.9733377 C21.5460074,14.4463974 22.7218872,17.8778897 24.5291341,21.124082 C32.5147865,21.2473695 39.8244962,24.1565403 45.5292491,28.9225803 C45.4933809,29.0801082 45.7218652,28.0435905 45.8271733,27.3521797 C45.9936631,26.2590742 46.08,25.1396196 46.08,24 C46.08,22.1730973 45.8581254,20.3980161 45.4398526,18.7002329 C45.2449555,17.9091391 45.0077091,17.1703237 45.1300412,17.5730383 L45.1300412,17.5730383 Z M14.0632123,43.723023 C23.2441442,41.0668817 31.141216,34.4195538 35.0758749,25.0300691 C31.7772486,23.7989877 28.2183388,23.1018934 24.5042921,23.0439325 C20.2739098,30.1167283 13.8343684,35.0829597 6.58009772,37.5689905 C6.49756943,37.4631916 6.88565152,37.9590742 7.176373,38.3007495 C8.81734309,40.229327 10.7840526,41.8721798 12.9914286,43.1442351 C13.7173181,43.562547 14.4504551,43.9185067 14.0632123,43.723023 L14.0632123,43.723023 Z M16.8399324,44.8931873 C25.6212182,41.6958175 33.0545903,34.9765792 36.9035912,25.7783496 C39.855008,27.0962276 42.5678327,28.8523166 44.9593598,30.9639112 C45.0357643,30.7338405 44.8357304,31.3473183 44.6352028,31.8726198 C41.4641098,40.1796078 33.4211101,46.08 24,46.08 C21.6605373,46.08 19.4060538,45.7161612 17.2900475,45.041982 C17.0225308,44.9567487 16.7242671,44.8535584 16.8399324,44.8931873 L16.8399324,44.8931873 Z M48,24 C48,10.745166 37.254834,0 24,0 C10.745166,0 0,10.745166 0,24 C0,37.254834 10.745166,48 24,48 C37.254834,48 48,37.254834 48,24 L48,24 Z" transform="translate(8 72)"/>
    <g fill="#D7272D" transform="translate(136 9)">
      <path d="M4 25L6 25 6 44 18 44 18 30 30 30 30 44 42 44 42 25 44 25 44 44.0054385C44 45.1070044 43.1054862 46 42.0059397 46L28 46 28 32 20 32 20 46 5.99406028 46C4.8927712 46 4 45.0976562 4 44.0054385L4 25zM20 15L28 15 28 25 20 25 20 15zM22 17L22 23 26 23 26 17 22 17z"/>
      <path d="M3,24 L0,24 L22.5882915,1.41170852 C23.3679566,0.632043433 24.6307648,0.630764812 25.4143185,1.4143185 L30,6 L30,5.00104344 C30,3.89589766 30.8867064,3 31.9981014,3 L36.0018986,3 C37.1054196,3 38,3.90017617 38,4.99201702 L38,14 L48,24 L45,24 L36,15 L36,5 L32,5 L32,11 L24,3 L3,24 Z"/>
    </g>
    <g fill="#D7272D" transform="translate(72 8)">
      <path d="M30 38L32.9 38C32.9 38 33.6350864 44.6974632 33.8 45 33.9649136 45.3025368 34.0199609 45.9999992 35 46 35.9800391 46.0000008 36.0432711 45.9999989 37 46 37.9567289 46.0000011 38.0776081 45.3186596 38.2 45 38.3223919 44.6813404 39.1000004 37.9999998 39.1000004 37.9999998L43.6 37.9999998 41 30 42 22.8 44 23.1 43 30 46.4 39.9999998 40.8999996 40.0000008C40.8999996 40.0000008 40.4939447 43.6037876 40.3 45 40.1060553 46.3962124 38.9239531 48.0000008 37 48.0000008 35.0760469 48.0000008 36.8885541 47.9999989 35 48 33.1114459 48.0000011 31.8556639 46.3691814 31.7 45 31.5443361 43.6308186 31.1 40 31.1 40L30 40 30 38zM13.5 25L20.9 25C20.9 25 21.9778252 34.8363619 22.3000031 36.7999992 22.44455 37.8222068 22.9364615 37.9974632 24 37.9974632 25.0635385 37.9974632 25.5324211 37.8477392 25.6999969 36.7999992 25.9748722 35.0813877 27.1 25 27.1 25L34 25 34 27 28.9 27C28.9 27 28.3508348 31.7000008 27.8000031 36.7000008 27.4442034 39.2857819 26.0855274 39.9984322 24 39.9984322 21.9144726 39.9984322 20.5315224 39.193009 20.1999969 36.7000008 19.630722 31.6903505 19.1 27 19.1 27L13.5 27 13.5 25z"/>
      <path d="M6 23L6 45C6 45 6 46 7 46 8 46 8 45 8 45L8 33 14 33 14 45C14 45 14 46 15 46 16 46 16 45 16 45L16 34 18 34 18 45C18 45 18 48 15 48 12 48 12 45 12 45L12 35 10 35 10 45C10 45 10 48 7 48 4 48 4 45 4 45L4 23 6 23zM30 14L42.0062606 14C45.3165115 14 48 16.6780403 48 20.0033309L48 30 46 30 46 19.9931023C46 17.7877728 44.2111696 16 42.0037973 16L30 16 30 14z"/>
      <path d="M-.77635684e-15 30L-.77635684e-15 20.0033309C-.77635684e-15 16.6877828 2.69478187 14 5.99373937 14L18 14 18 16 5.99620271 16C3.78916089 16 2 17.7873299 2 19.9931023L2 30-.77635684e-15 30zM24 24C21.2385763 24 19 21.7614237 19 19 19 16.2385763 21.2385763 14 24 14 26.7614237 14 29 16.2385763 29 19 29 21.7614237 26.7614237 24 24 24zM24 22C25.6568542 22 27 20.6568542 27 19 27 17.3431458 25.6568542 16 24 16 22.3431458 16 21 17.3431458 21 19 21 20.6568542 22.3431458 22 24 22zM36 12C32.6862915 12 30 9.3137085 30 6 30 2.6862915 32.6862915 0 36 0 39.3137085 0 42 2.6862915 42 6 42 9.3137085 39.3137085 12 36 12zM36 10C38.209139 10 40 8.209139 40 6 40 3.790861 38.209139 2 36 2 33.790861 2 32 3.790861 32 6 32 8.209139 33.790861 10 36 10zM11 12C7.6862915 12 5 9.3137085 5 6 5 2.6862915 7.6862915 0 11 0 14.3137085 0 17 2.6862915 17 6 17 9.3137085 14.3137085 12 11 12zM11 10C13.209139 10 15 8.209139 15 6 15 3.790861 13.209139 2 11 2 8.790861 2 7 3.790861 7 6 7 8.209139 8.790861 10 11 10z"/>
    </g>
    <g transform="translate(8 7)">
      <polygon fill="#D7272D" points="35 28 45.001 38 37.001 46 27.001 35.998 25.5 37.499 37.001 49 48 38 36.5 26.5"/>
      <polygon fill="#D7272D" points="0 12 11.5 23.499 13.001 22 3.001 12 11.002 4 21.001 14 22.5 12.499 11.002 .999"/>
      <path fill="#D7272D" d="M12.001,42.9994 L6.001,44.9994 L4.001,42.9994 L6.001,37.0004 L40.001,2.9994 L42.3,5.2994 L10,37.5994 C10,37.5994 9.322,38.3514 10,38.9994 C10.68,39.6474 11.401,38.9994 11.401,38.9994 L43.701,6.6994 L46,8.9994 L12.001,42.9994 Z M41.417,1.4154 C41.025,1.0244 40.514,0.8284 40.003,0.8284 C39.489,0.8284 38.978,1.0224 38.59,1.4114 L4.001,35.9994 L0,48.9994 L13.001,44.9994 L47.59,10.4114 C48.36,9.6404 48.366,8.3654 47.584,7.5834 L41.417,1.4154 Z"/>
      <polygon fill="#D5292B" points="4.555 15.658 3.141 14.244 5.969 11.416 7.383 12.83"/>
      <polygon fill="#D5292B" points="7.166 18.704 5.752 17.29 8.091 14.951 9.505 16.365"/>
      <polygon fill="#D5292B" points="10.212 21.315 8.798 19.901 11.626 17.073 13.04 18.487"/>
      <polygon fill="#D5292B" points="34.961 46.063 33.547 44.649 36.376 41.821 37.79 43.235"/>
      <polygon fill="#D5292B" points="31.915 43.453 30.5 42.039 32.839 39.7 34.253 41.113"/>
      <polygon fill="#D5292B" points="29.304 40.407 27.89 38.992 30.718 36.164 32.132 37.578"/>
    </g>
  </g>
</svg>
