<svg xmlns="http://www.w3.org/2000/svg" width="18" height="24" viewBox="0 0 18 24">
  <g fill="none" fill-rule="evenodd">
    <path fill="#CCCCCC" d="M17,4.019274 L14,1 L1,1 C1.02671281,1 1,23 1,23 C1,22.9486993 17,23 17,23 C16.9726398,23 17,4.019274 17,4.019274 Z M0.993397683,24 C0.444759292,24 1.95585549e-14,23.5525308 1.95815875e-14,22.9993054 L2.04974637e-14,1.00069463 C2.05204731e-14,0.448026248 0.447489426,0 0.998502329,0 L13,0 L18,5.019274 L18,23.0062379 C18,23.5550776 17.5550537,24 17.0066023,24 L0.993397683,24 Z"/>
    <path fill="#6F94C3" d="M13.0001551,0 L13.0000311,4.00019251 C13.000014,4.55237094 13.4437168,5 13.9998076,5 L18,5 L13.0001551,0 Z"/>
    <path fill="#197342" d="M7.73399981,12.938 L5.35399981,9 L7.64999981,9 C7.64999981,9 8.97533249,11.4026652 9.10599981,11.692 L9.16199981,11.692 C9.26466699,11.4026652 10.4779998,9 10.4779998,9 L12.6759998,9 L10.3099998,13.036 L12.8299998,17.628 L10.5339998,17.628 C10.5339998,17.628 9.06866713,14.5480014 8.93799981,14.268 L8.88199981,14.268 C8.77933263,14.5480014 7.41199981,17.628 7.41199981,17.628 L5.19999981,17.628 L7.73399981,12.938 Z"/>
  </g>
</svg>
