<svg xmlns="http://www.w3.org/2000/svg" width="32" height="32" viewBox="0 0 32 32">
  <g fill="none" fill-rule="evenodd">
    <path fill="#6F94C3" d="M8.99508929,4 C7.8932319,4 7,4.89702623 7,6.00494659 L7,25.9950534 C7,27.1023548 7.8926228,28 8.99508929,28 L23.0049107,28 C24.1067681,28 25,27.1029738 25,25.9950534 L25,6.00494659 C25,4.89764516 24.1073772,4 23.0049107,4 L8.99508929,4 Z M9.00087166,5 C8.4481055,5 8,5.43945834 8,6.00246167 L8,25.9975383 C8,26.5511826 8.44463086,27 9.00087166,27 L22.9991283,27 C23.5518945,27 24,26.5605417 24,25.9975383 L24,6.00246167 C24,5.44881738 23.5553691,5 22.9991283,5 L9.00087166,5 Z"/>
    <path fill="#000000" d="M10,21 L16,21 L16,22 L10,22 L10,21 Z M10,18 L22,18 L22,19 L10,19 L10,18 Z M10,15 L22,15 L22,16 L10,16 L10,15 Z M10,12 L22,12 L22,13 L10,13 L10,12 Z M10,9 L20,9 L20,10 L10,10 L10,9 Z"/>
  </g>
</svg>
