<?xml version="1.0" encoding="UTF-8"?>
<svg width="18px" height="24px" viewBox="0 0 18 24" version="1.1" xmlns="http://www.w3.org/2000/svg" xmlns:xlink="http://www.w3.org/1999/xlink">
    <title>Ark ikon</title>
    <defs></defs>
    <g id="Page-1" stroke="none" stroke-width="1" fill="none" fill-rule="evenodd">
        <g fill="#FFFFFF">
            <path d="M2.001,1 C1.448,1 1,1.439 1,2.002 L1,21.998 C1,22.551 1.444,23 2.001,23 L15.999,23 C16.552,23 17,22.561 17,21.998 L17,2.002 C17,1.449 16.556,1 15.999,1 L2.001,1 Z M1.995,0 C0.894,0 0,0.897 0,2.005 L0,21.995 C0,23.103 0.893,24 1.995,24 L16.005,24 C17.106,24 18,23.103 18,21.995 L18,2.005 C18,0.897 17.107,0 16.005,0 L1.995,0 Z" id="Fill-1"></path>
            <path d="M3,6 L13,6 L13,5 L3,5 L3,6 Z M3,9 L15,9 L15,8 L3,8 L3,9 Z M3,12 L15,12 L15,11 L3,11 L3,12 Z M3,15 L15,15 L15,14 L3,14 L3,15 Z M3,18 L9,18 L9,17 L3,17 L3,18 Z" id="Fill-3"></path>
        </g>
    </g>
</svg>