<svg xmlns="http://www.w3.org/2000/svg" width="32" height="32" viewBox="0 0 32 32">
  <path fill="#FFFFFF" fill-rule="evenodd" d="M9.49895656,4 C8.94724809,4 8.5,4.44386482 8.5,5 L8.5,6 L4.99869585,6 C4.44713136,6 4,6.43945834 4,7.00246167 L4,26.9975383 C4,27.5511826 4.44746922,28 5.00069463,28 L26.9993054,28 C27.5519738,28 28,27.5605417 28,26.9975383 L28,7.00246167 C28,6.44881738 27.5520711,6 27.0013041,6 L23.5,6 L23.5,5 C23.5,4.44771525 23.0573397,4 22.5010434,4 L21.4989566,4 C20.9472481,4 20.5,4.44386482 20.5,5 L20.5,6 L11.5,6 L11.5,5 C11.5,4.44771525 11.0573397,4 10.5010434,4 L9.49895656,4 Z M27,12 L27,27 L5,27 L5,12 L27,12 Z M8.5,7 L8.5,7.79474717 C8.5,8.34993466 8.94266033,8.8000026 9.49895656,8.80000204 L10.5010434,8.80000102 C11.0527519,8.80000045 11.5,8.345784 11.5,7.79474583 L11.5,7 L20.5,7 L20.5,7.79474717 C20.5,8.34993466 20.9426603,8.8000026 21.4989566,8.80000204 L22.5010434,8.80000102 C23.0527519,8.80000045 23.5,8.345784 23.5,7.79474583 L23.5,7 L27,7 L27,11 L5,11 L5,7 L8.5,7 Z M10.5,5 L10.5,8 L9.5,8 L9.5,5 L10.5,5 Z M22.5,5 L22.5,8 L21.5,8 L21.5,5 L22.5,5 Z M9.64080705,17.88 L10.705807,17.88 C10.705807,17.64 10.753807,15.96 12.385807,15.96 C13.777807,15.96 13.960807,16.92 13.960807,17.4 C13.960807,17.88 13.672807,18.84 12.280807,18.84 C12.280807,18.84 11.860807,18.792 11.860807,18.84 L11.860807,19.74 C12.052807,19.692 12.235807,19.695 12.475807,19.695 C13.147807,19.695 14.350807,20.031 14.350807,21.375 C14.350807,21.951 13.918807,23.1 12.430807,23.1 C10.798807,23.1 10.555807,21.711 10.555807,21.135 L9.50580705,21.135 C9.45780705,21.807 9.64680705,24.015 12.430807,24.015 C13.438807,24.015 15.460807,23.586 15.460807,21.33 C15.460807,19.794 14.494807,19.266 13.870807,19.17 L13.870807,19.125 C14.206807,18.933 15.070807,18.396 15.070807,17.34 C15.070807,16.956 14.977807,15 12.385807,15 C9.79380705,15 9.64080705,17.448 9.64080705,17.88 Z M17,16.68 L17,17.535 L19.31,17.535 L19.31,23.82 L20.36,23.82 L20.36,15 L19.55,15 C19.502,15.336 19.304,16.68 17,16.68 Z"/>
</svg>
