<svg xmlns="http://www.w3.org/2000/svg" width="32" height="32" viewBox="0 0 32 32">
  <g fill="none" fill-rule="evenodd">
    <path fill="#CCCCCC" d="M11,20 L9,20 L9,19 L11,19 L11,16 L9,16 L9,15 L11,15 L11,12 L12,12 L12,15 L15,15 L15,12 L16,12 L16,15 L19,15 L19,12 L20,12 L20,15 L23,15 L23,16 L20,16 L20,19 L23,19 L23,20 L20,20 L20,23 L19,23 L19,20 L16,20 L16,23 L15,23 L15,20 L12,20 L12,23 L11,23 L11,20 Z M12,16 L12,19 L15,19 L15,16 L12,16 Z M16,16 L16,19 L19,19 L19,16 L16,16 Z"/>
    <polygon fill="#7A7A7A" points="8 12 9 12 9 23 23 23 23 12 24 12 24 24 8 24"/>
    <path fill="#D0021B" d="M17.5,20.5 C19.1568542,20.5 20.5,19.1568542 20.5,17.5 C20.5,15.8431458 19.1568542,14.5 17.5,14.5 C15.8431458,14.5 14.5,15.8431458 14.5,17.5 C14.5,19.1568542 15.8431458,20.5 17.5,20.5 Z M17.5,19.5 C18.6045695,19.5 19.5,18.6045695 19.5,17.5 C19.5,16.3954305 18.6045695,15.5 17.5,15.5 C16.3954305,15.5 15.5,16.3954305 15.5,17.5 C15.5,18.6045695 16.3954305,19.5 17.5,19.5 Z"/>
    <path fill="#B11F24" d="M8,10 C8,8.8954305 8.89451376,8 9.99406028,8 L22.0059397,8 C23.1072288,8 24,8.88772964 24,10 L24,12 L8,12 L8,10 Z"/>
    <path fill="#F53137" d="M9,10 C9,9.44771525 9.44994876,9 10.0068455,9 L21.9931545,9 C22.5492199,9 23,9.44386482 23,10 L23,11 L9,11 L9,10 Z"/>
  </g>
</svg>
