<svg xmlns="http://www.w3.org/2000/svg" width="32" height="32" viewBox="0 0 32 32">
  <path fill="#3B65A3" fill-rule="evenodd" d="M8,9.99406028 C8,8.8927712 8.89451376,8 9.99406028,8 L22.0059397,8 C23.1072288,8 24,8.89451376 24,9.99406028 L24,22.0059397 C24,23.1072288 23.1054862,24 22.0059397,24 L9.99406028,24 C8.8927712,24 8,23.1054862 8,22.0059397 L8,9.99406028 Z M12.997152,11 C11.3418707,11 10,12.3473909 10,13.9968697 L10,17.0031303 C10,18.6582557 11.3431816,20 12.9985353,20 C13.2754866,20 13.5,20.2307129 13.5,20.5059123 L13.5,22.5 L16.1200479,20.3166267 C16.3298897,20.1417586 16.7224185,20 17.0075684,20 L18.9925232,20 C20.6535068,20 22,18.6526091 22,17.0031303 L22,13.9968697 C22,12.3417443 20.6583772,11 19.002848,11 L12.997152,11 Z M13,17.5 L12.5020511,17.5 L12.5020511,17 L12,17 L12,16.5 L12.5020511,16.5 L12.5020511,17 L13,17 L13,17.5 L19,17.5 L19,17 L19.5,17 L19.5,16.5 L20,16.5 L20,17 L19.5,17 L19.5,17.5 L19,17.5 L19,18 L13,18 L13,17.5 Z M18.25,14.5 C17.8357864,14.5 17.5,14.1642136 17.5,13.75 C17.5,13.3357864 17.8357864,13 18.25,13 C18.6642136,13 19,13.3357864 19,13.75 C19,14.1642136 18.6642136,14.5 18.25,14.5 Z M13.75,14.5 C13.3357864,14.5 13,14.1642136 13,13.75 C13,13.3357864 13.3357864,13 13.75,13 C14.1642136,13 14.5,13.3357864 14.5,13.75 C14.5,14.1642136 14.1642136,14.5 13.75,14.5 Z"/>
</svg>
