<svg xmlns="http://www.w3.org/2000/svg" width="32" height="32" viewBox="0 0 32 32">
  <g fill="none" fill-rule="evenodd">
    <path fill="#FFFFFF" d="M11.0094776,8 C9.34738902,8 8,9.34162278 8,10.997152 L8,17.002848 C8,18.6581293 9.33990824,20 10.9951185,20 L12.5023012,20 C12.7771727,20 13,20.2150574 13,20.4904785 L13,24 L15.7013807,20.398159 C15.8663036,20.1782619 16.2307968,20 16.5004358,20 L20.9983345,20 C22.6561086,20 24,18.6583772 24,17.002848 L24,10.997152 C24,9.34187067 22.6633689,8 20.9905224,8 L11.0094776,8 Z"/>
    <polygon fill="#D5292F" points="12 16 11.502 16 11.502 15.5 11 15.5 11 15 11.502 15 11.502 15.5 12 15.5 12 16 20 16 20 15.5 20.5 15.5 20.5 15 21 15 21 15.5 20.5 15.5 20.5 16 20 16 20 16.5 12 16.5"/>
    <circle cx="13.25" cy="11.75" r="1" fill="#D7272D"/>
    <circle cx="18.75" cy="11.75" r="1" fill="#D7272D"/>
  </g>
</svg>
