<svg xmlns="http://www.w3.org/2000/svg" width="32" height="32" viewBox="0 0 32 32">
  <path fill="#3B65A3" fill-rule="evenodd" d="M11.0094776,8 L20.9905224,8 C22.6633689,8 24,9.34738902 24,11.0094776 L24,20.9905224 C24,22.6633689 22.652611,24 20.9905224,24 L11.0094776,24 C9.33663106,24 8,22.652611 8,20.9905224 L8,11.0094776 C8,9.33663106 9.34738902,8 11.0094776,8 Z M16.0002792,22.0005292 C19.3131672,22.0005292 22.0000292,19.3134172 22.0000292,15.9997792 C22.0000292,12.6861411 19.3131672,10.0000292 16.0002792,10.0000292 C12.6861411,10.0000292 10.0000292,12.6861411 10.0000292,15.9997792 C10.0000292,19.3134172 12.6861411,22.0005292 16.0002792,22.0005292 Z M15.5,16.1999969 L15.5,11.1999969 C15.5,11.1999969 15.5849609,10.8000031 16,10.8000031 C16.4150391,10.8000031 16.5,11.1999969 16.5,11.1999969 L16.5,15.8000031 L18.6000061,18.1999969 C18.6000061,18.1999969 19.161377,18.5612183 18.7999878,19.0000094 C18.4385986,19.4388005 18,19.0000094 18,19.0000094 L15.5,16.1999969 Z"/>
</svg>
