<svg xmlns="http://www.w3.org/2000/svg" width="32" height="32" viewBox="0 0 32 32">
  <path fill="#3B65A3" fill-rule="evenodd" d="M9.99406028,8 C8.8927712,8 8,8.89451376 8,9.99406028 L8,22.0059397 C8,23.1072288 8.89451376,24 9.99406028,24 L22.0059397,24 C23.1072288,24 24,23.1054862 24,22.0059397 L24,9.99406028 C24,8.8927712 23.1054862,8 22.0059397,8 L9.99406028,8 Z M17.3828125,16.5566406 C17.3007808,16.533203 17.2158208,16.5097657 17.1279297,16.4863281 C17.0400386,16.4628905 16.9472661,16.4414063 16.8496094,16.421875 C16.7519526,16.4023437 16.6445318,16.3857423 16.5273438,16.3720703 C16.4101557,16.3583984 16.2812507,16.3515625 16.140625,16.3515625 C15.7539043,16.3515625 15.451173,16.4335929 15.2324219,16.5976562 C15.0136708,16.7617196 14.9042969,17.0136702 14.9042969,17.3535156 C14.9042969,17.5058601 14.9296872,17.6376948 14.9804688,17.7490234 C15.0312503,17.8603521 15.1005855,17.9541012 15.1884766,18.0302734 C15.2763676,18.1064457 15.3798822,18.1630858 15.4990234,18.2001953 C15.6181647,18.2373049 15.7460931,18.2558594 15.8828125,18.2558594 C16.0312507,18.2558594 16.1767571,18.2363283 16.3193359,18.1972656 C16.4619148,18.1582029 16.5966791,18.1064456 16.7236328,18.0419922 C16.8505866,17.9775387 16.969726,17.9023442 17.0810547,17.8164062 C17.1923834,17.7304683 17.2929683,17.6425786 17.3828125,17.5527344 L17.3828125,16.5566406 Z M17.4296875,18.2675781 C17.3476558,18.3613286 17.2519537,18.4541011 17.1425781,18.5458984 C17.0332026,18.6376958 16.9082038,18.7197262 16.7675781,18.7919922 C16.6269524,18.8642582 16.470704,18.9218748 16.2988281,18.9648438 C16.1269523,19.0078127 15.9394541,19.0292969 15.7363281,19.0292969 C15.4785143,19.0292969 15.241212,18.9902348 15.0244141,18.9121094 C14.8076161,18.833984 14.6210945,18.7216804 14.4648438,18.5751953 C14.308593,18.4287102 14.1865239,18.2529307 14.0986328,18.0478516 C14.0107417,17.8427724 13.9667969,17.6113294 13.9667969,17.3535156 C13.9667969,17.0761705 14.0166011,16.8281261 14.1162109,16.609375 C14.2158208,16.3906239 14.3554679,16.2050789 14.5351562,16.0527344 C14.7148446,15.9003899 14.9306628,15.7832035 15.1826172,15.7011719 C15.4345716,15.6191402 15.7128891,15.578125 16.0175781,15.578125 C16.3144546,15.578125 16.5673818,15.6035154 16.7763672,15.6542969 C16.9853526,15.7050784 17.1796866,15.7636715 17.359375,15.8300781 L17.3828125,15.8300781 L17.3828125,15.5019531 C17.3828125,15.2949208 17.3593752,15.1074227 17.3125,14.9394531 C17.2656248,14.7714835 17.1875005,14.6279303 17.078125,14.5087891 C16.9687495,14.3896478 16.8251962,14.2978519 16.6474609,14.2333984 C16.4697257,14.168945 16.2480482,14.1367188 15.9824219,14.1367188 C15.7011705,14.1367188 15.4365247,14.1630857 15.1884766,14.2158203 C14.9404284,14.268555 14.6933606,14.3417964 14.4472656,14.4355469 L14.4472656,13.6738281 C14.5449224,13.6269529 14.6562494,13.583008 14.78125,13.5419922 C14.9062506,13.5009764 15.0390618,13.4658205 15.1796875,13.4365234 C15.3203132,13.4072264 15.4687492,13.3847657 15.625,13.3691406 C15.7812508,13.3535155 15.9374992,13.3457031 16.09375,13.3457031 C16.4687519,13.3457031 16.7939439,13.3945308 17.0693359,13.4921875 C17.3447279,13.5898442 17.5732413,13.7265616 17.7548828,13.9023438 C17.9365243,14.0781259 18.0712886,14.2910144 18.1591797,14.5410156 C18.2470708,14.7910169 18.2910156,15.0683579 18.2910156,15.3730469 L18.2910156,17.6640625 C18.2910156,17.8671885 18.3222653,18.0166011 18.3847656,18.1123047 C18.4472659,18.2080083 18.5664054,18.2558594 18.7421875,18.2558594 C18.9570323,18.2558594 19.154296,18.1875007 19.3339844,18.0507812 C19.5136728,17.9140618 19.6679681,17.7285168 19.796875,17.4941406 C19.9257819,17.2597645 20.0263668,16.9863297 20.0986328,16.6738281 C20.1708988,16.3613266 20.2070312,16.0292986 20.2070312,15.6777344 C20.2070312,15.0449187 20.1015636,14.4873071 19.890625,14.0048828 C19.6796864,13.5224585 19.3906268,13.1181657 19.0234375,12.7919922 C18.6562482,12.4658187 18.2285181,12.2197274 17.7402344,12.0537109 C17.2519507,11.8876945 16.7285184,11.8046875 16.1699219,11.8046875 C15.6738256,11.8046875 15.2255879,11.8613276 14.8251953,11.9746094 C14.4248027,12.0878912 14.0683609,12.2451162 13.7558594,12.4462891 C13.4433578,12.6474619 13.1748058,12.8886705 12.9501953,13.1699219 C12.7255848,13.4511733 12.5410163,13.7587874 12.3964844,14.0927734 C12.2519524,14.4267595 12.1445316,14.7812481 12.0742188,15.15625 C12.0039059,15.5312519 11.96875,15.9160137 11.96875,16.3105469 C11.96875,16.9433625 12.0595694,17.5244114 12.2412109,18.0537109 C12.4228525,18.5830105 12.6953107,19.0400371 13.0585938,19.4248047 C13.4218768,19.8095722 13.8749973,20.1093739 14.4179688,20.3242188 C14.9609402,20.5390636 15.5937464,20.6464844 16.3164062,20.6464844 C16.6562517,20.6464844 16.9804672,20.629883 17.2890625,20.5966797 C17.5976578,20.5634764 17.8867174,20.5195315 18.15625,20.4648438 C18.4257826,20.410156 18.6728504,20.3486332 18.8974609,20.2802734 C19.1220714,20.2119137 19.3203116,20.1406254 19.4921875,20.0664062 L19.4921875,20.8574219 C19.3164054,20.9277347 19.1103527,20.99707 18.8740234,21.0654297 C18.6376941,21.1337894 18.3789077,21.1943357 18.0976562,21.2470703 C17.8164048,21.299805 17.5185563,21.3417967 17.2041016,21.3730469 C16.8896469,21.404297 16.568361,21.4199219 16.2402344,21.4199219 C15.7675758,21.4199219 15.3115256,21.3720708 14.8720703,21.2763672 C14.432615,21.1806636 14.0205097,21.0380869 13.6357422,20.8486328 C13.2509746,20.6591787 12.9003922,20.4238295 12.5839844,20.1425781 C12.2675765,19.8613267 11.9960949,19.533205 11.7695312,19.1582031 C11.5429676,18.7832012 11.3671881,18.362307 11.2421875,17.8955078 C11.1171869,17.4287086 11.0546875,16.9179715 11.0546875,16.3632812 C11.0546875,15.5546835 11.17578,14.8203158 11.4179688,14.1601562 C11.6601575,13.4999967 12.003904,12.9375023 12.4492188,12.4726562 C12.8945335,12.0078102 13.432614,11.6484388 14.0634766,11.3945312 C14.6943391,11.1406237 15.3984336,11.0136719 16.1757812,11.0136719 C16.8906286,11.0136719 17.5478486,11.1240223 18.1474609,11.3447266 C18.7470733,11.5654308 19.2636697,11.8779277 19.6972656,12.2822266 C20.1308615,12.6865255 20.4687488,13.1708956 20.7109375,13.7353516 C20.9531262,14.2998075 21.0742188,14.9257778 21.0742188,15.6132812 C21.0742188,16.1406276 21.0107428,16.6152323 20.8837891,17.0371094 C20.7568353,17.4589865 20.5820324,17.8173813 20.359375,18.1123047 C20.1367176,18.407228 19.8730484,18.6337883 19.5683594,18.7919922 C19.2636704,18.9501961 18.9335955,19.0292969 18.578125,19.0292969 C18.4101554,19.0292969 18.2626959,19.0097658 18.1357422,18.9707031 C18.0087884,18.9316404 17.9003911,18.8789066 17.8105469,18.8125 C17.7207027,18.7460934 17.6464847,18.6660161 17.5878906,18.5722656 C17.5292966,18.4785152 17.4843752,18.3769537 17.453125,18.2675781 L17.4296875,18.2675781 Z"/>
</svg>
