<svg xmlns="http://www.w3.org/2000/svg" width="32" height="32" viewBox="0 0 32 32">
  <path fill="#3B65A3" fill-rule="evenodd" d="M8.99420208,6 L23.0057979,6 C24.656688,6 26,7.34054993 26,8.99420208 L26,23.0057979 C26,24.656688 24.6594501,26 23.0057979,26 L8.99420208,26 C7.34331197,26 6,24.6594501 6,23.0057979 L6,8.99420208 C6,7.34331197 7.34054993,6 8.99420208,6 Z M18.625,18.9258782 C18.051875,18.8139865 17.75,18.6452465 17.75,18.0235256 C17.75,18.0235256 17.74125,17.2826942 17.75,17.1211731 C18.058875,16.6672897 19.0625,16.2188205 19.0625,15.3164679 C19.5,15.3164679 19.9375,14.8652917 19.9375,14.4141154 C19.9375,13.9629391 19.64875,13.7337415 19.5,13.5117628 L19.5,12.6094103 C19.5,10.3535288 17.6695,9 16,9 C14.3305,9 12.5,10.3535288 12.5,12.6094103 L12.5,13.5117628 C12.35125,13.7346439 12.0625,13.9629391 12.0625,14.4141154 C12.0625,14.8652917 12.5,15.3164679 12.9375,15.3164679 C12.9375,16.2188205 13.941125,16.6672897 14.25,17.1211731 C14.257875,17.2826942 14.25,18.0235256 14.25,18.0235256 C14.25,18.6452465 13.948125,18.8139865 13.375,18.9258782 C13.375,18.9258782 11.993375,19.2904286 11.625,19.3770545 C10.4875,19.6432485 9,20.839768 9,22.0841122 L9,23 L23,23 L23,22.0841122 C23,20.839768 21.51075,19.6432485 20.375,19.3770545 C20.00575,19.2904286 18.625,18.9258782 18.625,18.9258782 Z"/>
</svg>
