<svg xmlns="http://www.w3.org/2000/svg" width="32" height="32" viewBox="0 0 32 32">
  <g fill="#3B65A3" fill-rule="evenodd" transform="translate(8 8)">
    <polygon points="12.5 12 10 5.5 10 12 9 12 9 4 10.5 4 13 10.5 13 4 14 4 14 12"/>
    <polygon points="3 12 3 4 6.999 4 7 5 4 5 4 7 7 7 7 8 4 8 4 11 7 11 7 12"/>
    <path d="M2.00010618,7.70371978e-34 C0.895478039,-3.70944404e-18 0,0.894513756 0,1.99406028 L0,14.0059397 C0,15.1072288 0.890058413,16 2.00010618,16 L14.9998938,16 C16.104522,16 17,15.1054862 17,14.0059397 L17,1.99406028 C17,0.892771196 16.1099416,4.73821396e-17 14.9998938,4.3654496e-17 L2.00010618,7.70371978e-34 Z M2.00748397,1 C1.45106594,1 1,1.44994876 1,2.00684547 L1,13.9931545 C1,14.5492199 1.44892021,15 2.00748397,15 L14.992516,15 C15.5489341,15 16,14.5500512 16,13.9931545 L16,2.00684547 C16,1.45078007 15.5510798,1 14.992516,1 L2.00748397,1 Z"/>
  </g>
</svg>
