<svg xmlns="http://www.w3.org/2000/svg" width="64" height="32" viewBox="0 0 64 32">
  <g fill="none" fill-rule="evenodd">
    <polygon fill="#FEFEFE" fill-rule="nonzero" points="16 24 48 24 48 8 16 8"/>
    <polygon fill="#D11C23" fill-rule="nonzero" points="30.4 8 30.4 14.4 16 14.4 16 17.6 30.4 17.6 30.4 24 33.6 24 33.6 17.6 48 17.6 48 14.4 33.6 14.4 33.6 8"/>
    <path fill="#D11C23" fill-rule="nonzero" d="M45.615,8 L34.948,13.333 L37.333,13.333 L48,8 L45.615,8 Z M16,8 L16,9.193 L24.282,13.333 L26.667,13.333 L16,8 Z M37.333,18.667 L48,24 L48,22.807 L39.718,18.667 L37.333,18.667 Z M26.667,18.667 L16,24 L18.385,24 L29.052,18.667 L26.667,18.667 Z"/>
    <path fill="#002F5B" fill-rule="nonzero" d="M34.667,8 L34.667,12.878 L44.422,8 L34.667,8 Z M29.333,12.878 L29.333,8 L19.578,8 L29.333,12.878 Z M48,13.333 L48,9.79 L40.911,13.334 L48,13.333 Z M23.089,13.333 L16,9.79 L16,13.334 L23.089,13.333 Z M48,22.21 L48,18.666 L40.911,18.666 L48,22.21 Z M16,18.667 L16,22.211 L23.089,18.667 L16,18.667 Z M34.667,24 L44.422,24 L34.667,19.122 L34.667,24 Z M29.333,24 L29.333,19.122 L19.578,24 L29.333,24 Z"/>
  </g>
</svg>
