<svg xmlns="http://www.w3.org/2000/svg" width="32" height="32" viewBox="0 0 32 32">
  <path fill="#3B65A3" fill-rule="evenodd" d="M5,7.99079514 C5,6.89130934 5.88967395,6 6.991155,6 L25.008845,6 C26.1085295,6 27,6.89821238 27,7.99079514 L27,24.0092049 C27,25.1086907 26.1103261,26 25.008845,26 L6.991155,26 C5.89147046,26 5,25.1017876 5,24.0092049 L5,7.99079514 Z M7,13.0024733 L7,22.9975267 C7,23.544239 7.44475929,24 7.99339768,24 L24.0066023,24 C24.5550537,24 25,23.5511774 25,22.9975267 L25,13.0024733 C25,12.455761 24.5552407,12 24.0066023,12 L7.99339768,12 C7.44494629,12 7,12.4488226 7,13.0024733 Z M14,19.9989566 C14,19.4472481 14.4426603,19 14.9989566,19 L16.0010434,19 C16.5527519,19 17,19.4426603 17,19.9989566 L17,21.0010434 C17,21.5527519 16.5573397,22 16.0010434,22 L14.9989566,22 C14.4472481,22 14,21.5573397 14,21.0010434 L14,19.9989566 Z M9,19.9989566 C9,19.4472481 9.44266033,19 9.99895656,19 L11.0010434,19 C11.5527519,19 12,19.4426603 12,19.9989566 L12,21.0010434 C12,21.5527519 11.5573397,22 11.0010434,22 L9.99895656,22 C9.44724809,22 9,21.5573397 9,21.0010434 L9,19.9989566 Z M9,14.9989566 C9,14.4472481 9.44266033,14 9.99895656,14 L11.0010434,14 C11.5527519,14 12,14.4426603 12,14.9989566 L12,16.0010434 C12,16.5527519 11.5573397,17 11.0010434,17 L9.99895656,17 C9.44724809,17 9,16.5573397 9,16.0010434 L9,14.9989566 Z M20,14.9989566 C20,14.4472481 20.4426603,14 20.9989566,14 L22.0010434,14 C22.5527519,14 23,14.4426603 23,14.9989566 L23,16.0010434 C23,16.5527519 22.5573397,17 22.0010434,17 L20.9989566,17 C20.4472481,17 20,16.5573397 20,16.0010434 L20,14.9989566 Z M7,9 C7,9.55613518 7.45190985,10 8.0093689,10 L9.9906311,10 C10.5566468,10 11,9.55228475 11,9 C11,8.44386482 10.5480902,8 9.9906311,8 L8.0093689,8 C7.44335318,8 7,8.44771525 7,9 Z M21,9 C21,9.55613518 21.4519098,10 22.0093689,10 L23.9906311,10 C24.5566468,10 25,9.55228475 25,9 C25,8.44386482 24.5480902,8 23.9906311,8 L22.0093689,8 C21.4433532,8 21,8.44771525 21,9 Z"/>
</svg>
