<svg xmlns="http://www.w3.org/2000/svg" width="32" height="32" viewBox="0 0 32 32">
  <g fill="none" fill-rule="evenodd">
    <path fill="#DB6C00" d="M16,7 C11.02975,7 7,11.028625 7,16 C7,20.97025 11.02975,25 16,25 C20.97025,25 25,20.97025 25,16 C25,11.028625 20.97025,7 16,7"/>
    <circle cx="16" cy="16" r="7.875" fill="#FFFFFF"/>
    <path fill="#DB6C00" d="M12.0620728 19.3770696C11.7518086 19.3770696 11.5 19.1250696 11.5 18.8145696 11.5 18.5040696 11.7518086 18.2520696 12.0620728 18.2520696L19.9379272 18.2520696C20.2481914 18.2520696 20.5 18.5040696 20.5 18.8145696 20.5 19.1250696 20.2481914 19.3770696 19.9379272 19.3770696L12.0620728 19.3770696zM11.5 13.75C11.5 14.372125 12.005125 14.875 12.625 14.875 13.246 14.875 13.751125 14.372125 13.751125 13.75 13.751125 13.129 13.246 12.625 12.625 12.625 12.005125 12.625 11.5 13.129 11.5 13.75zM18.25 13.75C18.25 14.372125 18.754 14.875 19.375 14.875 19.996 14.875 20.501125 14.372125 20.501125 13.75 20.501125 13.129 19.996 12.625 19.375 12.625 18.754 12.625 18.25 13.129 18.25 13.75z"/>
  </g>
</svg>
