<svg xmlns="http://www.w3.org/2000/svg" width="32" height="32" viewBox="0 0 32 32">
  <g fill="none" fill-rule="evenodd">
    <path fill="#3B65A3" d="M16,7 C11.02975,7 7,11.028625 7,16 C7,20.97025 11.02975,25 16,25 C20.97025,25 25,20.97025 25,16 C25,11.028625 20.97025,7 16,7"/>
    <circle cx="16" cy="16" r="7.875" fill="#FFFFFF"/>
    <path fill="#3B65A3" d="M20.402125,20.386825 C20.212,20.386825 20.02525,20.290075 19.9195,20.114575 C19.083625,18.726325 17.61775,17.898325 16,17.898325 C14.38225,17.898325 12.916375,18.726325 12.0805,20.114575 C11.919625,20.380075 11.573125,20.465575 11.307625,20.305825 C11.042125,20.146075 10.956625,19.8007 11.116375,19.534075 C12.158125,17.80495 13.984,16.773325 16,16.773325 C17.985625,16.773325 19.8565,17.83195 20.883625,19.534075 C21.043375,19.8007 20.957875,20.146075 20.692375,20.305825 C20.60125,20.36095 20.501125,20.386825 20.402125,20.386825" transform="matrix(1 0 0 -1 0 37.16)"/>
    <path fill="#3B65A3" d="M12.625 14.875C13.246 14.875 13.75 14.372125 13.75 13.75 13.75 13.127875 13.246 12.625 12.625 12.625 12.004 12.625 11.5 13.127875 11.5 13.75 11.5 14.372125 12.004 14.875 12.625 14.875M19.375 14.875C19.996 14.875 20.5 14.372125 20.5 13.75 20.5 13.127875 19.996 12.625 19.375 12.625 18.754 12.625 18.25 13.127875 18.25 13.75 18.25 14.372125 18.754 14.875 19.375 14.875"/>
  </g>
</svg>
