<svg xmlns="http://www.w3.org/2000/svg" width="32" height="32" viewBox="0 0 32 32">
  <path fill="#3B57A3" fill-rule="evenodd" d="M19.799375,26 L19.799375,18.1999969 L22.3990625,18.1999969 L22.7884375,15.1999969 L19.799375,15.1999969 L19.799375,13.3000031 C19.799375,12.435625 20.0421875,11.84 21.2953125,11.8000031 L23,11.8000031 L23,9.09999847 C22.6171875,9.1028125 21.6684375,9.020625 20.6000061,9 C18.26,9.020625 16.6825,10.4271875 16.7000122,13.010625 L16.7000122,15.1999969 L14,15.1999969 L14,18.1999969 L16.7000122,18.1999969 L16.7000122,26 L7.10375,26 C6.4940625,26 6,25.5059375 6,24.89625 L6,7.10375 C6,6.4940625 6.49375,6 7.10375,6 L24.89625,6 C25.505625,6 26,6.4940625 26,7.10375 L26,24.89625 C26,25.5059375 25.505625,26 24.89625,26 L19.799375,26 Z"/>
</svg>
