<svg xmlns="http://www.w3.org/2000/svg" width="32" height="32" viewBox="0 0 32 32">
  <g fill="none" fill-rule="evenodd">
    <path fill="#660099" d="M16,8 C11.582,8 8,11.581 8,16 C8,20.418 11.582,24 16,24 C20.418,24 24,20.418 24,16 C24,11.581 20.418,8 16,8"/>
    <circle cx="16" cy="16" r="7" fill="#FFFFFF"/>
    <path fill="#660099" d="M19.913 19.8994C19.744 19.8994 19.578 19.8134 19.484 19.6574 18.741 18.4234 17.438 17.6874 16 17.6874 14.562 17.6874 13.259 18.4234 12.516 19.6574 12.373 19.8934 12.065 19.9694 11.829 19.8274 11.593 19.6854 11.517 19.3784 11.659 19.1414 12.585 17.6044 14.208 16.6874 16 16.6874 17.765 16.6874 19.428 17.6284 20.341 19.1414 20.483 19.3784 20.407 19.6854 20.171 19.8274 20.09 19.8764 20.001 19.8994 19.913 19.8994M13 15C13.552 15 14 14.553 14 14 14 13.447 13.552 13 13 13 12.448 13 12 13.447 12 14 12 14.553 12.448 15 13 15M19 15C19.552 15 20 14.553 20 14 20 13.447 19.552 13 19 13 18.448 13 18 13.447 18 14 18 14.553 18.448 15 19 15"/>
  </g>
</svg>
