<svg xmlns="http://www.w3.org/2000/svg" width="32" height="32" viewBox="0 0 32 32">
  <g fill="none" fill-rule="evenodd">
    <path fill="#15AB29" d="M16,8 C11.582,8 8,11.581 8,16 C8,20.418 11.582,24 16,24 C20.418,24 24,20.418 24,16 C24,11.581 20.418,8 16,8"/>
    <circle cx="16" cy="16" r="7" fill="#FFFFFF"/>
    <path fill="#15AB29" d="M16 21.4805C13.522 21.4805 11.422 19.7095 11.007 17.2715 10.961 16.9995 11.144 16.7415 11.416 16.6945 11.691 16.6515 11.947 16.8315 11.993 17.1035 12.326 19.0605 14.011 20.4805 16 20.4805 17.989 20.4805 19.674 19.0605 20.007 17.1035 20.054 16.8315 20.312 16.6505 20.584 16.6945 20.856 16.7415 21.039 16.9995 20.993 17.2715 20.578 19.7095 18.478 21.4805 16 21.4805M13 15C13.552 15 14 14.553 14 14 14 13.447 13.552 13 13 13 12.448 13 12 13.447 12 14 12 14.553 12.448 15 13 15M19 15C19.552 15 20 14.553 20 14 20 13.447 19.552 13 19 13 18.448 13 18 13.447 18 14 18 14.553 18.448 15 19 15"/>
  </g>
</svg>
