<svg xmlns="http://www.w3.org/2000/svg" width="32" height="32" viewBox="0 0 32 32">
  <path fill="#3B57A3" fill-rule="evenodd" d="M19.0395,24 L19.0395,17.804 L21.11925,17.804 L21.43075,15.38925 L19.0395,15.38925 L19.0395,13.8475 C19.0395,13.1485 19.23375,12.672 20.23625,12.672 L21.515,12.6715 L21.515,10.51175 C21.29375,10.48225 20.53475,10.4165 19.65175,10.4165 C17.808,10.4165 16.546,11.54175 16.546,13.6085 L16.546,15.3895 L14.46075,15.3895 L14.46075,17.80425 L16.546,17.80425 L16.546,24 L8.883,24 C8.39525,24 8,23.60475 8,23.117 L8,8.883 C8,8.39525 8.395,8 8.883,8 L23.117,8 C23.6045,8 24,8.39525 24,8.883 L24,23.117 C24,23.60475 23.6045,24 23.117,24 L19.0395,24 Z"/>
</svg>
