<svg xmlns="http://www.w3.org/2000/svg" width="32" height="32" viewBox="0 0 32 32">
  <g fill="none" fill-rule="evenodd">
    <path fill="#DB6C00" d="M16,8 C11.582,8 8,11.581 8,16 C8,20.418 11.582,24 16,24 C20.418,24 24,20.418 24,16 C24,11.581 20.418,8 16,8"/>
    <circle cx="16" cy="16" r="7" fill="#FFFFFF"/>
    <path fill="#DB6C00" d="M12.4996202 19.0018397C12.2238299 19.0018397 12 18.7778397 12 18.5018397 12 18.2258397 12.2238299 18.0018397 12.4996202 18.0018397L19.5003798 18.0018397C19.7761701 18.0018397 20 18.2258397 20 18.5018397 20 18.7778397 19.7761701 19.0018397 19.5003798 19.0018397L12.4996202 19.0018397zM12 14C12 14.553 12.449 15 13 15 13.552 15 14.001 14.553 14.001 14 14.001 13.448 13.552 13 13 13 12.449 13 12 13.448 12 14zM18 14C18 14.553 18.448 15 19 15 19.552 15 20.001 14.553 20.001 14 20.001 13.448 19.552 13 19 13 18.448 13 18 13.448 18 14z"/>
  </g>
</svg>
