<svg xmlns="http://www.w3.org/2000/svg" width="32" height="32" viewBox="0 0 32 32">
  <defs>
    <linearGradient id="a" x1="0%" x2="74.614%" y1="50%" y2="50%">
      <stop stop-color="#FFFFFF" offset="0%"/>
      <stop stop-color="#2F92CD" offset="100%"/>
    </linearGradient>
  </defs>
  <g fill="url(#a)" fill-rule="evenodd" transform="translate(3 4)">
    <path d="M7.45711705,0.681728775 C7.45711705,1.0582842 7.15194369,1.36330759 6.77538827,1.36330759 C6.39883285,1.36330759 6.0936595,1.0582842 6.0936595,0.681728775 C6.0936595,0.305173352 6.39883285,0 6.77538827,0 C7.15194369,0 7.45711705,0.305173352 7.45711705,0.681728775"/>
    <path d="M8.20487424 1.85447922C8.20487424 2.23088468 7.89955092 2.536208 7.52314546 2.536208 7.14674 2.536208 6.84171661 2.23088468 6.84171661 1.85447922 6.84171661 1.4779238 7.14674 1.17260049 7.52314546 1.17260049 7.89955092 1.17260049 8.20487424 1.4779238 8.20487424 1.85447922M8.98295381 3.05389297C8.98295381 3.43029843 8.6776305 3.73562175 8.301375 3.73562175 7.92481958 3.73562175 7.61964622 3.43029843 7.61964622 3.05389297 7.61964622 2.67718759 7.92481958 2.3721642 8.301375 2.3721642 8.6776305 2.3721642 8.98295381 2.67718759 8.98295381 3.05389297"/>
    <path d="M9.73291545,4.22385412 C9.73291545,4.60040955 9.42759213,4.90543294 9.05088675,4.90543294 C8.67463125,4.90543294 8.36930794,4.60040955 8.36930794,4.22385412 C8.36930794,3.84714874 8.67463125,3.54197539 9.05088675,3.54197539 C9.42759213,3.54197539 9.73291545,3.84714874 9.73291545,4.22385412"/>
    <path d="M10.4652865,5.4124256 C10.4652865,5.78898102 10.1602631,6.09385445 9.78355773,6.09385445 C9.40715227,6.09385445 9.10167899,5.78898102 9.10167899,5.4124256 C9.10167899,5.03602014 9.40715227,4.73084678 9.78355773,4.73084678 C10.1602631,4.73084678 10.4652865,5.03602014 10.4652865,5.4124256"/>
    <path d="M11.2244708 6.56365645C11.2244708 6.94021187 10.9191475 7.24538523 10.5427421 7.24538523 10.1661866 7.24538523 9.86101328 6.94021187 9.86101328 6.56365645 9.86101328 6.18725099 10.1661866 5.88207764 10.5427421 5.88207764 10.9191475 5.88207764 11.2244708 6.18725099 11.2244708 6.56365645M11.9823505 7.76013094C11.9823505 8.13668636 11.6770272 8.44170975 11.3006217 8.44170975 10.9245162 8.44170975 10.6188929 8.13668636 10.6188929 7.76013094 10.6188929 7.38357552 10.9245162 7.07840217 11.3006217 7.07840217 11.6770272 7.07840217 11.9823505 7.38357552 11.9823505 7.76013094"/>
    <path d="M12.7220547,8.93010708 C12.7220547,9.30666251 12.4170313,9.61183586 12.0403259,9.61183586 C11.6639205,9.61183586 11.3585971,9.30666251 11.3585971,8.93010708 C11.3585971,8.55355166 11.6639205,8.24837831 12.0403259,8.24837831 C12.4170313,8.24837831 12.7220547,8.55355166 12.7220547,8.93010708"/>
    <path d="M13.4702468 10.096844C13.4702468 10.4735494 13.1650734 10.7785728 12.788518 10.7785728 12.4119626 10.7785728 12.1067892 10.4735494 12.1067892 10.096844 12.1067892 9.72028862 12.4119626 9.41511527 12.788518 9.41511527 13.1650734 9.41511527 13.4702468 9.72028862 13.4702468 10.096844M19.1465611 1.30179304C18.8061466 1.46300255 18.3998986 1.31738912 18.2388391.977124582 18.0777795.636560119 18.223393.230462116 18.5636575.0694025686 18.904072-.0915070168 19.31032.0538064858 19.4715295.393921061 19.6324391.734485524 19.4869756 1.14088345 19.1465611 1.30179304"/>
    <path d="M18.4008434,2.48406609 C18.0604289,2.64512564 17.654031,2.49966218 17.4929714,2.15939764 C17.3319119,1.8191331 17.4773753,1.41258521 17.8177898,1.25167563 C18.1582043,1.09061608 18.5643023,1.2362295 18.7255118,1.57634408 C18.8861215,1.91675858 18.7412579,2.32315651 18.4008434,2.48406609"/>
    <path d="M17.6374151,3.6574014 C17.2968507,3.81831098 16.8907527,3.67284752 16.7295432,3.33243302 C16.5684836,2.99231844 16.7139471,2.58577055 17.0540616,2.42486096 C17.3946261,2.26380142 17.8008741,2.40926488 17.9619336,2.74967938 C18.1229932,3.08994392 17.9776797,3.49634185 17.6374151,3.6574014"/>
    <path d="M16.8745717 4.83235629C16.5341572 4.99326587 16.1277593 4.84795237 15.9668497 4.50753787 15.8059401 4.16727333 15.9514036 3.76087541 16.2915182 3.59996582 16.6320826 3.43905624 17.0384806 3.58436974 17.1993901 3.92463428 17.3604497 4.26504878 17.2151362 4.67159667 16.8745717 4.83235629M16.1136328 6.02326718C15.7730684 6.1840268 15.3668204 6.03886326 15.2054609 5.69844876 15.0447013 5.3578843 15.1901648 4.95163633 15.5305793 4.79057678 15.8708438 4.6296672 16.2770918 4.77528062 16.4380014 5.11524524 16.5992109 5.45565974 16.4537474 5.86220763 16.1136328 6.02326718"/>
    <path d="M15.3721741,7.21065395 C15.0317596,7.37141357 14.6255116,7.22625003 14.464602,6.88553561 C14.3032426,6.54527107 14.448706,6.1390231 14.7892705,5.97796356 C15.1293851,5.81705397 15.5360829,5.96251743 15.6969925,6.30278197 C15.8579021,6.64319647 15.7125886,7.04944444 15.3721741,7.21065395"/>
    <path d="M14.6082959,8.37331193 C14.2680314,8.53422152 13.8616335,8.38875805 13.7005739,8.04834355 C13.5396643,7.70807901 13.6852778,7.30183105 14.0253923,7.14092146 C14.3659568,6.97971195 14.7722048,7.12517542 14.9331143,7.46558992 C15.0943239,7.80615438 14.9487104,8.21240235 14.6082959,8.37331193"/>
    <path d="M13.839589 9.55015635C13.4991745 9.71136586 13.0929265 9.5659024 12.931867 9.22563786 12.7709574 8.88522336 12.9164209 8.47897539 13.2566854 8.31761592 13.5968 8.1568563 14.0033479 8.30231976 14.1642575 8.6425843 14.325317 8.9829988 14.1800035 9.38939673 13.839589 9.55015635M16.1468795 3.64495452C15.806315 3.80586411 15.4000671 3.6605506 15.2390075 3.32028607 15.0780979 2.98002153 15.2235614 2.57332368 15.5638259 2.41241409 15.9042404 2.25165447 16.3107883 2.39696797 16.471548 2.73708255 16.6326075 3.07779697 16.487294 3.48404494 16.1468795 3.64495452"/>
    <path d="M15.380362,4.82458824 C15.0399475,4.98564779 14.6338495,4.84033429 14.47249,4.49991979 C14.3114305,4.15950528 14.4570439,3.75310736 14.7974584,3.59219777 C15.137723,3.43113822 15.5439709,3.57675165 15.7050305,3.91701619 C15.86609,4.25728073 15.7207765,4.66367866 15.380362,4.82458824"/>
    <path d="M14.6116701 6.00261736C14.2712556 6.16352695 13.8648577 6.01821345 13.7039481 5.67809887 13.5427386 5.33738444 13.688202 4.93113648 14.0284666 4.77007693 14.3688811 4.60916735 14.775429 4.75478077 14.9364885 5.09489535 15.0973981 5.43530985 14.9519346 5.84155782 14.6116701 6.00261736M13.835645 7.18679494C13.4953805 7.34785449 13.0889825 7.20239102 12.927923 6.86212649 12.7670134 6.52171199 12.9123269 6.11531406 13.2527414 5.95425451 13.5930059 5.79334492 13.9995538 5.93895835 14.1603134 6.27907293 14.321373 6.61948743 14.1762095 7.02603532 13.835645 7.18679494"/>
    <path d="M13.0726516 8.36714848C12.7320872 8.52805806 12.3259892 8.38274456 12.1649296 8.04262999 12.00402 7.70191556 12.1493335 7.29581756 12.489748 7.13460805 12.8300126 6.97384843 13.2362605 7.11916193 13.3973201 7.45957643 13.5583796 7.799691 13.4132161 8.20623889 13.0726516 8.36714848M10.4698304 3.03969154C10.4719298 3.416097 10.168556 3.7230699 9.79185065 3.72516937 9.41559515 3.72711888 9.10862225 3.42374508 9.10667274 3.04718966 9.1044233 2.67048427 9.40824699 2.36366134 9.78435253 2.36171182 10.160908 2.35976231 10.4677309 2.66313612 10.4698304 3.03969154"/>
    <path d="M11.2022164,4.21770567 C11.2044658,4.59441105 10.9009421,4.90123399 10.5242367,4.9031835 C10.1479812,4.90543294 9.8410083,4.60190917 9.83890883,4.22550371 C9.83680935,3.84894829 10.140633,3.54197539 10.5170385,3.53972595 C10.8935939,3.53777644 11.2002669,3.84115024 11.2022164,4.21770567"/>
    <path d="M11.9577417,5.38225318 C11.9596912,5.75895856 11.6558675,6.0657815 11.279612,6.06773101 C10.9030566,6.06983048 10.5960837,5.76630672 10.5941341,5.38960133 C10.5923346,5.01349579 10.8957084,4.70667286 11.2721139,4.70427346 C11.6483694,4.70247391 11.9554922,5.00569775 11.9577417,5.38225318"/>
    <path d="M12.6989155 6.56701561C12.701015 6.94357103 12.3974912 7.25039397 12.0210857 7.25249344 11.6443804 7.25459291 11.3377074 6.95091918 11.3354579 6.57436376 11.3333585 6.1979583 11.6371822 5.8909854 12.0135876 5.88918585 12.3898431 5.88723634 12.696966 6.19046018 12.6989155 6.56701561M18.1508562 23.9832963C18.1508562 23.6070408 18.4558796 23.3015675 18.8325849 23.3015675 19.2089904 23.3015675 19.5141638 23.6070408 19.5141638 23.9832963 19.5141638 24.3598517 19.2089904 24.665175 18.8325849 24.665175 18.4558796 24.665175 18.1508562 24.3598517 18.1508562 23.9832963"/>
    <path d="M17.403099 22.8106958C17.403099 22.4341404 17.7081224 22.129117 18.0845278 22.129117 18.4612332 22.129117 18.7664066 22.4341404 18.7664066 22.8106958 18.7664066 23.1872512 18.4612332 23.4924246 18.0845278 23.4924246 17.7081224 23.4924246 17.403099 23.1872512 17.403099 22.8106958M16.6250194 21.6111471C16.6250194 21.2345917 16.9303427 20.9294183 17.3067482 20.9294183 17.6833036 20.9294183 17.988327 21.2345917 17.988327 21.6111471 17.988327 21.9877025 17.6833036 22.2930258 17.3067482 22.2930258 16.9303427 22.2930258 16.6250194 21.9877025 16.6250194 21.6111471"/>
    <path d="M15.8752077,20.4413209 C15.8752077,20.0649154 16.1803811,19.7594422 16.5569365,19.7594422 C16.933192,19.7594422 17.2386653,20.0649154 17.2386653,20.4413209 C17.2386653,20.8180263 16.933192,21.1230497 16.5569365,21.1230497 C16.1803811,21.1230497 15.8752077,20.8180263 15.8752077,20.4413209"/>
    <path d="M15.1426867,19.2530493 C15.1426867,18.876194 15.4478601,18.5711706 15.8244155,18.5711706 C16.2009709,18.5711706 16.5061443,18.876194 16.5061443,19.2530493 C16.5061443,19.6293048 16.2009709,19.9341783 15.8244155,19.9341783 C15.4478601,19.9341783 15.1426867,19.6293048 15.1426867,19.2530493"/>
    <path d="M14.3836524 18.1010837C14.3836524 17.7251281 14.6885258 17.4195049 15.0652312 17.4195049 15.4416366 17.4195049 15.7469599 17.7251281 15.7469599 18.1010837 15.7469599 18.4776391 15.4416366 18.7828124 15.0652312 18.7828124 14.6885258 18.7828124 14.3836524 18.4776391 14.3836524 18.1010837M13.6253378 16.905494C13.6253378 16.5283387 13.9308111 16.2236152 14.3072166 16.2236152 14.683622 16.2236152 14.9889453 16.5283387 14.9889453 16.905494 14.9889453 17.2814495 14.683622 17.5866229 14.3072166 17.5866229 13.9308111 17.5866229 13.6253378 17.2814495 13.6253378 16.905494"/>
    <path d="M12.8859185,15.734933 C12.8859185,15.3583775 13.1909419,15.0532042 13.5674973,15.0532042 C13.9440528,15.0532042 14.2492261,15.3583775 14.2492261,15.734933 C14.2492261,16.1117883 13.9440528,16.4169617 13.5674973,16.4169617 C13.1909419,16.4169617 12.8859185,16.1117883 12.8859185,15.734933"/>
    <path d="M12.1378764 14.5686309C12.1378764 14.1917755 12.4427498 13.8869021 12.8194552 13.8869021 13.1958607 13.8869021 13.501184 14.1917755 13.501184 14.5686309 13.501184 14.9448864 13.1958607 15.2503597 12.8194552 15.2503597 12.4427498 15.2503597 12.1378764 14.9448864 12.1378764 14.5686309M6.46141213 23.3629471C6.80182663 23.2021875 7.2080746 23.3479509 7.36898418 23.6879155 7.52989377 24.02833 7.38473023 24.434428 7.04431573 24.5954875 6.70390123 24.7565471 6.29765326 24.6112336 6.13674368 24.2714189 5.97568413 23.9305545 6.12084767 23.5243066 6.46141213 23.3629471"/>
    <path d="M7.20712983,22.180974 C7.5476943,22.0197644 7.9537923,22.1656778 8.11500181,22.5059423 C8.27576143,22.8459069 8.13044793,23.2524548 7.79033335,23.4135144 C7.44976889,23.574274 7.043221,23.4291105 6.88216145,23.0889959 C6.72140183,22.7484314 6.86656537,22.3420335 7.20712983,22.180974"/>
    <path d="M7.97084302,21.0077736 C8.31125752,20.847014 8.71750548,20.9920276 8.87841507,21.3324421 C9.03947462,21.6730065 8.89386119,22.0794045 8.55359665,22.2400141 C8.21318215,22.4013736 7.80693418,22.2554602 7.64587464,21.9153457 C7.48481509,21.5753811 7.63027855,21.1685332 7.97084302,21.0077736"/>
    <path d="M8.73340149 19.8323838C9.07396595 19.6719241 9.48006396 19.8172376 9.64097354 20.1573522 9.80203309 20.4976168 9.65656962 20.9040147 9.31630509 21.0655241 8.97604055 21.2262837 8.56949266 21.0809702 8.40843311 20.7405557 8.24737356 20.3999913 8.39283703 19.9937433 8.73340149 19.8323838M9.49434037 18.6419228C9.83490483 18.4811632 10.2413028 18.6266267 10.4025123 18.9668912 10.5631219 19.3073057 10.4179584 19.7135537 10.0773939 19.8744633 9.73697943 20.0352229 9.33073146 19.8899094 9.16967192 19.5494949 9.00891229 19.2092303 9.15392587 18.8029824 9.49434037 18.6419228"/>
    <path d="M10.2359641,17.454821 C10.5762286,17.2937614 10.9824766,17.4392249 11.1435362,17.7791895 C11.3044457,18.119754 11.1589823,18.5263019 10.8187177,18.6870615 C10.4783032,18.848121 10.0717553,18.7022077 9.9106958,18.362393 C9.74993617,18.0221285 9.89539964,17.6155806 10.2359641,17.454821"/>
    <path d="M10.9995273,16.2918781 C11.3400918,16.1308185 11.7461898,16.276282 11.9073993,16.6168465 C12.0681589,16.9568111 11.9226955,17.3635089 11.5825809,17.5244185 C11.2423163,17.6854781 10.8360684,17.5397147 10.6750088,17.1997501 C10.5139493,16.8593356 10.6592628,16.4529376 10.9995273,16.2918781"/>
    <path d="M11.7685342 15.1148687C12.1089487 14.9539591 12.5150467 15.0992726 12.6761062 15.4395372 12.8368659 15.7798017 12.6915523 16.1864995 12.3514378 16.3474091 12.0111732 16.5081688 11.6046253 16.3625553 11.4435658 16.0224408 11.2828062 15.6821762 11.4281197 15.2756283 11.7685342 15.1148687M9.46109372 21.0200855C9.80150822 20.859026 10.2079061 21.0044894 10.3686658 21.344754 10.5300252 21.6853184 10.3844118 22.0917164 10.0442972 22.2532258 9.70373278 22.4139854 9.29718489 22.2680721 9.13642527 21.9279575 8.97536572 21.5870931 9.12052926 21.1811451 9.46109372 21.0200855"/>
    <path d="M10.2276112,19.8405868 C10.5680257,19.6798271 10.9742737,19.8248407 11.1351833,20.1652552 C11.2963928,20.5055198 11.1507793,20.9120677 10.8103648,21.0731272 C10.4702503,21.2335869 10.0635524,21.0885733 9.90279278,20.7481588 C9.74173323,20.4075944 9.8871967,20.0016463 10.2276112,19.8405868"/>
    <path d="M10.9963181 18.6627076C11.3368826 18.5016481 11.7431306 18.6466616 11.9041901 18.9873761 12.0649497 19.3276406 11.9196362 19.7338886 11.5790718 19.895548 11.2389572 20.0563076 10.8324093 19.9100943 10.6716497 19.5705796 10.5104402 19.2300151 10.6557537 18.8234672 10.9963181 18.6627076M11.7723432 17.4782451C12.1126078 17.3174855 12.5190057 17.4629489 12.6800652 17.8029136 12.8409748 18.143628 12.6956613 18.549876 12.3552468 18.7107855 12.0146824 18.8718451 11.6084344 18.7259317 11.4473748 18.3856672 11.2866152 18.0455526 11.4319287 17.6393047 11.7723432 17.4782451"/>
    <path d="M12.5351866 16.2981765C12.8757511 16.1371169 13.2818491 16.2821305 13.4430586 16.622845 13.6038182 16.9628096 13.4585047 17.3693575 13.1180902 17.5301171 12.7779756 17.6917765 12.3715777 17.5458631 12.2106681 17.2057485 12.0497585 16.8650341 12.1946222 16.4589361 12.5351866 16.2981765M15.1378579 21.6256484C15.1359084 21.2487931 15.4391323 20.9422701 15.8158376 20.9398707 16.1923931 20.9379212 16.499216 21.2417449 16.5014654 21.6180004 16.5034149 21.9945558 16.1998912 22.3015287 15.8233358 22.3034782 15.4469303 22.3055777 15.1402573 22.0022039 15.1378579 21.6256484"/>
    <path d="M14.4057568,20.4473194 C14.4033574,20.070764 14.7068812,19.7637911 15.0835866,19.7616916 C15.4598421,19.7597421 15.766815,20.0632658 15.7690644,20.4393714 C15.7711639,20.8160768 15.4671902,21.1230497 15.0909347,21.1254491 C14.7143793,21.1273986 14.4077063,20.8238748 14.4057568,20.4473194"/>
    <path d="M13.6503815,19.2827719 C13.648582,18.9062165 13.9519558,18.5992436 14.3283612,18.597444 C14.7047667,18.5951946 15.0118896,18.8988683 15.0138391,19.2755737 C15.0156386,19.6521291 14.7122648,19.9585022 14.3357094,19.9607516 C13.9593039,19.9628511 13.652481,19.6590274 13.6503815,19.2827719"/>
    <path d="M12.9089228 18.0985943C12.9069732 17.721439 13.210347 17.414916 13.5869025 17.4128165 13.9636079 17.4105671 14.2702808 17.7142408 14.2725303 18.0906463 14.2743298 18.4672017 13.970806 18.7743246 13.5945505 18.7761241 13.2181451 18.7779237 12.9111722 18.4748498 12.9089228 18.0985943M4.12000521 7.16731483C4.12180475 7.54387026 3.81843095 7.85084316 3.44202549 7.85279267 3.06517014 7.85489214 2.75849717 7.55136837 2.75639769 7.17496291 2.75459815 6.79855745 3.05782199 6.49143459 3.43467734 6.48948508 3.8110828 6.48753557 4.11790573 6.79075941 4.12000521 7.16731483M6.92316116 7.17638755C6.92511067 7.55309294 6.62173686 7.85991588 6.24503148 7.86186539 5.86877598 7.86411482 5.56150315 7.56059106 5.55955364 7.18388567 5.5577541 6.80748021 5.8611279 6.50080724 6.23753336 6.4985578 6.61408878 6.49660829 6.92091172 6.80028202 6.92316116 7.17638755"/>
    <path d="M7.875362,8.19962556 C7.87716155,8.57618098 7.57378774,8.88330384 7.19738228,8.88525335 C6.8206769,8.88750279 6.51385396,8.58397902 6.51175449,8.20727363 C6.50980498,7.83056825 6.81332874,7.52389527 7.1897342,7.5217958 C7.56628963,7.51999625 7.8729626,7.82352002 7.875362,8.19962556"/>
    <path d="M8.78905251,9.25521043 C8.79130195,9.63131597 8.48792814,9.93843883 8.1110728,9.9405383 C7.73466734,9.94248781 7.42769444,9.63881408 7.42559496,9.26225866 C7.42379542,8.8858532 7.72731918,8.57933019 8.10372464,8.57723071 C8.4801301,8.5752812 8.78695304,8.87835508 8.78905251,9.25521043"/>
    <path d="M9.7367095,10.2911802 C9.73880897,10.6675857 9.43513524,10.9748585 9.05872978,10.976808 C8.68202439,10.9787575 8.37535142,10.6752338 8.37325195,10.2988283 C8.37115247,9.92212293 8.6748262,9.61529999 9.05123166,9.61320052 C9.42763712,9.61155093 9.73446006,9.91477477 9.7367095,10.2911802"/>
    <path d="M10.6641666,11.3394619 C10.666266,11.7161673 10.3628922,12.0231402 9.9863368,12.0252397 C9.60963141,12.0271892 9.30280848,11.7238154 9.300709,11.34711 C9.29875949,10.9707046 9.60243322,10.6635817 9.97868872,10.6614822 C10.3550942,10.6595327 10.662217,10.9632064 10.6641666,11.3394619"/>
    <path d="M11.5929433 12.3685485C11.5951927 12.7451039 11.291369 13.0522268 10.9149636 13.0540263 10.5381082 13.0562757 10.2314352 12.7521521 10.2293358 12.3758966 10.2275362 11.9993412 10.53106 11.6926682 10.9076154 11.6905688 11.2837209 11.6886192 11.5906938 11.9919931 11.5929433 12.3685485M5.52297783 7.18268597C5.52522727 7.55879151 5.22155354 7.86591437 4.84499811 7.86786388 4.46859265 7.87011332 4.16176972 7.56643959 4.15967024 7.18988417 4.15772073 6.81332874 4.46109454 6.50665577 4.83779992 6.50470626 5.21420538 6.50245682 5.52102832 6.80613055 5.52297783 7.18268597"/>
    <path d="M6.23105499,8.38370432 C6.2330045,8.76025974 5.92963069,9.06693272 5.55307527,9.06888223 C5.17666981,9.07113166 4.86969691,8.76790782 4.86744748,8.39120244 C4.86549797,8.01464701 5.16887177,7.70767412 5.54542719,7.7057246 C5.92183265,7.70377509 6.22865559,8.0071489 6.23105499,8.38370432"/>
    <path d="M7.17476796,9.42010901 C7.17686743,9.79666444 6.87334367,10.1036373 6.49693821,10.1055868 C6.12053275,10.1076863 5.81340988,9.80431252 5.81131041,9.42760713 C5.80951086,9.05105171 6.11273471,8.74407881 6.48944009,8.7421293 C6.86569559,8.74002983 7.17266849,9.04355359 7.17476796,9.42010901"/>
    <path d="M8.09093285 10.4628271C8.09318229 10.8393825 7.78980849 11.1462055 7.41295314 11.148155 7.03654768 11.1502545 6.72972474 10.8467307 6.72762527 10.4701753 6.72567576 10.0937698 7.02904956 9.78679692 7.40560498 9.78499737 7.78201044 9.78304786 8.08883338 10.0862717 8.09093285 10.4628271M4.27466136 17.6349408C4.27241193 17.2349912 3.96558899 16.9115224 3.58918353 16.9137719 3.21262811 16.9157214 2.90940426 17.2423394 2.9116537 17.6428888 2.91375317 18.0432882 3.22087603 18.3667569 3.59698157 18.3645075 3.97338703 18.362708 4.27721072 18.0357901 4.27466136 17.6349408M5.66430234 17.6567603C5.66220286 17.2562109 5.35537993 16.933042 4.9788245 16.9351415 4.60241904 16.9373909 4.29874531 17.263709 4.30114471 17.6642584 4.30339415 18.0651077 4.61036705 18.3879766 4.98692247 18.3855772 5.36332793 18.3839276 5.66670173 18.0576096 5.66430234 17.6567603"/>
    <path d="M6.41118974,16.4147422 C6.40894031,16.0141928 6.10211737,15.6916238 5.72556195,15.6934234 C5.34885656,15.6956728 5.04548276,16.0216909 5.04788216,16.4222403 C5.05013159,16.8230897 5.35710449,17.1459586 5.73350995,17.1440091 C6.11006538,17.1419096 6.41343918,16.8151417 6.41118974,16.4147422"/>
    <path d="M7.34888923,15.328685 C7.34648983,14.9279856 7.03966689,14.6049668 6.66326143,14.6070662 C6.28670601,14.6090158 5.98348217,14.9353338 5.98528172,15.3363331 C5.98753115,15.7362826 6.29465401,16.0599013 6.67090951,16.0579518 C7.0476149,16.0555524 7.35113866,15.7292344 7.34888923,15.328685"/>
    <path d="M8.31265217 14.249511C8.31040273 13.8488117 8.00327987 13.5259428 7.62702437 13.5280423 7.25046895 13.5305916 6.94694518 13.8563098 6.94904466 14.257459 6.95129409 14.6574086 7.25856691 14.9805774 7.63482241 14.9786279 8.01122787 14.9763785 8.31460168 14.6500604 8.31265217 14.249511M6.29065002 17.016796C6.66360635 16.965209 7.00791987 17.2259935 7.05920699 17.5989498 7.11094399 17.972206 6.85015949 18.3159197 6.4770532 18.3675068 6.10409687 18.4186439 5.76008328 18.1586092 5.7086462 17.7856529 5.65720912 17.4122467 5.91754373 17.0688329 6.29065002 17.016796"/>
    <path d="M7.17974671,15.9386418 C7.55270304,15.8872047 7.89716652,16.1472394 7.9486036,16.5207956 C8.00019065,16.893452 7.73940615,17.2377655 7.36644982,17.2893525 C6.99364345,17.3406397 6.64947989,17.080455 6.59804281,16.7065989 C6.54630581,16.3342424 6.80694035,15.9902288 7.17974671,15.9386418"/>
    <path d="M8.1058691,14.8943191 C8.47852551,14.8424321 8.82283903,15.1032166 8.87427611,15.4764729 C8.92571319,15.8489793 8.66522861,16.192843 8.29227229,16.24443 C7.91931596,16.2957171 7.57545232,16.0355325 7.52386528,15.6628761 C7.47212828,15.2896198 7.73291278,14.9457562 8.1058691,14.8943191"/>
    <path d="M9.0088673,13.8185193 C9.38152371,13.7669323 9.72583723,14.0275668 9.77712435,14.4006731 C9.82871139,14.7736294 9.56807685,15.1179429 9.19512052,15.16923 C8.8221642,15.2209671 8.47830056,14.9603325 8.42671352,14.5872262 C8.37512648,14.2145698 8.63576101,13.8702563 9.0088673,13.8185193"/>
    <path d="M9.92606694 12.7611649C10.2988733 12.7100277 10.6430369 12.9708122 10.6946239 13.3433186 10.745911 13.7164249 10.4854264 14.0604385 10.1124701 14.1121755 9.73951379 14.1634627 9.3955002 13.903128 9.34391315 13.5300218 9.29247607 13.1570654 9.55311061 12.8133518 9.92606694 12.7611649M21.4765409 17.5855881C21.4745914 17.2093326 21.7779652 16.9020598 22.1543706 16.9005602 22.531076 16.8986107 22.837899 17.2016846 22.8401484 17.57839 22.8419479 17.9549454 22.5385741 18.2616184 22.1620187 18.2637178 21.7856133 18.2656673 21.4787903 17.9621436 21.4765409 17.5855881M18.673235 17.5765154C18.6712855 17.1996601 18.9748092 16.8931371 19.3512147 16.8910376 19.7279201 16.8890881 20.034743 17.1929118 20.0369924 17.5694672 20.038942 17.9457227 19.7354182 18.2520957 19.3588628 18.2544951 18.9824573 18.2567446 18.6756344 17.9533708 18.673235 17.5765154"/>
    <path d="M17.7211841,16.5534274 C17.7192346,16.176872 18.0226084,15.8697491 18.3991638,15.8679496 C18.7755693,15.8657001 19.0826921,16.1695238 19.0847916,16.5460792 C19.0865911,16.9223347 18.7830674,17.2287078 18.4066619,17.2312571 C18.0304064,17.2333566 17.7234335,16.9295329 17.7211841,16.5534274"/>
    <path d="M16.8073586,15.4982774 C16.8054091,15.121722 17.1087829,14.814899 17.4853383,14.8127996 C17.8617438,14.8108501 18.1684168,15.1142239 18.1709661,15.4907793 C18.1727657,15.8670348 17.8693919,16.1743076 17.4925365,16.1762571 C17.116281,16.1783566 16.8094581,15.8745329 16.8073586,15.4982774"/>
    <path d="M15.8599866,14.4621576 C15.8578871,14.0853023 16.1614108,13.7786293 16.5376663,13.7768298 C16.9143717,13.7745803 17.2210447,14.0779541 17.2234441,14.4548095 C17.2252437,14.831065 16.9218698,15.1378879 16.5453144,15.1398374 C16.168759,15.1419369 15.862086,14.8381132 15.8599866,14.4621576"/>
    <path d="M14.9320946,13.413741 C14.9301451,13.0371855 15.2335189,12.7305126 15.6102243,12.7284131 C15.9867797,12.7258637 16.2937526,13.0296874 16.2957021,13.4065428 C16.2978016,13.7827983 15.9942778,14.0891713 15.6180223,14.0917207 C15.2413169,14.0935202 14.934644,13.7904463 14.9320946,13.413741"/>
    <path d="M14.0034678 12.3849394C14.0015183 12.008084 14.3050421 11.701411 14.6814476 11.6994615 15.0581529 11.6970621 15.3648259 12.0005859 15.3670754 12.3771413 15.3690249 12.7536967 15.0656511 13.0606696 14.6889457 13.0626191 14.3126902 13.0647186 14.0057173 12.7611949 14.0034678 12.3849394M20.0734183 17.5708019C20.0711689 17.1942464 20.3748426 16.8871236 20.751248 16.885624 21.1278035 16.8830746 21.4347764 17.1865984 21.4368758 17.5631538 21.4388254 17.9397092 21.1350017 18.2466821 20.7585962 18.2486316 20.3824907 18.250881 20.0753678 17.9470574 20.0734183 17.5708019"/>
    <path d="M19.3656411,16.3691987 C19.3635416,15.9932431 19.6669154,15.6862702 20.0436208,15.6841707 C20.4200262,15.6822212 20.7269991,15.9852951 20.7289486,16.3618505 C20.7308982,16.7385559 20.4275244,17.0449289 20.0509689,17.0473283 C19.6744135,17.0492778 19.3675906,16.746054 19.3656411,16.3691987"/>
    <path d="M18.4214932,15.3330789 C18.4198436,14.9565235 18.7230675,14.6500005 19.0996229,14.6476011 C19.4761783,14.6456515 19.7831512,14.9491753 19.7851007,15.3254308 C19.7869003,15.7021362 19.4836764,16.0091091 19.106971,16.0110586 C18.7308655,16.013458 18.4237426,15.7096343 18.4214932,15.3330789"/>
    <path d="M17.5051783 14.2906607C17.5032288 13.9141053 17.8067526 13.6069824 18.1831581 13.6053328 18.5598634 13.6029334 18.8668363 13.9064572 18.8690858 14.2830126 18.8708853 14.6595681 18.5673616 14.966391 18.1909561 14.9686404 17.8145506 14.97044 17.5077277 14.6672161 17.5051783 14.2906607M21.3217498 7.1176623C21.3238492 7.51836166 21.6308221 7.84138053 22.0072276 7.83928106 22.3836331 7.83733155 22.6871568 7.51071358 22.6850573 7.11046411 22.6826579 6.70976475 22.3755351 6.38659592 21.9992796 6.38899532 21.6228741 6.39079487 21.3195003 6.71711291 21.3217498 7.1176623M19.9319588 7.09627768C19.9342083 7.49682707 20.2411812 7.82014587 20.6177366 7.81789643 20.994142 7.81609688 21.2975158 7.48947892 21.2954164 7.08877956 21.293017 6.68823016 20.986194 6.36521129 20.6096386 6.36731077 20.2332332 6.36926028 19.9294095 6.69587824 19.9319588 7.09627768"/>
    <path d="M19.1852214,8.33831072 C19.1874708,8.73886012 19.4942937,9.06202895 19.8706992,9.05992948 C20.2475546,9.05797997 20.5509284,8.73151196 20.5488289,8.33096257 C20.5465795,7.93011325 20.2393066,7.60754426 19.8629012,7.60934381 C19.4866457,7.61144328 19.1829719,7.93806125 19.1852214,8.33831072"/>
    <path d="M18.2475219,9.4249528 C18.2497713,9.82520227 18.5567442,10.1480712 18.9332997,10.1462716 C19.3098551,10.1444721 19.6132289,9.81785412 19.6109794,9.41700479 C19.6090299,9.01630544 19.3017571,8.69358649 18.9255016,8.69568596 C18.5487962,8.69748551 18.2454224,9.02425344 18.2475219,9.4249528"/>
    <path d="M17.283744 10.5035269C17.2859934 10.9042263 17.5929663 11.2272451 17.9693718 11.2251457 18.3459272 11.2231961 18.6494509 10.8967281 18.6475014 10.4960288 18.645102 10.0953294 18.3378292 9.77276044 17.9617237 9.77470995 17.5851683 9.77680942 17.2817944 10.1032774 17.283744 10.5035269M1.1168145 6.58898509C1.11846408 6.89760757.869976494 7.14849456.561503971 7.15044407.25318141 7.15209366.00169457439 6.90375603.000044988702 6.59513354-.00160459698 6.28681098.247032954 6.03562407.555505477 6.03382452.863828038 6.03202498 1.11516491 6.28066253 1.1168145 6.58898509"/>
    <path d="M1.92373183,7.3967872 C1.92538141,7.70540968 1.67689383,7.95674656 1.36857127,7.95839614 C1.05994878,7.96004573 0.808761869,7.71155814 0.807262245,7.40308562 C0.805312735,7.09446313 1.05395029,6.84342618 1.36257277,6.84162663 C1.67074537,6.83997705 1.92193228,7.08846464 1.92373183,7.3967872"/>
    <path d="M2.73432324,8.22978298 C2.73597282,8.53810554 2.48748524,8.78929245 2.17901271,8.791092 C1.87069015,8.79304151 1.61905335,8.54440396 1.61755373,8.23578147 C1.61590414,7.92730895 1.8645417,7.676272 2.17286426,7.67432249 C2.48118682,7.67282287 2.73252369,7.9211605 2.73432324,8.22978298"/>
    <path d="M3.54564946,9.03963957 C3.54744901,9.34826206 3.29881146,9.59959893 2.9904889,9.60124852 C2.68201638,9.60304807 2.43082946,9.35441052 2.42932984,9.04578803 C2.42723037,8.73731551 2.67586792,8.48627856 2.98419048,8.48477894 C3.292663,8.48282942 3.54399988,8.73146698 3.54564946,9.03963957"/>
    <path d="M4.3310472,9.87453988 C4.33284675,10.1833123 4.08435916,10.4341993 3.77588664,10.4359989 C3.46756408,10.4377984 3.21607724,10.1891609 3.21457762,9.88068833 C3.21322796,9.57221581 3.46156558,9.32117886 3.76988814,9.31937931 C4.07806074,9.31772973 4.32924765,9.56606736 4.3310472,9.87453988"/>
    <path d="M5.12874185,10.6877706 C5.1305414,10.9962431 4.88190384,11.2472801 4.57343132,11.2493796 C4.26510876,11.2511791 4.01362193,11.0023916 4.01227226,10.694369 C4.01047272,10.3857465 4.25896031,10.1344096 4.56743283,10.13291 C4.87575539,10.1309605 5.1269423,10.379598 5.12874185,10.6877706"/>
    <path d="M5.94167267,11.4891244 C5.94302233,11.797297 5.69453474,12.0486338 5.38621218,12.0504334 C5.07788962,12.052083 4.82640278,11.8032954 4.82490316,11.4951228 C4.82325358,11.1866503 5.07174116,10.9356134 5.37991376,10.9338138 C5.68868621,10.9317144 5.9395732,11.1806518 5.94167267,11.4891244"/>
    <path d="M6.73410364 12.3367565C6.73590319 12.6453789 6.48726564 12.8964159 6.17909304 12.8983654 5.87062052 12.900165 5.61898372 12.6513774 5.61748409 12.3433548 5.61553458 12.0345824 5.8643221 11.7833954 6.17264466 11.7814459 6.48111718 11.7799463 6.73245405 12.0287338 6.73410364 12.3367565M.619614376 17.6033137C.927337087 17.5923664 1.18602211 17.8335059 1.19756921 18.1415285 1.2083665 18.4498511.967676955 18.7082362.659504357 18.7191834.351181796 18.7304306.0924967682 18.489891.0815495178 18.1815685.0703023426 17.8736958.311141853 17.6147108.619614376 17.6033137"/>
    <path d="M1.40208785,16.7716376 C1.71026045,16.7615901 1.96879551,17.0018298 1.98034261,17.3098524 C1.99128986,17.6183249 1.75045035,17.87686 1.44242772,17.8881072 C1.13410515,17.8993543 0.875420127,17.6586648 0.864472876,17.3504922 C0.853075739,17.0423196 1.09391525,16.7833346 1.40208785,16.7716376"/>
    <path d="M2.20988996,15.9367373 C2.51821252,15.9254901 2.77674758,16.1660297 2.7878448,16.4746522 C2.79909197,16.7826748 2.5581025,17.0416598 2.2499299,17.052607 C1.94160734,17.0638542 1.68292231,16.8230147 1.6718251,16.5146921 C1.66102781,16.2065195 1.90171736,15.9478345 2.20988996,15.9367373"/>
    <path d="M2.99500277,15.1011022 C3.3030254,15.089855 3.56171043,15.3305445 3.5729576,15.6388671 C3.58390485,15.9471897 3.34291538,16.2058747 3.03519267,16.2168219 C2.72672015,16.2280691 2.46803512,15.9872296 2.45678795,15.679057 C2.44614062,15.3713343 2.68653024,15.1124993 2.99500277,15.1011022"/>
    <path d="M3.80529425,14.2903758 C4.11361681,14.2797285 4.3724518,14.5199681 4.38354901,14.8282907 C4.39464623,15.1364633 4.15365675,15.3952983 3.84548416,15.4060956 C3.53731156,15.4174927 3.27862653,15.1766532 3.26722939,14.8689305 C3.2564321,14.5604579 3.49727161,14.3017729 3.80529425,14.2903758"/>
    <path d="M4.59420111,13.4685072 C4.9023737,13.45741 5.16090877,13.6977996 5.17215594,14.0061222 C5.18340312,14.3147447 4.94226368,14.5735797 4.63439101,14.5849768 C4.32606845,14.5954742 4.06738342,14.3541848 4.05613625,14.0463121 C4.04503903,13.7385894 4.28602851,13.4797544 4.59420111,13.4685072"/>
    <path d="M5.36994127 12.6317024C5.67781394 12.6207551 5.93694886 12.8612947 5.94789611 13.1696173 5.95914328 13.4776399 5.71785389 13.7369248 5.41013117 13.747872 5.10180861 13.7591192 4.84327355 13.5176799 4.83202637 13.2096572 4.8207792 12.9014846 5.06176867 12.6430995 5.36994127 12.6317024M24.3047405 18.1640529C24.3032409 17.8555803 24.5515785 17.6042435 24.8597511 17.6024439 25.1685236 17.6007943 25.4198605 17.8495818 25.42151 18.1580544 25.4230097 18.4666768 25.174672 18.7175638 24.8663495 18.7192134 24.5580269 18.720863 24.3063901 18.4720755 24.3047405 18.1640529"/>
    <path d="M23.4976583,17.3559658 C23.4961586,17.048543 23.7444963,16.7967563 24.0531187,16.7949567 C24.3614413,16.7934571 24.6127782,17.0416448 24.6144278,17.3505672 C24.6160773,17.6587398 24.3675898,17.9099267 24.0592672,17.9118762 C23.7507947,17.9135258 23.4994578,17.6648882 23.4976583,17.3559658"/>
    <path d="M22.6872168,16.52312 C22.6854173,16.2149474 22.9340548,15.9639105 23.2422274,15.9624108 C23.5508499,15.9604613 23.8024867,16.2089489 23.8038364,16.5174214 C23.8054859,16.825744 23.5571483,17.0767809 23.2486758,17.0788804 C22.9402033,17.0808299 22.6891663,16.8317425 22.6872168,16.52312"/>
    <path d="M21.8760555,15.7136983 C21.874256,15.4050758 22.1228935,15.1537389 22.4310661,15.1523893 C22.7396886,15.1504398 22.9908755,15.3990773 22.9925251,15.7071 C22.9940247,16.0157224 22.7456871,16.2670593 22.4373646,16.2687089 C22.129042,16.2706584 21.8777051,16.0217209 21.8760555,15.7136983"/>
    <path d="M21.0902079,14.8782131 C21.0887083,14.5701905 21.3371959,14.3188536 21.6455184,14.317504 C21.9541409,14.3155545 22.2054778,14.5644919 22.2069774,14.8725146 C22.208627,15.1809871 21.9602894,15.432174 21.6519668,15.4338236 C21.3434943,15.4354732 21.0920075,15.1869856 21.0902079,14.8782131"/>
    <path d="M20.2926632,14.0651324 C20.2910136,13.7568098 20.5395012,13.5057728 20.8479738,13.5041233 C21.1562963,13.5021737 21.4077832,13.7511112 21.4095827,14.0591339 C21.4112323,14.3677563 21.1625947,14.6187933 20.8541222,14.620143 C20.5457996,14.6223924 20.2946127,14.3737548 20.2926632,14.0651324"/>
    <path d="M19.4801673,13.2643635 C19.4783677,12.9560409 19.7270053,12.704704 20.0351779,12.7030545 C20.3436504,12.7011049 20.5952872,12.9497425 20.5966369,13.258365 C20.5985864,13.5666875 20.3497989,13.8180244 20.0414763,13.819674 C19.7331538,13.8213236 19.4819668,13.5731359 19.4801673,13.2643635"/>
    <path d="M18.6874514 12.4165814C18.6855019 12.1079589 18.9342894 11.856772 19.2427619 11.8548225 19.5510845 11.852873 19.8022714 12.1016605 19.8040709 12.4105829 19.8057205 12.7186056 19.557083 12.9699424 19.2487604 12.9712921 18.9404379 12.9732416 18.688951 12.724604 18.6874514 12.4165814M24.8020756 7.14958929C24.494053 7.1606865 24.235368 6.91999695 24.2241208 6.61197431 24.2131735 6.30365175 24.4538631 6.04481676 24.7620357 6.03371955 25.0702083 6.02262234 25.3290433 6.26346185 25.3398406 6.57163445 25.3512377 6.87980705 25.1103982 7.13849207 24.8020756 7.14958929"/>
    <path d="M24.0196022,7.98111544 C23.7112796,7.99176276 23.4524446,7.75137314 23.4413474,7.44290062 C23.4304001,7.13472802 23.6712397,6.87604299 23.9794123,6.8652457 C24.2875849,6.85384856 24.5461199,7.09483804 24.5573671,7.4031606 C24.5683143,7.71118323 24.3277748,7.9697183 24.0196022,7.98111544"/>
    <path d="M23.2118,8.81675056 C22.9036274,8.82754784 22.6446425,8.58715822 22.6335453,8.2786857 C22.622748,7.97036314 22.8635875,7.71152815 23.1716101,7.70043093 C23.4797827,7.68948368 23.7386177,7.93032319 23.749565,8.23864575 C23.7606622,8.54651843 23.5199726,8.80550338 23.2118,8.81675056"/>
    <path d="M22.4266872,9.65238568 C22.1185146,9.663033 21.8599796,9.42249342 21.8484325,9.11417085 C21.8374852,8.80614822 22.0783247,8.54746319 22.3866473,8.53636598 C22.6946699,8.5251188 22.953355,8.76595831 22.9646021,9.07413091 C22.9756993,9.38230351 22.7350098,9.64098854 22.4266872,9.65238568"/>
    <path d="M21.6162458,10.4628271 C21.3080732,10.4739243 21.0492382,10.2333847 21.038141,9.92491223 C21.0268938,9.61658967 21.2680333,9.35820456 21.575756,9.34680743 C21.8840785,9.33571021 22.1429135,9.57639976 22.1540107,9.88487228 C22.1651079,10.1931948 21.9244184,10.4515799 21.6162458,10.4628271"/>
    <path d="M20.8274889,11.2849806 C20.5196162,11.2959279 20.2607812,11.0549384 20.2495341,10.7467658 C20.2382869,10.4387432 20.4791264,10.1799082 20.787299,10.168811 C21.0956216,10.1575638 21.3544565,10.3985533 21.3652538,10.7068758 C21.376651,11.0148985 21.1355115,11.2738834 20.8274889,11.2849806"/>
    <path d="M20.0515988 12.1216355C19.7435761 12.1325827 19.4847411 11.8917432 19.4736439 11.5834207 19.4622468 11.275398 19.7033862 11.016713 20.0114089 11.0054658 20.3195815 10.9943686 20.5784165 11.235658 20.5893637 11.5433807 20.6004609 11.8518532 20.3597714 12.1105383 20.0515988 12.1216355M19.3058961 7.73625694C18.9330897 7.78784398 18.5887762 7.52720944 18.5373391 7.15410315 18.4857521 6.78144675 18.7465366 6.43743315 19.1194929 6.38569615 19.4921493 6.33470895 19.8363128 6.59459368 19.8878999 6.96740004 19.939337 7.34095622 19.6787024 7.68481986 19.3058961 7.73625694"/>
    <path d="M18.4165144,8.81469607 C18.0437081,8.86613315 17.6995445,8.60564858 17.6478075,8.23269225 C17.5963704,7.85973592 17.856855,7.51527244 18.2298113,7.46413528 C18.6027677,7.41224832 18.9467813,7.67303282 18.9985183,8.04658899 C19.0499554,8.41909543 18.7894708,8.7628091 18.4165144,8.81469607"/>
    <path d="M17.4908269,9.8593037 C17.1178706,9.91074079 16.7737071,9.65025621 16.72212,9.27714992 C16.670533,8.90419359 16.9311675,8.56047992 17.3042738,8.50874292 C17.6772301,8.45715587 18.0212437,8.71794037 18.0725308,9.09029685 C18.1244178,9.46340314 17.8633334,9.80771666 17.4908269,9.8593037"/>
    <path d="M16.5878287,10.9345336 C16.2148724,10.9861207 15.8705589,10.7256361 15.8191218,10.3525298 C15.7678347,9.9795735 16.0284692,9.6355599 16.4012756,9.58412282 C16.7743819,9.53238581 17.1182455,9.79332028 17.1696826,10.1661266 C17.2212696,10.538933 16.9604851,10.8830966 16.5878287,10.9345336"/>
    <path d="M15.6704792,11.992023 C15.2973729,12.0433102 14.9536592,11.7826756 14.9019222,11.4100192 C14.850785,11.0369129 15.1111196,10.6930493 15.483926,10.6411623 C15.8568823,10.5900252 16.2010459,10.8506597 16.252483,11.2231662 C16.30407,11.5962724 16.0432855,11.940286 15.6704792,11.992023"/>
  </g>
</svg>
