<svg xmlns="http://www.w3.org/2000/svg" width="64" height="64" viewBox="0 0 64 64">
  <g fill="none" fill-rule="evenodd">
    <path fill="#42C453" fill-rule="nonzero" d="M32,62 C15.4314575,62 2,48.5685425 2,32 C2,15.4314575 15.4314575,2 32,2 C48.5685425,2 62,15.4314575 62,32 C62,48.5685425 48.5685425,62 32,62 Z M32,60 C47.463973,60 60,47.463973 60,32 C60,16.536027 47.463973,4 32,4 C16.536027,4 4,16.536027 4,32 C4,47.463973 16.536027,60 32,60 Z"/>
    <polygon fill="#15AB29" fill-rule="nonzero" points="48.008 18.439 51.018 21.073 24.923 50.879 11.593 38.303 14.339 35.393 24.649 45.121"/>
  </g>
</svg>
