<svg xmlns="http://www.w3.org/2000/svg" width="64" height="64" viewBox="0 0 64 64">
  <path fill="#020303" d="M39.7007918,39.7896315 C39.6590893,40.1218288 39.3970087,40.396428 39.0495478,40.4398606 L23.7452,42.3529041 C23.3345812,42.4042314 22.9600651,42.1132984 22.908115,41.7029099 C22.7489896,41.5258173 22.6521739,41.2916062 22.6521739,41.0347826 C22.6521739,38.6547584 21.9158978,37.2814709 19.8548691,35.0677302 C19.7389316,34.9432023 19.2302189,34.4015596 19.0939002,34.255017 C16.2211312,31.1667903 15,28.7143518 15,24.3913043 C15,16.3779778 22.3252022,10 31.3043478,10 C40.2834934,10 47.6086957,16.3779778 47.6086957,24.3913043 C47.6086957,28.7628062 46.2821147,31.3164746 43.4616507,33.9254038 C43.1966112,34.1705653 42.3035728,34.9684736 42.1476158,35.1113963 C40.5450144,36.5800581 39.9565217,37.5527934 39.9565217,39.1217391 C39.9565217,39.3784492 39.8597917,39.6125667 39.7007918,39.7896315 Z M37.9567083,39.0647921 C37.9712569,36.8516884 38.837537,35.4320224 40.7963612,33.6369095 C40.9660706,33.4813839 41.8544367,32.6876502 42.1035667,32.4572049 C44.5439723,30.1998298 45.6086957,28.1502373 45.6086957,24.3913043 C45.6086957,17.5488588 39.2357489,12 31.3043478,12 C23.3729467,12 17,17.5488588 17,24.3913043 C17,28.1349236 17.9993657,30.141983 20.5582737,32.8928091 C20.6903356,33.0347756 21.1986645,33.5760097 21.3186703,33.7049074 C23.6092038,36.165158 24.5839028,37.9203655 24.6486951,40.7282938 L37.9567054,39.0647926 Z M27.6695652,52.3217391 L35.1304348,51.173913 C35.1304348,53.2782609 33.4086957,55 31.3043478,55 C29.773913,55 27.8608696,53.8521739 27.6695652,52.3217391 Z M23.7452,46.3702954 C23.334185,46.4216722 22.9593424,46.130128 22.9079655,45.719113 C22.8565886,45.3080981 23.1481329,44.9332554 23.5591479,44.8818785 L38.8634957,42.9688351 C39.2745106,42.9174582 39.6493533,43.2090025 39.7007301,43.6200174 C39.752107,44.0310324 39.4605627,44.405875 39.0495478,44.4572519 L23.7452,46.3702954 Z M23.7452,50.3876867 C23.334185,50.4390635 22.9593424,50.1475193 22.9079655,49.7365043 C22.8565886,49.3254894 23.1481329,48.9506467 23.5591479,48.8992699 L38.8634957,46.9862264 C39.2745106,46.9348495 39.6493533,47.2263938 39.7007301,47.6374087 C39.752107,48.0484237 39.4605627,48.4232663 39.0495478,48.4746432 L23.7452,50.3876867 Z"/>
</svg>
