<svg xmlns="http://www.w3.org/2000/svg" width="64" height="64" viewBox="0 0 64 64">
  <g fill="none" fill-rule="evenodd">
    <rect width="36" height="36" x="14" y="14" fill="#D0D1CA" rx="2"/>
    <path fill="#000000" d="M34.7000008,37 L39.0379064,30.5374001 C39.3483413,30.0749151 39.2174429,29.4540697 38.7533169,29.1557045 L38.2000008,28.8000031 L38.2000008,27.5 L45,27.5 L45,33.5 L44.6025606,33.5 C44.0488608,33.5000001 43.5999985,33.9467715 43.5999985,34.5013802 L43.5999989,38.99862 C43.5999989,39.5516669 44.042968,40.0000001 44.6025607,40.0000001 L45,40.0000002 L45.0000004,45.1057032 C45.0000005,45.3803115 44.7770794,45.6029254 44.4964114,45.6029254 L38.2999992,45.6029246 L38.2999992,44.1999969 L38.7062648,43.8953001 C39.1446326,43.5665266 39.2281783,42.9432368 38.8920768,42.5021033 L34.7000008,37 Z"/>
    <path fill="#000000" d="M19,37 L23.3379057,30.5374001 C23.6483405,30.0749151 23.5174422,29.4540697 23.0533162,29.1557045 L22.5,28.8000031 L22.5,27.5 L29.2999992,27.5 L29.2999992,33.5 L28.9025598,33.5 C28.34886,33.5000001 27.8999977,33.9467715 27.8999978,34.5013802 L27.8999981,38.99862 C27.8999982,39.5516669 28.3429673,40.0000001 28.9025599,40.0000001 L29.2999992,40.0000002 L29.2999997,45.1057032 C29.2999997,45.3803115 29.0770787,45.6029254 28.7964107,45.6029254 L22.5999985,45.6029246 L22.5999985,44.1999969 L23.006264,43.8953001 C23.4446319,43.5665266 23.5281775,42.9432368 23.192076,42.5021033 L19,37 Z" transform="matrix(-1 0 0 1 48.3 0)"/>
    <path fill="#000000" d="M45,19.8976433 C45,19.0705186 44.3256778,18.4000015 43.4998351,18.4000015 L40,18.4000015 L40,21.5 L35.0075684,21.5 C34.7272461,21.5 34.5,21.2770558 34.5,21.0019316 L34.5,18.4000015 L29.5,18.4000015 L29.5,21.0019316 C29.5,21.2770072 29.2775815,21.5 28.9924316,21.5 L24,21.5 L24,18.4000015 L20.5001649,18.4000015 C19.6716467,18.4000015 19,19.0814586 19,19.8976433 L19,25 L45,25 L45,19.8976433 Z"/>
  </g>
</svg>
