<svg xmlns="http://www.w3.org/2000/svg" width="64" height="64" viewBox="0 0 64 64">
  <path fill="#3B65A3" fill-rule="evenodd" d="M10.0013893,8 C8.8960525,8 8,8.89493844 8,10.0013893 L8,53.9986107 C8,55.1039475 8.89493844,56 10.0013893,56 L53.9986107,56 C55.1039475,56 56,55.1050616 56,53.9986107 L56,10.0013893 C56,8.8960525 55.1050616,8 53.9986107,8 L10.0013893,8 Z M10,10 L10,54 L11,54 L28,37 L34,42 L47,30 L54,37 L54,10 L10,10 Z M19.5,27 C22.5375661,27 25,24.5375661 25,21.5 C25,18.4624339 22.5375661,16 19.5,16 C16.4624339,16 14,18.4624339 14,21.5 C14,24.5375661 16.4624339,27 19.5,27 Z M19.5,25 C21.4329966,25 23,23.4329966 23,21.5 C23,19.5670034 21.4329966,18 19.5,18 C17.5670034,18 16,19.5670034 16,21.5 C16,23.4329966 17.5670034,25 19.5,25 Z"/>
</svg>
