<svg xmlns="http://www.w3.org/2000/svg" width="32" height="32" viewBox="0 0 32 32">
  <g fill="#3B65A3" fill-rule="evenodd" transform="translate(8 8)">
    <polygon points="7 7 7 11 6 11 6 12 10 12 10 11 9 11 9 7"/>
    <rect width="2" height="2" x="7" y="4"/>
    <path d="M8,16 C3.581722,16 0,12.418278 0,8 C0,3.581722 3.581722,0 8,0 C12.418278,0 16,3.581722 16,8 C16,12.418278 12.418278,16 8,16 Z M8,15 C11.8659932,15 15,11.8659932 15,8 C15,4.13400675 11.8659932,1 8,1 C4.13400675,1 1,4.13400675 1,8 C1,11.8659932 4.13400675,15 8,15 Z"/>
  </g>
</svg>
