<svg xmlns="http://www.w3.org/2000/svg" width="32" height="32" viewBox="0 0 32 32">
  <g fill="none" fill-rule="evenodd">
    <path fill="#3B65A3" d="M16,24 C11.581722,24 8,20.418278 8,16 C8,11.581722 11.581722,8 16,8 C20.418278,8 24,11.581722 24,16 C24,20.418278 20.418278,24 16,24 Z M16,23 C19.8659932,23 23,19.8659932 23,16 C23,12.1340068 19.8659932,9 16,9 C12.1340068,9 9,12.1340068 9,16 C9,19.8659932 12.1340068,23 16,23 Z"/>
    <polygon fill="#3B65A3" points="15 15 15 19 14 19 14 20 18 20 18 19 17 19 17 15"/>
    <rect width="2" height="2" x="15" y="12" fill="#3B65A3"/>
  </g>
</svg>
