<svg xmlns="http://www.w3.org/2000/svg" width="32" height="32" viewBox="0 0 32 32">
  <g fill="none" fill-rule="evenodd">
    <path fill="#D7272D" d="M18.8000031,26 C22.9421387,26 26.3000031,22.6421356 26.3000031,18.5 C26.3000031,14.3578644 22.9421387,11 18.8000031,11 C14.6578674,11 11.3000031,14.3578644 11.3000031,18.5 L11.3000031,26 L18.8000031,26 Z" transform="rotate(-90 18.8 18.5)"/>
    <path fill="#D7272D" d="M14.2743226,21.7743226 L6.27432259,21.7743226 L6.27432259,13.7737072 C6.27432259,9.35647644 9.85709182,5.77432259 14.2743226,5.77432259 C18.6915534,5.77432259 22.2743226,9.35647644 22.2743226,13.7737072 C22.2743226,18.1921687 18.6915534,21.7743226 14.2743226,21.7743226 Z" transform="rotate(-2 14.274 13.774)"/>
    <path fill="#FFFFFF" d="M14.2503165,21.0603112 C18.2819953,21.0603112 21.5503167,17.7919898 21.5503167,13.760311 C21.5503167,9.72863224 18.2819953,6.46031082 14.2503165,6.46031082 C10.2186377,6.46031082 6.95031632,9.72863224 6.95031632,13.760311 L6.95031632,21.0603112 L14.2503165,21.0603112 Z" transform="rotate(-2 14.25 13.76)"/>
    <path fill="#DD292F" d="M14.5996094,16.3046875 L12.3730469,16.3046875 L12.3730469,16.0820312 C12.3730469,15.7031231 12.4160152,15.395509 12.5019531,15.1591797 C12.5878911,14.9228504 12.7158195,14.7070322 12.8857422,14.5117188 C13.0556649,14.3164053 13.437497,13.9726587 14.03125,13.4804688 C14.3476578,13.222655 14.5058594,12.9863292 14.5058594,12.7714844 C14.5058594,12.5566396 14.4423834,12.389649 14.3154297,12.2705078 C14.1884759,12.1513666 13.996095,12.0917969 13.7382812,12.0917969 C13.4609361,12.0917969 13.2314462,12.1835928 13.0498047,12.3671875 C12.8681632,12.5507822 12.7519534,12.8710915 12.7011719,13.328125 L10.4277344,13.046875 C10.5058598,12.2109333 10.8095677,11.5380885 11.3388672,11.0283203 C11.8681667,10.5185521 12.679682,10.2636719 13.7734375,10.2636719 C14.6250043,10.2636719 15.3124974,10.4414045 15.8359375,10.796875 C16.5468786,11.2773462 16.9023438,11.9179647 16.9023438,12.71875 C16.9023438,13.0507829 16.8105478,13.3710922 16.6269531,13.6796875 C16.4433585,13.9882828 16.0683622,14.3652321 15.5019531,14.8105469 C15.1074199,15.1230484 14.858399,15.3740225 14.7548828,15.5634766 C14.6513667,15.7529306 14.5996094,15.9999985 14.5996094,16.3046875 Z M12.296875,16.8964844 L14.6816406,16.8964844 L14.6816406,19 L12.296875,19 L12.296875,16.8964844 Z"/>
  </g>
</svg>
