<svg xmlns="http://www.w3.org/2000/svg" width="32" height="32" viewBox="0 0 32 32">
  <g fill="#0A0B09" fill-rule="evenodd" transform="translate(6 6)">
    <path d="M5.88018739,0.0633126354 C4.81576429,0.111899392 4.0888683,0.280920968 3.45275493,0.528141818 C2.79516652,0.78369863 2.23749059,1.1256319 1.68156124,1.68156125 C1.12563189,2.2374906 0.783698618,2.79516653 0.528141805,3.45275494 C0.280920956,4.08886832 0.111899379,4.8157643 0.0633126229,5.8801874 C0.0146464762,6.94675404 0.00317460317,7.28729798 0.00317460317,10.0031548 C0.00317460317,12.7190116 0.0146464762,13.0595555 0.0633126229,14.1261221 C0.111899379,15.1905452 0.280920956,15.9174412 0.528141805,16.5535546 C0.783698618,17.2111033 1.12563189,17.7688189 1.68156124,18.3247483 C2.23749059,18.8806776 2.79516652,19.2226109 3.45275493,19.4781677 C4.0888683,19.7253886 4.81576429,19.8944101 5.88018739,19.9429969 C6.94679372,19.991663 7.28729797,20.0031349 10.0031548,20.0031349 C12.7190115,20.0031349 13.0595555,19.991663 14.1261221,19.9429969 C15.1905452,19.8944101 15.9174412,19.7253886 16.5535546,19.4781677 C17.211143,19.2226109 17.7688189,18.8806776 18.3247483,18.3247483 C18.8806776,17.7688189 19.2226109,17.211143 19.4781677,16.5535546 C19.7253886,15.9174412 19.8944101,15.1905452 19.9429969,14.1261221 C19.991663,13.0595555 20.0031746,12.7190116 20.0031746,10.0031548 C20.0031746,7.28729798 19.991663,6.94675404 19.9429969,5.8801874 C19.8944101,4.8157643 19.7253886,4.08886832 19.4781677,3.45275494 C19.2226109,2.79516653 18.8806776,2.2374906 18.3247483,1.68156125 C17.7688189,1.1256319 17.211143,0.78369863 16.5535546,0.528141818 C15.9174412,0.280920968 15.1905452,0.111899392 14.1261221,0.0633126354 C13.0595555,0.0146464888 12.7190115,0.00313492063 10.0031548,0.00313492063 C7.28729797,0.00313492063 6.94679372,0.0146464888 5.88018739,0.0633126354 Z M10.0044046,1.80440476 C12.6751248,1.80440476 12.9914455,1.81456895 14.0461391,1.86269004 C15.0213454,1.90719807 15.5509553,2.07014274 15.9034462,2.20708137 C16.3702843,2.38852804 16.7035188,2.60531115 17.0535084,2.95530074 C17.403498,3.30529032 17.6202811,3.63852487 17.8016881,4.10536293 C17.9386664,4.45785385 18.1016111,4.98746373 18.1461191,5.96263039 C18.1942402,7.0173636 18.2044044,7.3336843 18.2044044,10.0044046 C18.2044044,12.6751248 18.1942402,12.9914455 18.1461191,14.0461391 C18.1016111,15.0213454 17.9386664,15.5509553 17.8016881,15.9034462 C17.6202811,16.3702843 17.403498,16.7035188 17.0535084,17.0535084 C16.7035188,17.403498 16.3702843,17.6202811 15.9034462,17.8016881 C15.5509553,17.9386664 15.0213454,18.1016111 14.0461391,18.1461191 C12.9916044,18.1942402 12.6752837,18.2044044 10.0044046,18.2044044 C7.33352548,18.2044044 7.01720478,18.1942402 5.96267009,18.1461191 C4.98746373,18.1016111 4.45785385,17.9386664 4.10540263,17.8016881 C3.63852487,17.6202811 3.30529032,17.403498 2.95530074,17.0535084 C2.60531115,16.7035188 2.38852804,16.3702843 2.20712108,15.9034462 C2.07014274,15.5509553 1.90719807,15.0213454 1.86269004,14.0461788 C1.81456895,12.9914455 1.80440476,12.6751248 1.80440476,10.0044046 C1.80440476,7.3336843 1.81456895,7.0173636 1.86269004,5.96267009 C1.90719807,4.98746373 2.07014274,4.45785385 2.20712108,4.10536293 C2.38852804,3.63852487 2.60531115,3.30529032 2.95530074,2.95530074 C3.30529032,2.60531115 3.63852487,2.38852804 4.10540263,2.20708137 C4.45785385,2.07014274 4.98746373,1.90719807 5.96263039,1.86269004 C7.0173636,1.81456895 7.3336843,1.80440476 10.0044046,1.80440476"/>
    <path d="M10 4.86646825C7.16484127 4.86646825 4.86646825 7.16484127 4.86646825 10 4.86646825 12.8351587 7.16484127 15.1335317 10 15.1335317 12.8351587 15.1335317 15.1335317 12.8351587 15.1335317 10 15.1335317 7.16484127 12.8351587 4.86646825 10 4.86646825L10 4.86646825zM10 13.3323016C8.15964286 13.3323016 6.66769841 11.8403571 6.66769841 10 6.66769841 8.15964286 8.15964286 6.66769841 10 6.66769841 11.8403571 6.66769841 13.3323016 8.15964286 13.3323016 10 13.3323016 11.8403571 11.8403571 13.3323016 10 13.3323016L10 13.3323016zM16.5359524 4.66365079C16.5359524 5.32619048 15.9988889 5.86329365 15.3363492 5.86329365 14.6738095 5.86329365 14.1367063 5.32619048 14.1367063 4.66365079 14.1367063 4.00111111 14.6738095 3.46404762 15.3363492 3.46404762 15.9988889 3.46404762 16.5359524 4.00111111 16.5359524 4.66365079"/>
  </g>
</svg>
