<svg xmlns="http://www.w3.org/2000/svg" width="32" height="32" viewBox="0 0 32 32">
  <g fill="none" fill-rule="evenodd">
    <path fill="#0A0B09" d="M16.0025238,9.44397856 C18.1386263,9.44397856 18.3916267,9.45210811 19.2351944,9.49059644 C20.0151865,9.52619497 20.4387805,9.6565218 20.7207107,9.76604842 C21.0940983,9.91117357 21.3606269,10.0845616 21.6405564,10.3644912 C21.920486,10.6444208 22.0938741,10.9109493 22.2389674,11.2843369 C22.3485258,11.5662671 22.4788526,11.9898611 22.5144512,12.7698214 C22.5529395,13.6134209 22.5610691,13.8664214 22.5610691,16.0025238 C22.5610691,18.1386263 22.5529395,18.3916267 22.5144512,19.2351944 C22.4788526,20.0151865 22.3485258,20.4387805 22.2389674,20.7207107 C22.0938741,21.0940983 21.920486,21.3606269 21.6405564,21.6405564 C21.3606269,21.920486 21.0940983,22.0938741 20.7207107,22.2389675 C20.4387805,22.3485258 20.0151865,22.4788527 19.2351944,22.5144512 C18.3917537,22.5529395 18.1387533,22.5610691 16.0025238,22.5610691 C13.8662943,22.5610691 13.6132939,22.5529395 12.7698532,22.5144512 C11.9898611,22.4788527 11.5662671,22.3485258 11.2843687,22.2389675 C10.9109493,22.0938741 10.6444208,21.920486 10.3644912,21.6405564 C10.0845616,21.3606269 9.91117356,21.0940983 9.76608016,20.7207107 C9.65652179,20.4387805 9.52619496,20.0151865 9.49059643,19.2352262 C9.4521081,18.3916267 9.44397855,18.1386263 9.44397855,16.0025238 C9.44397855,13.8664214 9.4521081,13.6134209 9.49059643,12.7698532 C9.52619496,11.9898611 9.65652179,11.5662671 9.76608016,11.2843369 C9.91117356,10.9109493 10.0845616,10.6444208 10.3644912,10.3644912 C10.6444208,10.0845616 10.9109493,9.91117357 11.2843687,9.76604842 C11.5662671,9.6565218 11.9898611,9.52619497 12.7698214,9.49059644 C13.6134209,9.45210811 13.8664213,9.44397856 16.0025238,9.44397856 M12.7041499,8.05065011 C11.8526114,8.08951951 11.2710946,8.22473677 10.7622039,8.42251345 C10.2361332,8.6269589 9.78999247,8.90050552 9.34524899,9.345249 C8.90050551,9.78999248 8.62695889,10.2361332 8.42251344,10.762204 C8.22473676,11.2710947 8.0895195,11.8526114 8.0506501,12.7041499 C8.01171718,13.5574032 8.00253968,13.8298384 8.00253968,16.0025238 C8.00253968,18.1752092 8.01171718,18.4476444 8.0506501,19.3008977 C8.0895195,20.1524362 8.22473676,20.733953 8.42251344,21.2428437 C8.62695889,21.7688826 8.90050551,22.2150551 9.34524899,22.6597986 C9.78999247,23.1045421 10.2361332,23.3780887 10.7622039,23.5825342 C11.2710946,23.7803109 11.8526114,23.9155281 12.7041499,23.9543975 C13.557435,23.9933304 13.8298384,24.0025079 16.0025238,24.0025079 C18.1752092,24.0025079 18.4476444,23.9933304 19.3008977,23.9543975 C20.1524362,23.9155281 20.733953,23.7803109 21.2428437,23.5825342 C21.7689144,23.3780887 22.2150551,23.1045421 22.6597986,22.6597986 C23.1045421,22.2150551 23.3780887,21.7689144 23.5825342,21.2428437 C23.7803108,20.733953 23.9155281,20.1524362 23.9543975,19.3008977 C23.9933304,18.4476444 24.0025397,18.1752092 24.0025397,16.0025238 C24.0025397,13.8298384 23.9933304,13.5574032 23.9543975,12.7041499 C23.9155281,11.8526114 23.7803108,11.2710947 23.5825342,10.762204 C23.3780887,10.2361332 23.1045421,9.78999248 22.6597986,9.345249 C22.2150551,8.90050552 21.7689144,8.6269589 21.2428437,8.42251345 C20.733953,8.22473677 20.1524362,8.08951951 19.3008977,8.05065011 C18.4476444,8.01171719 18.1752092,8.00250794 16.0025238,8.00250794 C13.8298384,8.00250794 13.557435,8.01171719 12.7041499,8.05065011 Z"/>
    <path fill="#0A0B09" d="M16 11.8931746C13.731873 11.8931746 11.8931746 13.731873 11.8931746 16 11.8931746 18.268127 13.731873 20.1068254 16 20.1068254 18.268127 20.1068254 20.1068254 18.268127 20.1068254 16 20.1068254 13.731873 18.268127 11.8931746 16 11.8931746L16 11.8931746zM16 18.6658413C14.5277143 18.6658413 13.3341587 17.4722857 13.3341587 16 13.3341587 14.5277143 14.5277143 13.3341587 16 13.3341587 17.4722857 13.3341587 18.6658413 14.5277143 18.6658413 16 18.6658413 17.4722857 17.4722857 18.6658413 16 18.6658413L16 18.6658413zM21.2287619 11.7309206C21.2287619 12.2609524 20.7991111 12.6906349 20.2690794 12.6906349 19.7390476 12.6906349 19.3093651 12.2609524 19.3093651 11.7309206 19.3093651 11.2008889 19.7390476 10.7712381 20.2690794 10.7712381 20.7991111 10.7712381 21.2287619 11.2008889 21.2287619 11.7309206"/>
  </g>
</svg>
