<svg xmlns="http://www.w3.org/2000/svg" width="96" height="32" viewBox="0 0 96 32">
  <g fill="none" fill-rule="evenodd">
    <path fill="#5F3352" d="M5.25060403,7.69946105 C5.25397481,8.26901937 4.87219743,9.4325478 3.34230337,9.46100325 C3.33673426,9.46100325 3.06003726,9.46654458 3.00669102,9.46265068 C1.47621074,9.43449475 1.09267469,8.2784546 1.0966317,7.70874651 L1.09443336,7.70874651 L1.09443336,2.7808614 L1.0966317,2.7808614 C1.09267469,2.21235144 1.47621074,1.05526293 3.00669102,1.02695724 C3.06003726,1.02530982 3.33673426,1.02530982 3.34230337,1.02530982 C4.87219743,1.05526293 5.25573348,2.22073831 5.25060403,2.7904464 L5.25060403,7.69946105 Z M3.31650959,0.118179982 C3.2646289,0.116083265 3.05622682,0.116083265 3.00507891,0.118179982 C1.09062292,0.133156536 0.12203686,1.50216328 0.132881976,2.79778491 L0.132881976,7.69182301 C0.12203686,8.9875944 1.09062292,10.3566011 3.00507891,10.3718772 L3.31475092,10.3718772 C4.11391868,10.3661861 4.73531449,10.1154786 5.20224068,9.74376058 L5.20224068,10.6094054 L5.19872334,10.7904719 C5.21030123,11.767692 4.54728364,12.0935818 4.0177782,12.3916152 C3.72979642,12.5535118 1.70498405,13.6533898 1.56121299,13.7398045 C1.41758849,13.8248714 1.25901532,14.1155663 1.40806238,14.4004203 C1.55579044,14.6849748 1.86209167,14.7074397 2.01744062,14.6264165 C2.17410857,14.5450938 4.93682846,13.0306647 4.93682846,13.0306647 L4.95719969,13.0195821 C5.6805982,12.5931996 6.20438797,11.9012829 6.21376753,10.7979602 L6.22358675,10.239784 L6.22358675,2.92044288 C6.23413876,1.50216328 5.22993969,0.133156536 3.31650959,0.118179982 L3.31650959,0.118179982 Z" transform="translate(80.812 11.979)"/>
    <path fill="#5F3352" d="M79.2254055 22.22994L79.2254055 14.7767084C79.2362506 13.4810868 78.2673714 12.1119303 76.3537948 12.0971035 76.3020606 12.0950068 76.0951241 12.0950068 76.0414847 12.0971035 74.1296668 12.1119303 73.1607876 13.4810868 73.1700206 14.7767084L73.1700206 22.22994 74.1314254 22.22994 74.1314254 14.7597849 74.1352359 14.7597849C74.1296668 14.191275 74.5139356 13.0418245 76.0435365 13.0133691 76.0993742 13.0115719 76.3756315 13.0133691 76.3798817 13.0133691 77.9109482 13.0436217 78.2950704 14.1996618 78.289941 14.7693699L78.289941 22.22994 79.2254055 22.22994zM71.4817146 9.48495299C71.4777576 9.10964056 71.1954915 8.82673347 70.8282231 8.82853066 70.4609547 8.83257433 70.1822059 9.11922556 70.1844043 9.49618541 70.1879216 9.87344478 70.4701877 10.1544049 70.8396544 10.1526077 71.2045779 10.1506608 71.4834732 9.86221237 71.4817146 9.48495299M70.886904 12.114042C70.4684877 12.114042 70.4003393 12.4042876 70.4003393 12.494746L70.4003393 13.1860637 70.4003393 22.229955 71.3668736 22.229955 71.3668736 13.2569028 71.3668736 12.494746C71.3668736 12.4156698 71.3042943 12.114042 70.886904 12.114042M68.5010811 22.22994L68.5010811 14.7767084C68.5122194 13.4810868 67.5450989 12.1119303 65.6303498 12.0971035 65.5789087 12.0950068 65.3718257 12.0950068 65.3192122 12.0971035 63.4056355 12.1119303 62.4367564 13.4810868 62.4467222 14.7767084L62.4467222 22.22994 63.4073942 22.22994 63.4073942 14.7597849 63.4119374 14.7597849C63.4073942 14.191275 63.7906371 13.0418245 65.3200915 13.0133691 65.3747568 13.0115719 65.6516003 13.0133691 65.6561436 13.0133691 67.1869169 13.0436217 67.5710392 14.1996618 67.5653235 14.7693699L67.5653235 22.22994 68.5010811 22.22994zM61.3135688 13.0192099C61.2225578 13.2660235 60.9549472 13.3886815 60.7150357 13.2982231 60.4417094 13.1832032 60.1465464 13.1096683 59.8288139 13.1153594 58.2882213 13.1247946 57.6955503 14.2374028 57.7022919 15.2559581L57.6955503 22.3451097 56.7174382 22.3451097 56.7174382 15.2050379 56.7288695 15.2050379C56.7426457 13.490522 57.88959 12.1911563 59.8216326 12.1790253 60.2802052 12.1724356 60.6946644 12.2684353 61.0673554 12.4204473 61.2907061 12.5231865 61.4015022 12.7825804 61.3135688 13.0192099M54.0175613 19.2672482L54.0138974 19.2672482C54.0221046 20.2723247 53.4399857 21.3359596 51.9440925 21.3756474 50.4483459 21.3359596 49.9059436 20.2723247 49.8945122 19.2672482 49.883374 18.2885305 50.5462451 17.9563505 50.9705236 17.7227163 51.3961211 17.4868356 54.0175613 16.0499851 54.0175613 16.0499851L54.0175613 19.2672482zM55.0010961 14.4731038C55.0010961 13.2945988 53.8372979 12.0970736 52.0723287 12.0970736 51.849271 12.0970736 51.5258228 12.1346647 51.2401859 12.2138907 50.8062347 12.3232195 50.2878675 12.5871064 49.9647124 12.9098511 49.7746297 13.1078411 49.7728711 13.3964393 49.9595829 13.5679209 50.1440965 13.7414991 50.3969049 13.7414991 50.6662741 13.5319771 51.0443876 13.215223 51.4837613 13.0079475 52.0663199 13.0115419 53.6253785 13.024871 54.0121388 14.1960375 54.0064231 14.7711372 54.0064231 14.7750311 54.0081818 14.890051 54.0081818 14.890051 54.0081818 14.890051 50.8140022 16.6476993 50.1197682 17.028553 49.4259739 17.4115035 48.9037963 18.1583842 48.8961754 19.257813 48.8829854 20.879624 49.8911415 22.1282192 51.6036438 22.3073388 51.8288998 22.3280065 52.1498566 22.3280065 52.2829291 22.3073388 53.9253779 22.1357075 55.0085704 20.8815709 55.0085704 19.4625425 55.0085704 18.0396202 55.0010961 15.5350912 55.0010961 14.4731038L55.0010961 14.4731038zM42.5845673 14.765506C42.5807569 14.1943002 42.9535944 13.0361634 44.4821694 13.0059107 44.5372743 13.0059107 44.8048849 13.0080074 44.8084022 13.0080074 46.3385894 13.0361634 46.726229 14.1996918 46.7278411 14.7711971 46.7295998 15.4464899 46.4051257 15.7952938 46.0835826 16.0007721L42.5867657 17.9074371C42.5807569 16.5836596 42.5845673 14.765506 42.5845673 14.765506M47.5401989 20.0498331C47.3527543 19.9008164 47.0830919 19.9177399 46.9152857 20.1516736 46.4526097 20.7853316 45.6767442 21.4171924 44.720762 21.4097041 43.1788504 21.396375 42.5936538 20.3158166 42.5936538 19.2673081 42.5936538 19.2616171 42.5936538 19.1919761 42.5918951 19.0691683L46.3771335 17.006897 46.4011686 16.992819C47.2208542 16.5459186 47.6561244 15.7726792 47.664478 14.7788351 47.6747369 13.4811168 46.7071768 12.114057 44.7936001 12.0971335L44.4799711 12.0971335C42.56786 12.114057 41.5907737 13.4811168 41.6010326 14.7788351L41.6010326 19.34279C41.6158347 21.0550593 42.7800725 22.3300133 44.7143135 22.3449899 46.0873931 22.356372 47.1116703 21.5340095 47.6174337 20.7117967 47.744644 20.4988301 47.7689722 20.2262569 47.5401989 20.0498331M37.2640563 19.1708741L37.265815 9.08326685C37.265815 9.04088321 37.2510128 9.00209393 37.2420729 8.96629997L36.3025049 8.96629997C36.2929788 9.00209393 36.2783232 9.04088321 36.2783232 9.08326685L36.2783232 19.229732 36.2814009 19.3219875C36.2951771 21.0344067 37.4469577 22.3316757 39.380759 22.3488987 39.8385988 22.3506959 40.2537908 22.2564934 40.6266283 22.1073269 40.8480738 22.0017422 40.9607751 21.7435465 40.8726952 21.5037718 40.7797789 21.2605526 40.5140736 21.1362472 40.2718172 21.2267056 39.9861803 21.3304931 39.6861809 21.3963899 39.3699139 21.3963899 37.900987 21.402081 37.2565819 20.2893231 37.2640563 19.2689705L37.2640563 19.1708741z"/>
    <path fill="#F37820" d="M9,11.0063108 C9,7.1368322 12.1258188,4 15.9944363,4 L32,4 L32,20.9936892 C32,24.8631678 28.8741812,28 25.0055637,28 L15.9944363,28 C12.1315158,28 9,24.8624191 9,20.9936892 L9,11.0063108 Z"/>
    <path fill="#FEFEFE" d="M25.4749175 22.3450498C24.1016914 22.354485 23.0777073 21.5322722 22.5717973 20.7088613 22.4444405 20.4967933 22.4204054 20.2213745 22.64742 20.0480958 22.8354509 19.8969824 23.1061391 19.9160026 23.2739453 20.1499363 23.7366213 20.7834446 24.511754 21.4151556 25.4675897 21.4076673 27.0103807 21.3944879 27.6024653 20.2838267 27.5955772 19.2636239 27.5816544 17.4360351 25.4376924 17.4116233 25.4376924 17.4116233 23.6072127 17.3190682 22.5360378 16.3081509 22.5238736 14.7767983 22.5144941 13.4810269 23.4819077 12.1120202 25.3954843 12.0970436 26.2296789 12.0892558 27.0435022 12.4458475 27.5032472 12.9098212 27.6930367 13.098376 27.6946488 13.3964094 27.5083766 13.5660937 27.3240097 13.737725 27.073253 13.7416189 26.8028579 13.5302998 26.4234254 13.2133959 25.984931 13.0059706 25.4028121 13.0097148 23.8436069 13.0237927 23.4561139 14.1942104 23.4612433 14.76931 23.4742868 16.3638637 25.4102865 16.4968555 25.4102865 16.4968555 27.0760376 16.591058 28.5587407 17.3229621 28.5735428 19.2577831 28.5862932 21.000305 27.4311418 22.3281263 25.4749175 22.3450498M20.6884551 21.2210744C20.4148358 21.3398385 20.1196728 21.4114264 19.8034057 21.4076823 18.2622269 21.3945029 17.6680904 20.2838417 17.6762975 19.2636389L17.6719009 13.0909027 20.5921681 13.0909027 20.6030132 13.0909027C20.8506922 13.0909027 21.0501543 12.8854244 21.0501543 12.6326201 21.0501543 12.3817629 20.8506922 12.1761348 20.6030132 12.1761348L20.5921681 12.1761348 17.6719009 12.1761348 17.6719009 9.08317699C17.6719009 9.04079335 17.6581247 9.00200407 17.6485985 8.96635988L16.7147462 8.96635988C16.7056597 9.00200407 16.6914438 9.04079335 16.6914438 9.08317699L16.6914438 19.3162066 16.6914438 19.3314827C16.7056597 21.043752 17.8627163 22.3281412 19.7969573 22.3450647 20.2543574 22.3488089 20.6677907 22.2526594 21.0423869 22.1018455 21.2641255 21.9979082 21.3746285 21.7377655 21.2878676 21.5000876 21.1959772 21.2549214 20.9283666 21.1342104 20.6884551 21.2210744M14.6217122 9.48495299C14.6183414 9.10769361 14.3360753 8.82478652 13.9688069 8.82673347 13.5997799 8.83047761 13.3227897 9.11922556 13.3244019 9.49618541 13.3283589 9.87149783 13.610625 10.1544049 13.9778933 10.1526077 14.3472135 10.1488636 14.6247898 9.86026542 14.6217122 9.48495299M13.5174596 12.494746L13.5174596 13.1860637 13.5174596 22.229955 14.4577604 22.229955 14.4577604 13.2569028 14.4577604 12.494746C14.4577604 12.4024904 14.3969398 12.114042 13.9908342 12.114042 13.5851683 12.114042 13.5174596 12.3837697 13.5174596 12.494746z"/>
  </g>
</svg>
