<svg xmlns="http://www.w3.org/2000/svg" width="32" height="32" viewBox="0 0 32 32">
  <g fill="none" fill-rule="evenodd">
    <path fill="#000000" d="M5.97704926,6.75875327 C5.43743985,6.89199016 5,7.45530558 5,7.99180311 L5,26.0081969 C5,26.5559546 5.43549118,26.8870949 5.96098453,26.7508559 L13.1,24.9 L21.2,27.1 L28.0435669,25.2575012 C28.5717903,25.1152872 29,24.5571221 29,23.9994051 L29,19.466199 L29,6.00705108 C29,5.45087213 28.5582896,5.11325908 28.0278956,5.24925753 L21.2,7 L13.1,5 L5.97704926,6.75875327 Z"/>
    <path fill="#FFFFFF" d="M6.19617729 7.84807072C6.08783157 7.87675047 6 7.99576886 6 8.09990234L6 25.7 12.8 24 12.8 6.1 6.19617729 7.84807072zM13.4054359 6.10130461C13.4024337 6.10058409 13.4 6.1032605 13.4 6.1032605L13.4 24 20.9 26 20.9 7.9 13.4054359 6.10130461zM21.5047111 7.89876784C21.5021092 7.89944833 21.5 7.90329693 21.5 7.90329693L21.5 26 27.8124776 24.3490443C27.9160434 24.3219579 28 24.2193025 28 24.0967285L28 6.2 21.5047111 7.89876784z"/>
    <g transform="translate(12 3)">
      <path fill="#D0021B" d="M1.5,9.5 C2.56474983,11.5 5,15 5.5,15 C6,15 8.49051916,11.2436487 9.5,9.5 C10.5094808,7.75635128 11,7.02127687 11,5.5 C11,2.46243388 8.53756612,0 5.5,0 C2.46243388,0 1.13690307e-13,2.46243388 1.13690307e-13,5.5 C1.13690307e-13,7.01385265 0.435250174,7.5 1.5,9.5 Z"/>
      <circle cx="5.5" cy="5.5" r="2.5" fill="#FFFFFF"/>
    </g>
  </g>
</svg>
