<svg xmlns="http://www.w3.org/2000/svg" width="64" height="64" viewBox="0 0 64 64">
  <g fill="none" fill-rule="evenodd">
    <path fill="#E7D5A6" d="M52,31.9984615 C52,43.0446154 43.0430769,52 32,52 C20.9569231,52 12,43.0446154 12,31.9984615 C12,20.9553846 20.9569231,12 32,12 C43.0430769,12 52,20.9553846 52,31.9984615 L52,31.9984615 Z"/>
    <path fill="#FBF7ED" fill-rule="nonzero" d="M51,31.9984615 L51,31.9984615 C51,21.5079865 42.4911093,13 32,13 C21.5088907,13 13,21.5079865 13,31.9984615 C13,42.4915614 21.5084386,51 32,51 C42.4915614,51 51,42.4915614 51,31.9984615 L51,31.9984615 Z"/>
    <path fill="#3B65A3" d="M35.375,34.375 C34.638125,34.2355 34.25,34.025125 34.25,33.25 C34.25,33.25 34.23875,32.326375 34.25,32.125 C34.647125,31.559125 35.9375,31 35.9375,29.875 C36.5,29.875 37.0625,29.3125 37.0625,28.75 C37.0625,28.1875 36.69125,27.90175 36.5,27.625 L36.5,26.5 C36.5,23.6875 34.1465,22 32,22 C29.8535,22 27.5,23.6875 27.5,26.5 L27.5,27.625 C27.30875,27.902875 26.9375,28.1875 26.9375,28.75 C26.9375,29.3125 27.5,29.875 28.0625,29.875 C28.0625,31 29.352875,31.559125 29.75,32.125 C29.760125,32.326375 29.75,33.25 29.75,33.25 C29.75,34.025125 29.361875,34.2355 28.625,34.375 C28.625,34.375 26.848625,34.8295 26.375,34.9375 C24.9125,35.269375 23,36.761125 23,38.3125 L23,40 L41,40 L41,38.3125 C41,36.761125 39.08525,35.269375 37.625,34.9375 C37.15025,34.8295 35.375,34.375 35.375,34.375 Z"/>
  </g>
</svg>
