<svg xmlns="http://www.w3.org/2000/svg" width="64" height="64" viewBox="0 0 64 64">
  <g fill="none" fill-rule="evenodd">
    <path fill="#86A5CD" d="M32,62 C48.5685425,62 62,48.5685425 62,32 C62,15.4314575 48.5685425,2 32,2 C15.4314575,2 2,15.4314575 2,32 C2,48.5685425 15.4314575,62 32,62 Z M32,60 C47.463973,60 60,47.463973 60,32 C60,16.536027 47.463973,4 32,4 C16.536027,4 4,16.536027 4,32 C4,47.463973 16.536027,60 32,60 Z"/>
    <path fill="#3B65A3" d="M39,47 L39,49 L27,49 L27,47 L30.6000004,46.3000031 L30.5,29.5 L27,29 L27,27.3999939 L35.5,24.3 L36.4,24.8 L36.3,46.3000031 L39,47 Z M33.3999996,19.8999939 C31.1908606,19.8999939 29.3999996,18.1091329 29.3999996,15.8999939 C29.3999996,13.6908549 31.1908606,11.8999939 33.3999996,11.8999939 C35.6091386,11.8999939 37.3999996,13.6908549 37.3999996,15.8999939 C37.3999996,18.1091329 35.6091386,19.8999939 33.3999996,19.8999939 Z"/>
  </g>
</svg>
