<svg xmlns="http://www.w3.org/2000/svg" width="32" height="32" viewBox="0 0 32 32">
  <g fill="none" fill-rule="evenodd">
    <path fill="#6F94C3" d="M16,31 C7.71572875,31 1,24.2842712 1,16 C1,7.71572875 7.71572875,1 16,1 C24.2842712,1 31,7.71572875 31,16 C31,24.2842712 24.2842712,31 16,31 Z M16,29 C23.1797017,29 29,23.1797017 29,16 C29,8.82029825 23.1797017,3 16,3 C8.82029825,3 3,8.82029825 3,16 C3,23.1797017 8.82029825,29 16,29 Z"/>
    <path fill="#3B65A3" d="M18.522,21.68625 L18.522,22.40625 L14.13,22.40625 L14.13,21.68625 L15.354,21.45225 C15.3660001,20.9962477 15.372,20.5102526 15.372,19.99425 L15.372,18.62625 L15.372,17.72625 C15.372,17.2342475 15.3660001,16.8232517 15.354,16.49325 C15.3419999,16.1632484 15.3300001,15.8182518 15.318,15.45825 L14.004,15.29625 L14.004,14.63025 L17.154,13.51425 L17.424,13.69425 L17.37,16.19625 L17.37,18.62625 L17.37,20.00325 C17.37,20.5252526 17.3759999,21.0082478 17.388,21.45225 L18.522,21.68625 Z M16.344,11.78625 C15.9599981,11.78625 15.6360013,11.6662512 15.372,11.42625 C15.1079987,11.1862488 14.976,10.8742519 14.976,10.49025 C14.976,10.1062481 15.1079987,9.7942512 15.372,9.55425 C15.6360013,9.3142488 15.9599981,9.19425 16.344,9.19425 C16.7280019,9.19425 17.0489987,9.3142488 17.307,9.55425 C17.5650013,9.7942512 17.694,10.1062481 17.694,10.49025 C17.694,10.8742519 17.5650013,11.1862488 17.307,11.42625 C17.0489987,11.6662512 16.7280019,11.78625 16.344,11.78625 L16.344,11.78625 Z"/>
  </g>
</svg>
