<svg xmlns="http://www.w3.org/2000/svg" width="32" height="32" viewBox="0 0 32 32">
  <g fill="none" fill-rule="evenodd">
    <path fill="#CCCCCC" d="M11,14.0003297 C11,12.3432934 12.3486445,11 14.0003297,11 L17.9996703,11 C19.6567066,11 21,12.3486445 21,14.0003297 L21,17.9996703 C21,19.6567066 19.6513555,21 17.9996703,21 L14.0003297,21 C12.3432934,21 11,19.6513555 11,17.9996703 L11,14.0003297 Z"/>
    <path fill="#F5F5F5" d="M14,12 L18,12 C19.1045695,12 20,12.8954305 20,14 L20,18 C20,19.1045695 19.1045695,20 18,20 L14,20 C12.8954305,20 12,19.1045695 12,18 L12,14 C12,12.8954305 12.8954305,12 14,12 Z"/>
  </g>
</svg>
