<svg xmlns="http://www.w3.org/2000/svg" width="32" height="32" viewBox="0 0 32 32">
  <g fill="none" fill-rule="evenodd">
    <path fill="#3B65A3" d="M21.892851,22.485 C20.4023768,19.3709246 17.4740651,19.0072237 16.8000031,18.7999992 C18.7803006,17.6046498 19.708962,12.0767101 16.1454384,9.09346865 C16.7466832,7.43902784 18.3853553,6.48500001 19.907,6.48500001 C21.815,6.48500001 23.907,7.98500001 23.907,10.485 L23.907,11.485 C24.077,11.731 24.407,11.985 24.407,12.485 C24.407,12.985 23.907,13.485 23.407,13.485 C23.407,14.485 22.26,14.982 21.907,15.485 C21.897,15.664 21.907,16.485 21.907,16.485 C21.907,17.174 22.252,17.361 22.907,17.485 C22.907,17.485 24.485,17.889 24.907,17.985 C26.205,18.28 27.907,19.606 27.907,20.985 L27.907,22.485 L21.892851,22.485 Z M11.907,21.2316662 L11.907,20.985 C11.907,20.9373477 11.90903,20.8897587 11.9130032,20.8422733 C11.9107314,20.9707189 11.9087294,21.100512 11.907,21.2316662 Z"/>
    <path fill="#3B65A3" d="M15.3913593,20.485 C14.7363593,20.361 14.3913593,20.174 14.3913593,19.485 C14.3913593,19.485 14.3813593,18.664 14.3913593,18.485 C14.7443593,17.982 15.8913593,17.485 15.8913593,16.485 C16.3913593,16.485 16.8913593,15.985 16.8913593,15.485 C16.8913593,14.985 16.5613593,14.731 16.3913593,14.485 L16.3913593,13.485 C16.3913593,10.985 14.2993593,9.48500001 12.3913593,9.48500001 C10.4833593,9.48500001 8.39135927,10.985 8.39135927,13.485 L8.39135927,14.485 C8.22135927,14.732 7.89135927,14.985 7.89135927,15.485 C7.89135927,15.985 8.39135927,16.485 8.89135927,16.485 C8.89135927,17.485 10.0383593,17.982 10.3913593,18.485 C10.4003593,18.664 10.3913593,19.485 10.3913593,19.485 C10.3913593,20.174 10.0463593,20.361 9.39135927,20.485 C9.39135927,20.485 7.81235927,20.889 7.39135927,20.985 C6.09135927,21.28 4.39135927,22.606 4.39135927,23.985 L4.39135927,26 L20.3913593,26 L20.3913593,23.985 C20.3913593,22.606 18.6893593,21.28 17.3913593,20.985 C16.9693593,20.889 15.3913593,20.485 15.3913593,20.485 Z"/>
  </g>
</svg>
