<svg xmlns="http://www.w3.org/2000/svg" width="32" height="32" viewBox="0 0 32 32">
  <path fill="#3B65A3" fill-rule="evenodd" d="M9.99406028,8 C8.8927712,8 8,8.89451376 8,9.99406028 L8,22.0059397 C8,23.1072288 8.89451376,24 9.99406028,24 L22.0059397,24 C23.1072288,24 24,23.1054862 24,22.0059397 L24,9.99406028 C24,8.8927712 23.1054862,8 22.0059397,8 L9.99406028,8 Z M19.5265882,17.8785882 C19.3270588,17.7628235 19.0861176,17.5322353 18.8442353,17.5322353 C18.3821176,17.5322353 17.6997647,18.9072941 17.2903529,18.9072941 C17.0804706,18.9072941 16.8178824,18.7181176 16.6296471,18.6127059 C15.2432941,17.8362353 14.288,16.8809412 13.5105882,15.4945882 C13.4061176,15.3063529 13.2178824,15.0437647 13.2178824,14.8338824 C13.2178824,14.4244706 14.5929412,13.7421176 14.5929412,13.28 C14.5929412,13.0390588 14.3623529,12.7971765 14.2456471,12.5976471 C14.0781176,12.304 13.3016471,10.7708235 13.1115294,10.7087059 C13.0597647,10.6870588 12.9967059,10.6870588 12.9449412,10.6870588 C12.672,10.6870588 12.1355294,10.8131765 11.8842353,10.9185882 C11.1905882,11.2329412 10.6870588,12.5552941 10.6870588,13.28 C10.6870588,13.984 10.9703529,14.624 11.2122353,15.2752941 C12.0517647,17.5736471 14.5505882,20.0724706 16.8508235,20.912 C17.5002353,21.1538824 18.1421176,21.4371765 18.8442353,21.4371765 C19.5689412,21.4371765 20.8922353,20.9336471 21.2065882,20.24 C21.3110588,19.9887059 21.4371765,19.4531765 21.4371765,19.1802353 C21.4371765,19.1275294 21.4371765,19.0644706 21.4164706,19.0117647 C21.3534118,18.8235294 19.8202353,18.0461176 19.5265882,17.8785882 Z"/>
</svg>
