<svg xmlns="http://www.w3.org/2000/svg" width="32" height="32" viewBox="0 0 32 32">
  <g fill="none" fill-rule="evenodd">
    <path fill="#3B65A3" d="M9.00010618,8 C7.89547804,8 7,8.89451376 7,9.99406028 L7,22.0059397 C7,23.1072288 7.89005841,24 9.00010618,24 L21.9998938,24 C23.104522,24 24,23.1054862 24,22.0059397 L24,9.99406028 C24,8.8927712 23.1099416,8 21.9998938,8 L9.00010618,8 Z M9.00748397,9 C8.45106594,9 8,9.44994876 8,10.0068455 L8,21.9931545 C8,22.5492199 8.44892021,23 9.00748397,23 L21.992516,23 C22.5489341,23 23,22.5500512 23,21.9931545 L23,10.0068455 C23,9.45078007 22.5510798,9 21.992516,9 L9.00748397,9 Z"/>
    <rect width="6" height="4" x="10" y="11" fill="#3B65A3"/>
    <rect width="3" height="1" x="18" y="11" fill="#3B65A3"/>
    <rect width="3" height="1" x="18" y="14" fill="#3B65A3"/>
    <rect width="11" height="1" x="10" y="17" fill="#3B65A3"/>
    <rect width="11" height="1" x="10" y="20" fill="#3B65A3"/>
  </g>
</svg>
