<svg xmlns="http://www.w3.org/2000/svg" width="32" height="32" viewBox="0 0 32 32">
  <path fill="#FFFFFF" d="M2,16 C2,16 6.96774194,24 16,24 C25.0322581,24 30,16 30,16 C30,16 25.0322581,8 16,8 C6.96774194,8 2,16 2,16 Z M1.1504657,16.5275334 L0.822884485,16 L1.1504657,15.4724666 C1.32665435,15.1887342 1.6572578,14.7175293 2.13994786,14.1209821 C2.93642292,13.1366342 3.87952943,12.1539014 4.96812721,11.2356284 C8.09956548,8.59414309 11.7892354,7 16,7 C20.2107646,7 23.9004345,8.59414309 27.0318728,11.2356284 C28.1204706,12.1539014 29.0635771,13.1366342 29.8600521,14.1209821 C30.3427422,14.7175293 30.6733457,15.1887342 30.8495343,15.4724666 L31.1771155,16 L30.8495343,16.5275334 C30.6733457,16.8112658 30.3427422,17.2824707 29.8600521,17.8790179 C29.0635771,18.8633658 28.1204706,19.8460986 27.0318728,20.7643716 C23.9004345,23.4058569 20.2107646,25 16,25 C11.7892354,25 8.09956548,23.4058569 4.96812721,20.7643716 C3.87952943,19.8460986 2.93642292,18.8633658 2.13994786,17.8790179 C1.6572578,17.2824707 1.32665435,16.8112658 1.1504657,16.5275334 Z M16,20 C13.790861,20 12,18.209139 12,16 C12,13.790861 13.790861,12 16,12 C18.209139,12 20,13.790861 20,16 C20,18.209139 18.209139,20 16,20 Z M16,19 C17.6568542,19 19,17.6568542 19,16 C19,14.3431458 17.6568542,13 16,13 C14.3431458,13 13,14.3431458 13,16 C13,17.6568542 14.3431458,19 16,19 Z"/>
</svg>
