<svg xmlns="http://www.w3.org/2000/svg" width="32" height="32" viewBox="0 0 32 32">
  <path fill="#3B65A3" fill-rule="evenodd" d="M19.375,19.375 C18.638125,19.2355 18.25,19.025125 18.25,18.25 C18.25,18.25 18.23875,17.326375 18.25,17.125 C18.647125,16.559125 19.9375,16 19.9375,14.875 C20.5,14.875 21.0625,14.3125 21.0625,13.75 C21.0625,13.1875 20.69125,12.90175 20.5,12.625 L20.5,11.5 C20.5,8.6875 18.1465,7 16,7 C13.8535,7 11.5,8.6875 11.5,11.5 L11.5,12.625 C11.30875,12.902875 10.9375,13.1875 10.9375,13.75 C10.9375,14.3125 11.5,14.875 12.0625,14.875 C12.0625,16 13.352875,16.559125 13.75,17.125 C13.760125,17.326375 13.75,18.25 13.75,18.25 C13.75,19.025125 13.361875,19.2355 12.625,19.375 C12.625,19.375 10.848625,19.8295 10.375,19.9375 C8.9125,20.269375 7,21.761125 7,23.3125 L7,25 L25,25 L25,23.3125 C25,21.761125 23.08525,20.269375 21.625,19.9375 C21.15025,19.8295 19.375,19.375 19.375,19.375 Z"/>
</svg>
