<svg xmlns="http://www.w3.org/2000/svg" width="32" height="32" viewBox="0 0 32 32">
  <g fill="none" fill-rule="evenodd">
    <rect width="12" height="12" x="10" y="10" fill="#FF9800" rx="1.5"/>
    <path fill="#FFFFFF" d="M12.6000004,18.3999996 C12.0465718,18.3999996 11.6000004,18.8459996 11.6000004,19.3999996 C11.6000004,19.9514282 12.0465718,20.3999996 12.6000004,20.3999996 C13.153429,20.3999996 13.6000004,19.9514282 13.6000004,19.3999996 C13.6000004,18.8459996 13.153429,18.3999996 12.6000004,18.3999996 Z"/>
    <path fill="#FFFFFF" fill-rule="nonzero" d="M11.6000004,15 C14.6206608,15 16.9333337,17.3124242 16.9333337,20.333 L14.9333337,20.333 C14.9333337,18.4170419 13.5161394,17 11.6000004,17 L11.6000004,15 Z"/>
    <path fill="#FFFFFF" fill-rule="nonzero" d="M11.6000004,11.8000002 C16.390002,11.8000002 20.266667,15.6764323 20.266667,20.4663335 L18.266667,20.4663335 C18.266667,16.7810287 15.2854594,13.8000002 11.6000004,13.8000002 L11.6000004,11.8000002 Z"/>
  </g>
</svg>
