<svg xmlns="http://www.w3.org/2000/svg" width="32" height="32" viewBox="0 0 32 32">
  <g fill="none" fill-rule="evenodd">
    <path fill="#5D7DB2" d="M14,24 C8.4771525,24 4,19.5228475 4,14 C4,8.4771525 8.4771525,4 14,4 C19.5228475,4 24,8.4771525 24,14 C24,19.5228475 19.5228475,24 14,24 Z M14,19 C16.7614237,19 19,16.7614237 19,14 C19,11.2385763 16.7614237,9 14,9 C11.2385763,9 9,11.2385763 9,14 C9,16.7614237 11.2385763,19 14,19 Z"/>
    <path fill="#FFFFFF" d="M14,23 C9.02943725,23 5,18.9705627 5,14 C5,9.02943725 9.02943725,5 14,5 C18.9705627,5 23,9.02943725 23,14 C23,18.9705627 18.9705627,23 14,23 Z M14,19.9999996 C17.3137085,19.9999996 20,17.3137082 20,13.9999998 C20,10.6862914 17.3137085,8 14,8 C10.6862915,8 8,10.6862914 8,13.9999998 C8,17.3137082 10.6862915,19.9999996 14,19.9999996 Z"/>
    <path fill="#5D7DB2" d="M21.2400017,19.2399979 L26.2400017,19.2399979 L26.2400017,26.2426062 C26.2400017,27.3457351 25.3461019,28.2399979 24.2351202,28.2399979 L23.2448832,28.2399979 C22.1376177,28.2399979 21.2400017,27.3441401 21.2400017,26.2426062 L21.2400017,19.2399979 Z" transform="rotate(-45 23.74 23.74)"/>
    <path fill="#FFFFFF" d="M21.5426399,18.5426437 L24.5426399,18.5426437 L24.5426399,26.5450991 C24.5426399,27.0960278 24.0999796,27.5426437 23.5436834,27.5426437 L22.5415965,27.5426437 C21.989888,27.5426437 21.5426399,27.0963323 21.5426399,26.5450991 L21.5426399,18.5426437 Z" transform="rotate(-45 23.043 23.043)"/>
  </g>
</svg>
