<svg xmlns="http://www.w3.org/2000/svg" width="32" height="32" viewBox="0 0 32 32">
  <g fill="none" fill-rule="evenodd">
    <path fill="#A3A3A3" d="M20.5427738,17.5423232 L23.0001339,17.5423232 L23.0001339,24.9962982 C23.0001339,25.5504504 22.5494162,25.9996795 22.0006315,25.9996795 L21.5422762,25.9996795 C20.9902663,25.9996795 20.5427738,25.5449753 20.5427738,24.9962982 L20.5427738,17.5423232 Z" transform="rotate(-45 21.771 21.771)"/>
    <path fill="#A3A3A3" d="M15,22 C11.1340068,22 8,18.8659932 8,15 C8,11.1340068 11.1340068,8 15,8 C18.8659932,8 22,11.1340068 22,15 C22,18.8659932 18.8659932,22 15,22 Z M15,19.9999997 C17.7614237,19.9999997 20,17.7614235 20,14.9999998 C20,12.2385762 17.7614237,10 15,10 C12.2385763,10 10,12.2385762 10,14.9999998 C10,17.7614235 12.2385763,19.9999997 15,19.9999997 Z"/>
  </g>
</svg>
