<svg xmlns="http://www.w3.org/2000/svg" width="64" height="64" viewBox="0 0 64 64">
  <path fill="#D7272D" fill-rule="evenodd" d="M31.002,16.566 C28.048,12.978 24.124,11.008 19.904,11.008 C13.646,11.008 7,15.706 7,24.412 C7,33.37 14.944,39.618 20.74,44.18 C22.936,45.912 24.544,47.14 25.856,48.138 C27.926,49.716 28.972,50.508 30.088,51.622 C30.33,51.864 30.654,51.998 31.002,51.998 C31.346,51.998 31.672,51.868 31.912,51.622 C33.394,50.148 34.742,49.13 38.346,46.396 L41.244,44.194 C46.052,40.542 55.004,33.738 55.004,24.322 C55.006,15.67 48.366,11 42.12,11 C37.89,11 33.954,12.974 31.002,16.566 Z M31.002,19.6999969 C28.1069565,16.0780001 25.4461575,13.1686365 19.904,13.008 C14.871356,13 9,16.706 9,24.412 C9,33.37 18.1692419,39.361517 23.74,44 C27.8478222,47.0209808 31.0020008,49.6999969 31.0020008,49.6999969 C31.0020008,49.6999969 33.6794243,47.3642349 38.244,44 C42.8500481,40.2254314 53.0015389,33.7379998 53.004,24.322 C53.006,16.67 47.1388741,13 42.12,13 C36.5319996,13.2069133 33.8864937,16.0780001 31.002,19.6999969 Z"/>
</svg>
