<svg xmlns="http://www.w3.org/2000/svg" width="64" height="64" viewBox="0 0 64 64">
  <path fill="#D7272D" fill-rule="evenodd" d="M12.5370567,18.1451938 C12.2404485,18.2859202 12,18.6752925 12,18.9936065 L12,50.8094105 C12,51.7983249 12.7365722,52.2505302 13.6253703,51.8288381 L25.7000122,46.0999985 L37.9364835,51.9269009 C38.1372414,52.0225 38.4538454,52.0270004 38.66643,51.9261392 L51.4629433,45.8548062 C51.7595515,45.7140798 52,45.3247075 52,45.0063935 L52,13.1905895 C52,12.2016751 51.2634278,11.7494698 50.3746297,12.1711619 L38.2999878,17.9000015 L26.0635165,12.0730991 C25.8627586,11.9775 25.5461546,11.9729996 25.33357,12.0738608 L12.5370567,18.1451938 Z M14.1857187,19.6114769 C14.0831491,19.6603652 14,19.7851959 14,19.9055129 L14,49.4000015 L24.7000122,44.3000031 L24.7000122,14.5999985 L14.1857187,19.6114769 Z M26.707695,14.6036949 C26.7034519,14.6016534 26.7000122,14.6054084 26.7000122,14.6054084 L26.7000122,44.3000031 L37.2999878,49.4000015 L37.2999878,19.6999969 L26.707695,14.6036949 Z M39.3077431,19.6963005 C39.30346,19.698342 39.2999878,19.7054069 39.2999878,19.7054069 L39.2999878,49.4000015 L49.8142813,44.3885231 C49.9168509,44.3396348 50,44.2148041 50,44.0944871 L50,14.5999985 L39.3077431,19.6963005 Z"/>
</svg>
