<svg xmlns="http://www.w3.org/2000/svg" width="64" height="64" viewBox="0 0 64 64">
  <path fill="#D7272D" fill-rule="evenodd" d="M20.1999969,46.9000015 C22.4091359,46.9000015 24.1999969,45.1091405 24.1999969,42.9000015 C24.1999969,40.6908625 22.4091359,38.9000015 20.1999969,38.9000015 C17.9908579,38.9000015 16.1999969,40.6908625 16.1999969,42.9000015 C16.1999969,45.1091405 17.9908579,46.9000015 20.1999969,46.9000015 Z M20.1999969,44.9000015 C21.3045664,44.9000015 22.1999969,44.004571 22.1999969,42.9000015 C22.1999969,41.795432 21.3045664,40.9000015 20.1999969,40.9000015 C19.0954274,40.9000015 18.1999969,41.795432 18.1999969,42.9000015 C18.1999969,44.004571 19.0954274,44.9000015 20.1999969,44.9000015 Z M22.3525724,34.9394531 C21.4117727,34.7777481 21.1543129,34.6713525 20.2043247,34.6713525 C15.6732013,34.6713525 12,38.3445538 12,42.8756772 C12,47.4068006 15.6732013,51.0800018 20.2043247,51.0800018 C24.7354481,51.0800018 28.4086493,47.4068006 28.4086493,42.8756772 C28.4086493,41.9256889 28.3223324,41.6870956 28.1266842,40.7483845 L39.6614361,29.2250137 C40.4277344,29.3739223 40.8707109,29.4670278 41.8172987,29.4670278 C48.0177756,29.4670278 51.0508126,25.9542487 51.0508126,20.2335139 C51.0508118,19.0856686 50.6353299,16.8524319 50.6353299,16.8524319 L43.8230743,23.6648035 C41.2354527,23.2302666 39.7706089,21.5647221 39.4127159,19.2652206 L46.5305423,12.1416996 C46.5305423,12.1416996 44.2522888,11 41.8172987,11 C36.0965639,11 32.5837848,14.033037 32.5837848,20.2335139 C32.5837848,21.784909 32.8941936,22.6750402 33.3581619,23.9410696 L22.3525724,34.9394531 Z M35.8039122,24.323823 C34.7902222,22.5481563 34.5837848,21.4507015 34.5837848,20.2335139 C34.5837848,15.2081754 37.3084373,12.578125 42.7963257,13.072937 L37.3084364,18.5353783 C37.5740356,22.7832031 40.2539062,25.4533691 44.5446235,25.7715654 C44.5446235,25.7715654 47.4176636,22.8604736 49.020752,21.3430786 C48.6560059,24.9234619 46.8426372,27.4670278 41.8172987,27.4670278 C41.0739745,27.4670278 40.6148682,27.4670282 39.075213,26.9570554 L25.8373777,40.1948907 C26.4086494,41.8625493 26.4086493,42.1554885 26.4086493,42.8756772 C26.4086493,46.3022311 23.6308786,49.0800018 20.2043247,49.0800018 C16.7777708,49.0800018 14,46.3022311 14,42.8756772 C14,39.4491233 16.7777708,36.6713525 20.2043247,36.6713525 C20.9245134,36.6713525 21.5824585,36.7385869 22.8851111,37.2426241 L35.8039122,24.323823 Z"/>
</svg>
