<svg xmlns="http://www.w3.org/2000/svg" width="64" height="64" viewBox="0 0 64 64">
  <path fill="#D7272D" d="M50.9999998,25.6999969 L51,48.9936038 C51,50.1017058 50.1054862,51 49.0059397,51 L34.9999998,51 L35,41.0000004 L30,41 L29.9999998,51 L15.9940603,51 C14.8927712,51 14,50.0995595 14,48.9936038 L14,25.6999969 L16,25.6999969 L16,49 L28,49 L28,39 L36.9969462,39 L36.9969462,48.9999995 L49,48.9999995 L49,25.6999969 L50.9999998,25.6999969 Z M40,39 L46,39 L46,45 L40,45 L40,39 Z M42,41 L42,43 L44,43 L44,41 L42,41 Z M40,30 L46,30 L46,36 L40,36 L40,30 Z M42,32 L42,34 L44,34 L44,32 L42,32 Z M19,39 L25,39 L25,45 L19,45 L19,39 Z M21,41 L21,43 L23,43 L23,41 L21,41 Z M19,30 L25,30 L25,36 L19,36 L19,30 Z M21,32 L21,34 L23,34 L23,32 L21,32 Z M29.5,30 L35.5,30 L35.5,36 L29.5,36 L29.5,30 Z M31.5,32 L31.5,34 L33.5,34 L33.5,32 L31.5,32 Z M36.5,23 C36.5,25.209139 34.709139,27 32.5,27 C30.290861,27 28.5,25.209139 28.5,23 C28.5,20.790861 30.290861,19 32.5,19 C34.709139,19 36.5,20.790861 36.5,23 Z M32.5,25 C33.6045695,25 34.5,24.1045695 34.5,23 C34.5,21.8954305 33.6045695,21 32.5,21 C31.3954305,21 30.5,21.8954305 30.5,23 C30.5,24.1045695 31.3954305,25 32.5,25 Z M32.9472366,13.1203473 C32.7002346,12.9986537 32.2971043,12.9999648 32.0527634,13.1203473 L12,23 L13,24.9052606 L32.5,15.3000031 L52,25 L53,23 L32.9472366,13.1203473 Z"/>
</svg>
