<svg xmlns="http://www.w3.org/2000/svg" width="64" height="64" viewBox="0 0 64 64">
  <path fill="#D7272D" fill-rule="evenodd" d="M37,19.9973917 L37,27 L44.0026083,27 C45.1041422,27 46,27.8952581 46,28.999615 L46,35.000385 C46,36.1125667 45.1057373,37 44.0026083,37 L37,37 L37,44.0026083 C37,45.1041422 36.1047419,46 35.000385,46 L28.999615,46 C27.8874333,46 27,45.1057373 27,44.0026083 L27,37 L19.9973917,37 C18.8958578,37 18,36.1047419 18,35.000385 L18,28.999615 C18,27.8874333 18.8942627,27 19.9973917,27 L27,27 L27,19.9973917 C27,18.8958578 27.8952581,18 28.999615,18 L35.000385,18 C36.1125667,18 37,18.8942627 37,19.9973917 Z M29,29 L20,29 L20,35 L29,35 L29,44 L35,44 L35,35 L44,35 L44,29 L35,29 L35,20 L29,20 L29,29 Z M32,56 C18.745166,56 8,45.254834 8,32 C8,18.745166 18.745166,8 32,8 C45.254834,8 56,18.745166 56,32 C56,45.254834 45.254834,56 32,56 Z M32,54 C44.1502645,54 54,44.1502645 54,32 C54,19.8497355 44.1502645,10 32,10 C19.8497355,10 10,19.8497355 10,32 C10,44.1502645 19.8497355,54 32,54 Z"/>
</svg>
