<svg xmlns="http://www.w3.org/2000/svg" width="64" height="64" viewBox="0 0 64 64">
  <path fill="#D7272D" fill-rule="evenodd" d="M12,34 L14,34 L14,53 L26,53 L26,39 L38,39 L38,53 L50,53 L50,34 L52,34 L52,53.0054385 C52,54.1070044 51.1054862,55 50.0059397,55 L36,55 L36,41 L28,41 L28,55 L13.9940603,55 C12.8927712,55 12,54.0976562 12,53.0054385 L12,34 Z M28,24 L36,24 L36,34 L28,34 L28,24 Z M30,26 L30,32 L34,32 L34,26 L30,26 Z M11,33 L8,33 L30.5882915,10.4117085 C31.3679566,9.63204343 32.6307648,9.63076481 33.4143185,10.4143185 L38,15 L38,14.0010434 C38,12.8958977 38.8867064,12 39.9981014,12 L44.0018986,12 C45.1054196,12 46,12.9001762 46,13.992017 L46,23 L56,33 L53,33 L44,24 L44,14 L40,14 L40,20 L32,12 L11,33 Z"/>
</svg>
