<svg xmlns="http://www.w3.org/2000/svg" width="64" height="64" viewBox="0 0 64 64">
  <path fill="#D7272D" fill-rule="evenodd" d="M15.2710117,17.5887603 C15.0772374,25.212492 17.3916379,32.9289492 22.3312136,39.4008109 C19.6018316,41.3866583 16.5880713,42.9085649 13.4185345,43.9320719 C13.5372852,44.1166167 12.7007609,42.7827445 12.2475651,41.8783082 C10.7582122,38.906028 9.92,35.5509014 9.92,32 C9.92,27.0814915 11.528213,22.5386013 14.2474842,18.8684841 C14.6955633,18.2637255 15.4052209,17.4331069 15.2710117,17.5887603 L15.2710117,17.5887603 Z M17.3733511,15.4591765 C16.6466503,23.335548 18.7701908,31.4723648 23.8909782,38.1893458 C26.5887083,35.9548162 28.9568676,33.2332377 30.8540738,30.0624934 C27.41938,23.8954936 26.1334469,17.0976357 26.7614895,10.5451494 C26.9070999,10.5097202 26.1500524,10.6964814 25.6365145,10.8507816 C23.0882733,11.6164393 20.7339005,12.8300595 18.6648844,14.4001541 C17.9551102,14.9387737 17.1238017,15.6800128 17.3733511,15.4591765 L17.3733511,15.4591765 Z M51.7979093,22.2129723 C45.1600591,17.9476586 37.0536643,15.9310334 28.697309,17.0163584 C28.4590138,14.7236125 28.4743963,12.4245343 28.7324768,10.160101 C28.571544,10.1839734 29.5386591,10.0458165 30.1950872,9.99270909 C30.790366,9.9445489 31.3923162,9.92 32,9.92 C39.9882884,9.92 46.9857737,14.1621321 50.8625888,20.5165289 C51.2691794,21.1829621 51.8586942,22.3356971 51.7979093,22.2129723 L51.7979093,22.2129723 Z M53.1300412,25.5730383 C46.4855605,20.4074355 37.875465,17.8193339 28.9629817,18.9733377 C29.5460074,22.4463974 30.7218872,25.8778897 32.5291341,29.124082 C40.5147865,29.2473695 47.8244962,32.1565403 53.5292491,36.9225803 C53.4933809,37.0801082 53.7218652,36.0435905 53.8271733,35.3521797 C53.9936631,34.2590742 54.08,33.1396196 54.08,32 C54.08,30.1730973 53.8581254,28.3980161 53.4398526,26.7002329 C53.2449555,25.9091391 53.0077091,25.1703237 53.1300412,25.5730383 L53.1300412,25.5730383 Z M22.0632123,51.723023 C31.2441442,49.0668817 39.141216,42.4195538 43.0758749,33.0300691 C39.7772486,31.7989877 36.2183388,31.1018934 32.5042921,31.0439325 C28.2739098,38.1167283 21.8343684,43.0829597 14.5800977,45.5689905 C14.4975694,45.4631916 14.8856515,45.9590742 15.176373,46.3007495 C16.8173431,48.229327 18.7840526,49.8721798 20.9914286,51.1442351 C21.7173181,51.562547 22.4504551,51.9185067 22.0632123,51.723023 L22.0632123,51.723023 Z M24.8399324,52.8931873 C33.6212182,49.6958175 41.0545903,42.9765792 44.9035912,33.7783496 C47.855008,35.0962276 50.5678327,36.8523166 52.9593598,38.9639112 C53.0357643,38.7338405 52.8357304,39.3473183 52.6352028,39.8726198 C49.4641098,48.1796078 41.4211101,54.08 32,54.08 C29.6605373,54.08 27.4060538,53.7161612 25.2900475,53.041982 C25.0225308,52.9567487 24.7242671,52.8535584 24.8399324,52.8931873 L24.8399324,52.8931873 Z M56,32 C56,18.745166 45.254834,8 32,8 C18.745166,8 8,18.745166 8,32 C8,45.254834 18.745166,56 32,56 C45.254834,56 56,45.254834 56,32 L56,32 Z"/>
</svg>
