<svg xmlns="http://www.w3.org/2000/svg" width="64" height="64" viewBox="0 0 64 64">
  <path fill="#D7272D" fill-rule="evenodd" d="M20.001,49.9994 L14.001,51.9994 L12.001,49.9994 L14.001,44.0004 L48.001,9.9994 L50.3,12.2994 L18,44.5994 C18,44.5994 17.322,45.3514 18,45.9994 C18.68,46.6474 19.401,45.9994 19.401,45.9994 L51.701,13.6994 L54,15.9994 L20.001,49.9994 Z M49.417,8.4154 L55.584,14.5834 C56.366,15.3654 56.36,16.6404 55.59,17.4114 L21.001,51.9994 L8,55.9994 L12.001,42.9994 L46.59,8.4114 C46.978,8.0224 47.489,7.8284 48.003,7.8284 C48.514,7.8284 49.025,8.0244 49.417,8.4154 Z M43.0001,35.0012 L44.5001,33.5012 L56.0001,45.0012 L45.0011,56.0012 L33.5001,44.5002 L35.0011,42.9992 L36.9438019,44.9424896 L38.7171783,43.1674347 L40.1345978,44.5805054 L38.3511505,46.3527374 L39.774704,47.7724304 L40.839798,46.7015991 L42.2521362,48.1138611 L41.1875916,49.1812592 L42.6017799,50.6014001 L44.3753815,48.823822 L45.7872925,50.2364807 L44.0111768,52.0110788 L45.0011,53.0012 L53.0011,45.0012 L43.0001,35.0012 Z M8,19.001 L19.002,8 L30.5,19.5 L29.001,21.001 L19.002,11.001 L11.001,19.001 L12.1958008,20.1916809 L13.9660187,18.4177551 L15.3819275,19.8309937 L13.6000004,21.6100006 L15.0232849,23.02005 L16.0887146,21.9501343 L17.5063171,23.3666687 L16.4356232,24.435318 L17.8492126,25.8457184 L19.6311798,24.0685272 L21.0376129,25.4861603 L19.2722168,27.2620697 L21.001,29.001 L19.5,30.5 L8,19.001 Z"/>
</svg>
