<svg xmlns="http://www.w3.org/2000/svg" width="64" height="64" viewBox="0 0 64 64" xmlns:xlink="http://www.w3.org/1999/xlink">
  <defs>
    <path id="a" d="M30.5581291,36.6281896 L27.2402816,43.8618305 C28.1188043,44.5183159 28.68736,45.566575 28.68736,46.7475159 C28.68736,48.7355159 27.07616,50.3475159 25.08736,50.3475159 C23.09936,50.3475159 21.48736,48.7355159 21.48736,46.7475159 C21.48736,44.7595159 23.09936,43.1475159 25.08736,43.1475159 C25.3233353,43.1475159 25.5539946,43.1702102 25.7772773,43.213534 L29.1204424,35.9246951 C28.1894628,35.2895009 27.4599387,34.3808253 27.0475109,33.3144536 L19.7337215,35.37021 C19.7358733,35.4213106 19.73696,35.4726865 19.73696,35.5243159 C19.73696,37.5123159 18.12576,39.1243159 16.13696,39.1243159 C14.14896,39.1243159 12.53696,37.5123159 12.53696,35.5243159 C12.53696,33.5363159 14.14896,31.9243159 16.13696,31.9243159 C17.5116808,31.9243159 18.7059841,32.6945306 19.3124477,33.8267454 L26.6908133,31.7528379 C26.6786169,31.6020037 26.6724,31.4494839 26.6724,31.2955159 C26.6724,30.2592468 26.9538689,29.2887196 27.4445255,28.4562155 L21.6934736,24.2412066 C21.0613573,24.7912525 20.2353676,25.1243159 19.33136,25.1243159 C17.34336,25.1243159 15.73136,23.5123159 15.73136,21.5243159 C15.73136,19.5363159 17.34336,17.9243159 19.33136,17.9243159 C21.32016,17.9243159 22.93136,19.5363159 22.93136,21.5243159 C22.93136,22.0306453 22.826844,22.5125841 22.6381929,22.9497118 L28.4464706,27.2061991 C29.2628405,26.4420951 30.3081658,25.9196133 31.4684,25.7528003 L31.4684,19.2054286 C29.8668809,18.8401926 28.6724,17.4072301 28.6724,15.6955159 C28.6724,13.7075159 30.2836,12.0955159 32.2724,12.0955159 C34.2604,12.0955159 35.8724,13.7075159 35.8724,15.6955159 C35.8724,17.4099917 34.6734668,18.8448155 33.0684,19.2071879 L33.0684,25.7516809 C34.2342607,25.9176519 35.2846287,26.4428191 36.1037373,27.2115601 L41.8932328,22.9368187 C41.708073,22.5031147 41.6056,22.0256722 41.6056,21.5243159 C41.6056,19.5363159 43.2168,17.9243159 45.2056,17.9243159 C47.1936,17.9243159 48.8056,19.5363159 48.8056,21.5243159 C48.8056,23.5123159 47.1936,25.1243159 45.2056,25.1243159 C44.2965606,25.1243159 43.46641,24.7875344 42.8329492,24.2320017 L37.1038619,28.4626149 C37.5922817,29.2936914 37.8724,30.2619009 37.8724,31.2955159 C37.8724,31.4514136 37.8660243,31.6058266 37.8535195,31.7585085 L45.2307121,33.8152215 C45.8390908,32.6893075 47.0299484,31.9243159 48.4,31.9243159 C50.388,31.9243159 52,33.5363159 52,35.5243159 C52,37.5123159 50.388,39.1243159 48.4,39.1243159 C46.4112,39.1243159 44.8,37.5123159 44.8,35.5243159 C44.8,35.4682658 44.8012808,35.4125147 44.8038146,35.3570901 L37.495234,33.3195057 C37.0829539,34.382173 36.355626,35.2879097 35.4279941,35.921972 L38.7745674,43.2106786 C38.9932115,43.1692135 39.2188645,43.1475159 39.4496,43.1475159 C41.4376,43.1475159 43.0496,44.7595159 43.0496,46.7475159 C43.0496,48.7355159 41.4376,50.3475159 39.4496,50.3475159 C37.4608,50.3475159 35.8496,48.7355159 35.8496,46.7475159 C35.8496,45.5611778 36.4233645,44.508737 37.308743,43.8528542 L33.9909042,36.6267302 C33.4493674,36.8012471 32.8718592,36.8955159 32.2724,36.8955159 C31.6744593,36.8955159 31.098407,36.8017726 30.5581291,36.6281896 Z M34.2724,15.6955159 C34.2724,14.5907159 33.3772,13.6955159 32.2724,13.6955159 C31.1676,13.6955159 30.2724,14.5907159 30.2724,15.6955159 C30.2724,16.8003159 31.1676,17.6955159 32.2724,17.6955159 C33.3772,17.6955159 34.2724,16.8003159 34.2724,15.6955159 Z M47.2056,21.5243159 C47.2056,20.4195159 46.3104,19.5243159 45.2056,19.5243159 C44.1008,19.5243159 43.2056,20.4195159 43.2056,21.5243159 C43.2056,22.6291159 44.1008,23.5243159 45.2056,23.5243159 C46.3104,23.5243159 47.2056,22.6291159 47.2056,21.5243159 Z M50.4,35.5243159 C50.4,34.4195159 49.5048,33.5243159 48.4,33.5243159 C47.2952,33.5243159 46.4,34.4195159 46.4,35.5243159 C46.4,36.6291159 47.2952,37.5243159 48.4,37.5243159 C49.5048,37.5243159 50.4,36.6291159 50.4,35.5243159 Z M41.4496,46.7475159 C41.4496,45.6427159 40.5544,44.7475159 39.4496,44.7475159 C38.3448,44.7475159 37.4496,45.6427159 37.4496,46.7475159 C37.4496,47.8523159 38.3448,48.7475159 39.4496,48.7475159 C40.5544,48.7475159 41.4496,47.8523159 41.4496,46.7475159 Z M17.33136,21.5243159 C17.33136,22.6291159 18.22656,23.5243159 19.33136,23.5243159 C20.43616,23.5243159 21.33136,22.6291159 21.33136,21.5243159 C21.33136,20.4195159 20.43616,19.5243159 19.33136,19.5243159 C18.22656,19.5243159 17.33136,20.4195159 17.33136,21.5243159 Z M14.13696,35.5243159 C14.13696,36.6291159 15.03216,37.5243159 16.13696,37.5243159 C17.24176,37.5243159 18.13696,36.6291159 18.13696,35.5243159 C18.13696,34.4195159 17.24176,33.5243159 16.13696,33.5243159 C15.03216,33.5243159 14.13696,34.4195159 14.13696,35.5243159 Z M23.08736,46.7475159 C23.08736,47.8523159 23.98256,48.7475159 25.08736,48.7475159 C26.19216,48.7475159 27.08736,47.8523159 27.08736,46.7475159 C27.08736,45.6427159 26.19216,44.7475159 25.08736,44.7475159 C23.98256,44.7475159 23.08736,45.6427159 23.08736,46.7475159 Z M28.2724,31.2955159 C28.2724,33.5043159 30.0628,35.2955159 32.2724,35.2955159 C34.4812,35.2955159 36.2724,33.5043159 36.2724,31.2955159 C36.2724,29.0867159 34.4812,27.2955159 32.2724,27.2955159 C30.0628,27.2955159 28.2724,29.0867159 28.2724,31.2955159 Z"/>
  </defs>
  <g fill="none" fill-rule="evenodd">
    <use fill="#D7272D" xlink:href="#a"/>
  </g>
</svg>
