<svg xmlns="http://www.w3.org/2000/svg" width="64" height="64" viewBox="0 0 64 64">
  <path fill="#D7272D" d="M27.8314912,20.4076861 C29.9222384,21.4616866 31.4524118,23.438247 31.9041667,25.8195228 C32.3559215,23.438247 33.8860949,21.4616866 35.9768422,20.4076861 C34.5833538,19.3499443 33.6833333,17.6757536 33.6833333,15.7916667 C33.6833333,12.5934236 36.2767569,10 39.475,10 C42.6732431,10 45.2666667,12.5934236 45.2666667,15.7916667 C45.2666667,17.683793 44.358949,19.364228 42.9552929,20.4211925 C43.6956109,20.8036565 44.3735252,21.3101267 44.9674465,21.9261771 C45.7036754,21.6506504 46.5008957,21.5 47.3333333,21.5 C51.0615347,21.5 54.0833333,24.5217986 54.0833333,28.25 C54.0833333,30.5883928 52.8945528,32.6488855 51.0883117,33.8601581 C53.9888636,35.2649748 56,38.2410512 56,41.6666667 L56,45.9791667 C56,46.293924 55.8518058,46.5903123 55.6,46.7791667 C55.2652355,47.03024 54.6201773,47.3527691 53.6102646,47.655743 C52.0161431,48.1339794 49.943103,48.4166667 47.3333333,48.4166667 C44.7235636,48.4166667 42.6505235,48.1339794 41.0564021,47.655743 C40.9198665,47.6147823 40.7899996,47.5734642 40.6666667,47.5320135 L40.6666667,51.7291667 C40.6666667,52.043924 40.5184725,52.3403123 40.2666667,52.5291667 C39.9319022,52.78024 39.286844,53.1027691 38.2769312,53.405743 C36.6828098,53.8839794 34.6097697,54.1666667 32,54.1666667 C29.3902303,54.1666667 27.3171902,53.8839794 25.7230688,53.405743 C24.713156,53.1027691 24.0680978,52.78024 23.7333333,52.5291667 C23.4815275,52.3403123 23.3333333,52.043924 23.3333333,51.7291667 L23.3333333,47.5320135 C23.2100004,47.5734642 23.0801335,47.6147823 22.9435979,47.655743 C21.3494765,48.1339794 19.2764364,48.4166667 16.6666667,48.4166667 C14.056897,48.4166667 11.9838569,48.1339794 10.3897354,47.655743 C9.37982269,47.3527691 8.73476445,47.03024 8.4,46.7791667 C8.14819416,46.5903123 8,46.293924 8,45.9791667 L8,41.6666667 C8,38.2410512 10.0111364,35.2649748 12.9116883,33.8601581 C11.1054472,32.6488855 9.91666667,30.5883928 9.91666667,28.25 C9.91666667,24.5217986 12.9384653,21.5 16.6666667,21.5 C17.4459369,21.5 18.1943446,21.632021 18.8907458,21.8749187 C19.472648,21.281989 20.1333576,20.7929959 20.8530404,20.4211925 C19.4493843,19.364228 18.5416667,17.683793 18.5416667,15.7916667 C18.5416667,12.5934236 21.1350903,10 24.3333333,10 C27.5315764,10 30.125,12.5934236 30.125,15.7916667 C30.125,17.6757536 29.2249795,19.3499443 27.8314912,20.4076861 Z M20.7516883,22.8758148 C22.3713014,24.1087577 23.4166667,26.0571919 23.4166667,28.25 C23.4166667,30.5883928 22.2278861,32.6488855 20.4216451,33.8601581 C23.322197,35.2649748 25.3333333,38.2410512 25.3333333,41.6666667 L25.3333333,41.89267 C26.1258732,40.9385871 27.1183496,40.1558362 28.2450216,39.6101581 C26.4387806,38.3988855 25.25,36.3383928 25.25,34 C25.25,30.9528545 27.2686134,28.3775983 30.0416667,27.5384049 L30.0416667,27.2916667 C30.0416667,24.1064514 27.5185486,21.5833333 24.3333333,21.5833333 C22.9879975,21.5833333 21.7517061,22.0423156 20.7516883,22.8758148 Z M43.1480611,22.9536245 C42.1324212,22.0709253 40.8616314,21.5833333 39.475,21.5833333 C36.2897847,21.5833333 33.7666667,24.1064514 33.7666667,27.2916667 L33.7666667,27.4835024 C36.6378823,28.2599075 38.75,30.8830799 38.75,34 C38.75,36.3383928 37.5612194,38.3988855 35.7549784,39.6101581 C36.8816504,40.1558362 37.8741268,40.9385871 38.6666667,41.89267 L38.6666667,41.6666667 C38.6666667,38.2410512 40.677803,35.2649748 43.5783549,33.8601581 C41.7721139,32.6488855 40.5833333,30.5883928 40.5833333,28.25 C40.5833333,26.1027731 41.5856909,24.1898663 43.1480611,22.9536245 Z M54,45.4019717 L54,41.6666667 C54,38.0022847 50.9977153,35 47.3333333,35 C43.6689514,35 40.6666667,38.0022847 40.6666667,41.6666667 L40.6666667,45.4019717 C42.2844025,46.1059995 44.911853,46.4166667 47.3333333,46.4166667 C49.7548136,46.4166667 51.8883895,46.2009886 54,45.4019717 Z M38.6666667,51.1408234 L38.6666667,47.4166667 C38.6666667,43.7522847 35.6643819,40.75 32,40.75 C28.3356181,40.75 25.3333333,43.7522847 25.3333333,47.4166667 L25.3333333,51.1408234 C27.1540346,51.891787 29.5785197,52.1666667 32,52.1666667 C34.4214803,52.1666667 36.9125782,51.887768 38.6666667,51.1408234 Z M23.3333333,45.398407 L23.3333333,41.6666667 C23.3333333,38.0022847 20.3310486,35 16.6666667,35 C13.0022847,35 10,38.0022847 10,41.6666667 L10,45.398407 C11.5987124,46.100725 14.2451864,46.4166667 16.6666667,46.4166667 C19.088147,46.4166667 21.5168086,46.1618336 23.3333333,45.398407 Z M36.75,34 C36.75,31.3763681 34.6236319,29.25 32,29.25 C29.3763681,29.25 27.25,31.3763681 27.25,34 C27.25,36.6236319 29.3763681,38.75 32,38.75 C34.6236319,38.75 36.75,36.6236319 36.75,34 Z M52.0833333,28.25 C52.0833333,25.6263681 49.9569653,23.5 47.3333333,23.5 C44.7097014,23.5 42.5833333,25.6263681 42.5833333,28.25 C42.5833333,30.8736319 44.7097014,33 47.3333333,33 C49.9569653,33 52.0833333,30.8736319 52.0833333,28.25 Z M21.4166667,28.25 C21.4166667,25.6263681 19.2902986,23.5 16.6666667,23.5 C14.0430347,23.5 11.9166667,25.6263681 11.9166667,28.25 C11.9166667,30.8736319 14.0430347,33 16.6666667,33 C19.2902986,33 21.4166667,30.8736319 21.4166667,28.25 Z M43.2666667,15.7916667 C43.2666667,13.6979931 41.5686736,12 39.475,12 C37.3813264,12 35.6833333,13.6979931 35.6833333,15.7916667 C35.6833333,17.8853403 37.3813264,19.5833333 39.475,19.5833333 C41.5686736,19.5833333 43.2666667,17.8853403 43.2666667,15.7916667 Z M28.125,15.7916667 C28.125,13.6979931 26.4270069,12 24.3333333,12 C22.2396597,12 20.5416667,13.6979931 20.5416667,15.7916667 C20.5416667,17.8853403 22.2396597,19.5833333 24.3333333,19.5833333 C26.4270069,19.5833333 28.125,17.8853403 28.125,15.7916667 Z"/>
</svg>
