<svg xmlns="http://www.w3.org/2000/svg" width="64" height="64" viewBox="0 0 64 64">
  <path fill="#D7272D" d="M42.5833333,53.1666667 L46.8647083,53.1666667 C48.0860374,53.1666667 49.1045379,52.2324812 49.2100997,51.0161701 C49.3285101,49.6403223 48.2441165,48.4583333 46.86375,48.4583333 L46.1066667,48.4583333 C45.5543819,48.4583333 45.1066667,48.0106181 45.1066667,47.4583333 C45.1066667,46.9060486 45.5543819,46.4583333 46.1066667,46.4583333 L46.86375,46.4583333 L47.8086667,46.4583333 C49.0172251,46.4583333 50.0295697,45.5430211 50.1506325,44.3411364 C50.2905629,42.9539423 49.2022776,41.75 47.8086667,41.75 L47.3333333,41.75 C46.7810486,41.75 46.3333333,41.3022847 46.3333333,40.75 C46.3333333,40.1977153 46.7810486,39.75 47.3333333,39.75 L48.764125,39.75 C49.9681271,39.75 50.9782496,38.8412548 51.104691,37.6440974 C51.2520218,36.2535362 50.1621727,35.0416667 48.764125,35.0416667 L48.2916667,35.0416667 C47.7393819,35.0416667 47.2916667,34.5939514 47.2916667,34.0416667 C47.2916667,33.4893819 47.7393819,33.0416667 48.2916667,33.0416667 L49.7282083,33.0416667 C50.9341867,33.0416667 51.9444282,32.1311721 52.0695379,30.9318681 C52.2141939,29.5418254 51.12527,28.3333333 49.7282083,28.3333333 L41.2958333,28.3333333 L33.2336776,28.3333341 L30.251758,35.8670831 C29.2596736,38.3454815 26.4465656,39.5509924 23.9684169,38.559008 C21.4900185,37.5669236 20.2845076,34.7538156 21.2764581,32.2757516 L24.0046979,25.4583333 L23.5772083,25.4583333 C21.9891633,25.4583333 20.5055914,26.2524094 19.6252384,27.5737305 L15.4638673,33.8558877 L10.1284877,37.3865789 L13.6418806,53.1666673 L17.5833333,53.1666668 L17.5833333,52.25 C17.5833333,50.1097569 19.3180903,48.375 21.4583333,48.375 C22.5988744,48.375 23.6242635,48.8676452 24.3333333,49.6517686 C25.0424032,48.8676452 26.0677922,48.375 27.2083333,48.375 C28.3488744,48.375 29.3742635,48.8676452 30.0833333,49.6517686 C30.7924032,48.8676452 31.8177922,48.375 32.9583333,48.375 C34.0988744,48.375 35.1242635,48.8676452 35.8333333,49.6517686 C36.5424032,48.8676452 37.5677922,48.375 38.7083333,48.375 C40.8485764,48.375 42.5833333,50.1097569 42.5833333,52.25 L42.5833333,53.1666667 Z M42.4530925,55.1666667 C42.0122002,56.8221762 40.5027901,58.0416667 38.7083333,58.0416667 C37.5677922,58.0416667 36.5424032,57.5490214 35.8333333,56.764898 C35.1242635,57.5490214 34.0988744,58.0416667 32.9583333,58.0416667 C31.8177922,58.0416667 30.7924032,57.5490214 30.0833333,56.764898 C29.3742635,57.5490214 28.3488744,58.0416667 27.2083333,58.0416667 C26.0677922,58.0416667 25.0424032,57.5490214 24.3333333,56.764898 C23.6242635,57.5490214 22.5988744,58.0416667 21.4583333,58.0416667 C19.6638766,58.0416667 18.1544665,56.8221762 17.7135742,55.1666667 L12.8333333,55.1666667 C12.3646347,55.1666667 11.9588213,54.8411347 11.8571463,54.3835971 L8.02381294,37.1335971 C7.93422443,36.7304489 8.10167751,36.3136979 8.4452998,36.0846164 L14.0525947,32.3719304 L17.9610046,26.46453 C19.2121077,24.5867502 21.3203283,23.4583333 23.5772083,23.4583333 L24.8050712,23.4583333 L25.3857102,22.0074129 C26.6637918,18.8116742 29.482003,16.5940291 32.9606868,16.0545772 C33.6997764,16.054577 34.5913765,15.5446962 35.0419836,14.9814374 L37.9275253,11.375229 C38.2165397,11.0140329 38.7155679,10.8982107 39.1341304,11.0951813 L55.425797,18.761848 C55.9680129,19.0170083 56.165602,19.6884996 55.8479983,20.1966656 L51.7141661,26.8107971 C53.2554968,27.6021492 54.2518867,29.2834092 54.0587695,31.1391305 C53.911351,32.5522871 53.0993296,33.7487789 51.9526605,34.4311144 C52.7762674,35.3173337 53.2325476,36.5429951 53.0935937,37.8544921 C52.9449253,39.2620965 52.1358864,40.4541167 50.9941218,41.1359321 C51.8150303,42.0172992 52.2722919,43.235688 52.1405486,44.5417203 C51.9981891,45.9550341 51.189867,47.153994 50.0456724,47.8401331 C50.8554798,48.7070585 51.313394,49.901864 51.2026717,51.1883799 C51.0073486,53.4389501 49.1236968,55.1666667 46.8647083,55.1666667 L42.4530925,55.1666667 Z M49.6861041,26.3333333 L53.5450614,20.1012833 L39.011719,13.2647879 L36.6036605,16.2309034 C35.8352385,17.1914308 34.5919364,17.8772323 33.2425029,18.0346224 C30.7477677,18.3353794 28.255117,20.2186372 27.2426253,22.7502901 L23.133258,33.0189165 C22.5518322,34.4714186 23.2585488,36.1205698 24.7116665,36.702242 C26.1641686,37.2836678 27.8133198,36.5769512 28.3949058,35.1240489 L31.6599475,26.9619239 C31.8118158,26.5822754 32.1795195,26.3333333 32.5884167,26.3333333 L49.6861041,26.3333333 Z M21.4583333,50.375 C20.4226597,50.375 19.5833333,51.2143264 19.5833333,52.25 L19.5833333,54.1666667 C19.5833333,55.2023403 20.4226597,56.0416667 21.4583333,56.0416667 C22.4940069,56.0416667 23.3333333,55.2023403 23.3333333,54.1666667 L23.3333333,52.25 C23.3333333,51.2143264 22.4940069,50.375 21.4583333,50.375 Z M27.2083333,50.375 C26.1726597,50.375 25.3333333,51.2143264 25.3333333,52.25 L25.3333333,54.1666667 C25.3333333,55.2023403 26.1726597,56.0416667 27.2083333,56.0416667 C28.2440069,56.0416667 29.0833333,55.2023403 29.0833333,54.1666667 L29.0833333,52.25 C29.0833333,51.2143264 28.2440069,50.375 27.2083333,50.375 Z M32.9583333,50.375 C31.9226597,50.375 31.0833333,51.2143264 31.0833333,52.25 L31.0833333,54.1666667 C31.0833333,55.2023403 31.9226597,56.0416667 32.9583333,56.0416667 C33.9940069,56.0416667 34.8333333,55.2023403 34.8333333,54.1666667 L34.8333333,52.25 C34.8333333,51.2143264 33.9940069,50.375 32.9583333,50.375 Z M38.7083333,50.375 C37.6726597,50.375 36.8333333,51.2143264 36.8333333,52.25 L36.8333333,54.1666667 C36.8333333,55.2023403 37.6726597,56.0416667 38.7083333,56.0416667 C39.7440069,56.0416667 40.5833333,55.2023403 40.5833333,54.1666667 L40.5833333,52.25 C40.5833333,51.2143264 39.7440069,50.375 38.7083333,50.375 Z"/>
</svg>
