<svg xmlns="http://www.w3.org/2000/svg" width="64" height="64" viewBox="0 0 64 64">
  <path fill="#D82A2C" fill-rule="evenodd" d="M42,16 L42.003,13 C42.0046569,11.3431458 40.662285,10 39.0108997,10 L24.9951003,10 C23.3409521,10 22,11.3465171 22,13 L22,16 L24,16 L24,14 C24,12.8954305 24.8945138,12 25.9940603,12 L38.0059397,12 C39.1072288,12 40,12.8877296 40,14 L40,16 L42,16 Z M8,20.9992106 C8,19.3427923 9.33389258,18 11.002615,18 L52.997385,18 C54.6556835,18 56,19.3505957 56,20.9992106 L56,50.0007894 C56,51.6572077 54.6661074,53 52.997385,53 L11.002615,53 C9.34431651,53 8,51.6494043 8,50.0007894 L8,20.9992106 Z M10,33 L25,33 L25,31 L10,31 L10,20.9955775 C10,20.4457352 10.4498156,20 11.0016723,20 L52.9983277,20 C53.551536,20 54,20.444837 54,20.9955775 L54,31 L39,31 L39,33 L54,33 L54,50.0066023 C54,50.5552407 53.5501844,51 52.9983277,51 L11.0016723,51 C10.448464,51 10,50.5550537 10,50.0066023 L10,33 Z M27,28.9970301 C27,28.4463856 27.4556644,28 27.9953976,28 L36.0046024,28 C36.5543453,28 37,28.4530363 37,28.9970301 L37,35.0029699 C37,35.5536144 36.5443356,36 36.0046024,36 L27.9953976,36 C27.4456547,36 27,35.5469637 27,35.0029699 L27,28.9970301 Z M29,30 L35,30 L35,34 L29,34 L29,30 Z"/>
</svg>
