<svg xmlns="http://www.w3.org/2000/svg" width="64" height="64" viewBox="0 0 64 64">
  <path fill="#D7272D" d="M32,50 L32,50 C41.9411255,50 50,41.9411255 50,32 C50,22.0588745 41.9411255,14 32,14 C22.0588745,14 14,22.0588745 14,32 C14,41.9411255 22.0588745,50 32,50 L32,50 Z M32,52 C20.954305,52 12,43.045695 12,32 C12,20.954305 20.954305,12 32,12 C43.045695,12 52,20.954305 52,32 C52,43.045695 43.045695,52 32,52 Z M39.3156738,37.4141235 L33,33 L33,23 L32,22 L31,23 L31,34 L38.156189,39.0439453 L39.543396,38.776062 L39.3156738,37.4141235 Z M32,18 C32.5522847,18 33,17.5522847 33,17 C33,16.4477153 32.5522847,16 32,16 C31.4477153,16 31,16.4477153 31,17 C31,17.5522847 31.4477153,18 32,18 Z M47,33 C47.5522847,33 48,32.5522847 48,32 C48,31.4477153 47.5522847,31 47,31 C46.4477153,31 46,31.4477153 46,32 C46,32.5522847 46.4477153,33 47,33 Z M32,48 C32.5522847,48 33,47.5522847 33,47 C33,46.4477153 32.5522847,46 32,46 C31.4477153,46 31,46.4477153 31,47 C31,47.5522847 31.4477153,48 32,48 Z M17,33 C17.5522847,33 18,32.5522847 18,32 C18,31.4477153 17.5522847,31 17,31 C16.4477153,31 16,31.4477153 16,32 C16,32.5522847 16.4477153,33 17,33 Z M44.3341314,25.0999169 C44.6102277,25.5781297 45.221716,25.7419775 45.6999287,25.4658812 C46.1781415,25.1897849 46.3419893,24.5782966 46.065893,24.1000839 C45.7897968,23.6218711 45.1783085,23.4580233 44.7000957,23.7341196 C44.2218829,24.0102158 44.0580351,24.6217041 44.3341314,25.0999169 Z M38.8341314,45.6999173 C39.1102277,46.1781301 39.721716,46.3419779 40.1999287,46.0658816 C40.6781415,45.7897853 40.8419893,45.178297 40.565893,44.7000842 C40.2897968,44.2218715 39.6783085,44.0580237 39.2000957,44.3341199 C38.7218829,44.6102162 38.5580351,45.2217045 38.8341314,45.6999173 Z M18.2341253,40.1999173 C18.5102216,40.6781301 19.1217099,40.8419779 19.5999226,40.5658816 C20.0781354,40.2897853 20.2419832,39.678297 19.9658869,39.2000842 C19.6897907,38.7218715 19.0783024,38.5580237 18.6000896,38.8341199 C18.1218768,39.1102162 17.958029,39.7217045 18.2341253,40.1999173 Z M23.7341253,19.5999169 C24.0102216,20.0781297 24.6217099,20.2419775 25.0999226,19.9658812 C25.5781354,19.6897849 25.7419832,19.0782966 25.4658869,18.6000839 C25.1897907,18.1218711 24.5783024,17.9580233 24.1000896,18.2341196 C23.6218768,18.5102158 23.458029,19.1217041 23.7341253,19.5999169 Z M39.2000957,19.9658812 C39.6783085,20.2419775 40.2897968,20.0781297 40.565893,19.5999169 C40.8419893,19.1217041 40.6781415,18.5102158 40.1999287,18.2341196 C39.721716,17.9580233 39.1102277,18.1218711 38.8341314,18.6000839 C38.5580351,19.0782966 38.7218829,19.6897849 39.2000957,19.9658812 Z M44.7000957,40.5658816 C45.1783085,40.8419779 45.7897968,40.6781301 46.065893,40.1999173 C46.3419893,39.7217045 46.1781415,39.1102162 45.6999287,38.8341199 C45.221716,38.5580237 44.6102277,38.7218715 44.3341314,39.2000842 C44.0580351,39.678297 44.2218829,40.2897853 44.7000957,40.5658816 Z M24.1000896,46.0658816 C24.5783024,46.3419779 25.1897907,46.1781301 25.4658869,45.6999173 C25.7419832,45.2217045 25.5781354,44.6102162 25.0999226,44.3341199 C24.6217099,44.0580237 24.0102216,44.2218715 23.7341253,44.7000842 C23.458029,45.178297 23.6218768,45.7897853 24.1000896,46.0658816 Z M18.6000896,25.4658812 C19.0783024,25.7419775 19.6897907,25.5781297 19.9658869,25.0999169 C20.2419832,24.6217041 20.0781354,24.0102158 19.5999226,23.7341196 C19.1217099,23.4580233 18.5102216,23.6218711 18.2341253,24.1000839 C17.958029,24.5782966 18.1218768,25.1897849 18.6000896,25.4658812 Z"/>
</svg>
