<svg xmlns="http://www.w3.org/2000/svg" width="64" height="64" viewBox="0 0 64 64">
  <path fill="#D7272D" d="M13.8623756,38.7860456 C9.23676029,35.9515136 7,31.4365666 7,25.9468571 C7,21.953302 8.54934995,17.9432972 11.117834,14.093664 C12.0081218,12.7593043 12.9609035,11.5388691 13.9145703,10.4558221 C14.2493652,10.0756069 14.5610045,9.73909881 14.8418071,9.44933444 C15.0131215,9.27255261 15.1380966,9.14877553 15.2090496,9.08107916 C15.6085524,8.69991306 16.2413828,8.71468307 16.6226678,9.11407243 C16.6816533,9.17585879 16.7858441,9.28845539 16.9288182,9.44838842 C17.1633815,9.71077444 17.4237667,10.0134433 17.7035583,10.3529587 C18.5009991,11.3206199 19.2978807,12.3934128 20.0428676,13.5447226 C21.7417507,16.1701929 22.9211169,18.8077436 23.3418058,21.3571284 C24.2991829,27.1602342 21.3385216,32.5781921 18.3648095,34.8084762 C17.9229817,35.139847 17.2961804,35.050304 16.9648095,34.6084762 C16.6334387,34.1666484 16.7229817,33.539847 17.1648095,33.2084762 C17.3657159,33.0577964 17.7881492,32.6424716 18.2233454,32.1306943 C18.8329364,31.413834 19.4156228,30.58046 19.9164047,29.664038 C21.2560671,27.2124795 21.8372326,24.5240089 21.3684861,21.6827188 C20.9994005,19.446052 19.9261334,17.0457825 18.3637417,14.6312475 C17.6632516,13.5487033 16.9114078,12.536542 16.1601232,11.6248896 C15.8978609,11.3066452 15.6549103,11.0242422 15.4377621,10.7813369 C15.3097093,10.6380951 15.2203093,10.5414826 15.1760465,10.495118 L16.5896647,10.5281113 C16.5371902,10.5781772 16.4307388,10.6836082 16.2780562,10.8411637 C16.0188637,11.1086282 15.7287941,11.4218453 15.4155949,11.7775351 C14.5178499,12.7970736 13.6192197,13.9481451 12.7815232,15.2036812 C10.412909,18.7537504 9,22.4106206 9,25.9468571 C9,29.9811749 10.3336022,33.337781 13.1063202,35.7621218 C11.5893558,29.3970455 11.6519943,25.1935214 14.1798943,19.6312519 C14.4084011,19.1284566 15.0012385,18.9061018 15.5040338,19.1346086 C16.0068291,19.3631154 16.2291839,19.9559528 16.0006771,20.4587481 C13.5509542,25.8490006 13.6306045,29.7935987 15.3293821,36.4188645 C16.6009778,41.378113 16.8405002,42.777134 16.4563134,45.1065402 C16.3664397,45.6514633 15.8518353,46.0203537 15.3069122,45.9304801 C14.7619891,45.8406064 14.3930987,45.326002 14.4829723,44.7810789 C14.7550396,43.1314772 14.6374185,41.96088 13.8623756,38.7860456 Z M18.8289824,46.5502628 C18.8211376,46.5193056 18.8146977,46.4876926 18.8097432,46.4554828 C18.791072,46.3340982 18.7653107,46.1227562 18.7402611,45.8319521 C18.511544,43.1767416 18.7917256,40.1316872 19.9895383,37.2111639 C22.0624085,32.1570632 26.4331381,28.8156117 33.5283711,28.045742 C39.3401477,27.4150233 44.9364862,29.1495262 50.0762638,32.412839 C51.6146175,33.3895602 52.9976458,34.4356144 54.205897,35.4830328 C54.6304465,35.8510696 55.0035453,36.1937675 55.3226847,36.5026721 C55.5176597,36.6913943 55.6534806,36.8292884 55.7276035,36.9079069 C56.0181027,37.2160248 56.0830314,37.6737136 55.8896899,38.0504702 C55.8226232,38.1811601 55.6962235,38.4122758 55.5104624,38.7295621 C55.2055874,39.2502991 54.8413954,39.828421 54.417787,40.4496742 C53.2104546,42.2203171 51.7651421,43.9897749 50.0796853,45.6434223 C45.8717058,49.7719856 40.892534,52.4952867 35.1454515,53.1277036 C31.7546143,53.5004214 28.3674085,53.0029057 25.1808073,51.9480413 C24.3222449,51.6638304 23.5432061,51.358892 22.8566526,51.0529405 C22.4386145,50.8666485 22.1398881,50.7189127 21.9736105,50.6293022 C21.487433,50.367291 21.3057103,49.7607641 21.5677216,49.2745867 C21.8297329,48.7884092 22.4362597,48.6066865 22.9224372,48.8686978 C23.0460221,48.9353003 23.3000642,49.0609374 23.6707437,49.2261248 C24.2987197,49.5059722 25.016246,49.7868327 25.8093275,50.0493675 C28.7435973,51.0207023 31.8535722,51.4774981 34.9268094,51.1396906 C40.181843,50.5614194 44.7678249,48.053169 48.6790075,44.2158013 C50.2646576,42.6600769 51.6280417,40.990922 52.7653653,39.3229522 C53.1623865,38.740691 53.5022026,38.2012638 53.7845105,37.7190721 C53.9510592,37.4346012 54.0597364,37.2358903 54.1103101,37.1373394 L54.2723965,38.2799026 C54.2187425,38.2229946 54.1042717,38.1067764 53.9317023,37.9397413 C53.6382677,37.6557172 53.2920641,37.337723 52.895845,36.9942454 C51.7590428,36.0087653 50.4542982,35.021921 49.0042564,34.1012703 C44.2155918,31.0608838 39.0461045,29.4586771 33.744134,30.0340695 C27.3840612,30.7241706 23.6368086,33.5889698 21.8399536,37.9700864 C20.9119928,40.2326532 20.603557,42.6210143 20.6789972,44.769743 C22.9859023,42.7100388 25.5934026,40.9461237 28.5141639,39.5687617 C29.6758506,39.0208662 30.9196616,38.5688027 32.2339388,38.2053157 C36.142747,37.1242647 40.2399003,36.8941315 43.8567891,37.1422429 C44.1234242,37.1605335 44.3604183,37.180205 44.5653712,37.1999866 C44.6911277,37.2121243 44.7799844,37.2218291 44.8295353,37.2278335 C45.3778093,37.2942718 45.7684143,37.7925946 45.701976,38.3408687 C45.6355377,38.8891427 45.1372149,39.2797477 44.5889409,39.2133093 C44.439228,39.1951676 44.143006,39.1665769 43.7199147,39.1375537 C40.3091161,38.9035797 36.422896,39.121865 32.7670611,40.1329517 C31.5587171,40.4671409 30.4215836,40.8804325 29.3672667,41.3776884 C26.5996993,42.6828077 24.1301672,44.3590489 21.9461402,46.3197119 C20.012063,48.0559879 18.4070151,49.9164898 17.1153055,51.7744984 C16.6650924,52.4220895 16.2868784,53.0216728 15.9786158,53.5572413 C15.7972895,53.8722734 15.6815922,54.0915103 15.6294103,54.1989122 C15.3880577,54.6956691 14.7897018,54.9027152 14.2929449,54.6613627 C13.7961881,54.4200101 13.5891419,53.8216542 13.8304945,53.3248973 C13.9026057,53.1764765 14.0400422,52.9160458 14.2452379,52.5595433 C14.5811787,51.9758874 14.9896515,51.3283349 15.4731562,50.6328567 C16.4301473,49.2563107 17.5464363,47.8809706 18.8289824,46.5502628 Z"/>
</svg>
