<svg xmlns="http://www.w3.org/2000/svg" width="64" height="64" viewBox="0 0 64 64">
  <path fill="#D7272D" d="M44,44 C41.2385763,44 39,41.7614237 39,39 C39,36.2385763 41.2385763,34 44,34 C46.7614237,34 49,36.2385763 49,39 C49,41.7614237 46.7614237,44 44,44 Z M44,42 C45.6568542,42 47,40.6568542 47,39 C47,37.3431458 45.6568542,36 44,36 C42.3431458,36 41,37.3431458 41,39 C41,40.6568542 42.3431458,42 44,42 Z M12,49 L14,49 L14,52 C14,53.1008821 14.9006133,54 16.009763,54 L17.990237,54 C19.1055814,54 20,53.1066153 20,52 L20,49 L22,49 L22,52 C22,54.209139 20.2122004,56 17.990237,56 L16.009763,56 C13.795232,56 12,54.2046438 12,52 L12,49 Z M43,49 L45,49 L45,52 C45,53.1008821 45.9006133,54 47.009763,54 L48.990237,54 C50.1055814,54 51,53.1066153 51,52 L51,49 L53,49 L53,52 C53,54.209139 51.2122004,56 48.990237,56 L47.009763,56 C44.795232,56 43,54.2046438 43,52 L43,49 Z M54.9906543,26 C54.9906547,27.0544825 55,46.009947 55,46.009947 C55,48.2135924 53.2108635,50 50.9982716,50 L13.0017284,50 C10.7916349,50 9,48.2157067 9,46.009947 L9,26 C9,24.1124163 10.8978189,13.8966685 10.8978189,13.8966685 C11.5065367,10.6400284 14.6866239,8 17.9992205,8 L46.0007795,8 C49.3140575,8 52.495389,10.6503309 53.1021811,13.8966685 C53.1021811,13.8966685 54.990654,24.9455175 54.9906543,26 Z M11,28 L11,46.009947 C11,47.1089323 11.8940023,48 13.0017284,48 L50.9982716,48 C52.1065447,48 53,47.1087671 53.0000002,46.010933 C52.9997082,45.4185485 52.9906543,28.0000007 52.9906543,28.0000007 L11,28 Z M46.0007795,10 L17.9992205,10 C15.6491917,10 13.2955268,11.9542426 12.8641753,14.2619662 C12.849741,14.3396609 11,25.4117352 11,26 L52.9906543,26.0000007 C52.9906543,25.7308348 51.1453503,14.318927 51.13077,14.2336228 C50.7056083,11.9603152 48.3471902,10 46.0007795,10 Z M15,39 C15,36.2385763 17.2385763,34 20,34 C22.7614237,34 25,36.2385763 25,39 C25,41.7614237 22.7614237,44 20,44 C17.2385763,44 15,41.7614237 15,39 Z M23,39 C23,37.3431458 21.6568542,36 20,36 C18.3431458,36 17,37.3431458 17,39 C17,40.6568542 18.3431458,42 20,42 C21.6568542,42 23,40.6568542 23,39 Z"/>
</svg>
