<svg xmlns="http://www.w3.org/2000/svg" width="64" height="64" viewBox="0 0 64 64">
  <path fill="#D6282C" fill-rule="evenodd" d="M18.0000002,49 C18.6873173,49 21.5,49 21.5,49 L21.5,51 C21.5,51 21.1593021,51 18.0000002,51 C14.8406982,51 15.0000002,48 15.0000002,48 L17.0000002,48 C17.0000002,48.7178955 17.3126831,49 18.0000002,49 Z M42.5013369,49 L45.9998169,49 C46.6611328,49 47,48.7197266 47,48 L49.0013369,48 C49.0013369,48 49.1355591,51 45.9998169,51 C42.8640747,51 42.5013369,51 42.5013369,51 L42.5013369,49 Z M24.5,49 L30.5,49 L30.5,51 L24.5,51 L24.5,49 Z M33.5,49 L39.5,49 L39.5,51 L33.5,51 L33.5,49 Z M17,39 L17,45 L15,45 L15,39 L17,39 Z M47,45 L47,39 L49,39 L49,45 L47,45 Z M17,33 L17,36 L15,36 L15,33 L17,33 Z M47,36 L47,33 L49,33 L49,36 L47,36 Z M14.5,32 L12.00025,32 L30.5859204,13.4143296 C31.3670331,12.6332169 32.6335035,12.6332535 33.419675,13.419425 L37.00025,17 L37.00025,16.4940877 C37.00025,15.3927835 37.9038097,14.5 38.99226,14.5 L41.7080022,14.5 C42.808159,14.5 43.7000122,15.3891152 43.7000122,16.4970337 L43.7000122,23.6000004 L52.00025,32 L49.5,32 L42.00025,24.5 L42.00025,16 L38.7000122,16 L38.7000122,21.2000008 L32.00025,14.5 L14.5,32 Z"/>
</svg>
