<svg xmlns="http://www.w3.org/2000/svg" width="64" height="64" viewBox="0 0 64 64">
  <path fill="#D7272D" d="M22.1265812,15.778273 L30.2711376,24.6968601 L30.5484287,33.6048607 L27.863626,41.5530498 L20.8531492,41.8669924 C20.6188136,41.8656443 20.446515,42.048584 20.4750977,42.2142334 C20.5036803,42.3798828 20.6888082,42.6019812 20.9547314,42.6039986 L28.4311576,42.6118534 L29.8059084,39.8728027 L32.5012548,33.8015011 L35.6486608,38.4086914 L38.3195498,41.8280777 L37.1311536,48.9804387 C37.0729602,49.3306757 37.2135973,49.52623 37.3293449,49.5568256 C37.4450925,49.5874213 37.6844837,49.4871259 37.7654661,49.1481069 L39.4341204,41.9761359 L34.8165694,33.9524495 L35.2516086,24.8166245 L43.7345212,15.6120233 C43.9255565,15.4047356 43.9388752,15.259879 43.8325187,15.147583 C43.7261623,15.035287 43.5711607,15.0368117 43.3763611,15.2338616 L35.6000061,23 L30.2000122,23 L22.585417,15.2789432 C22.363761,15.0528973 22.1068419,15.0396147 22.0076294,15.147583 C21.908417,15.2555513 21.905773,15.5364799 22.1265812,15.778273 Z M20.8646548,39.8670255 L26.5325052,39.5646375 L28.4476387,33.4494241 L28.3115291,25.5168931 L20.6497338,17.1269471 C19.8200373,16.218399 19.6835008,14.4718628 20.6497338,13.6419067 C21.6159668,12.8119507 23.1510313,12.9991862 24.0134291,13.8786641 L31,21 L35,21 L41.9540495,13.8277928 C42.789915,12.9822713 44.4503784,12.7421875 45.3134766,13.6419067 C46.1765747,14.5416259 46.0081409,16.0961698 45.205214,16.9674061 L37.2147794,25.6376316 L36.8427893,33.4494236 C38.6580948,36.5176082 41.1614372,40.6488813 41.3895866,41.5765375 C41.617736,42.5041937 39.7107372,49.6127791 39.7107372,49.6127791 C39.4330534,50.7752551 38.3484497,51.8040777 37.0308838,51.618775 C35.7133179,51.4334723 34.9636904,49.8232923 35.1582021,48.6526242 L36.1950027,42.4126416 C35.6379555,41.7535114 32.8903509,37.9134495 32.8903509,37.9134495 C32.8903509,37.9134495 30.1257296,43.9792733 29.8583812,44.1849259 C29.5450334,44.4259624 29.1950685,44.5126947 28.0822714,44.6062547 C26.9694742,44.6998148 20.9395595,44.603941 20.9395595,44.603941 C19.6436319,44.5941099 18.4525146,43.4982294 18.4525146,42.2390741 C18.4525146,40.9799188 19.5647592,39.8595474 20.8646548,39.8670255 Z M33,20 C35.4852814,20 37.5,17.9852814 37.5,15.5 C37.5,13.0147186 35.4852814,11 33,11 C30.5147186,11 28.5,13.0147186 28.5,15.5 C28.5,17.9852814 30.5147186,20 33,20 L33,20 Z M33,18 C31.6192881,18 30.5,16.8807119 30.5,15.5 C30.5,14.1192881 31.6192881,13 33,13 C34.3807119,13 35.5,14.1192881 35.5,15.5 C35.5,16.8807119 34.3807119,18 33,18 L33,18 Z"/>
</svg>
