<svg xmlns="http://www.w3.org/2000/svg" width="64" height="64" viewBox="0 0 64 64">
  <path fill="#D7272D" d="M31,11.8000031 L10.4000015,16.8000031 L10.9000015,18.8000031 L15.2523289,17.7098856 C15.2523289,17.7098856 10.136719,30.7181873 8,36 C8,39.7204952 10.4000015,44.6499939 16.6100006,44.6499939 C22.8199997,44.6499939 25.2000008,39.8150845 25.2000008,36 C22.3384037,28.6739769 17.733624,17.1068211 17.733624,17.1068211 L31,13.8000031 L31,53.0000001 L25,53.0000001 L25,55.0000001 L39,55.0000001 L39,53.0000001 L33,53.0000001 L33,13.8000031 L46.2406006,17.1068211 C46.2406006,17.1068211 40.7516289,31.2194386 38.8649864,36 C39,41.6206627 42.8954926,44.6499939 47.4012146,44.6499939 C51.9069366,44.6499939 56,41.4833832 56,36 C53.8074493,30.2758179 48.7789917,17.7821655 48.7789917,17.7821655 L52.9000015,18.8000031 L53.4000015,16.8000031 L33,11.8000031 L33,9 L31,9 L31,11.8000031 Z M40.8532715,37.3300018 L53.9411011,37.3300018 C53.9411011,37.3300018 52.862917,42.6598074 47.4031992,42.6598075 C41.9434814,42.6598077 40.8532715,37.3300018 40.8532715,37.3300018 Z M47.4180483,19.6861097 L53.6364015,35.3140889 L41.3000002,35.3140889 L47.4180483,19.6861097 Z M10,37.3300018 L23.0878296,37.3300018 C23.0878296,37.3300018 22.0096455,42.6598074 16.5499278,42.6598075 C11.09021,42.6598077 10,37.3300018 10,37.3300018 Z M16.4180483,19.6861097 L22.6364015,35.3140889 L10.3000002,35.3140889 L16.4180483,19.6861097 Z"/>
</svg>
