<svg xmlns="http://www.w3.org/2000/svg" width="64" height="64" viewBox="0 0 64 64">
  <path fill="#D7272D" d="M37.3236364,29.5206655 C37.4378305,29.4031702 37.5449807,29.0586161 37.5449807,29.0586161 C37.5849768,28.8586357 37.9472745,27.9939251 38.4734185,26.8508761 C38.5242021,26.740689 39.7375188,24.2077111 39.8096227,24.1491798 C40.7409672,23.5238766 42.2253938,23.3708333 43.6102333,23.3708333 C45.5991045,23.3708333 46.7047084,23.6272327 47.1983859,23.9944767 C47.3282605,24.0910896 47.3009637,24.0532012 47.5027404,24.3894958 C48.4634863,25.990739 50.0083776,29.0805214 50.0544413,29.7254137 C50.0621251,29.8120034 49.0239459,32.0209363 48.9640201,32.1481819 C48.3616567,33.42723 48.070059,34.249109 48.070059,34.9818248 C48.070059,35.5256134 47.9657597,35.5821533 47.7152013,35.5195099 C47.6056551,35.2913718 47.5685658,34.9818248 47.5339128,34.4130716 C47.5685658,33.5822143 48.6187138,31.5704345 48.9194422,30.8352224 C49.1812598,30.1713784 49.2819148,29.7719536 49.1720425,29.3324644 C49.0869145,28.9686889 47.580658,26.9141326 47.5287668,26.8365961 C47.2224143,26.3770674 46.601545,26.2528936 46.1420163,26.559246 C45.6824876,26.8655985 45.5583137,27.4864678 45.8646662,27.9459965 C45.9223647,28.0322094 46.8908696,29.4562501 47.1983857,29.7922363 C46.9869999,30.2369384 46.3509269,31.7143214 46.3029029,31.8240311 C45.7837609,33.0100009 45.5339128,33.7576835 45.5339128,34.4130716 C45.5339128,35.7535451 45.8646664,36.3596801 45.8646664,36.3596801 C45.8646664,36.3596801 46.1420159,42.9249467 46.5902256,46.0739908 C46.8293232,47.7991361 47.0896414,48.9141912 46.3999638,48.9954233 C45.6359725,49.0854081 45.7820897,48.0833196 45.6359725,47.7916993 C45.54091,47.601974 44.3369631,39.0491189 44.1400084,37.2328491 C44.1400084,36.3596801 43.8562866,35.84733 42.9552912,35.84733 C42.2178183,35.84733 42.0007815,36.6634425 42.0007815,37.3255987 C42.0007815,41.2938298 42.1663632,45.1899194 42.48214,47.5593538 C42.596517,48.5595121 42.7173462,48.9954233 42.1663632,48.9954233 C41.8321861,48.9954233 41.5248932,49.0998544 41.1997141,46.0739908 C40.6837251,41.6943858 40.0597052,31.8240308 40.1572413,29.4263992 C40.2377429,28.705687 39.6703267,28.5099296 39.3121509,28.4182915 C38.5731449,28.2910766 38.1849975,28.9098219 37.5449805,30.2555904 C36.2591891,30.9999999 34.5751256,31.9911889 33.4432373,32.505371 C32.7780891,30.851777 31.5125022,35.1557674 32.4185812,35.1557674 C35.2939934,33.9208717 35.9266576,33.5163631 38.1849975,32.2316284 C38.3255615,38.3579721 39.0982551,45.6673375 39.5056157,48.3726816 C39.8096222,49.123414 39.9215703,50.8596811 41.716185,50.9709482 C43.5107998,51.0822152 43.7534119,50.4163599 44.2435307,49.9069223 C44.8191533,50.8867807 46.6358647,51.2841195 47.4017949,50.7809457 C48.167725,50.2777719 48.9194417,49.9069223 48.8128056,47.9252328 C48.4682621,45.8512582 47.9183964,39.1340361 47.9183964,37.4948739 C48.9194417,37.4948739 50.070059,36.8020041 50.070059,34.9818248 C50.070059,34.6556704 50.3029357,33.9992988 50.7734076,33.0003068 C50.8303052,32.8794913 50.8910242,32.7524541 50.9626728,32.6040132 C52.054627,30.3417116 52.1073236,30.2184657 52.0477932,29.5636309 C51.9700752,28.4729508 50.3944803,25.321761 49.2177263,23.3605042 C48.9194417,22.8319703 48.6360877,22.5712825 48.3921062,22.3897861 C47.4902319,21.7188869 45.9894119,21.3708333 43.6102333,21.3708333 C40.4508715,21.3708333 38.3489698,22.1792571 37.8447375,23.5238766 C37.8126616,23.5785223 35.930603,27.3352899 35.7385253,28.2910766 C35.0235595,28.7385253 31.9815833,30.6196807 31.8516976,30.6981022 C31.3789062,30.9835611 31.2270433,31.5982444 31.5125022,32.0710358 C31.7415429,32.4503844 32.7919931,32.4666493 32.8854358,32.4102311 C33.0177896,32.3303193 37.1261596,29.8912277 37.3236364,29.5206655 Z M32.8971668,34.830574 C33.7707315,34.2404947 33.0699552,31.5450787 32.7208792,31 C32.2108689,30.2036238 29.3981287,29.5891199 27.8207631,28.9791665 C27.443067,27.9819655 26.227397,25.0976739 25.7322565,24.0971346 C25.6142028,23.8585814 25.539458,23.710842 25.5332827,23.7003214 C25.0290504,22.3557019 23.6177725,21.2861939 20.4584107,21.2861939 C18.1533498,21.2861939 16.972588,21.7840576 15.9964527,23.043457 C15.0203175,24.3028565 13.079908,28.429985 13.0021901,29.5206652 C12.9332203,30.5789795 14.5161671,32.9484863 14.5161671,32.9484863 C14.5161671,32.9484863 15.2558388,34.5239075 15.2558388,34.6396484 C15.2558388,36.3217163 15.6765389,36.7739868 16.2873463,37.12146 C16.2873463,38.7606221 15.694756,45.8512573 15.3502125,47.9252319 C15.2435765,49.9069214 16.0930714,50.3152466 16.8590016,50.8184204 C17.6249318,51.3215942 19.3552174,50.8408814 19.93084,49.861023 C20.4209587,50.3704605 20.5578446,51.0822152 22.3524594,50.9709482 C24.1470742,50.8596811 24.3778004,49.5029297 24.6423878,48.6741333 C25.2869801,45.4417725 25.724472,39.2809105 25.9301323,33.1678381 C27.5704274,33.5820923 27.9351735,33.5136719 28.9407889,33.8425903 C28.9838922,33.8566886 29.9569898,34.4800738 31.4032523,35.1011963 C32.8180472,35.3912964 32.7706278,34.0631682 32.5059744,33.4794922 C32.5054282,33.4782875 31.9451225,33.3054199 31.5003593,32.9484863 C31.0555961,32.5915527 30.254295,32.1075166 29.4959647,31.9191895 C27.9198537,31.527771 26.9666184,31.4105367 25.6483693,31 C25.4675232,30.3515176 24.4820942,28.8205376 23.8487296,27.3851867 C23.1089644,26.775218 22.9710857,27.0294609 22.5881829,27.0953751 C22.2300071,27.1870132 21.8459315,27.836596 22.1724591,28.4675217 C22.3524594,28.9791665 23.9796099,32.0710354 23.9796099,32.0710354 C23.9796099,32.0710354 23.4118403,42.7454283 23.0196814,46.0739899 C22.9631147,46.6003559 22.9058333,47.0072004 22.8501133,47.361145 C22.5855222,49.0418838 22.3290774,48.9954224 22.0530323,48.9954224 C21.5020494,48.9954224 21.6228785,48.5595112 21.7372555,47.5593529 C22.3524594,43.4536133 22.1724591,41.297513 22.1724591,37.3292818 C22.1724591,36.6671257 21.9554222,35.8510132 21.2179493,35.8510132 C20.3169539,35.8510132 20.0332322,36.3633633 20.0332322,37.2365322 C19.847527,40.1366577 18.6229483,47.7355066 18.5278859,47.9252319 C18.3817686,48.2168522 18.5401072,49.0854073 17.7761158,48.9954224 C17.0864382,48.9141903 17.408112,47.6535511 17.6472096,45.9284058 C18.0954193,42.7793617 18.432672,36.0406713 18.432672,28.9791664 C18.432672,28.0525431 18.3861568,27.8655985 17.9266281,27.559246 C17.4670995,27.2528936 16.8702587,27.3967523 16.5398777,27.8365961 C16.3034825,28.4182915 15.918691,28.7984946 15.9052758,29.2195157 C15.8994033,29.4038163 15.6765389,29.7254133 16.399836,30.2555904 L16.399836,32.2316284 C16.399836,32.2316284 15.0126337,29.7701833 15.0203175,29.6835937 C15.0663812,29.0387014 17.1249928,24.7720947 17.7761158,24.050415 C18.4398121,23.6853638 18.4695395,23.2866821 20.4584107,23.2866821 C21.8432502,23.2866821 23.0196814,23.5227752 23.5683975,24.3256247 C23.6405014,24.384156 25.6176957,28.9059 26.1756367,30.181428 C26.417784,30.7350092 26.7047048,30.8210154 28.6025319,31.3963013 C29.2845315,31.6030349 31.2721489,32.0710354 31.9682547,32.8262329 C32.0102054,32.8698535 31.7551811,33.1777344 31.7551811,34.3765259 C31.7551811,35.5753174 32.6602475,34.9906093 32.8971668,34.830574 Z M20,11 C17.2389145,11 15,13.2389145 15,16 C15,18.7610855 17.2389145,21 20,21 C22.7610855,21 25,18.7610855 25,16 C25,13.2389145 22.7610855,11 20,11 L20,11 Z M20,13.0168067 C21.6472339,13.0168067 22.9831933,14.3527661 22.9831933,16 C22.9831933,17.6472339 21.6472339,18.9831933 20,18.9831933 C18.3527661,18.9831933 17.0168067,17.6472339 17.0168067,16 C17.0168067,14.3527661 18.3527661,13.0168067 20,13.0168067 L20,13.0168067 Z M44,11 C41.2389145,11 39,13.2389145 39,16 C39,18.7610855 41.2389145,21 44,21 C46.7610855,21 49,18.7610855 49,16 C49,13.2389145 46.7610855,11 44,11 L44,11 Z M44,13.0168067 C45.6472339,13.0168067 46.9831933,14.3527661 46.9831933,16 C46.9831933,17.6472339 45.6472339,18.9831933 44,18.9831933 C42.3527661,18.9831933 41.0168067,17.6472339 41.0168067,16 C41.0168067,14.3527661 42.3527661,13.0168067 44,13.0168067 L44,13.0168067 Z"/>
</svg>
