<svg xmlns="http://www.w3.org/2000/svg" width="64" height="64" viewBox="0 0 64 64">
  <path fill="#D7272D" fill-rule="evenodd" d="M38,46 L40.9,46 C40.9,46 41.6350864,52.6974632 41.8,53 C41.9649136,53.3025368 42.0199609,53.9999992 43,54 C43.9800391,54.0000008 44.0432711,53.9999989 45,54 C45.9567289,54.0000011 46.0776081,53.3186596 46.2,53 C46.3223919,52.6813404 47.1000004,45.9999998 47.1000004,45.9999998 L51.6,45.9999998 L49,38 L50,30.8 L52,31.1 L51,38 L54.4,47.9999998 L48.8999996,48.0000008 C48.8999996,48.0000008 48.4939447,51.6037876 48.3,53 C48.1060553,54.3962124 46.9239531,56.0000008 45,56.0000008 C43.0760469,56.0000008 44.8885541,55.9999989 43,56 C41.1114459,56.0000011 39.8556639,54.3691814 39.7,53 C39.5443361,51.6308186 39.1,48 39.1,48 L38,48 L38,46 Z M21.5,33 L28.9,33 C28.9,33 29.9778252,42.8363619 30.3000031,44.7999992 C30.44455,45.8222068 30.9364615,45.9974632 32,45.9974632 C33.0635385,45.9974632 33.5324211,45.8477392 33.6999969,44.7999992 C33.9748722,43.0813877 35.1,33 35.1,33 L42,33 L42,35 L36.9,35 C36.9,35 36.3508348,39.7000008 35.8000031,44.7000008 C35.4442034,47.2857819 34.0855274,47.9984322 32,47.9984322 C29.9144726,47.9984322 28.5315224,47.193009 28.1999969,44.7000008 C27.630722,39.6903505 27.1,35 27.1,35 L21.5,35 L21.5,33 Z M14,31 L14,53 C14,53 14,54 15,54 C16,54 16,53 16,53 L16,41 L22,41 L22,53 C22,53 22,54 23,54 C24,54 24,53 24,53 L24,42 L26,42 L26,53 C26,53 26,56 23,56 C20,56 20,53 20,53 L20,43 L18,43 L18,53 C18,53 18,56 15,56 C12,56 12,53 12,53 L12,31 L14,31 Z M38,22 L50.0062606,22 C53.3165115,22 56,24.6780403 56,28.0033309 L56,38 L54,38 L54,27.9931023 C54,25.7877728 52.2111696,24 50.0037973,24 L38,24 L38,22 Z M8,38 L8,28.0033309 C8,24.6877828 10.6947819,22 13.9937394,22 L26,22 L26,24 L13.9962027,24 C11.7891609,24 10,25.7873299 10,27.9931023 L10,38 L8,38 Z M19,20 C15.6862915,20 13,17.3137085 13,14 C13,10.6862915 15.6862915,8 19,8 C22.3137085,8 25,10.6862915 25,14 C25,17.3137085 22.3137085,20 19,20 Z M19,18 C21.209139,18 23,16.209139 23,14 C23,11.790861 21.209139,10 19,10 C16.790861,10 15,11.790861 15,14 C15,16.209139 16.790861,18 19,18 Z M44,20 C40.6862915,20 38,17.3137085 38,14 C38,10.6862915 40.6862915,8 44,8 C47.3137085,8 50,10.6862915 50,14 C50,17.3137085 47.3137085,20 44,20 Z M44,18 C46.209139,18 48,16.209139 48,14 C48,11.790861 46.209139,10 44,10 C41.790861,10 40,11.790861 40,14 C40,16.209139 41.790861,18 44,18 Z M32,32 C29.2385763,32 27,29.7614237 27,27 C27,24.2385763 29.2385763,22 32,22 C34.7614237,22 37,24.2385763 37,27 C37,29.7614237 34.7614237,32 32,32 Z M32,30 C33.6568542,30 35,28.6568542 35,27 C35,25.3431458 33.6568542,24 32,24 C30.3431458,24 29,25.3431458 29,27 C29,28.6568542 30.3431458,30 32,30 Z"/>
</svg>
