<svg xmlns="http://www.w3.org/2000/svg" width="64" height="64" viewBox="0 0 64 64">
  <path fill="#D7272D" d="M13.7071068,51.7071068 L27.9571068,37.4571068 L26.5428932,36.0428932 L12.2928932,50.2928932 L13.7071068,51.7071068 L13.7071068,51.7071068 Z M52,27.25 C52,18.8276576 45.1723424,12 36.75,12 C28.3276576,12 21.5,18.8276576 21.5,27.25 C21.5,35.6723424 28.3276576,42.5 36.75,42.5 C45.1723424,42.5 52,35.6723424 52,27.25 Z M36.75,40.5 C29.4322271,40.5 23.5,34.5677729 23.5,27.25 C23.5,19.9322271 29.4322271,14 36.75,14 C44.0677729,14 50,19.9322271 50,27.25 C50,34.5677729 44.0677729,40.5 36.75,40.5 Z M46,22.5 L46,20.5 L28,20.5 L28,22.5 L46,22.5 Z M46,28.5 L46,26.5 L28,26.5 L28,28.5 L46,28.5 Z M43.0035,34 L43.0035,32 L28,32 L28,34 L43.0035,34 Z"/>
</svg>
