<svg xmlns="http://www.w3.org/2000/svg" width="64" height="64" viewBox="0 0 64 64">
  <path fill="#D7272D" d="M30.9163371,39.894976 C30.2281813,45.588072 25.3789734,50 19.5,50 C13.1491448,50 8,44.8513918 8,38.5009464 C8,33.3982719 11.3226178,29.0719702 15.9220321,27.567533 L13.7197802,22.2688155 L15.5666198,21.5012325 L17.8980236,27.1106953 C18.4215569,27.0377233 18.956374,27 19.5,27 C22.1802795,27 24.6464262,27.9169989 26.6018292,29.4544335 L28.8243467,26.642317 L26.8463135,25.1296387 L25.3041779,26.8350039 L23.8304178,25.5 L28.5500031,20.2000122 L30.0709774,21.5874662 L28.197876,23.6535034 L30.0709773,25.0649747 L32.1999969,22.2999878 C32.4166505,22.0970311 32.7056917,21.957056 33,22 L42,22 L42,15.5 L44,15.5 L44,22 L54,22 C54.6561174,21.957056 55.131938,22.5545304 54.9881033,23.1808727 L52.1887433,35.3709527 C52.0619247,35.9231963 51.5020566,36.2598551 50.9548179,36.1129344 C50.8555351,36.0862793 50.6466601,36.0406813 50.3495228,35.9934637 C48.9578069,35.7723082 47.4512728,35.8054905 46.0671729,36.2590797 C44.5193385,36.7663272 43.2941232,37.7547494 42.4644752,39.3551992 C42.2925734,39.6868101 41.9501904,39.894976 41.576672,39.894976 L30.9163371,39.894976 Z M30.9843288,37.8953001 L41,37.8999939 C41.7642818,36.493042 43.415129,35.0235341 45.4443369,34.3585337 C47.1750458,33.7913557 48.9847539,33.7514958 50.4600067,34 C50.7088402,32.8974984 51.3669321,30 51.3669321,30 L45.0000002,30 L45,28.5 L51.7214681,28.5 L52.0108702,27 L46,27 L46,25.5 L52.411854,25.5 L52.7829477,24 L33.5,24 L28.0679783,30.8293959 C29.7655392,32.7243396 30.8437694,35.1857373 30.9843288,37.8953001 Z M29,38.5 C29,33.2531021 24.7466334,29 19.5,29 C14.2533666,29 10,33.2531021 10,38.5 C10,43.7452754 14.253631,47.9981131 19.5,47.9981131 C24.746369,47.9981131 29,43.7452754 29,38.5 Z M24,38.5019554 C24,40.9858818 21.9843173,43.0019554 19.5,43.0019554 C17.0156827,43.0019554 15,40.9858818 15,38.5019554 C15,36.0164644 17.0152918,34 19.5,34 C21.9847082,34 24,36.0164644 24,38.5019554 Z M22,38.5019847 C22,37.1207909 20.8798608,36 19.5,36 C18.1201392,36 17,37.1207909 17,38.5019847 C17,39.881411 18.1203563,41.0019847 19.5,41.0019847 C20.8796437,41.0019847 22,39.881411 22,38.5019847 Z M49,37 C45.4100122,37 42.5,39.9106328 42.5,43.5008644 C42.5,47.0896775 45.4103225,50 49,50 C52.5896775,50 55.5,47.0896775 55.5,43.5008644 C55.5,39.9106328 52.5899878,37 49,37 Z M49,48 C46.5148847,48 44.5,45.9851153 44.5,43.5008278 C44.5,41.0150995 46.5146698,39 49,39 C51.4853302,39 53.5,41.0150995 53.5,43.5008278 C53.5,45.9851153 51.4851153,48 49,48 Z M52,43.5007923 C52,41.843897 50.6569564,40.5 49.0003961,40.5 C47.3432126,40.5 46,41.843728 46,43.5007923 C46,45.1577402 47.3430962,46.5 49.0003961,46.5 C50.6570726,46.5 52,45.1575713 52,43.5007923 L52,43.5007923 Z M50.5,43.5008806 C50.5,44.3290173 49.8288765,45 49.0004402,45 C48.171208,45 47.5,44.3291017 47.5,43.5008806 C47.5,42.6721167 48.1717505,42 49.0004402,42 C49.828334,42 50.5,42.6722013 50.5,43.5008806 L50.5,43.5008806 Z"/>
</svg>
