<svg xmlns="http://www.w3.org/2000/svg" width="64" height="64" viewBox="0 0 64 64">
  <path fill="#D7272D" d="M12.2596252,31.7365624 C11.7229166,31.5577138 11.0831174,31.2650756 10.4376711,30.8262025 C8.93363009,29.8035254 8,28.3265792 8,26.3844682 C8,25.8321834 8.44771525,25.3844682 9,25.3844682 C9.55228475,25.3844682 10,25.8321834 10,26.3844682 C10,27.5992378 10.5663358,28.4951468 11.562238,29.1723134 C11.8706144,29.3819948 12.2460301,29.5076769 12.8492767,29.7674002 C13.7348126,27.4014906 15.164218,25.4307944 17.0661716,23.9498015 C20.9849907,20.8994647 25.5962999,19.3041045 31.2023182,19.3041045 C33.4371001,19.3041045 35.3087773,19.5662229 36.9108548,19.9037473 C38.3975834,16.9854737 40.9052851,15.0298906 44.5551126,14.1142094 C45.3352199,13.9184935 46.015462,14.6770074 45.7362721,15.4312787 C44.4917554,18.7935176 44.1858525,20.2653806 44.1109013,22.024658 C48.070374,23.6599119 50.6143193,27.007263 51.159682,30.8033067 C51.159682,30.8033067 51.3674756,30.8835591 51.6001818,30.8835591 L53.3011364,30.8835591 C54.7903804,30.8835591 56,32.0967757 56,33.5866045 L56,38.6873773 C56,40.1756009 54.7898913,41.3851955 53.3011364,41.3851955 L51.6001818,41.3851955 C51.1744563,41.3851955 51.0535745,41.4969957 50.8019927,42.0260616 C49.5472336,44.6431959 47.6730351,46.7037342 45.1209915,48.0730007 C44.7817387,48.2344349 44.9518511,48.4203223 44.9518511,48.4203223 L45.4898782,49.8436143 C46.0420985,51.2868806 45.3118453,52.9061376 43.8653646,53.455083 L40.5067922,54.7257798 C39.0607081,55.2755846 37.4402121,54.5482515 36.9108547,53.1400792 C36.8727982,53.0503048 36.7407841,52.837157 36.1152348,50.9589832 C30.4805302,51.5624378 28.9365849,51.2203968 26.389832,50.6991565 C25.9757695,51.9078968 25.5455515,53.0041424 25.50685,53.1049489 C24.9582378,54.5489222 23.3396937,55.2758314 21.8997476,54.7265013 L18.533091,53.4543243 C17.0911316,52.9052392 16.3632023,51.286667 16.9249,49.8156453 C16.9597536,49.7321768 17.5366678,48.4203212 17.9009399,47.1902454 C17.78833,46.9462269 17.6815596,46.8951315 17.5366676,46.7833271 C14.2473261,44.1521608 11.9866052,40.7613654 11.8230592,36.8547578 C11.7463286,35.0242345 11.8973198,33.3109235 12.2596252,31.7365624 Z M54,33.5866045 C54,33.200018 53.6844794,32.8835591 53.3011364,32.8835591 L51.6001818,32.8835591 C50.3510492,32.8835591 49.4035989,32.2539524 49.2409265,31.2437944 C48.7077012,27.886762 46.5536821,24.9816721 42.7804154,23.6642602 C42.3849946,23.5262015 42.1175006,23.1563523 42.1101975,22.7375869 C42.0661137,20.2097833 42.5842382,18.3918138 43.156687,16.7296196 C41.7944967,17.2420177 39.741228,18.4163664 38.3627851,21.4562219 C38.1641371,21.8942968 37.681748,22.1288778 37.2145055,22.0146187 C35.2965215,21.5455965 33.2775983,21.3041045 31.2023182,21.3041045 C26.0429872,21.3041045 21.863605,22.7500322 18.2947879,25.5279339 C15.2530427,27.8964477 13.6121359,31.7809664 13.8213067,36.77105 C13.9562543,39.9945321 15.9044401,42.9165642 18.7810448,45.217605 C19.7428667,45.8420101 20.0892997,46.9447185 19.7428667,48.0173664 C19.6682208,48.2473127 18.8084011,50.4954374 18.7820024,50.557402 C18.6261601,50.9659116 18.834414,51.4289703 19.2424343,51.5843442 L22.6096611,52.8567385 C23.0191395,53.0129504 23.4811532,52.805454 23.6384627,52.3914245 C23.6779446,52.2885686 24.5466098,50.0087812 24.5968991,49.9005283 C24.9559973,49.1275318 25.567164,48.6939354 26.3512232,48.6804519 C26.6039046,48.6761065 28.9309608,49.2668319 31.2023182,49.2668318 C33.4736755,49.2668317 35.8800966,48.7647796 36.9187338,49.0813118 C37.9573709,49.3978439 38.7192033,52.2815697 38.7673968,52.3973914 C38.9212244,52.8059094 39.3832437,53.0132792 39.7975445,52.8557624 L43.1566871,51.584849 C43.5694895,51.4281887 43.7779262,50.9660028 43.6205125,50.5545686 C43.6205125,50.5545686 43.0545252,49.0895445 43.0077558,48.9547595 C42.8095702,48.3836075 42.8285216,47.7426087 43.2255771,47.1433716 C43.4441287,46.8135329 43.7600725,46.5361963 44.1657538,46.3158667 C46.2847332,45.1628092 47.9227258,43.405344 48.9971739,41.1643082 C49.5428236,40.0168046 50.2257379,39.3851955 51.6001818,39.3851955 L53.3011364,39.3851955 C53.685512,39.3851955 54,39.0708411 54,38.6873773 L54,33.5866045 Z M33,17.2816955 C33,12.9772404 29.5078875,9.48624091 25.2045455,9.48624091 C20.8969544,9.48624091 17.4090909,12.9752167 17.4090909,17.2816955 C17.4090909,18.465735 17.67496,19.6084843 18.1814225,20.6472241 L19.9791229,19.7707122 C19.6052529,19.0039157 19.4090909,18.1607789 19.4090909,17.2816955 C19.4090909,14.0796434 22.0016666,11.4862409 25.2045455,11.4862409 C28.4034607,11.4862409 31,14.0819526 31,17.2816955 L33,17.2816955 L33,17.2816955 Z M44.0018182,34.9080591 C42.8946818,34.9080591 41.9987273,34.0121045 41.9987273,32.9070591 C41.9987273,31.8041045 42.8946818,30.90815 44.0018182,30.90815 C45.1058182,30.90815 45.9986364,31.8041045 45.9986364,32.9070591 C45.9996818,34.0110591 45.1058182,34.9080591 44.0018182,34.9080591"/>
</svg>
