<svg xmlns="http://www.w3.org/2000/svg" width="64" height="64" viewBox="0 0 64 64">
  <path fill="#D7272D" d="M51.99772,32 C51.99772,43.0450572 43.0446327,52 31.99772,52 C20.9549166,52 11.99962,43.0434662 11.99962,32 C11.99962,20.9546449 20.9539556,12 31.99772,12 C43.0455936,12 51.99772,20.953054 51.99772,32 Z M49.99772,32 C49.99772,22.0575771 41.9409777,14 31.99772,14 C22.0585406,14 13.99962,22.0591989 13.99962,32 C13.99962,41.9389585 22.059548,50 31.99772,50 C41.9399704,50 49.99772,41.9405805 49.99772,32 Z M33.2656396,40.5630626 C32.9652095,40.8651273 32.3027691,40.9798171 31.9230703,40.6157501 C31.5433715,40.2516831 31.4404739,39.6595595 31.732872,39.2958414 C32.02527,38.9321233 38.1300727,33 38.1300727,33 L23.2999992,33 C22.7000008,33 22.2999992,32.6580613 22.2999992,32 C22.2999992,31.3419387 22.7000008,31 23.2999992,31 L38.2325575,31 L31.8762604,24.8613846 C31.4789966,24.4777181 31.4679739,23.8446491 31.8516404,23.4473854 C32.2353069,23.0501216 32.8683759,23.0390989 33.2656396,23.4227654 L40.997353,31 C40.997353,31 41.6500015,31.5298177 41.6500015,32 C41.6500015,32.4701823 41.4008446,32.5999985 40.997353,33 C40.5938613,33.4000015 33.5660697,40.2609979 33.2656396,40.5630626 Z"/>
</svg>
