<svg xmlns="http://www.w3.org/2000/svg" width="64" height="64" viewBox="0 0 64 64">
  <path fill="#D7272D" d="M29.0829048,18.5706181 C28.7824889,18.0887801 28.3211598,17.7459696 27.713493,17.5073012 C27.0232046,17.2361821 26.2844447,17.1494367 25.7195663,17.1652665 C25.1680548,17.1944822 24.6972825,16.7710778 24.6680668,16.2195663 C24.6388512,15.6680548 25.0622556,15.1972825 25.613767,15.1680668 C25.6325747,15.1671168 26.2904898,15.170168 26.6862246,15.2166353 C27.284703,15.2869088 27.8789485,15.4235541 28.4446443,15.6457379 C29.6436692,16.1166693 30.5686337,16.9131596 31.0717283,18.0606046 C31.2729686,16.3272815 31.8885624,14.8948762 32.8030751,13.7540217 C33.4968756,12.8885055 34.2055766,12.3599327 34.7230415,12.1037876 C35.218006,11.8587802 35.8178717,12.0614104 36.0628791,12.5563748 C36.3078865,13.0513393 36.1052563,13.651205 35.6102918,13.8962124 C35.5633357,13.9194557 34.6546043,14.6418982 34.3635916,15.0049367 C33.6687724,15.8717235 33.1984339,16.9758032 33.0501082,18.3632702 C41.4862129,18.8464021 47.8896747,25.1158246 48.7719727,32.6988281 C50.1188469,32.8754886 52,34.4489236 52,36.75 C52,38.9363898 50.3106461,40.4135736 48.9222641,40.7638677 C46.9198227,47.7960943 40.3136785,52 32,52 C23.6863215,52 17.1165037,47.8771489 15.109375,40.7638677 C13.4762695,40.2707036 12,38.9363898 12,36.75 C12,34.4489236 13.8353516,32.8735355 15.3072267,32.6988281 C16.0075962,25.7493527 21.5736974,19.8100582 29.0829048,18.5706181 Z M50,36.75 C50,35.5534931 49.0298403,34.5833333 47.8333333,34.5833333 C47.9402226,34.5780218 47.9402226,34.5780218 47.9537755,34.575262 C47.9194414,34.5809905 47.9194414,34.5809905 47.791375,34.5872917 L46.84453,34.5872917 L46.7928648,33.6418572 C46.3866751,26.2088826 39.9068818,20.3333333 32,20.3333333 C24.0931182,20.3333333 17.6133249,26.2088826 17.2071352,33.6418572 L17.15547,34.5872917 L16.208625,34.5872917 C16.0805586,34.5809905 16.0805586,34.5809905 16.0462245,34.575262 C16.0597774,34.5780218 16.0597774,34.5780218 16.1666667,34.5833333 C14.9701597,34.5833333 14,35.5534931 14,36.75 C14,37.8817881 14.8796848,38.8148419 16.0127332,38.8962815 L16.7515142,38.9493825 L16.916055,39.671562 C18.4259546,46.2986005 24.5341158,50 32,50 C39.4658842,50 45.5740454,46.2986005 47.083945,39.671562 L47.2484858,38.9493825 L47.9872668,38.8962815 C49.1203152,38.8148419 50,37.8817881 50,36.75 Z M35.0824433,43.03722 C35.6114968,42.8070021 36.1291822,42.4577118 36.1291822,42.4577118 C36.5621486,42.1148436 37.1910867,42.1878826 37.5339549,42.6208489 C37.8768231,43.0538152 37.8037841,43.6827534 37.3708178,44.0256216 C37.0816972,44.2545776 36.5794329,44.5669562 35.8804629,44.8711133 C34.7367519,45.3687997 33.4354871,45.6666667 32,45.6666667 C30.5645129,45.6666667 29.2632481,45.3687997 28.1195371,44.8711133 C27.4205671,44.5669562 26.9183028,44.2545776 26.6291822,44.0256216 C26.1962159,43.6827534 26.1231769,43.0538152 26.4660451,42.6208489 C26.8089133,42.1878826 27.4378514,42.1148436 27.8708178,42.4577118 C28.0315618,42.5850057 28.3885032,42.8070021 28.9175567,43.03722 C29.8205514,43.4301586 30.8537632,43.6666667 32,43.6666667 C33.1462368,43.6666667 34.1794486,43.4301586 35.0824433,43.03722 Z M38.375,33 C39.6867917,33 40.75,34.0632083 40.75,35.375 C40.75,36.6867917 39.6867917,37.75 38.375,37.75 C37.0632083,37.75 36,36.6867917 36,35.375 C36,34.0632083 37.0632083,33 38.375,33 Z M25.375,33 C26.6867917,33 27.75,34.0632083 27.75,35.375 C27.75,36.6867917 26.6867917,37.75 25.375,37.75 C24.0632083,37.75 23,36.6867917 23,35.375 C23,34.0632083 24.0632083,33 25.375,33 Z"/>
</svg>
