<svg xmlns="http://www.w3.org/2000/svg" width="64" height="64" viewBox="0 0 64 64">
  <path fill="#D7272D" fill-rule="evenodd" d="M21.9703117,23.2831604 L21.9703117,21 L15.9967632,21 L12.3136266,53.0123755 C12.2507982,53.5584558 12.6471246,54 13.1986845,54 L50.8013155,54 C51.3552764,54 51.7490859,53.5578254 51.6862765,53.0123755 L48,21 L41.9257793,21 L41.9257793,23.2831604 C42.5208439,23.6290418 42.9208313,24.2742903 42.9208313,25.0135808 C42.9208313,26.1180806 42.0280455,27.0126754 40.9257793,27.0126754 C39.8235131,27.0126754 38.9307274,26.1180806 38.9307274,25.0135808 C38.9307274,24.2742903 39.3307147,23.6290418 39.9257793,23.2831604 L39.9257793,21 L23.9703117,21 L23.9703117,23.2831604 C24.5653763,23.6290418 24.9653637,24.2742903 24.9653637,25.0135808 C24.9653637,26.1180806 24.0725779,27.0126754 22.9703117,27.0126754 C21.8680455,27.0126754 20.9752598,26.1180806 20.9752598,25.0135808 C20.9752598,24.2742903 21.3752471,23.6290418 21.9703117,23.2831604 Z M21.9703117,19.0158443 L21.9703117,17.0172024 C21.9703117,11.6164216 26.2195261,8 31.9480455,8 C37.676565,8 41.9257793,11.6164216 41.9257793,17.0172024 L41.9257793,19.0158443 L49.7984157,19.0158443 L53.6614994,53.0203732 C53.8479812,54.6618667 52.6537288,56.0000018 50.9930191,56.0000017 L13.0069809,56.0000001 C11.3408574,56.0000001 10.1478039,54.6659749 10.3301292,53.0203715 L14.0976753,19.0158443 L21.9703117,19.0158443 Z M23.9703117,19.0158443 L39.9257793,19.0158443 L39.9257793,17.0172024 C39.9257793,12.7989421 36.6370851,10 31.9480455,10 C27.2590059,10 23.9703117,12.7989421 23.9703117,17.0172024 L23.9703117,19.0158443 Z M30.152,46.1836596 L32.6837209,46.1836596 L32.6837209,48.9084255 L30.152,48.9084255 L30.152,46.1836596 Z M27.3389767,31.2444255 C28.3704186,30.1169362 29.8706977,29.5531915 31.7460465,29.5531915 C33.4338605,29.5531915 34.8403721,30.0229787 35.871814,31.0565106 C36.9032558,31.9960851 37.4658605,33.3114894 37.4658605,34.8148085 C37.4658605,35.754383 37.2783256,36.5060426 36.9032558,37.0697872 C36.528186,37.6335319 35.7780465,38.4791489 34.5590698,39.6066383 C33.7151628,40.4522553 33.1525581,41.1099574 32.8712558,41.6737021 C32.5899535,42.1434894 32.496186,42.8951489 32.496186,44.0226383 L30.152,44.0226383 C30.152,42.8011915 30.3395349,41.7676596 30.6208372,41.016 C30.9021395,40.2643404 31.5585116,39.4187234 32.5899535,38.3851915 L33.6213953,37.3516596 C33.9026977,37.0697872 34.184,36.7879149 34.3715349,36.4120851 C34.7466047,35.8483404 34.9341395,35.2845957 34.9341395,34.6268936 C34.9341395,33.7812766 34.6528372,33.029617 34.184,32.4658723 C33.7151628,31.8081702 32.7774884,31.5262979 31.6522791,31.5262979 C30.152,31.5262979 29.1205581,32.0900426 28.5579535,33.1235745 C28.2766512,33.6873191 28.0891163,34.6268936 27.9953488,35.6604255 L25.6511628,35.6604255 C25.7449302,33.875234 26.2137674,32.3719149 27.3389767,31.2444255 L27.3389767,31.2444255 Z"/>
</svg>
