<svg xmlns="http://www.w3.org/2000/svg" width="32" height="32" viewBox="0 0 32 32">
  <g fill="#A3A3A3" fill-rule="evenodd">
    <path d="M19.5426399,16.5426437 L22,16.5426437 L22,23.9966187 C22,24.5507709 21.5492823,25 21.0004976,25 L20.5421423,25 C19.9901324,25 19.5426399,24.5452958 19.5426399,23.9966187 L19.5426399,16.5426437 Z" transform="rotate(-45 20.771 20.771)"/>
    <path d="M14,21 C10.1340068,21 7,17.8659932 7,14 C7,10.1340068 10.1340068,7 14,7 C17.8659932,7 21,10.1340068 21,14 C21,17.8659932 17.8659932,21 14,21 Z M14,18.9999997 C16.7614237,18.9999997 19,16.7614235 19,13.9999998 C19,11.2385762 16.7614237,9 14,9 C11.2385763,9 9,11.2385762 9,13.9999998 C9,16.7614235 11.2385763,18.9999997 14,18.9999997 Z"/>
  </g>
</svg>
