<svg xmlns="http://www.w3.org/2000/svg" width="32" height="32" viewBox="0 0 32 32">
  <path fill="#5FA9DD" fill-rule="evenodd" d="M27.9996094,8.36769231 C27.0800781,8.76923077 26.0914062,9.04076923 25.0539062,9.16307692 C26.1128906,8.53807692 26.9261719,7.54846154 27.3089844,6.36884615 C26.3179688,6.94769231 25.2199219,7.36807692 24.0519531,7.59461538 C23.1160156,6.61307692 21.7832031,6 20.3078125,6 C17.4753906,6 15.1789063,8.26115385 15.1789063,11.05 C15.1789063,11.4457692 15.2242188,11.8311538 15.3117188,12.2007692 C11.0488281,11.9903846 7.26953125,9.97961538 4.73984375,6.92423077 C4.2984375,7.67 4.0453125,8.53769231 4.0453125,9.46307692 C4.0453125,11.215 4.95078125,12.7607692 6.32695313,13.6665385 C5.48632813,13.6403846 4.6953125,13.4130769 4.00390625,13.0346154 C4.00351563,13.0557692 4.00351563,13.0769231 4.00351563,13.0980769 C4.00351563,15.545 5.77148438,17.5861538 8.11796875,18.05 C7.6875,18.1653846 7.234375,18.2273077 6.76679688,18.2273077 C6.43632812,18.2273077 6.11523437,18.1953846 5.80195313,18.1365385 C6.4546875,20.1430769 8.34882813,21.6034615 10.5933594,21.6438462 C8.83789062,22.9980769 6.6265625,23.8057692 4.2234375,23.8057692 C3.809375,23.8057692 3.40117188,23.7819231 3,23.735 C5.26992188,25.1680769 7.96601562,26.0038462 10.8625,26.0038462 C20.2964844,26.0038462 25.4554688,18.3084615 25.4554688,11.635 C25.4554688,11.4161538 25.4503906,11.1984615 25.440625,10.9819231 C26.4425781,10.27 27.3121094,9.38038462 27.9996094,8.36769231 L27.9996094,8.36769231 Z"/>
</svg>
