<svg xmlns="http://www.w3.org/2000/svg" width="32" height="32" viewBox="0 0 32 32">
  <path fill="#5FA9DD" fill-rule="evenodd" d="M25.9996875,9.89415385 C25.2640625,10.2153846 24.473125,10.4326154 23.643125,10.5304615 C24.4903125,10.0304615 25.1409375,9.23876923 25.4471875,8.29507692 C24.654375,8.75815385 23.7759375,9.09446154 22.8415625,9.27569231 C22.0928125,8.49046154 21.0265625,8 19.84625,8 C17.5803125,8 15.743125,9.80892308 15.743125,12.04 C15.743125,12.3566154 15.779375,12.6649231 15.849375,12.9606154 C12.4390625,12.7923077 9.415625,11.1836923 7.391875,8.73938462 C7.03875,9.336 6.83625,10.0301538 6.83625,10.7704615 C6.83625,12.172 7.560625,13.4086154 8.6615625,14.1332308 C7.9890625,14.1123077 7.35625,13.9304615 6.803125,13.6276923 C6.8028125,13.6446154 6.8028125,13.6615385 6.8028125,13.6784615 C6.8028125,15.636 8.2171875,17.2689231 10.094375,17.64 C9.75,17.7323077 9.3875,17.7818462 9.0134375,17.7818462 C8.7490625,17.7818462 8.4921875,17.7563077 8.2415625,17.7092308 C8.76375,19.3144615 10.2790625,20.4827692 12.0746875,20.5150769 C10.6703125,21.5984615 8.90125,22.2446154 6.97875,22.2446154 C6.6475,22.2446154 6.3209375,22.2255385 6,22.188 C7.8159375,23.3344615 9.9728125,24.0030769 12.29,24.0030769 C19.8371875,24.0030769 23.964375,17.8467692 23.964375,12.508 C23.964375,12.3329231 23.9603125,12.1587692 23.9525,11.9855385 C24.7540625,11.416 25.4496875,10.7043077 25.9996875,9.89415385 L25.9996875,9.89415385 Z"/>
</svg>
