<svg xmlns="http://www.w3.org/2000/svg" width="32" height="32" viewBox="0 0 32 32">
  <g fill="none" fill-rule="evenodd">
    <path fill="#D7272D" d="M29.0038999,29.0000005 C30.6586004,29.0000006 31.3376152,27.8334828 30.5197303,26.393116 L18.5785858,5.36371566 C17.2173205,2.96640832 14.9934995,2.96808244 13.6136962,5.36371557 L1.50147686,26.3931155 C0.672234087,27.832858 1.33425951,29 2.99610024,29.0000001 L29.0038999,29.0000005 Z"/>
    <path fill="#FFFFFF" d="M27.9967005,27.3000006 C28.5508076,27.3000006 28.7870873,26.9154055 28.5183642,26.4299975 L17.5669592,6.64792642 C16.7643998,5.19822331 15.4544946,5.1932685 14.6413148,6.63666286 L3.49014249,26.4299969 C3.21944427,26.9104864 3.45127869,27.3 4.00329964,27.3 L27.9967005,27.3000006 Z"/>
    <path fill="#D7272D" d="M16.3027027,25.2162162 C17.1863583,25.2162162 17.9027027,24.4998718 17.9027027,23.6162162 C17.9027027,22.7325606 17.1863583,22.0162162 16.3027027,22.0162162 C15.4190471,22.0162162 14.7027027,22.7325606 14.7027027,23.6162162 C14.7027027,24.4998718 15.4190471,25.2162162 16.3027027,25.2162162 Z M15.1027027,11.2162162 L17.5027027,11.2162162 L17.1027027,20.4162162 L15.5027027,20.4162162 L15.1027027,11.2162162 Z"/>
  </g>
</svg>
