<svg xmlns="http://www.w3.org/2000/svg" width="64" height="64" viewBox="0 0 64 64">
  <g fill="none" fill-rule="evenodd">
    <path class="circle" fill="#E45555" fill-rule="nonzero" d="M32,62 C15.4314575,62 2,48.5685425 2,32 C2,15.4314575 15.4314575,2 32,2 C48.5685425,2 62,15.4314575 62,32 C62,48.5685425 48.5685425,62 32,62 Z M32,60 C47.463973,60 60,47.463973 60,32 C60,16.536027 47.463973,4 32,4 C16.536027,4 4,16.536027 4,32 C4,47.463973 16.536027,60 32,60 Z"/>
    <path class="symbol" fill="#D0021B" fill-rule="nonzero" d="M29.275,20.2 L29.125,14.5 L34.925,14.5 L34.725,20.2 L33.925,37.25 L30.075,37.25 L29.275,20.2 Z M28.275,44.7 C28.275,43.567 28.633,42.633 29.35,41.9 C30.067,41.167 30.958,40.8 32.025,40.8 C33.092,40.8 33.975,41.167 34.675,41.9 C35.375,42.633 35.725,43.567 35.725,44.7 C35.725,45.833 35.375,46.767 34.675,47.5 C33.975,48.233 33.092,48.6 32.025,48.6 C30.958,48.6 30.067,48.233 29.35,47.5 C28.633,46.767 28.275,45.833 28.275,44.7 Z"/>
  </g>
</svg>
