<svg xmlns="http://www.w3.org/2000/svg" width="96" height="64" viewBox="0 0 96 64">
  <g fill="none" fill-rule="evenodd">
    <path fill="#000000" d="M80.0005854,60 C82.2094011,60 83.0555917,58.4784533 81.8956782,56.6097037 L50.1043218,5.39029625 C48.942137,3.51788733 47.0555917,3.52154667 45.8956782,5.39029625 L14.1043218,56.6097037 C12.942137,58.4821127 13.7977484,60 15.9994146,60 L80.0005854,60 Z M79.9999489,62 C84.4182551,62 86.0976265,58.9562024 83.7571685,55.2114695 L52.2428315,4.78853047 C49.8995804,1.03932862 46.0976265,1.04379761 43.7571685,4.78853047 L12.2428315,55.2114695 C9.89958039,58.9606714 11.5797863,62 16.0000511,62 L79.9999489,62 Z"/>
    <path fill="#000000" d="M49,55 C51.209139,55 53,53.209139 53,51 C53,48.790861 51.209139,47 49,47 C46.790861,47 45,48.790861 45,51 C45,53.209139 46.790861,55 49,55 Z M46,20 L52,20 L51,43 L47,43 L46,20 Z"/>
  </g>
</svg>
