<svg xmlns="http://www.w3.org/2000/svg" width="32" height="32" viewBox="0 0 32 32">
  <g fill="#3B65A3" fill-rule="evenodd" transform="translate(8 8)">
    <path d="M14.2971424 4.49469393C14.117224 4.50448985 13.979102 5.47591837 13.989551 5.65616327 14.0058776 5.95493878 13.6793469 6.30171429 13.0697143 6.63183673 12.1616327 7.12359184 12.292898 7.49812245 12.6445714 8.49893878 12.917551 9.27608163 11.4586122 11.6924082 10.8094694 12.1844898 10.7219592 12.0202449 10.6426122 11.5696327 10.6357551 11.1706122L10.6357551 10.298449C10.6357551 10.2726531 10.6357551 10.1936327 10.496 9.21697959 10.4940408 9.20522449 10.4917551 9.19346939 10.4891429 9.18171429L10.2713469 8.33665306C10.2582857 8.28636735 10.2331429 8.23934694 10.1982041 8.2004898L9.48963265 7.40995918C9.456 7.37273469 9.41485714 7.34367347 9.3684898 7.32506122 9.30971429 7.30122449 7.91804082 6.74057143 7.27118367 6.59983673 7.24114286 6.59330612 7.16081633 6.576 7.14057143 6.40163265 7.10857143 6.12995918 7.27020408 5.74530612 7.56146939 5.60555102 7.72473469 5.52718367 7.83379592 5.5402449 7.94906122 5.55363265 8.06367347 5.56734694 8.25534694 5.58955102 8.4075102 5.44130612 8.5877551 5.26661224 8.58514286 5.00114286 8.53616327 4.43787755 8.49861224 4.00489796 8.35265306 3.68228571 8.10220408 3.47853061 7.71102041 3.16081633 7.18759184 3.22383673 6.80587755 3.26922449 6.69910204 3.28228571 6.6004898 3.29502041 6.51755102 3.29502041 5.76685714 3.29502041 5.64636735 3.86253061 5.38155102 5.10595918L5.32930612 5.3515102C5.32440816 5.37404082 5.3195102 5.39428571 5.31461224 5.41191837 5.28326531 5.37730612 5.2522449 5.33714286 5.23167347 5.30220408 5.18138776 5.17159184 5.10987755 4.47216327 5.07493878 3.90106122 5.06612245 3.75706122 4.96359184 3.63591837 4.82318367 3.60326531 4.68342857 3.57093878 4.53746939 3.63395918 4.46563265 3.75934694L3.92065306 4.71346939C3.904 4.74285714 3.90008163 4.74579592 3.89289796 4.77844898 3.89159184 4.78106122 3.77828571 5.03183673 3.08702041 5.2757551 2.98220408 5.31297959 2.92963265 5.31330612 2.92277551 5.31983673 2.832 5.15330612 3.00081633 4.41436735 3.27706122 3.77893878 3.34889796 3.61338776 3.89289797 1.96891274 3.30448974 2.48258465 2.71608151 2.99625656 2.75004082 3.35281633 2.67820408 3.51836735 2.45518367 4.03004082 1.98628571 5.27444898 2.44669388 5.76946939 2.58285714 5.91542857 2.84146939 6.05518367 3.3044898 5.8922449 4.19689796 5.57681633 4.4395102 5.18791837 4.50481633 5.00734694 4.55640816 5.30938776 4.60342857 5.51706122 4.65665306 5.60946939 4.71379592 5.70906122 5.02367347 6.20114286 5.44816327 6.1355102 5.71004082 6.09502041 5.88473469 5.87722449 5.968 5.48897959L6.02057143 5.24212245C6.27722449 4.0362449 6.32685714 3.94840816 6.51755102 3.94840816 6.63118367 3.94840816 6.75395918 3.93371429 6.88359184 3.91804082 7.17910204 3.88212245 7.51412245 3.84261224 7.69044898 3.98563265 7.79820408 4.07314286 7.86383673 4.2442449 7.88571429 4.49469388 7.90204082 4.6837551 7.90889796 4.80979592 7.91085714 4.89404082 7.75673469 4.88195918 7.54057143 4.89142857 7.27902041 5.01714286 6.68963265 5.29991837 6.43363265 5.98106122 6.49208163 6.47836735 6.53910204 6.87771429 6.77844898 7.16179592 7.13306122 7.23885714 7.64865306 7.35085714 8.76440816 7.78808163 9.05436735 7.90302041L9.65910204 8.57697959 9.85240816 9.32767347C9.91379592 9.75804082 9.97942857 10.2383673 9.98302041 10.299102L9.98302041 11.1764898C9.98955102 11.5826939 10.0558367 12.554449 10.5283265 12.8052245 10.5854694 12.8355918 10.6736327 12.8692245 10.7843265 12.8692245 10.8865306 12.8692245 11.0083265 12.8401633 11.1418776 12.7533061 11.7763265 12.3392653 13.6950204 9.51869388 13.2610612 8.2837551 12.9626122 7.43346939 12.9626122 7.43346939 13.3812245 7.20685714 14.2497959 6.73665306 14.7884304 5.82400002 14.7561039 5.24212246 14.7456549 5.06089797 14.2971424 4.49469393 14.2971424 4.49469393zM3.56212245 8.75918367C3.31461224 8.51167347 3.1284898 8.40032653 2.94857143 8.29257143 2.82383673 8.21779592 2.69518367 8.14073469 2.52571429 8.00653061 2.38269388 7.89387755 2.21126531 7.86808163 2.05453061 7.93502041 1.92685714 7.99020408 1.53795918 8.15771429 1.37077551 10.0512653 1.35477551 10.2308571 1.19118367 10.865004 1.37077551 10.881004 1.55493878 10.9005959 1.9134838 10.5979935 2.02122449 10.1087347 2.14537245 9.54496917 2.18579592 8.92310204 2.288 8.64457143 2.41240816 8.73306122 2.51722449 8.7957551 2.61289796 8.85289796 2.77877551 8.9524898 2.90971429 9.03053061 3.10008163 9.22089796 3.28979592 9.41028571 3.62155102 9.53697959 3.97257143 9.67085714 4.13289796 9.7322449 4.37453061 9.82465306 4.51297959 9.90138776L4.48391837 9.9275102C4.0202449 10.3435102 3.8955102 10.4555102 3.63820408 10.9694694 3.38612245 11.4742857 3.01093878 12.5717551 2.99526531 12.618449 2.93681633 12.788898 2.76005503 13.0940394 3.10008165 13.2612848 3.44192425 13.4294234 3.56702041 12.964898 3.61306122 12.8290612 3.61697959 12.8182857 3.98922449 11.7273469 4.22204082 11.2617143 4.42383673 10.8587755 4.47085714 10.8166531 4.91983673 10.4133878L5.02073469 10.3229388C5.23853061 10.1270204 5.25518367 9.93012245 5.23102041 9.79918367 5.16212245 9.42595918 4.71902041 9.25681633 4.20571429 9.06089796 3.97257143 8.97208163 3.65322449 8.84995918 3.56212245 8.75918367z"/>
    <path d="M8,16 C3.581722,16 0,12.418278 0,8 C0,3.581722 3.581722,0 8,0 C12.418278,0 16,3.581722 16,8 C16,12.418278 12.418278,16 8,16 Z M8,15 C11.8659932,15 15,11.8659932 15,8 C15,4.13400675 11.8659932,1 8,1 C4.13400675,1 1,4.13400675 1,8 C1,11.8659932 4.13400675,15 8,15 Z"/>
  </g>
</svg>
