<svg xmlns="http://www.w3.org/2000/svg" width="32" height="32" viewBox="0 0 32 32">
  <g fill="none" fill-rule="evenodd">
    <path fill="#3B65A3" d="M22.2971424 12.4946939C22.117224 12.5044898 21.979102 13.4759184 21.989551 13.6561633 22.0058776 13.9549388 21.6793469 14.3017143 21.0697143 14.6318367 20.1616327 15.1235918 20.292898 15.4981224 20.6445714 16.4989388 20.917551 17.2760816 19.4586122 19.6924082 18.8094694 20.1844898 18.7219592 20.0202449 18.6426122 19.5696327 18.6357551 19.1706122L18.6357551 18.298449C18.6357551 18.2726531 18.6357551 18.1936327 18.496 17.2169796 18.4940408 17.2052245 18.4917551 17.1934694 18.4891429 17.1817143L18.2713469 16.3366531C18.2582857 16.2863673 18.2331429 16.2393469 18.1982041 16.2004898L17.4896327 15.4099592C17.456 15.3727347 17.4148571 15.3436735 17.3684898 15.3250612 17.3097143 15.3012245 15.9180408 14.7405714 15.2711837 14.5998367 15.2411429 14.5933061 15.1608163 14.576 15.1405714 14.4016327 15.1085714 14.1299592 15.2702041 13.7453061 15.5614694 13.605551 15.7247347 13.5271837 15.8337959 13.5402449 15.9490612 13.5536327 16.0636735 13.5673469 16.2553469 13.589551 16.4075102 13.4413061 16.5877551 13.2666122 16.5851429 13.0011429 16.5361633 12.4378776 16.4986122 12.004898 16.3526531 11.6822857 16.1022041 11.4785306 15.7110204 11.1608163 15.1875918 11.2238367 14.8058776 11.2692245 14.699102 11.2822857 14.6004898 11.2950204 14.517551 11.2950204 13.7668571 11.2950204 13.6463673 11.8625306 13.381551 13.1059592L13.3293061 13.3515102C13.3244082 13.3740408 13.3195102 13.3942857 13.3146122 13.4119184 13.2832653 13.3773061 13.2522449 13.3371429 13.2316735 13.3022041 13.1813878 13.1715918 13.1098776 12.4721633 13.0749388 11.9010612 13.0661224 11.7570612 12.9635918 11.6359184 12.8231837 11.6032653 12.6834286 11.5709388 12.5374694 11.6339592 12.4656327 11.7593469L11.9206531 12.7134694C11.904 12.7428571 11.9000816 12.7457959 11.892898 12.778449 11.8915918 12.7810612 11.7782857 13.0318367 11.0870204 13.2757551 10.9822041 13.3129796 10.9296327 13.3133061 10.9227755 13.3198367 10.832 13.1533061 11.0008163 12.4143673 11.2770612 11.7789388 11.348898 11.6133878 11.892898 9.96891274 11.3044897 10.4825846 10.7160815 10.9962566 10.7500408 11.3528163 10.6782041 11.5183673 10.4551837 12.0300408 9.98628571 13.274449 10.4466939 13.7694694 10.5828571 13.9154286 10.8414694 14.0551837 11.3044898 13.8922449 12.196898 13.5768163 12.4395102 13.1879184 12.5048163 13.0073469 12.5564082 13.3093878 12.6034286 13.5170612 12.6566531 13.6094694 12.7137959 13.7090612 13.0236735 14.2011429 13.4481633 14.1355102 13.7100408 14.0950204 13.8847347 13.8772245 13.968 13.4889796L14.0205714 13.2421224C14.2772245 12.0362449 14.3268571 11.9484082 14.517551 11.9484082 14.6311837 11.9484082 14.7539592 11.9337143 14.8835918 11.9180408 15.179102 11.8821224 15.5141224 11.8426122 15.690449 11.9856327 15.7982041 12.0731429 15.8638367 12.2442449 15.8857143 12.4946939 15.9020408 12.6837551 15.908898 12.8097959 15.9108571 12.8940408 15.7567347 12.8819592 15.5405714 12.8914286 15.2790204 13.0171429 14.6896327 13.2999184 14.4336327 13.9810612 14.4920816 14.4783673 14.539102 14.8777143 14.778449 15.1617959 15.1330612 15.2388571 15.6486531 15.3508571 16.7644082 15.7880816 17.0543673 15.9030204L17.659102 16.5769796 17.8524082 17.3276735C17.9137959 17.7580408 17.9794286 18.2383673 17.9830204 18.299102L17.9830204 19.1764898C17.989551 19.5826939 18.0558367 20.554449 18.5283265 20.8052245 18.5854694 20.8355918 18.6736327 20.8692245 18.7843265 20.8692245 18.8865306 20.8692245 19.0083265 20.8401633 19.1418776 20.7533061 19.7763265 20.3392653 21.6950204 17.5186939 21.2610612 16.2837551 20.9626122 15.4334694 20.9626122 15.4334694 21.3812245 15.2068571 22.2497959 14.7366531 22.7884304 13.824 22.7561039 13.2421225 22.7456549 13.060898 22.2971424 12.4946939 22.2971424 12.4946939zM11.5621224 16.7591837C11.3146122 16.5116735 11.1284898 16.4003265 10.9485714 16.2925714 10.8238367 16.2177959 10.6951837 16.1407347 10.5257143 16.0065306 10.3826939 15.8938776 10.2112653 15.8680816 10.0545306 15.9350204 9.92685714 15.9902041 9.53795918 16.1577143 9.37077551 18.0512653 9.35477551 18.2308571 9.19118367 18.865004 9.37077551 18.881004 9.55493878 18.9005959 9.9134838 18.5979935 10.0212245 18.1087347 10.1453725 17.5449692 10.1857959 16.923102 10.288 16.6445714 10.4124082 16.7330612 10.5172245 16.7957551 10.612898 16.852898 10.7787755 16.9524898 10.9097143 17.0305306 11.1000816 17.220898 11.2897959 17.4102857 11.621551 17.5369796 11.9725714 17.6708571 12.132898 17.7322449 12.3745306 17.8246531 12.5129796 17.9013878L12.4839184 17.9275102C12.0202449 18.3435102 11.8955102 18.4555102 11.6382041 18.9694694 11.3861224 19.4742857 11.0109388 20.5717551 10.9952653 20.618449 10.9368163 20.788898 10.760055 21.0940394 11.1000816 21.2612848 11.4419242 21.4294234 11.5670204 20.964898 11.6130612 20.8290612 11.6169796 20.8182857 11.9892245 19.7273469 12.2220408 19.2617143 12.4238367 18.8587755 12.4708571 18.8166531 12.9198367 18.4133878L13.0207347 18.3229388C13.2385306 18.1270204 13.2551837 17.9301224 13.2310204 17.7991837 13.1621224 17.4259592 12.7190204 17.2568163 12.2057143 17.060898 11.9725714 16.9720816 11.6532245 16.8499592 11.5621224 16.7591837z"/>
    <path fill="#3B65A3" d="M16,24 C11.581722,24 8,20.418278 8,16 C8,11.581722 11.581722,8 16,8 C20.418278,8 24,11.581722 24,16 C24,20.418278 20.418278,24 16,24 Z M16,23 C19.8659932,23 23,19.8659932 23,16 C23,12.1340068 19.8659932,9 16,9 C12.1340068,9 9,12.1340068 9,16 C9,19.8659932 12.1340068,23 16,23 Z"/>
  </g>
</svg>
